<svg width="20" height="20" viewBox="0 0 20 20" fill="none" xmlns="http://www.w3.org/2000/svg">
<path d="M17.2172 5.99214L13.7815 2.49996C13.6679 2.38327 13.5326 2.29064 13.3835 2.22742C13.2344 2.1642 13.0745 2.13165 12.913 2.13165C12.7514 2.13165 12.5915 2.1642 12.4424 2.22742C12.2934 2.29064 12.1581 2.38327 12.0445 2.49996L2.82121 11.875C2.69962 11.9963 2.60524 12.1428 2.54451 12.3046L2.52914 12.3437C2.48327 12.4768 2.45988 12.6168 2.45996 12.7578V16.25C2.45996 16.5815 2.58953 16.8994 2.82015 17.1338C3.05078 17.3683 3.36357 17.5 3.68973 17.5H16.6023C16.7653 17.5 16.9217 17.4341 17.0371 17.3169C17.1524 17.1997 17.2172 17.0407 17.2172 16.875C17.2172 16.7092 17.1524 16.5502 17.0371 16.433C16.9217 16.3158 16.7653 16.25 16.6023 16.25H8.86243L17.2172 7.75777C17.4453 7.52244 17.5732 7.20533 17.5732 6.87496C17.5732 6.54458 17.4453 6.22747 17.2172 5.99214ZM11.0683 5.25777L12.3519 6.56246L5.22693 13.8046L3.94337 12.5L11.0683 5.25777ZM3.68973 16.25V14.0078L5.89562 16.25H3.68973ZM7.37903 15.9921L6.09546 14.6875L13.2204 7.44527L14.504 8.74996L7.37903 15.9921Z" fill="black"/>
</svg>
