<svg width="21" height="20" viewBox="0 0 21 20" fill="none" xmlns="http://www.w3.org/2000/svg">
<path d="M17.1169 3.75H14.0425V3.125C14.0405 2.62835 13.8455 2.15263 13.5 1.80145C13.1545 1.45026 12.6865 1.25206 12.1979 1.25H8.50856C8.01995 1.25206 7.55193 1.45026 7.20643 1.80145C6.86093 2.15263 6.66593 2.62835 6.66391 3.125V3.75H3.58949C3.42642 3.75 3.27002 3.81585 3.1547 3.93306C3.03939 4.05027 2.97461 4.20924 2.97461 4.375C2.97461 4.54076 3.03939 4.69973 3.1547 4.81694C3.27002 4.93415 3.42642 5 3.58949 5H4.20438V16.25C4.20438 16.5815 4.33394 16.8995 4.56457 17.1339C4.79519 17.3683 5.10799 17.5 5.43414 17.5H15.2723C15.5984 17.5 15.9112 17.3683 16.1418 17.1339C16.3725 16.8995 16.502 16.5815 16.502 16.25V5H17.1169C17.28 5 17.4364 4.93415 17.5517 4.81694C17.667 4.69973 17.7318 4.54076 17.7318 4.375C17.7318 4.20924 17.667 4.05027 17.5517 3.93306C17.4364 3.81585 17.28 3.75 17.1169 3.75ZM9.12344 13.125C9.12344 13.2908 9.05866 13.4497 8.94335 13.5669C8.82803 13.6842 8.67163 13.75 8.50856 13.75C8.34548 13.75 8.18908 13.6842 8.07377 13.5669C7.95846 13.4497 7.89367 13.2908 7.89367 13.125V8.125C7.89367 7.95924 7.95846 7.80027 8.07377 7.68306C8.18908 7.56585 8.34548 7.5 8.50856 7.5C8.67163 7.5 8.82803 7.56585 8.94335 7.68306C9.05866 7.80027 9.12344 7.95924 9.12344 8.125V13.125ZM12.8127 13.125C12.8127 13.2908 12.748 13.4497 12.6326 13.5669C12.5173 13.6842 12.3609 13.75 12.1979 13.75C12.0348 13.75 11.8784 13.6842 11.7631 13.5669C11.6478 13.4497 11.583 13.2908 11.583 13.125V8.125C11.583 7.95924 11.6478 7.80027 11.7631 7.68306C11.8784 7.56585 12.0348 7.5 12.1979 7.5C12.3609 7.5 12.5173 7.56585 12.6326 7.68306C12.748 7.80027 12.8127 7.95924 12.8127 8.125V13.125ZM12.8127 3.75H7.89367V3.125C7.89367 2.95924 7.95846 2.80027 8.07377 2.68306C8.18908 2.56585 8.34548 2.5 8.50856 2.5H12.1979C12.3609 2.5 12.5173 2.56585 12.6326 2.68306C12.748 2.80027 12.8127 2.95924 12.8127 3.125V3.75Z" fill="black"/>
</svg>
