<svg width="21" height="20" viewBox="0 0 21 20" fill="none" xmlns="http://www.w3.org/2000/svg">
<path d="M10.5 8.75C10.3342 8.75 10.1753 8.81585 10.0581 8.93306C9.94085 9.05027 9.875 9.20924 9.875 9.375V16.875C9.875 17.0408 9.94085 17.1997 10.0581 17.3169C10.1753 17.4342 10.3342 17.5 10.5 17.5C10.6658 17.5 10.8247 17.4342 10.9419 17.3169C11.0592 17.1997 11.125 17.0408 11.125 16.875V9.375C11.125 9.20924 11.0592 9.05027 10.9419 8.93306C10.8247 8.81585 10.6658 8.75 10.5 8.75Z" fill="#686868"/>
<path d="M16.125 15C15.9592 15 15.8003 15.0658 15.6831 15.1831C15.5658 15.3003 15.5 15.4592 15.5 15.625V16.875C15.5 17.0408 15.5658 17.1997 15.6831 17.3169C15.8003 17.4342 15.9592 17.5 16.125 17.5C16.2908 17.5 16.4497 17.4342 16.5669 17.3169C16.6842 17.1997 16.75 17.0408 16.75 16.875V15.625C16.75 15.4592 16.6842 15.3003 16.5669 15.1831C16.4497 15.0658 16.2908 15 16.125 15Z" fill="#686868"/>
<path d="M18 12.5H16.75V3.125C16.75 2.95924 16.6842 2.80027 16.5669 2.68306C16.4497 2.56585 16.2908 2.5 16.125 2.5C15.9592 2.5 15.8003 2.56585 15.6831 2.68306C15.5658 2.80027 15.5 2.95924 15.5 3.125V12.5H14.25C14.0842 12.5 13.9253 12.5658 13.8081 12.6831C13.6908 12.8003 13.625 12.9592 13.625 13.125C13.625 13.2908 13.6908 13.4497 13.8081 13.5669C13.9253 13.6842 14.0842 13.75 14.25 13.75H18C18.1658 13.75 18.3247 13.6842 18.4419 13.5669C18.5592 13.4497 18.625 13.2908 18.625 13.125C18.625 12.9592 18.5592 12.8003 18.4419 12.6831C18.3247 12.5658 18.1658 12.5 18 12.5Z" fill="#686868"/>
<path d="M4.875 12.5C4.70924 12.5 4.55027 12.5658 4.43306 12.6831C4.31585 12.8003 4.25 12.9592 4.25 13.125V16.875C4.25 17.0408 4.31585 17.1997 4.43306 17.3169C4.55027 17.4342 4.70924 17.5 4.875 17.5C5.04076 17.5 5.19973 17.4342 5.31694 17.3169C5.43415 17.1997 5.5 17.0408 5.5 16.875V13.125C5.5 12.9592 5.43415 12.8003 5.31694 12.6831C5.19973 12.5658 5.04076 12.5 4.875 12.5Z" fill="#686868"/>
<path d="M6.75 10H5.5V3.125C5.5 2.95924 5.43415 2.80027 5.31694 2.68306C5.19973 2.56585 5.04076 2.5 4.875 2.5C4.70924 2.5 4.55027 2.56585 4.43306 2.68306C4.31585 2.80027 4.25 2.95924 4.25 3.125V10H3C2.83424 10 2.67527 10.0658 2.55806 10.1831C2.44085 10.3003 2.375 10.4592 2.375 10.625C2.375 10.7908 2.44085 10.9497 2.55806 11.0669C2.67527 11.1842 2.83424 11.25 3 11.25H6.75C6.91576 11.25 7.07473 11.1842 7.19194 11.0669C7.30915 10.9497 7.375 10.7908 7.375 10.625C7.375 10.4592 7.30915 10.3003 7.19194 10.1831C7.07473 10.0658 6.91576 10 6.75 10Z" fill="#686868"/>
<path d="M12.375 6.25H11.125V3.125C11.125 2.95924 11.0592 2.80027 10.9419 2.68306C10.8247 2.56585 10.6658 2.5 10.5 2.5C10.3342 2.5 10.1753 2.56585 10.0581 2.68306C9.94085 2.80027 9.875 2.95924 9.875 3.125V6.25H8.625C8.45924 6.25 8.30027 6.31585 8.18306 6.43306C8.06585 6.55027 8 6.70924 8 6.875C8 7.04076 8.06585 7.19973 8.18306 7.31694C8.30027 7.43415 8.45924 7.5 8.625 7.5H12.375C12.5408 7.5 12.6997 7.43415 12.8169 7.31694C12.9342 7.19973 13 7.04076 13 6.875C13 6.70924 12.9342 6.55027 12.8169 6.43306C12.6997 6.31585 12.5408 6.25 12.375 6.25Z" fill="#686868"/>
</svg>
