<svg width="419" height="402" viewBox="0 0 419 402" fill="none" xmlns="http://www.w3.org/2000/svg">
<g clip-path="url(#clip0_302_4)">
<path d="M52.255 373.56C30.0732 359.393 12.2639 339.261 10.9842 314.016C8.63802 270.983 50.1221 244.779 81.5818 217.83C97.8981 203.876 113.575 188.218 120.293 168.618C130.531 139.219 121.253 108.01 108.136 80.9539C102.271 68.8108 94.1656 54.5374 96.8317 40.2639C104.937 -3.08903 163.91 -2.66296 201.555 1.91733C252.424 7.98887 306.812 19.8124 347.549 48.5723C444.914 117.277 397.458 256.07 328.46 328.609C323.341 333.935 318.009 339.048 312.464 343.948C297.854 356.517 281.644 367.701 263.941 376.649C214.246 401.893 152.286 409.137 98.2181 393.798C82.4349 389.537 66.3318 382.614 52.255 373.56Z" fill="#F3F3F3"/>
<path d="M0.533203 384.851H418.467" stroke="#333333" stroke-miterlimit="10" stroke-linecap="round" stroke-linejoin="round"/>
<path d="M254.237 168.938V12.2496H263.941" stroke="#333333" stroke-miterlimit="10" stroke-linecap="round" stroke-linejoin="round"/>
<path d="M254.237 187.685V183.424" stroke="#333333" stroke-miterlimit="10" stroke-linecap="round" stroke-linejoin="round"/>
<path d="M289.002 12.2496H389.247V202.278H254.237" stroke="#333333" stroke-miterlimit="10" stroke-linecap="round" stroke-linejoin="round"/>
<path d="M276.632 12.2496H285.483" stroke="#333333" stroke-miterlimit="10" stroke-linecap="round" stroke-linejoin="round"/>
<path d="M384.128 17.256H259.356V197.165H384.128V17.256Z" stroke="#333333" stroke-miterlimit="10" stroke-linecap="round" stroke-linejoin="round"/>
<path d="M378.369 26.9491V101.618H265.114V96.7186" stroke="#333333" stroke-miterlimit="10" stroke-linecap="round" stroke-linejoin="round"/>
<path d="M265.114 85.3211V22.5819H378.369" stroke="#333333" stroke-miterlimit="10" stroke-linecap="round" stroke-linejoin="round"/>
<path d="M265.114 92.9905V88.3036" stroke="#333333" stroke-miterlimit="10" stroke-linecap="round" stroke-linejoin="round"/>
<path d="M359.173 107.264H384.128" stroke="#333333" stroke-miterlimit="10" stroke-linecap="round" stroke-linejoin="round"/>
<path d="M350.322 107.264H353.841" stroke="#333333" stroke-miterlimit="10" stroke-linecap="round" stroke-linejoin="round"/>
<path d="M259.356 107.264H346.163" stroke="#333333" stroke-miterlimit="10" stroke-linecap="round" stroke-linejoin="round"/>
<path d="M315.45 101.618V99.062H325.901V100.553H321.742V101.618" stroke="#333333" stroke-miterlimit="10" stroke-linecap="round" stroke-linejoin="round"/>
<path d="M259.569 174.583C259.569 174.583 261.275 175.862 262.555 183.851C262.555 183.851 264.688 171.175 267.141 170.962C269.7 170.749 269.167 179.164 269.167 179.164C269.167 179.164 269.593 175.01 271.62 175.223C273.646 175.436 271.62 183.851 271.62 183.851C271.62 183.851 273.966 177.353 276.312 177.459C278.551 177.566 274.819 189.283 274.819 189.283C274.819 189.283 280.577 185.129 282.924 187.153C285.27 189.176 281.644 194.396 281.644 194.396C281.644 194.396 289.962 192.585 291.242 197.485" stroke="#333333" stroke-miterlimit="10" stroke-linecap="round" stroke-linejoin="round"/>
<path d="M291.135 192.692C291.135 192.692 294.761 190.348 297.64 191.413C297.64 191.413 295.827 188.644 297.64 186.94C299.453 185.235 301.799 191.413 301.799 191.413C301.799 191.413 302.013 181.081 305.639 181.614C309.264 182.146 305.639 191.413 305.639 191.413C305.639 191.413 312.144 185.661 313.637 187.685C315.13 189.709 312.57 192.692 312.57 192.692C312.57 192.692 316.409 191.413 319.289 194.396C319.289 194.396 323.661 189.922 328.46 189.39C328.46 189.39 325.261 180.122 326.861 178.205C328.46 176.288 331.233 186.3 331.233 186.3C331.233 186.3 332.513 179.803 336.565 179.27C336.565 179.27 333.152 177.459 334.219 174.69C335.285 171.921 339.871 175.329 339.871 175.329C339.871 175.329 337.951 170.429 340.937 169.151C343.923 167.766 345.203 173.199 345.203 173.199C345.203 173.199 346.056 167.553 349.575 167.873C353.095 168.192 352.028 174.69 352.028 174.69C352.028 174.69 355.441 169.471 357.147 170.003C360.773 171.068 359.6 179.27 359.6 179.27C359.6 179.27 364.612 175.755 365.892 177.353C367.278 179.057 360.666 183.531 360.666 183.531C360.666 183.531 365.679 184.064 368.771 186.94" stroke="#333333" stroke-miterlimit="10" stroke-linecap="round" stroke-linejoin="round"/>
<path d="M384.128 176.394C384.128 176.394 383.595 171.175 378.369 170.855C373.144 170.536 379.755 182.359 379.755 182.359C379.755 182.359 375.49 178.844 373.89 179.909C372.29 180.975 378.262 187.046 378.262 187.046C378.262 187.046 375.383 184.383 372.397 185.235C369.411 186.087 374.103 194.502 374.103 194.502C374.103 194.502 367.811 192.905 360.773 196.1" stroke="#333333" stroke-miterlimit="10" stroke-linecap="round" stroke-linejoin="round"/>
<path d="M205.927 338.196V384.531" stroke="#333333" stroke-miterlimit="10" stroke-linecap="round" stroke-linejoin="round"/>
<path d="M205.927 322.963V332.976" stroke="#333333" stroke-miterlimit="10" stroke-linecap="round" stroke-linejoin="round"/>
<path d="M10.5576 384.851V298.464H205.927V317.424" stroke="#333333" stroke-miterlimit="10" stroke-linecap="round" stroke-linejoin="round"/>
<path d="M39.0313 307.838H22.0751V376.862" stroke="#333333" stroke-miterlimit="10" stroke-linecap="round" stroke-linejoin="round"/>
<path d="M194.517 384.531V307.838H48.9491" stroke="#333333" stroke-miterlimit="10" stroke-linecap="round" stroke-linejoin="round"/>
<path d="M186.305 289.517H180.973" stroke="#333333" stroke-miterlimit="10" stroke-linecap="round" stroke-linejoin="round"/>
<path d="M173.188 289.517H5.75867V298.358H210.833V289.517H189.824" stroke="#333333" stroke-miterlimit="10" stroke-linecap="round" stroke-linejoin="round"/>
<path d="M17.2761 232.529C17.2761 232.529 33.3792 233.808 34.0191 245.631C34.0191 245.631 17.8093 253.087 17.2761 232.529Z" stroke="#333333" stroke-miterlimit="10" stroke-linecap="round" stroke-linejoin="round"/>
<path d="M49.0557 235.512C49.0557 235.512 58.0137 223.369 72.5171 229.653C72.5171 229.547 63.6657 244.246 49.0557 235.512Z" stroke="#333333" stroke-miterlimit="10" stroke-linecap="round" stroke-linejoin="round"/>
<path d="M71.2375 197.272C71.2375 197.272 73.7969 220.599 52.575 214.208C52.6816 214.102 59.4001 197.059 71.2375 197.272Z" stroke="#333333" stroke-miterlimit="10" stroke-linecap="round" stroke-linejoin="round"/>
<path d="M45.2166 184.277C45.2166 184.277 61.9595 193.331 49.6956 207.072C49.6956 207.072 37.8582 197.272 45.2166 184.277Z" stroke="#333333" stroke-miterlimit="10" stroke-linecap="round" stroke-linejoin="round"/>
<path d="M24.5278 205.154C24.5278 205.154 42.7638 203.343 42.7638 220.173C42.7638 220.173 24.5278 220.919 24.5278 205.154Z" stroke="#333333" stroke-miterlimit="10" stroke-linecap="round" stroke-linejoin="round"/>
<path d="M38.2848 255.218C38.0715 249.572 38.0715 242.223 41.4841 234.553C49.4823 216.765 52.1484 201.852 47.9893 191.307" stroke="#333333" stroke-miterlimit="10" stroke-linecap="round" stroke-linejoin="round"/>
<path d="M30.4999 209.628C30.4999 209.628 41.4841 213.995 45.2166 225.18" stroke="#333333" stroke-miterlimit="10" stroke-linecap="round" stroke-linejoin="round"/>
<path d="M65.4788 206.539C65.4788 206.539 59.1868 215.167 48.4159 214.208" stroke="#333333" stroke-miterlimit="10" stroke-linecap="round" stroke-linejoin="round"/>
<path d="M65.4787 232.103C65.4787 232.103 47.9892 237.11 40.9508 235.512" stroke="#333333" stroke-miterlimit="10" stroke-linecap="round" stroke-linejoin="round"/>
<path d="M22.5016 237.855C22.5016 237.855 30.2865 246.483 38.1781 246.27" stroke="#333333" stroke-miterlimit="10" stroke-linecap="round" stroke-linejoin="round"/>
<path d="M59.0801 255.218H21.0086C20.4754 255.218 20.0488 255.644 20.0488 256.176V259.052C20.0488 259.585 20.4754 260.011 21.0086 260.011H22.075L25.4876 289.623H54.4945L57.9071 260.011H58.9735C59.5067 260.011 59.9333 259.585 59.9333 259.052V256.176C59.9333 255.644 59.6134 255.218 59.0801 255.218Z" stroke="#333333" stroke-miterlimit="10"/>
<path d="M24.5278 259.905H46.7096" stroke="#333333" stroke-miterlimit="10" stroke-linecap="round" stroke-linejoin="round"/>
<path d="M50.8687 259.905H54.1746" stroke="#333333" stroke-miterlimit="10" stroke-linecap="round" stroke-linejoin="round"/>
<path d="M85.2077 384.851C85.2077 384.851 83.3948 377.927 85.5276 375.37C89.3668 370.79 85.1011 366.849 88.9402 365.251L90.5399 367.169C90.8598 365.251 90.0067 359.499 97.0451 358.754C105.683 357.795 105.79 364.079 106.323 366.21L106.216 363.334C109.842 363.334 108.029 366.956 113.575 373.027C117.84 377.607 117.84 383.466 117.627 385.064H85.2077V384.851Z" fill="#333333"/>
<path d="M150.9 384.851C147.487 383.253 150.58 370.258 150.58 370.258C150.58 370.258 145.888 367.169 150.58 363.866C150.58 363.866 155.805 368.979 163.804 365.997C163.804 365.997 164.763 357.262 170.202 358.434C170.202 358.434 171.588 363.973 174.788 367.169C183.533 375.69 194.73 376.755 196.543 380.803C197.076 382.081 196.436 384.851 196.436 384.851H150.9Z" fill="#333333"/>
<path d="M136.076 176.501L140.342 185.555C140.342 185.555 157.938 221.984 168.816 263.633C169.029 264.591 174.681 284.404 170.202 333.509L172.762 342.137L169.989 356.41C169.989 356.41 174.148 362.482 174.041 364.399C174.041 364.399 163.697 366.316 160.178 368.234C157.512 369.725 149.407 377.607 149.407 377.607C147.167 377.181 146.954 367.914 146.954 367.914C146.954 367.914 142.155 285.789 140.769 282.273C139.382 278.758 130.958 263.526 117.84 228.588C117.84 228.588 117.521 277.374 114.001 289.623C110.909 300.595 114.535 331.272 114.535 331.272L112.402 365.464C112.402 365.464 119.76 373.134 113.788 375.157C113.788 375.157 109.842 367.488 98.4315 365.677C92.6727 364.825 85.421 375.051 85.421 375.051C82.8616 374.199 86.4875 361.31 86.4875 361.31C78.3826 300.488 84.3546 311.459 82.7549 281.741C81.6885 262.674 76.2497 180.975 82.6483 174.37L136.076 176.501Z" fill="#C0C0C0"/>
<path opacity="0.2" d="M79.6624 204.622C108.136 206.859 132.877 197.591 143.541 192.692C141.515 188.111 140.236 185.555 140.236 185.555L135.97 176.501L82.6484 174.583C80.4089 177.033 79.6624 189.176 79.6624 204.622Z" fill="black"/>
<path opacity="0.2" d="M118.054 229.334C131.064 263.739 139.382 278.865 140.769 282.38C141.515 284.404 143.435 312.312 144.928 335.639C146.634 314.335 148.447 291.86 148.554 287.493C148.874 278.758 142.475 266.722 141.622 263.633C140.662 260.544 142.795 257.135 142.795 257.135L131.384 242.755C131.811 237.855 125.732 216.552 125.732 216.552C122.106 219.96 118.907 227.204 118.054 229.334Z" fill="black"/>
<path d="M136.076 176.501L140.342 185.555C140.342 185.555 157.938 221.984 168.816 263.633C169.029 264.591 174.681 284.404 170.202 333.509L172.762 342.137L169.989 356.41C169.989 356.41 174.148 362.482 174.041 364.399C174.041 364.399 163.697 366.316 160.178 368.234C157.512 369.725 149.407 377.607 149.407 377.607C147.167 377.181 146.954 367.914 146.954 367.914C146.954 367.914 142.155 285.789 140.769 282.273C139.382 278.758 130.958 263.526 117.84 228.588C117.84 228.588 117.521 277.374 114.001 289.623C110.909 300.595 114.535 331.272 114.535 331.272L112.402 365.464C112.402 365.464 119.76 373.134 113.788 375.157C113.788 375.157 109.842 367.488 98.4315 365.677C92.6727 364.825 85.421 375.051 85.421 375.051C82.8616 374.199 86.4875 361.31 86.4875 361.31C78.3826 300.488 84.3546 311.459 82.7549 281.741C81.6885 262.674 76.2497 180.975 82.6483 174.37L136.076 176.501Z" stroke="#333333" stroke-miterlimit="10" stroke-linecap="round" stroke-linejoin="round"/>
<path d="M117.84 228.695C117.84 228.695 124.346 216.126 129.891 212.611" stroke="#333333" stroke-miterlimit="10" stroke-linecap="round" stroke-linejoin="round"/>
<path d="M132.344 208.563C132.344 208.563 112.508 214.528 105.683 215.7" stroke="#333333" stroke-miterlimit="10" stroke-linecap="round" stroke-linejoin="round"/>
<path d="M122.213 188.324C123.066 204.835 128.931 207.604 123.279 211.226C123.279 211.226 123.386 218.895 120.613 223.795" stroke="#333333" stroke-miterlimit="10" stroke-linecap="round" stroke-linejoin="round"/>
<path d="M87.5539 182.04C87.5539 182.04 89.9 207.391 82.1151 212.078" stroke="#333333" stroke-miterlimit="10" stroke-linecap="round" stroke-linejoin="round"/>
<path d="M82.0085 190.242C82.0085 190.242 81.4753 207.072 82.0085 220.706C82.0085 220.706 83.928 278.119 85.9543 285.256C87.8738 292.499 82.9682 303.364 83.3948 334.467" stroke="#333333" stroke-miterlimit="10" stroke-linecap="round" stroke-linejoin="round"/>
<path d="M100.778 358.86C98.9647 358.541 96.9385 358.647 95.3389 359.606" stroke="#333333" stroke-miterlimit="10" stroke-linecap="round" stroke-linejoin="round"/>
<path d="M112.508 365.677C110.056 363.334 107.176 361.31 104.083 359.925" stroke="#333333" stroke-miterlimit="10" stroke-linecap="round" stroke-linejoin="round"/>
<path d="M109.202 232.636C104.83 237.536 97.8982 246.803 90.7532 247.548" stroke="#333333" stroke-miterlimit="10" stroke-linecap="round" stroke-linejoin="round"/>
<path d="M115.921 224.647C114.535 226.351 113.148 228.056 111.762 229.653" stroke="#333333" stroke-miterlimit="10" stroke-linecap="round" stroke-linejoin="round"/>
<path d="M109.736 281.954C109.736 281.954 99.8178 295.482 94.379 296.227" stroke="#333333" stroke-miterlimit="10" stroke-linecap="round" stroke-linejoin="round"/>
<path d="M121.36 226.245C121.36 226.245 139.062 275.456 145.248 280.356C145.248 280.356 145.994 316.572 146.101 329.248C146.314 341.924 149.194 358.754 149.194 358.754" stroke="#333333" stroke-miterlimit="10" stroke-linecap="round" stroke-linejoin="round"/>
<path d="M168.176 358.327C168.176 358.327 161.351 360.671 158.045 362.162C154.739 363.653 153.566 366.955 153.566 366.955" stroke="#333333" stroke-miterlimit="10" stroke-linecap="round" stroke-linejoin="round"/>
<path d="M150.9 262.568C141.409 256.603 128.825 249.146 123.812 238.707" stroke="#333333" stroke-miterlimit="10" stroke-linecap="round" stroke-linejoin="round"/>
<path d="M159.218 267.467C157.405 266.509 155.699 265.444 153.886 264.378" stroke="#333333" stroke-miterlimit="10" stroke-linecap="round" stroke-linejoin="round"/>
<path d="M129.251 195.035C124.132 194.928 118.587 194.289 114.215 191.413" stroke="#333333" stroke-miterlimit="10" stroke-linecap="round" stroke-linejoin="round"/>
<path d="M137.356 194.502C135.863 194.715 134.37 194.822 132.984 194.928" stroke="#333333" stroke-miterlimit="10" stroke-linecap="round" stroke-linejoin="round"/>
<path d="M146.847 81.4865C142.901 75.628 123.066 74.0302 110.269 74.0302C97.4716 74.0302 82.0084 71.8998 74.9699 86.2798C69.6378 97.2512 81.9017 155.304 81.9017 155.304L78.9157 180.335C102.057 187.579 141.622 185.981 141.622 185.981L136.29 163.293C136.396 163.399 150.793 87.345 146.847 81.4865Z" fill="#333333"/>
<path d="M102.697 59.4372C102.697 59.4372 104.403 73.0715 99.1779 76.054C99.1779 76.054 101.737 86.0668 110.909 86.7059C119.973 87.345 124.132 77.5453 124.132 77.5453L102.697 59.4372Z" fill="white" stroke="#333333" stroke-miterlimit="10" stroke-linecap="round" stroke-linejoin="round"/>
<path d="M178.2 40.69L150.9 43.2464L149.3 26.5231C149.193 25.4579 150.047 24.3927 151.113 24.3927L174.468 22.2623C175.534 22.1558 176.601 23.0079 176.601 24.0731L178.2 40.69Z" fill="#319C69"/>
<path opacity="0.3" d="M178.2 40.69L150.9 43.2464L149.3 26.5231C149.193 25.4579 150.047 24.3927 151.113 24.3927L174.468 22.2623C175.534 22.1558 176.601 23.0079 176.601 24.0731L178.2 40.69Z" fill="black"/>
<path opacity="0.3" d="M175.117 23.903L168.427 24.5196L169.671 37.9906L176.362 37.374L175.117 23.903Z" fill="#F3F3F3"/>
<path d="M178.2 40.69L150.9 43.2464L149.3 26.5231C149.193 25.4579 150.047 24.3927 151.113 24.3927L174.468 22.2623C175.534 22.1558 176.601 23.0079 176.601 24.0731L178.2 40.69Z" stroke="#333333" stroke-miterlimit="10" stroke-linecap="round" stroke-linejoin="round"/>
<path d="M218.511 36.9618L191.211 39.5183L189.718 22.9014C189.611 21.8362 190.464 20.7711 191.531 20.7711L214.885 18.6407C215.952 18.5342 217.018 19.3863 217.018 20.4515L218.511 36.9618Z" fill="#319C69"/>
<path opacity="0.3" d="M218.511 36.9618L191.211 39.5183L189.718 22.9014C189.611 21.8362 190.464 20.7711 191.531 20.7711L214.885 18.6407C215.952 18.5342 217.018 19.3863 217.018 20.4515L218.511 36.9618Z" fill="black"/>
<path opacity="0.3" d="M215.006 20.1928L210.97 20.5647L212.215 34.0357L216.25 33.6638L215.006 20.1928Z" fill="#F3F3F3"/>
<path d="M218.511 36.9618L191.211 39.5183L189.718 22.9014C189.611 21.8362 190.464 20.7711 191.531 20.7711L214.885 18.6407C215.952 18.5342 217.018 19.3863 217.018 20.4515L218.511 36.9618Z" stroke="#333333" stroke-miterlimit="10" stroke-linecap="round" stroke-linejoin="round"/>
<path d="M210.087 37.7075L182.786 40.2639L181.293 23.6471C181.186 22.5819 182.039 21.5167 183.106 21.5167L206.461 19.3863C207.527 19.2798 208.594 20.132 208.594 21.1971L210.087 37.7075Z" fill="#319C69" stroke="#333333" stroke-miterlimit="10" stroke-linecap="round" stroke-linejoin="round"/>
<path d="M250.398 33.9793L223.097 36.5358L221.604 19.9189C221.497 18.8537 222.35 17.7886 223.417 17.7886L246.772 15.6582C247.838 15.5517 248.905 16.4038 248.905 17.469L250.398 33.9793Z" fill="#319C69" stroke="#333333" stroke-miterlimit="10" stroke-linecap="round" stroke-linejoin="round"/>
<path opacity="0.3" d="M207.01 21.0241L200.32 21.6408L201.564 35.1118L208.255 34.4951L207.01 21.0241Z" fill="#F3F3F3"/>
<path opacity="0.3" d="M246.891 17.2983L240.201 17.9149L241.445 31.3859L248.136 30.7693L246.891 17.2983Z" fill="#F3F3F3"/>
<path d="M262.022 29.0795L269.06 105.666L145.568 117.064L138.529 40.477C138.316 37.814 140.235 35.4706 142.901 35.2576L256.796 24.7123C259.356 24.3927 261.702 26.31 262.022 29.0795Z" fill="#319C69"/>
<path opacity="0.3" d="M262.022 29.0795L269.06 105.666L145.568 117.064L138.529 40.477C138.316 37.814 140.235 35.4706 142.901 35.2576L256.796 24.7123C259.356 24.3927 261.702 26.31 262.022 29.0795Z" fill="black"/>
<path d="M262.022 29.0795L269.06 105.666L145.568 117.064L138.529 40.477C138.316 37.814 140.235 35.4706 142.901 35.2576L256.796 24.7123C259.356 24.3927 261.702 26.31 262.022 29.0795Z" stroke="#333333" stroke-miterlimit="10" stroke-linecap="round" stroke-linejoin="round"/>
<path d="M262.022 29.0795L269.06 105.666L177.454 114.081L170.415 37.4944C170.202 34.8315 172.122 32.4881 174.788 32.275L256.796 24.7123C259.356 24.3927 261.702 26.31 262.022 29.0795Z" fill="#319C69" stroke="#333333" stroke-miterlimit="10" stroke-linecap="round" stroke-linejoin="round"/>
<path opacity="0.3" d="M256.05 32.275L177.667 39.5183C176.601 39.6248 175.641 38.7727 175.534 37.7075C175.428 36.6423 176.281 35.6836 177.347 35.5771L255.73 28.3339C256.796 28.2274 257.756 29.0795 257.863 30.1447C257.969 31.2099 257.116 32.275 256.05 32.275Z" fill="#F3F3F3"/>
<path d="M118.374 32.3815C118.374 32.3815 100.351 28.7599 98.3248 40.3704C96.2986 51.9809 102.91 56.8808 102.91 56.8808L118.374 32.3815Z" fill="#333333"/>
<path d="M102.91 63.2719C101.097 58.0525 100.351 51.9809 101.951 45.2703C103.764 37.814 112.615 27.5882 126.052 36.8553C132.984 41.6486 133.41 52.0874 131.277 61.6741C130.744 63.911 131.171 66.1478 130.424 68.2782C127.758 75.628 122.853 81.2734 120.187 81.38C115.708 81.593 106.856 76.2671 107.176 71.5803" fill="white"/>
<path d="M102.91 63.2719C101.097 58.0525 100.351 51.9809 101.951 45.2703C103.764 37.814 112.615 27.5882 126.052 36.8553C132.984 41.6486 133.41 52.0874 131.277 61.6741C130.744 63.911 131.171 66.1478 130.424 68.2782C127.758 75.628 122.853 81.2734 120.187 81.38C115.708 81.593 106.856 76.2671 107.176 71.5803" stroke="#333333" stroke-miterlimit="10" stroke-linecap="round" stroke-linejoin="round"/>
<path d="M120.826 59.9698C120.826 59.9698 117.201 57.4133 113.788 59.5437" stroke="#333333" stroke-miterlimit="10" stroke-linecap="round" stroke-linejoin="round"/>
<path d="M127.652 59.4372C127.652 59.4372 130.318 56.9873 132.131 57.3068" stroke="#333333" stroke-miterlimit="10" stroke-linecap="round" stroke-linejoin="round"/>
<path d="M116.561 65.0827C116.973 65.0827 117.307 64.5581 117.307 63.911C117.307 63.2638 116.973 62.7393 116.561 62.7393C116.148 62.7393 115.814 63.2638 115.814 63.911C115.814 64.5581 116.148 65.0827 116.561 65.0827Z" fill="#333333"/>
<path d="M127.652 64.4436C128.064 64.4436 128.398 63.919 128.398 63.2719C128.398 62.6247 128.064 62.1002 127.652 62.1002C127.239 62.1002 126.905 62.6247 126.905 63.2719C126.905 63.919 127.239 64.4436 127.652 64.4436Z" fill="#333333"/>
<path d="M126.159 61.9936C124.879 63.6979 126.692 70.3021 126.159 70.7281C125.625 71.1542 122.213 69.876 122.213 69.876C122.213 69.876 121.466 68.9173 123.066 68.3847" stroke="#333333" stroke-miterlimit="10" stroke-linecap="round" stroke-linejoin="round"/>
<path d="M123.066 74.0302C123.066 74.0302 118.48 74.0302 117.307 72.3259" stroke="#333333" stroke-miterlimit="10" stroke-linecap="round" stroke-linejoin="round"/>
<path d="M112.188 49.4245L111.868 54.9634C111.868 54.9634 107.923 56.9873 106.963 59.0111C106.003 61.035 106.323 63.2718 106.323 63.2718C106.323 63.2718 103.977 59.1176 102.697 59.4372C102.271 59.5437 102.271 61.248 102.271 61.248C102.271 61.248 96.9384 49.318 101.737 43.0334C106.536 36.7488 112.188 49.4245 112.188 49.4245Z" fill="#757575" stroke="#333333" stroke-miterlimit="10" stroke-linecap="round" stroke-linejoin="round"/>
<path d="M104.723 62.1001C104.723 62.1001 103.657 58.159 100.031 57.0938C96.4052 56.0286 98.858 65.6152 101.951 66.8935C105.043 68.1717 105.79 69.0238 106.003 67.8521" fill="white"/>
<path d="M104.723 62.1001C104.723 62.1001 103.657 58.159 100.031 57.0938C96.4052 56.0286 98.858 65.6152 101.951 66.8935C105.043 68.1717 105.79 69.0238 106.003 67.8521" stroke="#333333" stroke-miterlimit="10" stroke-linecap="round" stroke-linejoin="round"/>
<path d="M99.8178 48.7854C99.4979 48.3593 98.2182 38.1335 104.937 33.5533C111.655 28.973 123.173 29.399 130.424 35.7901C137.676 42.1812 135.65 53.1526 130.424 56.9873V52.407C130.424 52.407 127.972 56.9873 120.826 57.4133L123.066 54.0048C123.066 54.0048 119.547 56.1351 113.255 55.9221C113.255 55.9221 116.134 53.5787 115.814 51.5548C115.814 51.4483 105.896 57.0938 99.8178 48.7854Z" fill="#333333"/>
<path d="M101.097 85.6407C96.0852 86.2798 89.0468 92.7774 93.6324 104.281C96.6184 111.631 120.826 107.264 120.826 107.264C129.784 103.536 143.008 90.221 152.606 84.0429C152.606 84.0429 150.58 71.2607 148.234 73.0716C137.356 81.38 128.398 82.0191 113.148 89.2623C113.148 89.3689 104.19 85.3212 101.097 85.6407Z" fill="white" stroke="#333333" stroke-miterlimit="10" stroke-linecap="round" stroke-linejoin="round"/>
<path d="M112.188 99.9142C112.082 104.707 114.001 105.56 117.307 106.625L112.188 99.9142Z" fill="white"/>
<path d="M112.188 99.9142C112.082 104.707 114.001 105.56 117.307 106.625" stroke="#333333" stroke-miterlimit="10" stroke-linecap="round" stroke-linejoin="round"/>
<path d="M147.487 74.0302C147.7 73.3911 151.753 66.2544 152.926 64.4436C154.099 62.6328 159.218 61.035 161.137 59.9698C163.057 58.9046 163.27 57.2003 164.337 58.372C165.51 59.5437 164.337 62.2067 158.471 65.0827C158.471 65.0827 163.164 65.2957 164.763 65.0827C166.363 64.8696 167.749 63.3784 168.496 64.4436C169.242 65.4022 169.349 67.213 165.83 68.2782C162.311 69.3434 160.604 69.3434 160.604 69.3434C160.604 69.3434 165.083 70.4086 165.616 70.8347C166.15 71.2607 167.003 72.2194 167.856 72.3259C168.709 72.4324 169.562 73.3911 168.069 74.4563C166.47 75.5215 164.443 74.5628 164.443 74.5628C164.443 74.5628 168.496 76.4801 167.216 77.7583C165.936 79.0366 161.884 78.717 161.884 78.717C161.884 78.717 155.805 86.0668 150.793 84.469" fill="white"/>
<path d="M147.487 74.0302C147.7 73.3911 151.753 66.2544 152.926 64.4436C154.099 62.6328 159.218 61.035 161.137 59.9698C163.057 58.9046 163.27 57.2003 164.337 58.372C165.51 59.5437 164.337 62.2067 158.471 65.0827C158.471 65.0827 163.164 65.2957 164.763 65.0827C166.363 64.8696 167.749 63.3784 168.496 64.4436C169.242 65.4022 169.349 67.213 165.83 68.2782C162.311 69.3434 160.604 69.3434 160.604 69.3434C160.604 69.3434 165.083 70.4086 165.616 70.8347C166.15 71.2607 167.003 72.2194 167.856 72.3259C168.709 72.4324 169.562 73.3911 168.069 74.4563C166.47 75.5215 164.443 74.5628 164.443 74.5628C164.443 74.5628 168.496 76.4801 167.216 77.7583C165.936 79.0366 161.884 78.717 161.884 78.717C161.884 78.717 155.805 86.0668 150.793 84.469" stroke="#333333" stroke-miterlimit="10" stroke-linecap="round" stroke-linejoin="round"/>
<path d="M154.739 64.4436C154.739 64.4436 155.912 64.5501 156.232 65.8283C156.552 67.1065 157.618 67.213 158.258 68.5978C158.898 69.9825 158.685 72.2194 159.325 72.965C159.964 73.7107 159.325 76.9062 159.325 76.9062" stroke="#333333" stroke-miterlimit="10" stroke-linecap="round" stroke-linejoin="round"/>
<path d="M102.164 84.7885C99.4979 81.4865 93.7391 82.9777 93.7391 82.9777" stroke="white" stroke-miterlimit="10" stroke-linecap="round" stroke-linejoin="round"/>
<path d="M90.4332 76.7997C90.4332 76.7997 96.5119 77.6518 98.2182 82.6582" stroke="white" stroke-miterlimit="10" stroke-linecap="round" stroke-linejoin="round"/>
<path d="M101.098 108.649C101.098 108.649 95.2322 113.229 86.2742 106.625" stroke="white" stroke-miterlimit="10" stroke-linecap="round" stroke-linejoin="round"/>
<path d="M93.6325 109.927C93.6325 109.927 90.6465 114.081 83.3948 113.975" stroke="white" stroke-miterlimit="10" stroke-linecap="round" stroke-linejoin="round"/>
<path d="M131.064 161.801C131.064 161.801 115.708 174.051 100.031 172.453" stroke="white" stroke-miterlimit="10" stroke-linecap="round" stroke-linejoin="round"/>
<path d="M89.4734 134.852C89.4734 134.852 113.361 152.321 131.064 153.493" stroke="white" stroke-miterlimit="10" stroke-linecap="round" stroke-linejoin="round"/>
<path d="M293.481 137.302L289.216 160.417L254.45 181.507L259.249 190.348C259.249 190.348 299.453 178.099 300.413 175.223C301.373 172.347 310.651 141.989 310.651 141.989L293.481 137.302Z" fill="#333333"/>
<path d="M308.625 98.2099L306.278 126.331L304.999 141.03C298.28 144.332 291.775 139.432 291.348 139.113C293.268 133.68 295.401 103.536 308.625 98.2099Z" fill="#999999" stroke="#333333" stroke-miterlimit="10" stroke-linecap="round" stroke-linejoin="round"/>
<path d="M306.278 126.224L304.999 140.924C298.28 144.226 291.775 139.326 291.348 139.006C291.668 139.113 295.188 140.604 297.427 139.006C297.427 139.006 295.507 136.769 295.294 136.237C295.188 135.704 297.427 135.491 297.427 135.491C297.427 135.491 295.934 123.561 299.88 118.555C301.586 116.531 304.039 120.579 306.278 126.224Z" fill="#333333"/>
<path d="M332.726 358.221L333.792 361.31C333.792 361.31 331.233 365.571 328.353 368.873C328.353 368.873 327.287 368.553 325.581 370.045C323.874 371.642 323.661 374.092 323.661 374.092C323.661 374.092 315.556 383.892 305.212 383.998C294.868 384.105 297.96 378.992 297.96 378.992L332.726 358.221Z" fill="#F3F3F3" stroke="#333333" stroke-miterlimit="10" stroke-linecap="round" stroke-linejoin="round"/>
<path d="M323.021 333.402C323.021 333.402 309.158 328.289 306.492 338.515C306.492 338.515 308.944 349.806 307.451 355.878C305.958 362.056 298.494 373.773 298.067 376.01C297.214 380.377 297.854 380.696 297.854 380.696C297.854 380.696 303.292 383.785 310.544 380.483C317.796 377.075 330.486 362.695 332.406 359.712C334.432 356.73 326.221 345.013 326.221 345.013L323.021 333.402Z" fill="#F3F3F3"/>
<path opacity="0.4" d="M323.021 333.402C323.021 333.402 309.158 328.289 306.492 338.515C306.492 338.515 308.944 349.806 307.451 355.878C305.958 362.056 298.494 373.773 298.067 376.01C297.214 380.377 297.854 380.696 297.854 380.696C297.854 380.696 303.292 383.785 310.544 380.483C317.796 377.075 330.486 362.695 332.406 359.712C334.432 356.73 326.221 345.013 326.221 345.013L323.021 333.402Z" fill="#F3F3F3"/>
<path d="M323.021 333.402C323.021 333.402 309.158 328.289 306.492 338.515C306.492 338.515 308.944 349.806 307.451 355.878C305.958 362.056 298.494 373.773 298.067 376.01C297.214 380.377 297.854 380.696 297.854 380.696C297.854 380.696 303.292 383.785 310.544 380.483C317.796 377.075 330.486 362.695 332.406 359.712C334.432 356.73 326.221 345.013 326.221 345.013L323.021 333.402Z" stroke="#333333" stroke-miterlimit="10" stroke-linecap="round" stroke-linejoin="round"/>
<path d="M315.983 347.782C315.983 347.782 318.329 358.008 312.464 367.808" stroke="#333333" stroke-miterlimit="10" stroke-linecap="round" stroke-linejoin="round"/>
<path d="M312.464 370.471C312.464 370.471 310.971 374.731 306.492 375.903C302.013 377.181 297.96 375.903 297.96 375.903L301.266 369.192C301.373 369.192 306.278 371.429 312.464 370.471Z" fill="#F3F3F3" stroke="#333333" stroke-miterlimit="10" stroke-linecap="round" stroke-linejoin="round"/>
<path d="M314.49 366.423C314.49 366.423 307.238 366.849 303.506 365.358" stroke="#333333" stroke-miterlimit="10" stroke-linecap="round" stroke-linejoin="round"/>
<path d="M315.77 362.482C315.77 362.482 308.945 363.547 305.212 361.417" stroke="#333333" stroke-miterlimit="10" stroke-linecap="round" stroke-linejoin="round"/>
<path d="M316.943 358.008C316.943 358.008 310.971 358.86 307.132 357.049" stroke="#333333" stroke-miterlimit="10" stroke-linecap="round" stroke-linejoin="round"/>
<path d="M317.583 353.002C317.583 353.002 310.971 355.025 307.878 353.002" stroke="#333333" stroke-miterlimit="10" stroke-linecap="round" stroke-linejoin="round"/>
<path d="M318.649 340.539L319.822 347.782C319.822 347.782 311.077 353.534 305.319 346.397V338.835C305.319 338.835 307.451 343.948 318.649 340.539Z" fill="#F3F3F3" stroke="#333333" stroke-miterlimit="10" stroke-linecap="round" stroke-linejoin="round"/>
<path d="M310.971 177.673C302.119 205.687 274.606 250.744 277.378 262.248C278.871 268.533 287.936 304.11 295.081 319.768C297.747 325.733 303.612 329.781 303.612 329.781L307.878 338.835C318.116 343.308 321.848 334.254 321.848 334.254L319.822 324.029C325.368 314.016 323.021 314.016 315.876 262.248C315.023 256.176 329.207 237.323 329.207 237.323L336.458 284.723L337.631 323.603L341.364 335.639C341.364 335.639 342.324 346.93 342.217 347.569H359.067L360.88 335.213C360.88 335.213 368.771 327.863 368.771 319.342C368.771 310.82 367.065 267.467 368.771 254.792C370.477 242.116 364.825 183.211 364.825 183.211L310.971 177.673Z" fill="#333333"/>
<path d="M220.111 171.601L192.81 169.258L194.197 152.641C194.303 151.576 195.263 150.723 196.33 150.83L219.684 152.854C220.751 152.96 221.604 153.919 221.497 154.984L220.111 171.601Z" fill="#319C69"/>
<path opacity="0.3" d="M220.111 171.601L192.81 169.258L194.197 152.641C194.303 151.576 195.263 150.723 196.33 150.83L219.684 152.854C220.751 152.96 221.604 153.919 221.497 154.984L220.111 171.601Z" fill="black"/>
<path opacity="0.3" d="M220.033 154.547L213.339 153.972L212.179 167.449L218.872 168.024L220.033 154.547Z" fill="#F3F3F3"/>
<path d="M220.111 171.601L192.81 169.258L194.197 152.641C194.303 151.576 195.263 150.723 196.33 150.83L219.684 152.854C220.751 152.96 221.604 153.919 221.497 154.984L220.111 171.601Z" stroke="#333333" stroke-miterlimit="10" stroke-linecap="round" stroke-linejoin="round"/>
<path d="M260.422 175.01L233.121 172.666L234.508 156.049C234.614 154.984 235.574 154.132 236.641 154.238L259.995 156.262C261.062 156.369 261.915 157.328 261.808 158.393L260.422 175.01Z" fill="#319C69"/>
<path opacity="0.3" d="M260.422 175.01L233.121 172.666L234.508 156.049C234.614 154.984 235.574 154.132 236.641 154.238L259.995 156.262C261.062 156.369 261.915 157.328 261.808 158.393L260.422 175.01Z" fill="black"/>
<path opacity="0.3" d="M259.924 157.944L255.886 157.597L254.726 171.075L258.763 171.421L259.924 157.944Z" fill="#F3F3F3"/>
<path d="M260.422 175.01L233.121 172.666L234.508 156.049C234.614 154.984 235.574 154.132 236.641 154.238L259.995 156.262C261.062 156.369 261.915 157.328 261.808 158.393L260.422 175.01Z" stroke="#333333" stroke-miterlimit="10" stroke-linecap="round" stroke-linejoin="round"/>
<path d="M251.997 174.37L224.697 172.027L226.083 155.41C226.19 154.345 227.149 153.493 228.216 153.599L251.571 155.623C252.637 155.73 253.49 156.688 253.384 157.754L251.997 174.37Z" fill="#319C69" stroke="#333333" stroke-miterlimit="10" stroke-linecap="round" stroke-linejoin="round"/>
<path d="M292.308 177.779L265.008 175.436L266.394 158.819C266.501 157.754 267.46 156.901 268.527 157.008L291.882 159.032C292.948 159.138 293.801 160.097 293.695 161.162L292.308 177.779Z" fill="#319C69" stroke="#333333" stroke-miterlimit="10" stroke-linecap="round" stroke-linejoin="round"/>
<path opacity="0.3" d="M251.915 157.317L245.221 156.742L244.061 170.219L250.755 170.794L251.915 157.317Z" fill="#F3F3F3"/>
<path opacity="0.3" d="M291.801 160.721L285.107 160.147L283.947 173.624L290.641 174.199L291.801 160.721Z" fill="#F3F3F3"/>
<path d="M304.572 174.903L297.96 251.49L174.361 240.838L180.973 164.251C181.186 161.588 183.533 159.564 186.199 159.884L300.093 169.684C302.866 169.897 304.892 172.24 304.572 174.903Z" fill="#319C69"/>
<path opacity="0.3" d="M304.572 174.903L297.96 251.49L174.361 240.838L180.973 164.251C181.186 161.588 183.533 159.564 186.199 159.884L300.093 169.684C302.866 169.897 304.892 172.24 304.572 174.903Z" fill="black"/>
<path d="M304.572 174.903L297.96 251.49L174.361 240.838L180.973 164.251C181.186 161.588 183.533 159.564 186.199 159.884L300.093 169.684C302.866 169.897 304.892 172.24 304.572 174.903Z" stroke="#333333" stroke-miterlimit="10" stroke-linecap="round" stroke-linejoin="round"/>
<path d="M304.572 174.903L297.96 251.49L206.247 243.607L212.859 167.021C213.073 164.358 215.419 162.334 218.085 162.653L300.093 169.684C302.866 169.897 304.892 172.24 304.572 174.903Z" fill="#319C69" stroke="#333333" stroke-miterlimit="10" stroke-linecap="round" stroke-linejoin="round"/>
<path opacity="0.3" d="M298.174 177.14L219.791 170.429C218.725 170.323 217.871 169.364 217.978 168.299C218.085 167.234 219.045 166.382 220.111 166.488L298.494 173.199C299.56 173.305 300.413 174.264 300.306 175.329C300.306 176.394 299.24 177.246 298.174 177.14Z" fill="#F3F3F3"/>
<path d="M359.707 347.995C359.707 347.995 353.841 343.735 341.577 344.587C341.577 344.587 340.724 359.286 339.018 363.547C337.312 367.808 328.567 375.157 326.967 376.436C325.368 377.714 325.368 382.081 325.368 382.081H362.479C362.479 382.081 361.839 372.281 359.493 363.227L359.707 347.995Z" fill="#F3F3F3"/>
<path opacity="0.4" d="M359.707 347.995C359.707 347.995 353.841 343.735 341.577 344.587C341.577 344.587 340.724 359.286 339.018 363.547C337.312 367.808 328.567 375.157 326.967 376.436C325.368 377.714 325.368 382.081 325.368 382.081H362.479C362.479 382.081 361.839 372.281 359.493 363.227L359.707 347.995Z" fill="#F3F3F3"/>
<path d="M359.707 347.995C359.707 347.995 353.841 343.735 341.577 344.587C341.577 344.587 340.724 359.286 339.018 363.547C337.312 367.808 328.567 375.157 326.967 376.436C325.368 377.714 325.368 382.081 325.368 382.081H362.479C362.479 382.081 361.839 372.281 359.493 363.227L359.707 347.995Z" stroke="#333333" stroke-miterlimit="10" stroke-linecap="round" stroke-linejoin="round"/>
<path d="M352.028 349.806C352.028 349.806 351.175 363.334 349.042 366.849C346.909 370.364 344.883 372.175 344.883 372.175" stroke="#333333" stroke-miterlimit="10" stroke-linecap="round" stroke-linejoin="round"/>
<path d="M343.817 374.092C343.817 374.092 342.004 376.436 339.871 376.755C337.845 377.075 326.861 376.436 326.861 376.436L331.34 372.601C331.34 372.494 340.511 371.003 343.817 374.092Z" fill="#F3F3F3" stroke="#333333" stroke-miterlimit="10" stroke-linecap="round" stroke-linejoin="round"/>
<path d="M347.763 370.897C347.763 370.897 339.871 366.316 334.219 369.832" stroke="#333333" stroke-miterlimit="10" stroke-linecap="round" stroke-linejoin="round"/>
<path d="M349.682 367.808C349.682 367.808 344.137 363.44 337.631 365.89" stroke="#333333" stroke-miterlimit="10" stroke-linecap="round" stroke-linejoin="round"/>
<path d="M352.028 363.121C352.028 363.121 346.056 358.541 339.764 361.417" stroke="#333333" stroke-miterlimit="10" stroke-linecap="round" stroke-linejoin="round"/>
<path d="M352.775 357.262C352.775 357.262 345.523 353.428 340.298 356.304" stroke="#333333" stroke-miterlimit="10" stroke-linecap="round" stroke-linejoin="round"/>
<path d="M362.373 382.081V384.851H358.107C358.107 384.851 354.481 382.72 350.962 384.851C350.962 384.851 334.432 384.851 330.913 384.851C327.394 384.851 324.834 383.466 324.834 383.466L325.261 382.081H362.373Z" fill="#F3F3F3" stroke="#333333" stroke-miterlimit="10" stroke-linecap="round" stroke-linejoin="round"/>
<path d="M357.04 347.143L356.081 353.108C356.081 353.108 344.99 349.486 338.805 351.83V344.48C338.805 344.48 350.322 340.432 357.04 347.143Z" fill="#F3F3F3" stroke="#333333" stroke-miterlimit="10" stroke-linecap="round" stroke-linejoin="round"/>
<path d="M369.091 198.231C369.091 198.231 345.416 202.917 322.168 195.355C317.049 193.65 311.93 191.413 307.132 188.431C307.132 188.431 307.238 186.94 307.238 184.49C307.451 175.01 307.345 151.043 302.333 145.078C299.133 141.35 296.681 118.235 302.759 106.518L321.635 91.3927C347.762 96.5056 353.308 103.429 357.68 118.342C358.533 121.111 359.173 124.094 360.026 127.396C360.986 131.018 361.733 135.385 362.586 140.285C366.532 163.932 369.091 198.231 369.091 198.231Z" fill="#999999"/>
<path opacity="0.2" d="M362.692 140.072L352.028 187.685C352.028 187.685 336.565 191.946 322.275 195.355C317.156 193.65 312.037 191.413 307.238 188.431C307.238 188.431 307.345 186.94 307.345 184.49C320.249 177.886 339.124 168.192 338.911 167.766C338.698 167.021 338.911 142.202 338.911 142.202C338.911 142.202 355.974 138.261 357.787 118.342C358.64 121.111 359.28 124.094 360.133 127.396C360.986 130.804 361.839 135.172 362.692 140.072Z" fill="black"/>
<path d="M369.091 198.231C369.091 198.231 345.416 202.917 322.168 195.355C317.049 193.65 311.93 191.413 307.132 188.431C307.132 188.431 307.238 186.94 307.238 184.49C307.451 175.01 307.345 151.043 302.333 145.078C299.133 141.35 296.681 118.235 302.759 106.518L321.635 91.3927C347.762 96.5056 353.308 103.429 357.68 118.342C358.533 121.111 359.173 124.094 360.026 127.396C360.986 131.018 361.733 135.385 362.586 140.285C366.532 163.932 369.091 198.231 369.091 198.231Z" stroke="#333333" stroke-miterlimit="10" stroke-linecap="round" stroke-linejoin="round"/>
<path d="M322.595 71.3672C322.595 71.3672 314.277 83.2973 325.368 92.5644C325.368 92.5644 311.931 107.69 307.452 105.56C305.639 104.707 307.452 99.275 307.452 99.275L299.667 84.8951L322.595 71.3672Z" fill="white" stroke="#333333" stroke-miterlimit="10" stroke-linecap="round" stroke-linejoin="round"/>
<path d="M319.822 77.5453C322.382 66.1479 321.209 49.2114 305.212 50.8092C294.015 51.8744 286.016 58.0525 289.216 73.0715C290.495 79.3561 291.562 88.3037 297.427 96.399C299.027 98.6359 315.876 90.7536 314.917 84.3625" fill="white"/>
<path d="M319.822 77.5453C322.382 66.1479 321.209 49.2114 305.212 50.8092C294.015 51.8744 286.016 58.0525 289.216 73.0715C290.495 79.3561 291.562 88.3037 297.427 96.399C299.027 98.6359 315.876 90.7536 314.917 84.3625" stroke="#333333" stroke-miterlimit="10" stroke-linecap="round" stroke-linejoin="round"/>
<path d="M297 70.5151C297 70.5151 300.306 69.0238 303.932 71.1542" stroke="#333333" stroke-miterlimit="10" stroke-linecap="round" stroke-linejoin="round"/>
<path d="M289.002 71.8998C289.002 71.8998 289.536 70.4086 291.348 70.8347" stroke="#333333" stroke-miterlimit="10" stroke-linecap="round" stroke-linejoin="round"/>
<path d="M292.948 74.2432C292.948 74.2432 289.642 80.2083 289.642 81.0604C289.642 81.9126 293.695 82.2321 293.695 82.2321" fill="white"/>
<path d="M292.948 74.2432C292.948 74.2432 289.642 80.2083 289.642 81.0604C289.642 81.9126 293.695 82.2321 293.695 82.2321" stroke="#333333" stroke-miterlimit="10" stroke-linecap="round" stroke-linejoin="round"/>
<path d="M299.38 76.6906C299.792 76.6777 300.11 76.143 300.09 75.4962C300.07 74.8494 299.719 74.3355 299.307 74.3484C298.895 74.3612 298.577 74.896 298.598 75.5428C298.618 76.1896 298.968 76.7035 299.38 76.6906Z" fill="#333333"/>
<path d="M295.401 86.5994C295.401 86.5994 301.693 85.4277 302.866 83.1908" stroke="#333333" stroke-miterlimit="10" stroke-linecap="round" stroke-linejoin="round"/>
<path d="M289.002 62.7393L293.908 61.3545C293.908 61.3545 300.733 58.159 302.226 58.5851C303.719 59.0111 306.705 63.5914 306.598 66.1479C306.598 66.1479 311.184 70.1956 311.824 76.1606L313.21 75.5215C313.21 75.5215 313.104 70.1956 316.196 70.3021C319.182 70.4086 320.569 74.0302 320.355 75.2019C320.142 76.3736 316.836 81.0604 316.836 81.0604C316.836 81.0604 324.408 79.8887 324.621 65.0827C324.834 50.2766 308.625 47.7202 300.626 48.3593C292.735 48.9984 288.576 48.7854 288.576 48.7854L289.002 53.0461L285.803 53.8983L288.256 56.8808L285.59 58.0525L289.002 62.7393Z" fill="#333333"/>
<path d="M316.41 224.541C316.41 224.541 335.712 229.653 340.937 244.033" stroke="white" stroke-miterlimit="10" stroke-linecap="round" stroke-linejoin="round"/>
<path d="M325.261 232.316C325.261 232.316 314.81 249.679 298.813 258.626" stroke="white" stroke-miterlimit="10" stroke-linecap="round" stroke-linejoin="round"/>
<path d="M310.651 329.887C310.651 329.887 316.623 328.609 318.222 326.266" stroke="white" stroke-miterlimit="10" stroke-linecap="round" stroke-linejoin="round"/>
<path d="M343.604 332.124C343.604 332.124 349.362 329.141 355.228 332.124" stroke="white" stroke-miterlimit="10" stroke-linecap="round" stroke-linejoin="round"/>
<path d="M362.373 251.277C362.373 251.277 352.668 276.415 347.763 278.758" stroke="white" stroke-miterlimit="10" stroke-linecap="round" stroke-linejoin="round"/>
<path d="M319.715 211.865C319.929 214.634 331.446 227.31 340.937 232.316" stroke="white" stroke-miterlimit="10" stroke-linecap="round" stroke-linejoin="round"/>
<path d="M329.527 201.107C329.527 201.107 331.766 206.113 330.38 211.758C328.993 217.404 330.38 221.238 330.38 221.238" stroke="white" stroke-miterlimit="10" stroke-linecap="round" stroke-linejoin="round"/>
<path d="M308.625 148.806C308.625 148.806 326.541 172.027 345.843 179.59" stroke="#333333" stroke-miterlimit="10" stroke-linecap="round" stroke-linejoin="round"/>
<path d="M327.287 111.205C327.287 111.205 327.181 126.97 338.591 134.107" stroke="#333333" stroke-miterlimit="10" stroke-linecap="round" stroke-linejoin="round"/>
<path d="M333.686 134.32C331.233 136.663 333.899 166.382 333.899 166.382C333.899 166.382 319.929 171.814 315.556 175.436C311.184 178.951 290.389 187.046 290.389 187.046C290.389 187.046 287.189 197.911 291.135 198.337C295.081 198.657 336.458 184.596 345.843 179.696C345.843 179.696 352.028 143.48 351.922 134.213" fill="white"/>
<path d="M333.686 134.32C331.233 136.663 333.899 166.382 333.899 166.382C333.899 166.382 319.929 171.814 315.556 175.436C311.184 178.951 290.389 187.046 290.389 187.046C290.389 187.046 287.189 197.911 291.135 198.337C295.081 198.657 336.458 184.596 345.843 179.696C345.843 179.696 352.028 143.48 351.922 134.213" stroke="#333333" stroke-miterlimit="10" stroke-linecap="round" stroke-linejoin="round"/>
<path d="M291.988 186.3C290.069 185.981 286.656 184.703 284.843 185.129C283.03 185.555 279.831 187.472 276.418 188.324C273.006 189.176 274.499 190.455 276.418 190.881C278.338 191.307 280.791 190.881 280.791 190.881L278.018 193.544C278.018 193.544 273.646 195.781 273.113 195.781C272.153 195.781 268.634 196.739 268.847 198.231C269.167 199.722 271.086 199.509 273.326 199.615C273.326 199.615 269.7 200.361 270.127 202.385C270.34 203.769 274.392 202.491 276.418 202.491C276.418 202.491 274.712 204.302 275.992 204.835C277.272 205.367 280.044 203.983 280.044 203.983C280.044 203.983 279.938 205.474 281.217 205.687C282.497 205.793 285.59 204.622 287.829 203.343C289.962 202.065 291.882 200.467 293.908 198.87C295.934 197.272 296.681 197.059 296.681 197.059" fill="white"/>
<path d="M291.988 186.3C290.069 185.981 286.656 184.703 284.843 185.129C283.03 185.555 279.831 187.472 276.418 188.324C273.006 189.176 274.499 190.455 276.418 190.881C278.338 191.307 280.791 190.881 280.791 190.881L278.018 193.544C278.018 193.544 273.646 195.781 273.113 195.781C272.153 195.781 268.634 196.739 268.847 198.231C269.167 199.722 271.086 199.509 273.326 199.615C273.326 199.615 269.7 200.361 270.127 202.385C270.34 203.769 274.392 202.491 276.418 202.491C276.418 202.491 274.712 204.302 275.992 204.835C277.272 205.367 280.044 203.983 280.044 203.983C280.044 203.983 279.938 205.474 281.217 205.687C282.497 205.793 285.59 204.622 287.829 203.343C289.962 202.065 291.882 200.467 293.908 198.87C295.934 197.272 296.681 197.059 296.681 197.059" stroke="#333333" stroke-miterlimit="10" stroke-linecap="round" stroke-linejoin="round"/>
<path d="M273.432 199.615C273.432 199.615 275.565 199.509 276.419 199.296C277.272 199.083 278.125 198.763 278.125 198.763" stroke="#333333" stroke-miterlimit="10" stroke-linecap="round" stroke-linejoin="round"/>
<path d="M276.525 202.491C276.525 202.491 278.871 202.172 280.151 201.213" stroke="#333333" stroke-miterlimit="10" stroke-linecap="round" stroke-linejoin="round"/>
<path d="M280.151 204.089C280.151 204.089 281.857 203.876 282.817 203.13" stroke="#333333" stroke-miterlimit="10" stroke-linecap="round" stroke-linejoin="round"/>
<path d="M278.445 194.289C278.445 194.289 277.698 195.994 278.445 197.059C279.191 198.017 280.151 198.124 280.258 199.189C280.364 200.361 282.177 200.254 282.924 201C283.564 201.746 284.097 203.024 286.23 203.13" stroke="#333333" stroke-miterlimit="10" stroke-linecap="round" stroke-linejoin="round"/>
<path d="M332.726 103.536C325.474 119.94 332.726 142.735 332.726 142.735C332.726 142.735 350.322 148.7 351.922 146.143C353.521 143.587 356.507 131.017 357.04 125.159" fill="#999999"/>
<path d="M332.726 103.536C325.474 119.94 332.726 142.735 332.726 142.735C332.726 142.735 350.322 148.7 351.922 146.143C353.521 143.587 356.507 131.017 357.04 125.159" stroke="#333333" stroke-miterlimit="10" stroke-linecap="round" stroke-linejoin="round"/>
<path d="M352.028 126.97C352.028 126.97 344.563 137.196 338.591 137.409" stroke="#333333" stroke-miterlimit="10" stroke-linecap="round" stroke-linejoin="round"/>
<path d="M90.1133 264.485C90.1133 264.485 95.7654 260.863 103.55 262.781C111.335 264.698 131.597 293.671 134.37 296.44C137.143 299.21 142.475 300.701 147.274 305.814C154.952 313.803 166.15 320.94 167.216 320.94C168.389 320.94 169.242 320.194 170.629 319.981C172.015 319.661 182.893 318.703 182.893 318.703C182.893 318.703 186.518 319.555 182.893 321.046C179.267 322.644 179.48 324.029 179.48 324.029C179.48 324.029 178.734 325.2 180.227 326.372C181.72 327.544 182.573 326.905 184.706 329.887C186.838 332.87 181.72 331.165 181.72 331.165C181.72 331.165 182.893 334.361 180.546 334.041C178.307 333.722 180.227 337.13 176.601 336.704C172.975 336.278 165.083 331.272 163.164 326.159C163.164 326.159 131.277 310.927 126.479 306.986C121.68 303.045 101.631 281.954 100.244 281.741" fill="#333333"/>
<path d="M198.996 311.779H171.588V295.056C171.588 293.99 172.442 293.032 173.615 293.032H197.076C198.142 293.032 199.102 293.884 199.102 295.056V311.779H198.996Z" fill="#319C69"/>
<path opacity="0.3" d="M198.996 311.779H171.588V295.056C171.588 293.99 172.442 293.032 173.615 293.032H197.076C198.142 293.032 199.102 293.884 199.102 295.056V311.779H198.996Z" fill="black"/>
<path opacity="0.3" d="M197.503 294.843H190.784V308.37H197.503V294.843Z" fill="#F3F3F3"/>
<path d="M198.996 311.779H171.588V295.056C171.588 293.99 172.442 293.032 173.615 293.032H197.076C198.142 293.032 199.102 293.884 199.102 295.056V311.779H198.996Z" stroke="#333333" stroke-miterlimit="10" stroke-linecap="round" stroke-linejoin="round"/>
<path d="M239.52 311.779H212.113V295.056C212.113 293.99 212.966 293.032 214.139 293.032H237.6C238.667 293.032 239.627 293.884 239.627 295.056V311.779H239.52Z" fill="#319C69"/>
<path opacity="0.3" d="M239.52 311.779H212.113V295.056C212.113 293.99 212.966 293.032 214.139 293.032H237.6C238.667 293.032 239.627 293.884 239.627 295.056V311.779H239.52Z" fill="black"/>
<path opacity="0.3" d="M237.6 294.843H233.548V308.37H237.6V294.843Z" fill="#F3F3F3"/>
<path d="M239.52 311.779H212.113V295.056C212.113 293.99 212.966 293.032 214.139 293.032H237.6C238.667 293.032 239.627 293.884 239.627 295.056V311.779H239.52Z" stroke="#333333" stroke-miterlimit="10" stroke-linecap="round" stroke-linejoin="round"/>
<path d="M230.989 311.779H203.581V295.056C203.581 293.99 204.434 293.032 205.608 293.032H229.069C230.135 293.032 231.095 293.884 231.095 295.056V311.779H230.989Z" fill="#319C69" stroke="#333333" stroke-miterlimit="10" stroke-linecap="round" stroke-linejoin="round"/>
<path d="M271.513 311.779H244.106V295.056C244.106 293.99 244.959 293.032 246.132 293.032H269.593C270.66 293.032 271.619 293.884 271.619 295.056V311.779H271.513Z" fill="#319C69" stroke="#333333" stroke-miterlimit="10" stroke-linecap="round" stroke-linejoin="round"/>
<path opacity="0.3" d="M229.496 294.843H222.777V308.37H229.496V294.843Z" fill="#F3F3F3"/>
<path opacity="0.3" d="M269.593 294.843H262.875V308.37H269.593V294.843Z" fill="#F3F3F3"/>
<path d="M283.564 307.944V384.851H159.538V307.944C159.538 305.281 161.671 303.045 164.443 303.045H278.765C281.324 303.045 283.564 305.281 283.564 307.944Z" fill="#319C69"/>
<path opacity="0.3" d="M283.564 307.944V384.851H159.538V307.944C159.538 305.281 161.671 303.045 164.443 303.045H278.765C281.324 303.045 283.564 305.281 283.564 307.944Z" fill="black"/>
<path d="M283.564 307.944V384.851H159.538V307.944C159.538 305.281 161.671 303.045 164.443 303.045H278.765C281.324 303.045 283.564 305.281 283.564 307.944Z" stroke="#333333" stroke-miterlimit="10" stroke-linecap="round" stroke-linejoin="round"/>
<path d="M283.563 307.944V384.851H191.531V307.944C191.531 305.281 193.663 303.045 196.436 303.045H278.765C281.324 303.045 283.563 305.281 283.563 307.944Z" fill="#319C69" stroke="#333333" stroke-miterlimit="10" stroke-linecap="round" stroke-linejoin="round"/>
<path opacity="0.3" d="M277.272 310.607H198.569C197.503 310.607 196.543 309.755 196.543 308.583C196.543 307.518 197.396 306.56 198.569 306.56H277.272C278.338 306.56 279.298 307.412 279.298 308.583C279.298 309.755 278.445 310.607 277.272 310.607Z" fill="#F3F3F3"/>
<path d="M131.597 384.851C125.199 384.851 116.241 380.696 105.896 376.436C95.1254 371.962 82.9681 367.169 70.4909 366.423C65.9053 366.103 68.678 384.851 68.678 384.851H58.5469C58.5469 384.851 48.5225 371.536 47.4561 359.606C47.4561 359.606 55.6676 354.599 57.5871 354.28C58.0137 354.173 58.7602 354.173 59.6133 354.173C61.8528 354.173 64.7322 354.28 64.7322 354.28C64.3056 353.96 56.734 349.486 52.6816 344.906C49.269 341.178 47.6693 335.213 47.5627 331.591C47.4561 329.781 48.3092 324.561 48.3092 324.561L101.524 325.413C101.524 325.413 102.057 325.839 103.124 326.585C109.309 331.059 131.811 347.782 143.115 360.458C146.741 364.506 149.193 368.234 149.62 370.897C151.326 383.146 141.302 384.851 131.597 384.851Z" fill="#757575" stroke="#333333" stroke-miterlimit="10" stroke-linecap="round" stroke-linejoin="round"/>
<path d="M143.221 360.458L117.307 366.316C117.307 366.316 110.589 369.938 105.896 376.329C95.1254 371.855 82.9681 367.062 70.4909 366.316C65.9053 365.997 68.678 384.744 68.678 384.744H58.5469C58.5469 384.744 48.5225 371.429 47.4561 359.499C47.4561 359.499 56.8406 372.921 59.1868 379.738C59.1868 379.738 62.8126 367.169 68.7846 362.056C68.7846 362.056 64.8389 357.369 59.72 354.067C61.9595 354.067 64.8388 354.173 64.8388 354.173C64.4123 353.854 56.8406 349.38 52.7882 344.8C49.3756 341.072 47.9893 335.107 47.6693 331.485C47.5627 329.781 47.776 324.455 47.776 324.455C47.776 324.455 87.4472 330.1 103.337 326.479C109.309 331.059 131.917 347.782 143.221 360.458Z" fill="#333333"/>
<path d="M101.631 359.499C101.631 359.499 122.746 370.045 128.398 374.199C134.05 378.353 135.756 377.181 135.756 377.181" stroke="#333333" stroke-miterlimit="10" stroke-linecap="round" stroke-linejoin="round"/>
<path d="M52.6815 358.434C52.6815 358.434 57.6937 366.21 58.0137 368.447" stroke="#333333" stroke-miterlimit="10" stroke-linecap="round" stroke-linejoin="round"/>
<path d="M137.463 210.161C137.463 210.161 148.767 205.261 147.7 226.032C146.634 246.803 150.473 247.868 150.473 247.868C150.473 247.868 122.213 259.479 115.068 249.572C107.816 239.666 114.641 212.504 137.463 210.161Z" fill="#333333"/>
<path d="M135.863 247.868C135.863 247.868 124.239 253.3 123.173 258.413C122.106 263.42 107.603 255.857 107.603 255.857L118.16 240.731L135.863 247.868Z" fill="white" stroke="#333333" stroke-miterlimit="10" stroke-linecap="round" stroke-linejoin="round"/>
<path d="M59.7201 303.471C33.0594 337.343 54.7079 353.747 84.8878 351.084L78.8092 360.671L94.0591 363.334C94.0591 363.334 105.683 355.771 121.573 347.569C148.66 333.722 159.538 334.574 156.765 320.727C153.992 306.879 120.826 297.932 87.6605 312.525C87.5539 312.312 69.5312 290.901 59.7201 303.471Z" fill="#757575" stroke="#333333" stroke-miterlimit="10" stroke-linecap="round" stroke-linejoin="round"/>
<path d="M68.1448 380.909C68.1448 380.909 75.0766 361.736 77.956 360.671C80.8353 359.606 91.7129 363.76 93.2059 366.849C93.2059 366.849 96.9384 361.203 98.4314 363.547C99.9244 365.997 97.7916 369.938 98.4314 373.027C99.0713 376.116 106.643 380.377 109.629 380.909C112.615 381.442 114.321 383.146 114.321 384.851C114.321 386.555 114.321 388.472 114.321 388.472H68.1448C68.1448 388.472 66.4385 385.383 68.1448 380.909Z" fill="#757575" stroke="#333333" stroke-miterlimit="10" stroke-linecap="round" stroke-linejoin="round"/>
<path d="M98.4314 370.045C98.4314 370.045 92.3528 373.027 90.1133 372.175C87.8738 371.323 91.2864 377.181 92.1395 377.82C92.9927 378.353 98.5381 375.903 98.5381 375.903" stroke="#333333" stroke-miterlimit="10" stroke-linecap="round" stroke-linejoin="round"/>
<path d="M73.9036 366.849C73.9036 366.849 82.2217 366.955 84.6745 370.045" stroke="#333333" stroke-miterlimit="10" stroke-linecap="round" stroke-linejoin="round"/>
<path d="M68.1448 380.909C68.1448 380.909 81.3685 383.998 82.5416 383.998C83.7146 383.998 87.8737 382.401 87.8737 382.401C87.8737 382.401 91.4996 384.211 93.9524 385.383C96.4051 386.555 112.082 385.383 112.082 385.383" stroke="#333333" stroke-miterlimit="10" stroke-linecap="round" stroke-linejoin="round"/>
<path d="M84.8877 350.978C97.4716 349.593 121.999 334.041 130.531 328.715C139.062 323.283 141.302 324.668 141.302 324.668" stroke="#333333" stroke-miterlimit="10" stroke-linecap="round" stroke-linejoin="round"/>
<path d="M47.6694 324.561L49.6956 309.223L54.6012 305.601C62.4928 286.534 98.2182 250.851 107.923 250.957C122.533 251.17 125.092 266.402 126.905 283.232C128.718 300.062 105.896 297.506 105.896 297.506V301.766L92.9927 308.477L100.884 308.264C100.778 308.157 78.1693 329.994 47.6694 324.561Z" fill="#319C69" stroke="#333333" stroke-miterlimit="10" stroke-linecap="round" stroke-linejoin="round"/>
<path d="M110.909 221.345C114.001 211.758 127.972 209.202 132.984 210.8C136.183 211.758 140.555 215.273 142.475 219.428C143.755 222.197 141.089 227.097 143.008 229.866C145.781 233.914 145.461 242.542 144.501 247.975C143.968 250.851 132.024 252.555 122.213 245.844C111.762 238.707 107.923 230.612 110.909 221.345Z" fill="white" stroke="#333333" stroke-miterlimit="10" stroke-linecap="round" stroke-linejoin="round"/>
<path d="M125.092 207.924C125.092 207.924 137.463 205.9 137.463 209.095C137.996 230.079 125.412 234.553 125.412 234.553C125.412 234.553 120.293 230.506 119.12 233.275C117.947 236.045 120.933 243.82 124.559 244.033C124.559 244.033 121.786 247.655 124.452 252.768C124.452 252.768 103.55 256.283 101.844 246.59C101.844 246.59 103.017 242.01 103.55 236.364C104.937 222.836 101.737 213.782 125.092 207.924Z" fill="#333333"/>
<path d="M141.515 229.334C144.075 231.677 145.888 231.677 145.888 232.423C145.781 234.979 142.688 236.258 142.688 236.258" fill="white"/>
<path d="M141.515 229.334C144.075 231.677 145.888 231.677 145.888 232.423C145.781 234.979 142.688 236.258 142.688 236.258" stroke="#333333" stroke-miterlimit="10" stroke-linecap="round" stroke-linejoin="round"/>
<path d="M142.688 240.731C142.688 240.731 140.129 241.797 137.036 240.838" stroke="#333333" stroke-miterlimit="10" stroke-linecap="round" stroke-linejoin="round"/>
<path d="M135.863 216.445C135.863 216.445 144.075 214.102 142.582 227.31C142.582 227.31 145.994 222.73 145.994 217.51C145.994 208.456 133.943 210.267 133.943 210.267L135.543 216.658" fill="#333333"/>
<path d="M143.221 222.943C143.221 222.943 142.582 222.304 141.089 222.517" stroke="#333333" stroke-miterlimit="10" stroke-linecap="round" stroke-linejoin="round"/>
<path d="M137.783 222.836C137.783 222.836 133.41 223.049 131.491 226.032" stroke="#333333" stroke-miterlimit="10" stroke-linecap="round" stroke-linejoin="round"/>
<path d="M135.986 231.151C136.396 231.112 136.675 230.511 136.609 229.808C136.542 229.105 136.156 228.567 135.745 228.606C135.335 228.645 135.056 229.246 135.122 229.949C135.189 230.651 135.576 231.19 135.986 231.151Z" fill="#333333"/>
<path d="M85.6343 354.173C85.6343 354.173 95.4454 355.238 97.5783 359.499" stroke="#333333" stroke-miterlimit="10" stroke-linecap="round" stroke-linejoin="round"/>
<path d="M110.482 258.094C110.482 258.094 116.134 254.472 123.919 256.389C131.704 258.307 151.966 287.28 154.739 290.049C157.512 292.819 162.844 294.31 167.643 299.423C175.321 307.412 186.518 314.548 187.585 314.548C188.758 314.548 189.611 313.803 190.997 313.59C192.384 313.27 203.261 312.312 203.261 312.312C203.261 312.312 206.887 313.164 203.261 314.655C199.636 316.253 199.849 317.638 199.849 317.638C199.849 317.638 199.102 318.809 200.595 319.981C202.088 321.153 202.941 320.514 205.074 323.496C207.207 326.479 202.088 324.774 202.088 324.774C202.088 324.774 203.261 327.97 200.915 327.65C198.676 327.331 200.595 330.739 196.969 330.313C193.344 329.887 185.452 324.881 183.532 319.768C183.532 319.768 151.646 304.536 146.847 300.595C142.048 296.653 121.999 275.563 120.613 275.35" fill="white"/>
<path d="M110.482 258.094C110.482 258.094 116.134 254.472 123.919 256.389C131.704 258.307 151.966 287.28 154.739 290.049C157.512 292.819 162.844 294.31 167.643 299.423C175.321 307.412 186.518 314.548 187.585 314.548C188.758 314.548 189.611 313.803 190.997 313.59C192.384 313.27 203.261 312.312 203.261 312.312C203.261 312.312 206.887 313.164 203.261 314.655C199.636 316.253 199.849 317.638 199.849 317.638C199.849 317.638 199.102 318.809 200.595 319.981C202.088 321.153 202.941 320.514 205.074 323.496C207.207 326.479 202.088 324.774 202.088 324.774C202.088 324.774 203.261 327.97 200.915 327.65C198.676 327.331 200.595 330.739 196.969 330.313C193.344 329.887 185.452 324.881 183.532 319.768C183.532 319.768 151.646 304.536 146.847 300.595C142.048 296.653 121.999 275.563 120.613 275.35" stroke="#333333" stroke-miterlimit="10" stroke-linecap="round" stroke-linejoin="round"/>
<path d="M105.896 255.005C105.896 255.005 121.68 250.744 127.118 253.833C132.557 256.922 143.008 271.302 143.008 271.302C143.008 271.302 130.318 282.7 126.372 281.634C122.426 280.569 110.482 278.865 110.482 278.865" fill="#319C69"/>
<path d="M105.896 255.005C105.896 255.005 121.68 250.744 127.118 253.833C132.557 256.922 143.008 271.302 143.008 271.302C143.008 271.302 130.318 282.7 126.372 281.634C122.426 280.569 110.482 278.865 110.482 278.865" stroke="#333333" stroke-miterlimit="10" stroke-linecap="round" stroke-linejoin="round"/>
<path d="M119.547 280.25C119.547 280.25 113.895 283.339 111.762 283.339" stroke="#333333" stroke-miterlimit="10" stroke-linecap="round" stroke-linejoin="round"/>
<path d="M110.482 264.591C110.909 265.444 110.802 274.604 120.826 277.48" stroke="#333333" stroke-miterlimit="10" stroke-linecap="round" stroke-linejoin="round"/>
<path d="M56.9473 305.921C56.9473 305.921 78.2758 309.542 85.6342 303.151" stroke="#333333" stroke-miterlimit="10" stroke-linecap="round" stroke-linejoin="round"/>
<path d="M92.8859 308.37C92.8859 308.37 87.5538 307.412 85.6342 310.181C83.7147 312.951 72.9437 315.401 72.9437 315.401" stroke="#333333" stroke-miterlimit="10" stroke-linecap="round" stroke-linejoin="round"/>
<path d="M50.0156 328.715C50.0156 328.715 46.9229 342.03 60.04 347.889" stroke="#333333" stroke-miterlimit="10" stroke-linecap="round" stroke-linejoin="round"/>
<path d="M56.9473 329.568C56.9473 329.568 57.0539 336.065 59.0801 339.687L65.5853 341.817L72.9437 337.769C72.9437 337.769 71.3441 329.355 71.2374 327.757" stroke="#333333" stroke-miterlimit="10" stroke-linecap="round" stroke-linejoin="round"/>
</g>
<defs>
<clipPath id="clip0_302_4">
<rect width="419" height="402" fill="white"/>
</clipPath>
</defs>
</svg>
