<svg width="439" height="392" viewBox="0 0 439 392" fill="none" xmlns="http://www.w3.org/2000/svg">
<g clip-path="url(#clip0_303_516)">
<path d="M157.085 363.785C149.344 362.6 141.71 361.308 134.399 360.015C108.379 355.277 80.6393 347.631 58.2753 332.015C28.7076 311.339 15.1602 273.646 9.03165 239.185C4.40834 213.339 5.9136 185.985 16.6655 162.077C30.3204 131.815 59.7806 111.031 88.7032 96.3846C121.927 79.477 158.698 71.1846 192.244 54.9231C225.037 38.9846 250.089 10.1231 287.076 2.69234C334.814 -6.89228 399.756 12.3846 424.915 56.5385C436.635 77.1077 439.645 101.662 437.71 125.246C432.764 184.154 406.852 242.846 370.188 289.046C348.684 316.077 321.482 339.231 289.871 353.662C247.939 372.831 201.598 370.354 157.085 363.785Z" fill="#F3F3F3"/>
<path d="M434.914 322.108H393.197" stroke="#333333" stroke-miterlimit="10" stroke-linecap="round" stroke-linejoin="round"/>
<path d="M222.457 392C342.05 392 439 376.234 439 356.785C439 337.336 342.05 321.569 222.457 321.569C102.863 321.569 5.91357 337.336 5.91357 356.785C5.91357 376.234 102.863 392 222.457 392Z" fill="#333333"/>
<path d="M231.166 249.954L242.67 333.631C242.67 340.092 272.346 345.262 308.902 345.262C345.458 345.262 375.134 340.092 375.134 333.631L386.638 249.954H231.166Z" fill="white" stroke="#333333" stroke-miterlimit="10" stroke-linecap="round" stroke-linejoin="round"/>
<path d="M308.902 261.585C351.835 261.585 386.638 256.377 386.638 249.954C386.638 243.53 351.835 238.323 308.902 238.323C265.969 238.323 231.166 243.53 231.166 249.954C231.166 256.377 265.969 261.585 308.902 261.585Z" fill="white" stroke="#333333" stroke-miterlimit="10" stroke-linecap="round" stroke-linejoin="round"/>
<path d="M370.94 249.954C370.94 251.569 368.252 253.077 363.414 254.369C352.877 257.277 332.449 259.215 308.794 259.215C285.248 259.215 264.712 257.277 254.175 254.369C249.444 253.077 246.648 251.569 246.648 249.954C246.648 244.785 274.388 240.692 308.687 240.692C342.985 240.692 370.94 244.785 370.94 249.954Z" fill="white" stroke="#333333" stroke-miterlimit="10" stroke-linecap="round" stroke-linejoin="round"/>
<path d="M363.522 254.369C352.985 257.277 332.556 259.215 308.902 259.215C285.355 259.215 264.819 257.277 254.282 254.369C260.518 250.385 282.667 247.369 308.902 247.369C335.137 247.369 357.178 250.385 363.522 254.369Z" fill="#333333"/>
<path d="M346.319 167.138C346.426 167.138 347.501 162.723 347.609 162.4C348.039 158.954 346.964 152.169 343.523 150.446C341.265 149.369 338.577 150.446 337.502 152.708C337.395 152.815 337.395 153.031 337.287 153.138C336.319 155.723 337.502 158.846 338.9 161C340.62 163.477 346.319 167.138 346.319 167.138Z" fill="#333333"/>
<path d="M278.044 165.631C280.84 166.815 287.506 166.708 287.506 166.708C287.506 166.708 286 162.292 285.893 161.969C284.388 158.846 279.764 153.785 275.894 154.215C273.421 154.646 271.7 157.015 272.131 159.492C272.131 159.708 272.238 159.815 272.238 159.923C272.991 162.615 275.679 164.554 278.044 165.631Z" fill="#333333"/>
<path d="M366.962 142.692C366.855 142.692 366.64 142.585 366.532 142.585C362.662 142.154 358.146 147.431 356.748 150.554C356.64 150.877 355.243 155.292 355.243 155.292H355.35C354.598 156.154 353.845 157.015 353.092 157.985C351.587 159.815 349.867 161.969 348.254 164.338C347.609 165.2 346.964 166.169 346.426 167.031C345.351 168.754 344.276 170.477 343.308 172.308C341.588 175.431 340.19 178.662 339.007 182V177.585C338.577 174.138 335.674 167.892 331.911 167.138C329.438 166.708 327.073 168.431 326.75 171.015C326.75 171.123 326.75 171.338 326.75 171.446C326.535 174.138 328.47 176.831 330.406 178.554C332.556 180.492 338.577 182.323 339.007 182.538C337.932 185.985 337.072 189.431 336.427 192.985C336.104 195.031 335.782 197.185 335.459 199.231C335.459 198.262 335.459 197.4 335.352 197.292C334.922 193.846 332.019 187.6 328.255 186.846C325.783 186.415 323.417 188.138 323.095 190.615C323.095 190.723 323.095 190.938 323.095 191.046C322.88 193.738 324.815 196.431 326.75 198.154C328.686 199.877 333.739 201.6 335.137 202.031C335.029 202.785 334.922 203.646 334.814 204.4C334.384 208.277 333.954 212.154 333.309 215.923C333.094 217.215 332.879 218.508 332.664 219.908V218.185C332.234 214.738 329.331 208.492 325.567 207.738C323.095 207.308 320.729 209.031 320.407 211.508C320.407 211.615 320.407 211.831 320.407 212.046C320.192 214.738 322.127 217.431 324.062 219.154C325.998 220.877 330.621 222.385 332.234 222.923C331.911 224.215 331.696 225.615 331.374 226.8C331.158 227.662 330.943 228.523 330.621 229.385C330.298 230.246 330.083 231.108 329.761 231.969C329.223 233.585 328.578 235.2 328.04 236.708C327.61 237.785 327.18 238.754 326.858 239.831C327.073 238.538 327.395 235.954 327.395 235.738C327.395 232.723 326.535 229.708 325.03 227.123C325.03 226.8 325.03 226.477 324.922 226.154C324.6 223.677 322.342 221.846 319.869 222.169C319.761 222.169 319.546 222.169 319.439 222.277C315.676 223.246 313.418 229.815 313.203 233.262C313.203 233.477 313.31 235.631 313.418 237.031C313.203 236.277 313.095 235.415 312.88 234.554C312.45 232.938 312.02 231.323 311.59 229.492C311.375 228.631 311.052 227.769 310.837 226.908C310.622 226.046 310.192 225.185 309.977 224.323C309.225 222.277 308.364 220.338 307.504 218.292C308.902 217.969 314.063 216.677 316.106 215.062C318.149 213.446 320.299 210.969 320.299 208.277C320.407 205.8 318.364 203.646 315.891 203.646C315.676 203.646 315.568 203.646 315.353 203.646C311.482 204.077 308.257 210.215 307.504 213.554C307.504 213.769 307.182 216.246 307.182 217.646C306.644 216.462 306.107 215.277 305.461 214.092C303.741 210.646 301.913 207.2 300.085 203.754L298.473 200.631C299.01 200.523 305.031 199.123 307.397 197.292C309.44 195.677 311.59 193.2 311.59 190.4C311.698 187.923 309.655 185.769 307.182 185.769C306.967 185.769 306.859 185.769 306.644 185.769C302.773 186.2 299.548 192.338 298.795 195.677C298.795 195.892 298.365 199.446 298.365 200.415C297.182 198.154 296 195.785 294.925 193.415C293.419 190.292 292.237 187.062 291.161 183.723C291.376 183.723 297.72 182.215 300.085 180.385C302.128 178.769 304.279 176.292 304.279 173.492C304.386 171.015 302.343 168.862 299.87 168.862C299.763 168.862 299.548 168.862 299.44 168.862C295.57 169.292 292.344 175.431 291.592 178.769C291.592 178.985 291.269 181.677 291.161 182.969H290.946C289.979 179.631 289.334 176.185 289.011 172.631C288.796 170.692 288.688 168.862 288.688 167.031C289.871 166.923 295.462 166.169 297.72 164.769C299.978 163.477 302.343 161.108 302.666 158.415C302.989 155.938 301.161 153.677 298.688 153.354C298.473 153.354 298.365 153.354 298.15 153.354C294.279 153.354 290.409 159.062 289.226 162.292C289.119 162.508 288.796 164.338 288.473 165.738V163.262C288.473 160.354 288.688 157.662 288.796 155.292C288.904 154 289.011 152.708 289.226 151.631C290.301 150.877 294.817 147.754 296.215 145.492C297.613 143.231 298.688 140.108 297.613 137.631C296.752 135.262 294.172 133.969 291.807 134.831C291.699 134.938 291.484 134.938 291.376 135.046C287.936 136.769 287.076 143.662 287.613 147.108C287.721 147.431 288.904 151.846 289.011 151.846H289.119C289.011 152.923 288.796 154.108 288.688 155.4C288.473 157.769 288.258 160.462 288.151 163.369C288.043 166.492 288.151 169.723 288.366 172.846C288.688 176.4 289.226 179.846 290.086 183.292V183.4C289.441 182.431 287.721 179.846 287.506 179.631C285.248 177.046 279.442 173.277 275.894 174.785C273.636 175.862 272.561 178.554 273.636 180.815C273.743 180.923 273.743 181.138 273.851 181.246C275.141 183.615 278.259 184.8 280.84 185.123C283.743 185.554 289.764 183.831 290.194 183.615C291.161 187.062 292.452 190.4 293.849 193.738C294.71 195.677 295.57 197.615 296.537 199.446C296 198.692 295.462 197.938 295.462 197.831C293.204 195.246 287.398 191.477 283.85 192.985C281.592 194.062 280.517 196.754 281.592 199.015C281.7 199.123 281.7 199.338 281.807 199.446C283.097 201.815 286.216 203 288.796 203.323C291.376 203.646 296.537 202.354 297.935 201.923C298.258 202.677 298.688 203.431 299.01 204.185C300.731 207.631 302.558 211.077 304.171 214.631C304.709 215.815 305.246 217.108 305.784 218.292C305.246 217.538 304.924 217 304.816 216.892C302.558 214.308 296.752 210.538 293.204 212.154C290.946 213.231 289.871 215.923 290.946 218.185C291.054 218.292 291.054 218.508 291.161 218.615C292.452 220.985 295.57 222.169 298.15 222.6C300.731 223.031 305.354 221.738 307.074 221.308C307.612 222.6 308.042 223.785 308.472 225.077C308.795 225.938 309.01 226.692 309.332 227.662C309.547 228.523 309.762 229.385 310.085 230.246C310.515 231.862 310.945 233.585 311.16 235.2C311.375 236.277 311.59 237.462 311.805 238.431C311.267 237.246 310.085 234.877 309.977 234.662C308.149 231.754 302.881 227.231 299.225 228.2C296.86 228.846 295.462 231.431 296.107 233.8C296.107 233.908 296.215 234.015 296.215 234.231C297.182 236.815 300.085 238.431 302.558 239.185C305.246 240.046 311.267 239.292 312.02 239.185C312.343 241.015 312.665 242.738 312.988 244.354C313.955 249.954 314.601 254.692 314.923 258.031H317.504V257.923C317.073 254.585 316.321 249.738 315.138 243.923C314.816 242.092 314.386 240.154 313.955 238.215C315.783 237.462 317.504 236.708 319.224 235.738C321.159 237.892 326.213 240.369 326.858 240.692C326.213 242.415 325.46 244.031 324.815 245.538C322.557 250.708 320.514 255.015 318.901 258.031H321.697C323.095 255.015 324.922 251.138 326.75 246.508C327.503 244.785 328.148 242.954 328.901 241.015C329.653 241.123 335.567 242.415 338.255 241.769C340.728 241.231 343.846 239.831 344.921 237.354C345.996 235.092 345.136 232.4 342.878 231.215C342.771 231.108 342.555 231.108 342.448 231C338.792 229.815 333.201 233.908 331.158 236.708C331.051 236.923 329.976 238.754 329.223 240.046C329.546 239.292 329.761 238.538 330.083 237.677C330.621 236.062 331.158 234.446 331.804 232.723C332.019 231.862 332.341 231 332.556 230.138C332.771 229.277 332.986 228.308 333.201 227.446C333.739 225.4 334.061 223.246 334.492 221.092C335.889 221.631 340.835 223.354 343.416 223.138C345.996 222.923 349.222 222.062 350.619 219.692C352.017 217.646 351.587 214.846 349.544 213.338C349.437 213.231 349.222 213.123 349.114 213.123C345.674 211.4 339.545 214.631 337.18 217C337.072 217.108 335.459 219.046 334.599 220.123C334.814 218.831 335.029 217.538 335.137 216.246C335.567 212.477 335.997 208.6 336.319 204.723C336.427 203.538 336.534 202.354 336.642 201.169C337.18 201.385 342.986 203.538 345.889 203.323C348.469 203.108 351.695 202.246 353.092 199.877C354.598 197.831 354.06 195.031 352.017 193.523C351.91 193.415 351.695 193.308 351.48 193.2C348.039 191.477 341.91 194.708 339.545 197.077C339.33 197.292 337.18 200.092 336.642 200.738C336.857 198.154 337.18 195.569 337.61 192.985C338.147 189.538 338.9 186.2 339.868 182.862C340.083 182.969 346.211 185.231 349.114 185.123C351.695 184.908 354.92 184.046 356.425 181.677C357.823 179.631 357.393 176.723 355.35 175.323C355.243 175.215 355.135 175.108 354.92 175.108C351.48 173.385 345.351 176.615 342.986 178.985C342.771 179.2 341.158 181.246 340.298 182.323L340.083 182.215C341.158 178.877 342.448 175.646 344.061 172.523C344.921 170.8 345.889 169.185 346.856 167.677C347.931 168.215 352.985 170.692 355.673 170.8C358.361 170.908 361.586 170.369 363.307 168.215C364.919 166.277 364.812 163.477 362.877 161.754C362.769 161.646 362.662 161.538 362.447 161.431C359.221 159.277 352.77 161.862 350.082 164.015C349.974 164.123 348.577 165.523 347.609 166.492C348.039 165.846 348.469 165.092 348.899 164.446C350.512 161.969 352.125 159.923 353.63 157.985C354.49 156.908 355.243 156.046 355.995 155.077C357.286 155.077 362.769 154.862 365.134 153.785C367.5 152.708 370.08 150.662 370.725 147.969C370.833 145.815 369.328 143.338 366.962 142.692Z" fill="#333333"/>
<path d="M0.537598 252.538L46.8783 275.585L54.6196 225.4L8.27896 202.461L0.537598 252.538Z" stroke="#333333" stroke-miterlimit="10" stroke-linecap="round" stroke-linejoin="round"/>
<path d="M54.6197 225.4L100.638 216.785L92.8964 266.862L46.8783 275.585L54.6197 225.4Z" stroke="#333333" stroke-miterlimit="10" stroke-linecap="round" stroke-linejoin="round"/>
<path d="M100.638 216.785L54.1895 193.846L8.27893 202.462L54.6196 225.4L100.638 216.785Z" stroke="#333333" stroke-miterlimit="10" stroke-linecap="round" stroke-linejoin="round"/>
<path d="M48.4911 171.123C51.1632 171.123 53.3294 168.953 53.3294 166.277C53.3294 163.6 51.1632 161.431 48.4911 161.431C45.8189 161.431 43.6527 163.6 43.6527 166.277C43.6527 168.953 45.8189 171.123 48.4911 171.123Z" stroke="#333333" stroke-miterlimit="10" stroke-linecap="round" stroke-linejoin="round"/>
<path d="M83.1122 136.985C84.478 136.985 85.5852 135.876 85.5852 134.508C85.5852 133.14 84.478 132.031 83.1122 132.031C81.7465 132.031 80.6393 133.14 80.6393 134.508C80.6393 135.876 81.7465 136.985 83.1122 136.985Z" stroke="#333333" stroke-miterlimit="10" stroke-linecap="round" stroke-linejoin="round"/>
<path d="M86.9828 174.354C90.6645 174.354 93.649 171.364 93.649 167.677C93.649 163.989 90.6645 161 86.9828 161C83.3012 161 80.3167 163.989 80.3167 167.677C80.3167 171.364 83.3012 174.354 86.9828 174.354Z" stroke="#333333" stroke-miterlimit="10" stroke-linecap="round" stroke-linejoin="round"/>
<path d="M380.08 195.569C381.742 195.569 383.09 194.219 383.09 192.554C383.09 190.888 381.742 189.538 380.08 189.538C378.417 189.538 377.069 190.888 377.069 192.554C377.069 194.219 378.417 195.569 380.08 195.569Z" stroke="#333333" stroke-miterlimit="10" stroke-linecap="round" stroke-linejoin="round"/>
<path d="M350.942 130.738C354.208 130.738 356.856 128.087 356.856 124.815C356.856 121.544 354.208 118.892 350.942 118.892C347.676 118.892 345.028 121.544 345.028 124.815C345.028 128.087 347.676 130.738 350.942 130.738Z" stroke="#333333" stroke-miterlimit="10" stroke-linecap="round" stroke-linejoin="round"/>
<path d="M408.357 71.1846L351.695 101.769L339.975 39.8461L396.53 9.26154L408.357 71.1846Z" stroke="#333333" stroke-miterlimit="10" stroke-linecap="round" stroke-linejoin="round"/>
<path d="M339.975 39.8461L282.452 31.123L294.172 93.0461L351.695 101.769L339.975 39.8461Z" stroke="#333333" stroke-miterlimit="10" stroke-linecap="round" stroke-linejoin="round"/>
<path d="M282.452 31.1231L339.007 0.538452L396.53 9.26153L339.975 39.8461L282.452 31.1231Z" stroke="#333333" stroke-miterlimit="10" stroke-linecap="round" stroke-linejoin="round"/>
<path d="M317.396 343.108C311.913 353.554 306.537 360.338 301.376 364.862C294.387 370.892 287.506 372.508 280.625 373.046C268.69 373.908 246.433 370.354 224.93 355.6C224.607 355.385 224.285 355.169 223.962 354.954C223.962 354.954 222.994 355.385 221.059 356.031C218.694 356.785 214.823 357.862 209.662 358.615C202.136 359.692 192.029 360.123 179.987 357.754C176.761 357.108 173.428 356.354 169.88 355.277C169.88 355.277 166.869 360.877 161.386 366.477C154.827 373.154 144.721 379.938 131.818 377.462C107.949 372.938 102.466 363.031 99.1325 348.385C97.0896 339.338 97.3047 330.4 97.8423 324.8C98.1648 321.354 98.4874 319.2 98.4874 319.2C98.4874 319.2 89.8859 322.538 85.3701 310.369C85.3701 310.369 84.94 337.077 73.3279 339.877C67.7369 341.169 63.5437 338.8 60.5332 334.815C57.2001 330.292 55.3723 323.723 54.5121 317.692C54.2971 316.292 54.1896 314.785 54.082 313.492C53.4369 301.754 56.77 281.4 62.8986 262.446C69.0272 243.492 87.9505 218.4 103.863 204.185C119.669 189.969 129.883 184.262 129.883 184.262C129.883 184.262 121.496 166.062 120.636 147.215C120.421 143.446 120.636 139.677 121.174 136.015C121.174 136.015 100.853 134.831 93.434 116.846C87.7355 103.062 87.5204 90.6769 91.3911 81.5231C92.5738 78.7231 94.0791 76.3539 95.9069 74.2C103.971 65.1539 122.679 56.8616 145.688 78.5077C145.688 78.5077 145.903 78.4 146.226 78.2923C150.096 76.6769 175.256 66.6616 202.888 70.3231C206.114 70.7539 209.447 71.4 212.673 72.2615H212.78C216.973 73.3385 221.274 74.8462 225.36 76.6769C225.36 76.6769 231.488 55.8923 253.53 54.2769C261.271 53.7385 266.647 56.6462 270.303 60.8462C277.184 68.7077 278.367 81.3077 277.937 84.7539C277.291 90.1385 275.679 106.615 255.358 111.138C255.358 111.138 255.68 118.138 256.863 122.985C258.046 127.831 266.862 137.954 265.034 152.708C263.206 167.462 256.54 178.877 243.853 186.523C243.853 186.523 243.853 186.523 243.746 186.523C243.746 186.523 243.853 186.631 243.961 186.738C244.283 187.169 245.036 187.923 246.003 189.108C251.917 196.215 268.26 216.677 277.614 239.077C287.721 263.2 287.613 279.892 287.398 283.877C287.398 284.523 287.291 284.846 287.291 284.846C287.291 284.846 292.022 285.923 293.634 291.308C293.634 291.308 304.279 275.908 315.461 282.8C326.535 289.585 322.234 305.631 322.234 305.631C322.234 305.631 330.298 318.662 317.396 343.108Z" fill="#319C69"/>
<path opacity="0.2" d="M257.938 291.846C256.97 323.831 242.563 344.077 225.145 353.985C224.822 353.769 224.285 355.169 223.962 354.954C223.962 354.954 222.994 355.385 221.059 356.031C218.694 356.785 214.823 357.862 209.662 358.615C215.898 352.908 229.123 339.123 234.284 321.892C241.058 299.062 241.058 265.246 237.724 242.631C234.284 220.123 226.435 193.415 226.435 193.415L236.112 191.585C236.327 191.692 259.336 248.877 257.938 291.846Z" fill="black"/>
<path opacity="0.6" d="M168.59 278.6C168.59 278.6 162.354 271.923 157.945 269.554L159.128 274.185C159.128 274.185 144.183 269.769 129.668 285.277C129.668 285.277 118.808 270.954 110.314 276.015C101.82 281.077 108.702 291.738 108.702 291.738L103.648 288.508C103.648 288.508 105.261 297.231 110.099 300.462C110.099 300.462 97.8422 325.123 101.068 353.554C101.068 353.554 92.2512 327.708 102.896 302.4C102.896 302.4 92.4663 283.446 105.154 272.462C117.841 261.477 128.915 279.031 128.915 279.031C128.915 279.031 140.635 260.508 156.118 264.708C167.192 267.831 168.59 278.6 168.59 278.6Z" fill="white"/>
<path opacity="0.2" d="M288.258 284.308C286 283.877 282.022 284.846 278.797 287.754C268.152 297.446 257.4 303.477 257.4 303.477C257.4 303.477 259.013 272.354 255.035 253.4C251.057 234.554 233.961 193.092 233.961 193.092L246.326 189.323C252.24 196.431 268.582 216.892 277.937 239.292C288.043 263.308 288.473 280.215 288.258 284.308Z" fill="black"/>
<path opacity="0.2" d="M304.924 361.738C297.935 367.769 287.506 372.615 280.517 373.046C268.367 373.908 245.681 370.246 223.962 354.954C223.962 354.954 222.994 355.385 221.059 356.031L220.952 355.815C220.952 355.815 237.187 349.138 246.434 335.462L244.821 343.431C244.821 343.431 275.141 339.554 283.743 330.615C283.743 330.615 282.667 368.738 304.924 361.738Z" fill="black"/>
<path opacity="0.6" d="M161.816 191.369C161.816 191.369 143.753 191.369 134.076 185.769C134.076 185.769 112.25 207.092 100.853 226.692C89.4558 246.292 87.413 258.246 87.413 258.246L84.51 245.431C80.8543 253.4 77.6287 261.585 75.1558 269.985C72.5753 278.6 71.3926 287.538 68.1671 295.938C65.1565 303.908 59.9956 311.015 54.7272 317.692C54.5122 316.292 54.4046 314.785 54.2971 313.492C53.652 301.754 56.9851 281.4 63.1137 262.446C69.2423 243.492 88.1656 218.4 104.078 204.185C119.884 189.969 130.098 184.262 130.098 184.262C130.098 184.262 121.712 166.062 120.851 147.215L121.389 136.015C121.389 136.015 126.765 102.738 138.377 93.0461L140.85 94.8769C140.85 94.8769 139.345 103.062 148.699 122.338C148.699 122.338 139.667 117.923 137.947 113.831C137.947 113.831 139.882 121.692 143.968 128.8C143.968 128.8 140.957 130.308 136.012 126.646C136.012 126.646 133.216 176.185 161.816 191.369Z" fill="white"/>
<path opacity="0.6" d="M152.354 87.9846L142.033 80.2307L141.818 86.1538C141.818 86.1538 131.926 74.5231 125.152 72.6923L128.485 77.7538C127.84 77.5384 109.669 70.9692 91.3911 81.6308C92.5738 78.8308 94.0791 76.4615 95.9069 74.3077C103.971 65.2615 122.679 56.9692 145.688 78.6154C145.688 78.6154 145.903 78.5077 146.226 78.4L146.763 80.2307L152.354 87.9846Z" fill="white"/>
<path opacity="0.2" d="M106.444 83.7846C106.444 83.7846 97.6272 90.6769 98.0572 100.369L102.466 95.0923C102.466 95.0923 100.745 103.277 103.111 111.246L105.046 105.969C105.046 105.969 108.164 120.508 123.539 122.769C123.539 122.769 129.56 100.8 138.592 92.7231C138.484 92.8308 121.389 80.0154 106.444 83.7846Z" fill="black"/>
<path opacity="0.2" d="M278.152 84.7539C277.506 90.1385 275.894 106.615 255.573 111.138C255.573 111.138 255.895 118.138 257.078 122.985C258.261 127.831 267.077 137.954 265.249 152.708C263.421 167.462 256.755 178.877 244.068 186.523C256.863 150.769 233.639 133.323 228.37 129.123C222.994 124.923 223.317 121.262 223.317 111.785C223.317 102.308 218.263 90.0308 218.263 90.0308C213.855 78.1846 206.759 72.5846 203.103 70.4308C201.598 69.5692 200.63 69.2462 200.63 69.2462C203.426 69.4616 207.942 70.7539 212.888 72.3692H212.995C222.349 75.4923 232.564 79.5846 232.564 79.5846C246.756 60.8462 262.346 59.7692 270.518 60.8462C277.399 68.7077 278.582 81.3077 278.152 84.7539Z" fill="black"/>
<path opacity="0.4" d="M129.775 296.154C129.775 296.154 145.043 287.431 154.935 293.462C164.827 299.492 170.203 310.585 168.697 325.662C167.192 340.846 156.44 370.462 130.528 368.523C104.616 366.585 106.874 340.415 108.057 333.415C109.239 326.523 115.26 304.554 129.775 296.154Z" fill="black"/>
<path opacity="0.4" d="M323.417 307.569C323.417 307.569 315.891 292.277 305.676 296.477C295.462 300.677 283.958 316.292 284.173 332.446C284.388 348.708 287.291 357.538 295.677 361.954C304.064 366.369 312.988 352.369 312.988 352.369C312.988 352.369 328.255 324.908 323.417 307.569Z" fill="black"/>
<path d="M191.169 69.0308C197.727 69.1385 204.179 69.8923 210.307 71.4C230.306 76.0308 251.272 89.3846 255.25 110.923C256.003 114.908 256.003 119.108 257.078 122.985C258.906 130.092 263.529 135.908 264.927 143.231C268.367 162.292 255.035 188.031 233.961 189.431" stroke="#333333" stroke-miterlimit="10" stroke-linecap="round" stroke-linejoin="round"/>
<path d="M145.903 78.7231C154.72 74.7385 163.536 72.0462 172.46 70.4308" stroke="#333333" stroke-miterlimit="10" stroke-linecap="round" stroke-linejoin="round"/>
<path d="M206.866 134.185C208.351 134.185 209.554 131.87 209.554 129.015C209.554 126.161 208.351 123.846 206.866 123.846C205.382 123.846 204.178 126.161 204.178 129.015C204.178 131.87 205.382 134.185 206.866 134.185Z" fill="#333333"/>
<path d="M240.52 129.769C242.005 129.769 243.208 127.455 243.208 124.6C243.208 121.745 242.005 119.431 240.52 119.431C239.035 119.431 237.832 121.745 237.832 124.6C237.832 127.455 239.035 129.769 240.52 129.769Z" fill="#333333"/>
<path d="M227.618 134.292C225.897 134.831 225.145 136.877 226.112 138.385C228.048 141.4 231.596 145.815 235.574 146.031C241.595 146.246 242.67 136.231 241.38 134.4C240.412 133 232.779 132.677 227.618 134.292Z" fill="#333333"/>
<path d="M87.7354 220.985C66.5542 246.4 53.3294 278.708 54.297 312.2C54.4046 317.262 54.8346 322.754 56.8775 327.385C63.4362 342.569 71.1775 342.138 77.7362 338.046C84.2948 333.954 85.155 309.292 85.155 309.292C85.155 309.292 88.3806 318.338 94.6167 319.523C94.6167 319.523 96.767 319.954 99.0249 318.015" stroke="#333333" stroke-miterlimit="10" stroke-linecap="round" stroke-linejoin="round"/>
<path d="M121.066 136.769C118.378 160.031 129.99 184.262 129.99 184.262C129.775 183.831 103.111 204.938 100.638 207.2C99.7776 208.062 98.9174 208.815 98.0573 209.677" stroke="#333333" stroke-miterlimit="10" stroke-linecap="round" stroke-linejoin="round"/>
<path d="M222.887 132.031C222.887 132.031 229.23 127.185 237.832 130.092" stroke="#333333" stroke-miterlimit="10" stroke-linecap="round" stroke-linejoin="round"/>
<path d="M250.304 54.4923C252.132 54.1692 253.96 53.9538 255.68 54.0615C275.571 54.8154 281.7 81.2 275.679 96.6C272.238 105.431 264.282 109.631 255.143 110.815" stroke="#333333" stroke-miterlimit="10" stroke-linecap="round" stroke-linejoin="round"/>
<path d="M226.22 76.8923C227.618 69.5692 232.994 62.8923 239.767 58.6923" stroke="#333333" stroke-miterlimit="10" stroke-linecap="round" stroke-linejoin="round"/>
<path d="M245.036 90.6769C245.036 90.6769 250.627 65.3692 268.475 70.5385" stroke="#333333" stroke-miterlimit="10" stroke-linecap="round" stroke-linejoin="round"/>
<path d="M248.906 81.4154C248.906 81.4154 263.529 78.0769 265.787 88.8462C268.045 99.6154 253.207 102.738 253.207 102.738" stroke="#333333" stroke-miterlimit="10" stroke-linecap="round" stroke-linejoin="round"/>
<path d="M239.552 60.8462C239.552 60.8462 239.552 56.7539 241.165 54.9231" stroke="#333333" stroke-miterlimit="10" stroke-linecap="round" stroke-linejoin="round"/>
<path d="M244.713 53.7385C243.961 55.2462 243.531 56.9692 243.638 58.6923" stroke="#333333" stroke-miterlimit="10" stroke-linecap="round" stroke-linejoin="round"/>
<path d="M249.444 52.2308C248.799 53.6308 248.584 55.2462 248.691 56.7539" stroke="#333333" stroke-miterlimit="10" stroke-linecap="round" stroke-linejoin="round"/>
<path d="M229.123 129.446C229.123 129.446 228.585 129.231 227.725 128.585" stroke="#333333" stroke-linecap="round" stroke-linejoin="round"/>
<path d="M225.467 126.215C224.392 124.708 223.424 122.554 223.532 119.538C223.747 112.646 222.242 78.7231 201.598 70.5385" stroke="#333333" stroke-linecap="round" stroke-linejoin="round" stroke-dasharray="3.04 3.04"/>
<path d="M199.985 70C199.448 69.7846 198.91 69.6769 198.48 69.5692" stroke="#333333" stroke-linecap="round" stroke-linejoin="round"/>
<path d="M116.443 64.7231C115.153 64.8308 113.755 64.9385 112.357 65.1539C89.9933 69.4615 81.2843 94.5539 94.5091 118.462C102.788 133.431 116.766 136.231 125.045 136.446" stroke="#333333" stroke-miterlimit="10" stroke-linecap="round" stroke-linejoin="round"/>
<path d="M150.097 84.6461C150.097 84.6461 143.645 74.8461 133.216 69.0308" stroke="#333333" stroke-miterlimit="10" stroke-linecap="round" stroke-linejoin="round"/>
<path d="M143.538 97.4615C143.538 97.4615 121.281 72.0461 97.3047 88.3077" stroke="#333333" stroke-miterlimit="10" stroke-linecap="round" stroke-linejoin="round"/>
<path d="M123.324 84.6462C123.324 84.6462 104.293 101.662 124.615 117.6" stroke="#333333" stroke-miterlimit="10" stroke-linecap="round" stroke-linejoin="round"/>
<path d="M123.539 125.462C123.539 125.462 124.83 105.862 138.484 93.0461" stroke="#333333" stroke-miterlimit="10" stroke-linecap="round" stroke-linejoin="round"/>
<path d="M126.442 63.8616C127.517 65.3693 128.27 67.0923 128.485 68.9231" stroke="#333333" stroke-miterlimit="10" stroke-linecap="round" stroke-linejoin="round"/>
<path d="M129.883 63.5385C130.958 65.3692 131.496 67.5231 131.496 69.6769" stroke="#333333" stroke-miterlimit="10" stroke-linecap="round" stroke-linejoin="round"/>
<path d="M119.669 62.4615C121.389 63.8615 122.572 65.9077 122.894 68.1692" stroke="#333333" stroke-miterlimit="10" stroke-linecap="round" stroke-linejoin="round"/>
<path d="M143.753 187.385C143.753 187.385 184.395 200.523 220.199 192.662" stroke="#333333" stroke-miterlimit="10" stroke-linecap="round" stroke-linejoin="round"/>
<path d="M169.988 355.385C196.437 362.815 211.167 361.2 227.295 352.585C245.896 342.677 255.035 322.431 257.508 302.185C262.024 264.923 249.444 225.938 236.327 191.692" stroke="#333333" stroke-miterlimit="10" stroke-linecap="round" stroke-linejoin="round"/>
<path d="M209.124 358.4C209.124 358.615 263.852 330.723 227.833 195.354" stroke="#333333" stroke-miterlimit="10" stroke-linecap="round" stroke-linejoin="round" stroke-dasharray="3 3"/>
<path d="M224.607 354.738C224.607 354.738 257.293 379.4 288.151 371.754C319.009 364.108 329.868 311.985 322.449 305.631C322.449 305.631 325.245 282.046 311.59 281.508C297.935 280.969 293.849 291.415 293.849 291.415C293.849 291.415 291.269 282.262 284.173 284.954C276.969 287.646 265.679 300.031 258.261 303.046" stroke="#333333" stroke-miterlimit="10" stroke-linecap="round" stroke-linejoin="round"/>
<path d="M318.686 302.615C314.708 294.754 307.289 295.4 301.053 298.846C294.709 302.292 290.516 308.646 287.936 315.431C283.635 326.415 283.205 338.908 286.646 350.215C287.613 353.446 289.011 356.677 291.376 359.154C293.742 361.631 297.29 363.138 300.515 362.385C302.128 362.062 305.676 360.554 307.827 358.615" stroke="#333333" stroke-miterlimit="10" stroke-linecap="round" stroke-linejoin="round"/>
<path d="M236.649 353.554C236.649 353.554 256.54 365.831 286.861 354.846" stroke="#333333" stroke-miterlimit="10" stroke-linecap="round" stroke-linejoin="round" stroke-dasharray="3 3"/>
<path d="M60.9633 334.169C63.6512 333.738 65.8016 331.585 67.4144 329.431C76.5535 317.908 80.3167 303.262 83.9723 289.046C85.0475 290.338 87.0904 289.262 88.3806 288.077C93.0039 283.985 94.8317 277.631 96.6596 271.815C101.605 255.985 107.842 240.369 116.873 226.369C125.905 212.369 137.839 200.092 152.462 192.231" stroke="#333333" stroke-miterlimit="10" stroke-linecap="round" stroke-linejoin="round" stroke-dasharray="3 3"/>
<path d="M243.853 187.062C243.853 187.062 286.216 230.031 287.828 283.446" stroke="#333333" stroke-miterlimit="10" stroke-linecap="round" stroke-linejoin="round"/>
<path d="M102.896 302.508C102.896 302.508 81.8219 364.323 125.475 375.846C169.235 387.369 183.427 325.554 181.062 317.046C181.062 317.046 197.19 307.785 190.631 295.185C185.47 285.277 170.633 290.554 170.633 290.554C170.633 290.554 171.815 268.262 154.935 264.385C138.054 260.508 128.808 279.031 128.808 279.031C128.808 279.031 116.766 263.738 105.046 272.462C91.8212 282.585 102.896 302.508 102.896 302.508Z" stroke="#333333" stroke-miterlimit="10" stroke-linecap="round" stroke-linejoin="round"/>
<path d="M116.443 310.262C108.379 323.723 104.831 342.138 110.207 354.308C111.39 357 113.11 359.477 115.26 361.631C118.056 364.431 121.496 366.477 125.152 367.662C152.032 375.954 168.482 344.615 169.02 322.646C169.235 315.215 168.267 307.354 164.181 301.108C156.763 289.477 140.742 289.8 129.883 296.154C129.238 296.585 128.593 297.015 127.84 297.446" stroke="#333333" stroke-miterlimit="10" stroke-linecap="round" stroke-linejoin="round"/>
<path d="M121.604 271.708C121.604 271.708 125.582 242.308 139.99 213.877" stroke="#333333" stroke-miterlimit="10" stroke-linecap="round" stroke-linejoin="round"/>
<path d="M89.9934 212.262C93.6491 210.538 97.9498 210.215 101.928 211.292" stroke="#333333" stroke-miterlimit="10" stroke-linecap="round" stroke-linejoin="round"/>
<path d="M88.2731 216.569C90.6385 215.815 93.1114 215.708 95.5844 216.138" stroke="#333333" stroke-miterlimit="10" stroke-linecap="round" stroke-linejoin="round"/>
<path d="M120.636 297.231C123.109 297.877 125.582 298.846 127.84 300.031" stroke="#333333" stroke-miterlimit="10" stroke-linecap="round" stroke-linejoin="round"/>
<path d="M120.959 301.108C122.572 301.431 124.292 301.969 125.797 302.615" stroke="#333333" stroke-miterlimit="10" stroke-linecap="round" stroke-linejoin="round"/>
<path d="M114.938 308.538C116.228 308.538 117.626 308.646 118.916 308.646" stroke="#333333" stroke-miterlimit="10" stroke-linecap="round" stroke-linejoin="round"/>
<path d="M222.027 193.631C222.027 193.631 220.952 200.846 226.327 201.277C231.703 201.6 238.37 200.954 236.757 193.631C235.037 186.308 224.607 190.292 222.027 193.631Z" fill="#333333"/>
<path d="M172.03 205.154C172.03 205.154 174.181 221.308 184.718 222.815C195.254 224.215 225.79 196.431 225.79 196.431L226.542 190.938L172.03 205.154Z" fill="#333333"/>
<path d="M226.435 190.938C226.435 190.938 179.987 213.123 172.568 205.908C165.042 198.692 226.757 190.615 226.757 190.615L226.435 190.938Z" fill="#333333"/>
<path d="M172.03 205.154C172.03 205.154 174.181 221.308 184.718 222.815C195.254 224.215 225.79 196.431 225.79 196.431L226.542 190.938L172.03 205.154Z" fill="#333333"/>
<path opacity="0.2" d="M226.435 190.938C226.435 190.938 179.987 213.123 172.568 205.908C165.042 198.692 226.757 190.615 226.757 190.615L226.435 190.938Z" fill="black"/>
<path d="M232.671 188.785L231.703 192.985C231.703 192.985 248.584 208.923 266.755 212.8C284.925 216.677 278.797 193.308 278.797 193.308L232.671 188.785Z" fill="#333333"/>
<path d="M232.671 188.785L231.703 192.985C231.703 192.985 248.584 208.923 266.755 212.8C284.925 216.677 278.797 193.308 278.797 193.308L232.671 188.785Z" fill="#333333"/>
<path d="M232.671 188.785C232.671 188.785 270.195 200.954 277.614 195.677C284.925 190.508 255.358 183.508 232.671 188.785Z" fill="#333333"/>
<path opacity="0.2" d="M232.671 188.785C232.671 188.785 270.195 200.954 277.614 195.677C284.925 190.508 255.358 183.508 232.671 188.785Z" fill="black"/>
<path d="M225.36 197.077C225.36 197.077 217.296 228.523 210.845 242.523L227.51 252.646C227.51 252.646 233.961 211.938 229.553 195.892L225.36 197.077Z" fill="#333333"/>
<path d="M229.123 197.4C229.123 197.4 244.068 231 244.713 256.523L261.056 243.169C261.056 243.169 242.993 199.662 232.994 194.708C222.994 189.754 229.123 197.4 229.123 197.4Z" fill="#333333"/>
<path opacity="0.2" d="M243.961 186.631C243.961 186.631 244.068 186.738 244.176 186.846C244.068 186.846 243.961 186.738 243.961 186.738V186.631Z" fill="black"/>
<path d="M172.138 66.4462C174.503 67.5231 176.439 69.6769 177.299 72.1539" stroke="#333333" stroke-miterlimit="10" stroke-linecap="round" stroke-linejoin="round"/>
<path d="M177.621 66.5538C178.804 68.0615 179.879 69.5692 180.739 71.2923" stroke="#333333" stroke-miterlimit="10" stroke-linecap="round" stroke-linejoin="round"/>
<path d="M184.503 66.1231C185.578 68.0616 186.438 70.2154 186.975 72.3693" stroke="#333333" stroke-miterlimit="10" stroke-linecap="round" stroke-linejoin="round"/>
<path opacity="0.2" d="M153.86 191.262C132.033 214.523 121.066 271.6 121.066 271.6C121.066 271.6 112.357 265.031 103.003 273.862C93.1115 283.231 102.896 302.508 102.896 302.508L98.2724 324.154C98.2724 324.154 98.1649 324.369 97.9498 324.908C98.2724 321.462 98.5949 319.308 98.5949 319.308C98.5949 319.308 89.9934 322.646 85.4776 310.477C85.4776 310.477 85.0476 337.185 73.4355 339.985C67.8445 341.277 63.6513 338.908 60.6407 334.923C74.7257 329.646 83.9724 289.262 83.9724 289.262C94.9393 289.046 102.358 252.323 110.315 237.462C126.012 207.523 153.107 191.692 153.86 191.262Z" fill="black"/>
<path opacity="0.2" d="M158.59 265.677C158.59 265.677 174.288 268.477 176.761 282.046C176.761 282.046 189.018 275.8 196.867 286.138C204.716 296.477 202.781 310.046 192.136 318.769C192.136 318.769 190.201 344.831 176.116 356.785L169.987 355.385C169.987 355.385 181.062 331.262 181.169 317.154C181.169 317.154 194.072 309.723 190.954 296.477C187.836 283.231 170.848 290.662 170.848 290.662C170.848 290.662 170.525 272.892 158.59 265.677Z" fill="black"/>
</g>
<defs>
<clipPath id="clip0_303_516">
<rect width="439" height="392" fill="white"/>
</clipPath>
</defs>
</svg>
