<svg width="184" height="220" viewBox="0 0 184 220" fill="none" xmlns="http://www.w3.org/2000/svg">
<path d="M33.178 174.696C33.067 174.695 32.9605 174.651 32.8821 174.571C32.8036 174.492 32.7595 174.384 32.7595 174.272V170.965C32.7595 169.139 32.0423 167.387 30.7657 166.096C29.4891 164.804 27.7576 164.079 25.9522 164.079C24.1468 164.079 22.4153 164.804 21.1387 166.096C19.862 167.387 19.1448 169.139 19.1448 170.965V174.272C19.1448 174.384 19.1007 174.492 19.0222 174.571C18.9437 174.651 18.8372 174.696 18.7262 174.696C18.6151 174.696 18.5086 174.651 18.4301 174.571C18.3516 174.492 18.3075 174.384 18.3075 174.272V170.965C18.3017 169.946 18.4952 168.935 18.8768 167.992C19.2584 167.049 19.8206 166.191 20.5311 165.468C21.2415 164.746 22.0862 164.172 23.0165 163.781C23.9468 163.389 24.9445 163.188 25.9521 163.188C26.9596 163.188 27.9573 163.389 28.8876 163.781C29.818 164.172 30.6626 164.746 31.3731 165.468C32.0835 166.191 32.6457 167.049 33.0273 167.992C33.4089 168.935 33.6024 169.946 33.5966 170.965V174.272C33.5966 174.384 33.5525 174.492 33.474 174.571C33.3955 174.651 33.289 174.696 33.178 174.696Z" fill="#494945"/>
<path d="M43.0934 171.414H34.2848V219.505H43.0934V171.414Z" fill="#0CBC8B"/>
<path opacity="0.21" d="M43.0934 171.414H34.2848V219.505H43.0934V171.414Z" fill="#0A0A0A"/>
<path d="M34.2848 171.414H0V219.505H34.2848V171.414Z" fill="#0CBC8B"/>
<path d="M24.3686 174.696C24.2576 174.695 24.1512 174.651 24.0728 174.571C23.9943 174.492 23.9502 174.384 23.9502 174.272V170.965C23.9556 170.057 23.7836 169.157 23.4439 168.317C23.1042 167.477 22.6036 166.713 21.971 166.069C21.3383 165.425 20.586 164.914 19.7574 164.565C18.9288 164.217 18.0402 164.037 17.1427 164.037C16.2453 164.037 15.3567 164.217 14.5281 164.565C13.6995 164.914 12.9472 165.425 12.3145 166.069C11.6818 166.713 11.1813 167.477 10.8416 168.317C10.5019 169.157 10.3298 170.057 10.3353 170.965V174.272C10.3366 174.328 10.3268 174.385 10.3064 174.437C10.286 174.49 10.2553 174.538 10.2163 174.578C10.1773 174.619 10.1307 174.651 10.0793 174.673C10.0278 174.695 9.97255 174.706 9.91671 174.706C9.86087 174.706 9.8056 174.695 9.75414 174.673C9.70269 174.651 9.65609 174.619 9.61709 174.578C9.57809 174.538 9.54747 174.49 9.52705 174.437C9.50663 174.385 9.49681 174.328 9.49817 174.272V170.965C9.49242 169.946 9.68591 168.935 10.0675 167.992C10.4491 167.049 11.0113 166.191 11.7217 165.468C12.4322 164.746 13.2768 164.172 14.2072 163.781C15.1375 163.389 16.1352 163.188 17.1427 163.188C18.1503 163.188 19.148 163.389 20.0783 163.781C21.0086 164.172 21.8533 164.746 22.5637 165.468C23.2742 166.191 23.8364 167.049 24.218 167.992C24.5996 168.935 24.793 169.946 24.7873 170.965V174.272C24.7873 174.384 24.7432 174.492 24.6647 174.571C24.5862 174.651 24.4797 174.696 24.3686 174.696Z" fill="#494945"/>
<path opacity="0.11" d="M34.2848 171.414L38.6891 176.212L43.0932 171.414H34.2848Z" fill="#0A0A0A"/>
<path opacity="0.11" d="M34.2848 219.505L38.6891 214.707L43.0932 219.505H34.2848Z" fill="#0A0A0A"/>
<path d="M130.612 0H57.6579C51.6228 0 46.7303 4.94899 46.7303 11.0539V184.534C46.7303 190.639 51.6228 195.588 57.6579 195.588H130.612C136.647 195.588 141.54 190.639 141.54 184.534V11.0539C141.54 4.94899 136.647 0 130.612 0Z" fill="#292A2E"/>
<path d="M130.578 3.45172H57.6922C53.5481 3.45172 50.1886 6.85004 50.1886 11.0421V184.288C50.1886 188.48 53.5481 191.878 57.6922 191.878H130.578C134.722 191.878 138.081 188.48 138.081 184.288V11.0421C138.081 6.85004 134.722 3.45172 130.578 3.45172Z" fill="white"/>
<path d="M76.1339 2.02466H112.135V5.79291C112.135 6.8735 111.711 7.90983 110.955 8.67402C110.2 9.4382 109.176 9.86765 108.107 9.86791H80.1624C79.0939 9.86791 78.0693 9.43858 77.3138 8.67437C76.5583 7.91016 76.1339 6.87367 76.1339 5.79291V2.02466Z" fill="#292A2E"/>
<g opacity="0.15">
<path d="M130.19 61.6257H58.0791C57.0824 61.6246 56.1269 61.2236 55.4221 60.5107C54.7174 59.7978 54.3209 58.8312 54.3198 57.823V19.343C54.3209 18.3348 54.7174 17.3682 55.4221 16.6553C56.1269 15.9424 57.0824 15.5414 58.0791 15.5403H130.19C131.187 15.5414 132.143 15.9424 132.847 16.6553C133.552 17.3682 133.949 18.3348 133.95 19.343V57.823C133.949 58.8312 133.552 59.7978 132.847 60.5107C132.143 61.2236 131.187 61.6246 130.19 61.6257ZM58.0791 16.0436C57.2144 16.0447 56.3855 16.3927 55.7741 17.0112C55.1627 17.6298 54.8188 18.4683 54.8178 19.343V57.823C54.8188 58.6977 55.1626 59.5363 55.774 60.1549C56.3854 60.7734 57.2144 61.1214 58.0791 61.1224H130.19C131.055 61.1215 131.884 60.7736 132.496 60.155C133.107 59.5365 133.451 58.6978 133.452 57.823V19.343C133.451 18.4682 133.107 17.6296 132.496 17.011C131.884 16.3925 131.055 16.0446 130.19 16.0436H58.0791Z" fill="#292A2E"/>
</g>
<g opacity="0.43">
<path d="M95.8327 26.3473C97.1229 26.3473 98.1688 25.2893 98.1688 23.9842C98.1688 22.6791 97.1229 21.6211 95.8327 21.6211C94.5425 21.6211 93.4966 22.6791 93.4966 23.9842C93.4966 25.2893 94.5425 26.3473 95.8327 26.3473Z" fill="#94CBB1"/>
<path d="M103.296 26.3473C104.586 26.3473 105.632 25.2893 105.632 23.9842C105.632 22.6791 104.586 21.6211 103.296 21.6211C102.005 21.6211 100.959 22.6791 100.959 23.9842C100.959 25.2893 102.005 26.3473 103.296 26.3473Z" fill="#94CBB1"/>
<path d="M110.758 26.3473C112.049 26.3473 113.094 25.2893 113.094 23.9842C113.094 22.6791 112.049 21.6211 110.758 21.6211C109.468 21.6211 108.422 22.6791 108.422 23.9842C108.422 25.2893 109.468 26.3473 110.758 26.3473Z" fill="#94CBB1"/>
<path d="M118.221 26.3473C119.511 26.3473 120.557 25.2893 120.557 23.9842C120.557 22.6791 119.511 21.6211 118.221 21.6211C116.931 21.6211 115.885 22.6791 115.885 23.9842C115.885 25.2893 116.931 26.3473 118.221 26.3473Z" fill="#94CBB1"/>
<path d="M125.684 26.3473C126.974 26.3473 128.02 25.2893 128.02 23.9842C128.02 22.6791 126.974 21.6211 125.684 21.6211C124.394 21.6211 123.348 22.6791 123.348 23.9842C123.348 25.2893 124.394 26.3473 125.684 26.3473Z" fill="#94CBB1"/>
</g>
<g opacity="0.15">
<path d="M128.02 31.295H94.1348V31.7983H128.02V31.295Z" fill="#292A2E"/>
</g>
<g opacity="0.15">
<path d="M128.02 36.3277H94.1348V36.831H128.02V36.3277Z" fill="#292A2E"/>
</g>
<g opacity="0.15">
<path d="M112.136 41.3605H94.1348V41.8637H112.136V41.3605Z" fill="#292A2E"/>
</g>
<g opacity="0.15">
<path d="M128.269 55.0885H116.696V51.3602H128.269V55.0885ZM117.194 54.5852H127.771V51.8635H117.194V54.5852Z" fill="#292A2E"/>
</g>
<path d="M112.061 51.6116H100.985V54.8366H112.061V51.6116Z" fill="#0CBC8B"/>
<path d="M85.2748 28.2839C84.7372 26.8928 82.9509 26.0383 79.665 24.9935C79.561 24.9605 79.2378 24.8805 78.9112 24.8017C78.8117 24.7777 78.7082 24.7764 78.6082 24.7977C78.5081 24.819 78.4139 24.8626 78.3325 24.9251C78.251 24.9877 78.1843 25.0678 78.1372 25.1596C78.09 25.2514 78.0635 25.3526 78.0597 25.456C78.0597 25.456 77.6617 27.2089 74.7378 27.2089C71.28 27.2089 70.8073 25.456 70.8073 25.456C70.8035 25.3526 70.777 25.2514 70.7299 25.1596C70.6827 25.0678 70.616 24.9877 70.5345 24.9251C70.4531 24.8626 70.359 24.819 70.2589 24.7977C70.1588 24.7764 70.0553 24.7777 69.9558 24.8017C69.6289 24.8805 69.3058 24.9605 69.2018 24.9935C65.9159 26.0383 64.1298 26.8928 63.5922 28.2839C61.7051 33.1656 58.8304 48.5195 58.8304 48.5195L63.1114 49.6554L66.711 36.7716C67.2247 38.7039 67.3881 44.606 67.3881 44.606H71.4892H77.3776H81.3685C81.3685 44.606 81.6421 38.7039 82.1558 36.7716L85.7554 49.6554L90.0363 48.5195C90.0363 48.5195 87.1617 33.1656 85.2748 28.2839Z" fill="#94CBB1"/>
<path opacity="0.48" d="M85.2748 28.2839C84.7372 26.8928 82.9509 26.0383 79.665 24.9935C79.561 24.9605 79.2378 24.8805 78.9112 24.8017C78.8117 24.7777 78.7082 24.7764 78.6082 24.7977C78.5081 24.819 78.4139 24.8626 78.3325 24.9251C78.251 24.9877 78.1843 25.0678 78.1372 25.1596C78.09 25.2514 78.0635 25.3526 78.0597 25.456C78.0597 25.456 77.6617 27.2089 74.7378 27.2089C71.28 27.2089 70.8073 25.456 70.8073 25.456C70.8035 25.3526 70.777 25.2514 70.7299 25.1596C70.6827 25.0678 70.616 24.9877 70.5345 24.9251C70.4531 24.8626 70.359 24.819 70.2589 24.7977C70.1588 24.7764 70.0553 24.7777 69.9558 24.8017C69.6289 24.8805 69.3058 24.9605 69.2018 24.9935C65.9159 26.0383 64.1298 26.8928 63.5922 28.2839C61.7051 33.1656 58.8304 48.5195 58.8304 48.5195L63.1114 49.6554L66.711 36.7716C67.2247 38.7039 67.3881 44.606 67.3881 44.606H71.4892H77.3776H81.3685C81.3685 44.606 81.6421 38.7039 82.1558 36.7716L85.7554 49.6554L90.0363 48.5195C90.0363 48.5195 87.1617 33.1656 85.2748 28.2839Z" fill="white"/>
<g opacity="0.15">
<path d="M130.19 115.811H58.0791C57.0825 115.81 56.127 115.409 55.4222 114.696C54.7175 113.983 54.321 113.017 54.3198 112.009V73.5281C54.3211 72.52 54.7176 71.5536 55.4223 70.8408C56.127 70.128 57.0825 69.727 58.0791 69.7259H130.19C131.187 69.727 132.142 70.128 132.847 70.8408C133.552 71.5536 133.948 72.52 133.95 73.5281V112.009C133.948 113.017 133.552 113.983 132.847 114.696C132.142 115.409 131.187 115.81 130.19 115.811ZM58.0791 70.2292C57.2145 70.2303 56.3856 70.5782 55.7743 71.1967C55.1629 71.8151 54.819 72.6535 54.8178 73.5281V112.009C54.8188 112.883 55.1627 113.722 55.7741 114.34C56.3855 114.959 57.2144 115.307 58.0791 115.308H130.19C131.055 115.307 131.884 114.959 132.496 114.34C133.107 113.722 133.451 112.883 133.452 112.009V73.5281C133.451 72.6534 133.107 71.8147 132.496 71.1962C131.884 70.5776 131.055 70.2297 130.19 70.2287L58.0791 70.2292Z" fill="#292A2E"/>
</g>
<g opacity="0.43">
<path d="M95.8327 80.5329C97.1229 80.5329 98.1688 79.4749 98.1688 78.1698C98.1688 76.8646 97.1229 75.8066 95.8327 75.8066C94.5425 75.8066 93.4966 76.8646 93.4966 78.1698C93.4966 79.4749 94.5425 80.5329 95.8327 80.5329Z" fill="#94CBB1"/>
<path d="M103.296 80.5329C104.586 80.5329 105.632 79.4749 105.632 78.1698C105.632 76.8646 104.586 75.8066 103.296 75.8066C102.005 75.8066 100.959 76.8646 100.959 78.1698C100.959 79.4749 102.005 80.5329 103.296 80.5329Z" fill="#94CBB1"/>
<path d="M110.758 80.5329C112.049 80.5329 113.094 79.4749 113.094 78.1698C113.094 76.8646 112.049 75.8066 110.758 75.8066C109.468 75.8066 108.422 76.8646 108.422 78.1698C108.422 79.4749 109.468 80.5329 110.758 80.5329Z" fill="#94CBB1"/>
<path d="M118.221 80.5329C119.511 80.5329 120.557 79.4749 120.557 78.1698C120.557 76.8646 119.511 75.8066 118.221 75.8066C116.931 75.8066 115.885 76.8646 115.885 78.1698C115.885 79.4749 116.931 80.5329 118.221 80.5329Z" fill="#94CBB1"/>
<path d="M125.684 80.5329C126.974 80.5329 128.02 79.4749 128.02 78.1698C128.02 76.8646 126.974 75.8066 125.684 75.8066C124.394 75.8066 123.348 76.8646 123.348 78.1698C123.348 79.4749 124.394 80.5329 125.684 80.5329Z" fill="#94CBB1"/>
</g>
<g opacity="0.15">
<path d="M128.02 85.4803H94.1348V85.9836H128.02V85.4803Z" fill="#292A2E"/>
</g>
<g opacity="0.15">
<path d="M128.02 90.5131H94.1348V91.0163H128.02V90.5131Z" fill="#292A2E"/>
</g>
<g opacity="0.15">
<path d="M112.136 95.5458H94.1348V96.049H112.136V95.5458Z" fill="#292A2E"/>
</g>
<g opacity="0.15">
<path d="M128.269 109.274H116.696V105.546H128.269V109.274ZM117.194 108.77H127.771V106.049H117.194V108.77Z" fill="#292A2E"/>
</g>
<path d="M112.061 105.797H100.985V109.022H112.061V105.797Z" fill="#0CBC8B"/>
<path opacity="0.48" d="M85.0792 84.6071C84.2722 83.597 82.4941 82.9526 80.4164 82.4418C79.5721 82.2347 79 82.1567 79 82.1567C78.3316 83.8706 76.2651 85.1111 74.4437 85.1114H74.3173C72.4959 85.1114 70.5361 83.8706 69.8672 82.1567C69.8672 82.1567 69.2951 82.2344 68.4493 82.4418C66.3719 82.9526 64.5935 83.597 63.7867 84.6071C62.5464 86.159 60.8105 92.0004 60.8105 92.0004L65.8432 94.1217C65.8821 94.2276 65.9202 94.3337 65.9577 94.4401C65.9845 94.516 66.0111 94.592 66.0373 94.6678C66.0348 94.6602 66.0321 94.6529 66.0296 94.6454C66.0358 94.663 66.042 94.6811 66.0477 94.699C66.9093 97.2723 67.5068 99.9285 67.8308 102.626C67.8525 102.618 81.0117 102.618 81.0331 102.626C81.3572 99.9285 81.9548 97.2723 82.8165 94.699C82.8225 94.6811 82.8284 94.6633 82.8349 94.6454C82.8584 94.5769 82.8823 94.5085 82.9065 94.4401C82.944 94.3339 82.9822 94.2278 83.021 94.1217L88.0537 92.0004C88.0537 92.0004 86.3196 86.1602 85.0792 84.6071Z" fill="white"/>
<path d="M85.0792 84.6071C84.2722 83.597 82.4941 82.9526 80.4164 82.4418C79.5721 82.2347 79 82.1567 79 82.1567C78.3316 83.8706 76.2651 85.1111 74.4437 85.1114H74.3173C72.4959 85.1114 70.5361 83.8706 69.8672 82.1567C69.8672 82.1567 69.2951 82.2344 68.4493 82.4418C66.3719 82.9526 64.5935 83.597 63.7867 84.6071C62.5464 86.159 60.8105 92.0004 60.8105 92.0004L65.8432 94.1217C65.8821 94.2276 65.9202 94.3337 65.9577 94.4401C65.9845 94.516 66.0111 94.592 66.0373 94.6678C66.0348 94.6602 66.0321 94.6529 66.0296 94.6454C66.0358 94.663 66.042 94.6811 66.0477 94.699C66.9093 97.2723 67.5068 99.9285 67.8308 102.626C67.8525 102.618 81.0117 102.618 81.0331 102.626C81.3572 99.9285 81.9548 97.2723 82.8165 94.699C82.8225 94.6811 82.8284 94.6633 82.8349 94.6454C82.8584 94.5769 82.8823 94.5085 82.9065 94.4401C82.944 94.3339 82.9822 94.2278 83.021 94.1217L88.0537 92.0004C88.0537 92.0004 86.3196 86.1602 85.0792 84.6071Z" fill="#94CBB1"/>
<path opacity="0.48" d="M85.0792 84.6071C84.2722 83.597 82.4941 82.9526 80.4164 82.4418C79.5721 82.2347 79 82.1567 79 82.1567C78.3316 83.8706 76.2651 85.1111 74.4437 85.1114H74.3173C72.4959 85.1114 70.5361 83.8706 69.8672 82.1567C69.8672 82.1567 69.2951 82.2344 68.4493 82.4418C66.3719 82.9526 64.5935 83.597 63.7867 84.6071C62.5464 86.159 60.8105 92.0004 60.8105 92.0004L65.8432 94.1217C65.8821 94.2276 65.9202 94.3337 65.9577 94.4401C65.9845 94.516 66.0111 94.592 66.0373 94.6678C66.0348 94.6602 66.0321 94.6529 66.0296 94.6454C66.0358 94.663 66.042 94.6811 66.0477 94.699C66.9093 97.2723 67.5068 99.9285 67.8308 102.626C67.8525 102.618 81.0117 102.618 81.0331 102.626C81.3572 99.9285 81.9548 97.2723 82.8165 94.699C82.8225 94.6811 82.8284 94.6633 82.8349 94.6454C82.8584 94.5769 82.8823 94.5085 82.9065 94.4401C82.944 94.3339 82.9822 94.2278 83.021 94.1217L88.0537 92.0004C88.0537 92.0004 86.3196 86.1602 85.0792 84.6071Z" fill="white"/>
<g opacity="0.15">
<path d="M130.19 169.242H58.0791C57.0824 169.24 56.1269 168.839 55.4221 168.126C54.7174 167.413 54.3209 166.447 54.3198 165.439V126.959C54.321 125.95 54.7175 124.984 55.4222 124.271C56.127 123.558 57.0825 123.157 58.0791 123.156H130.19C131.187 123.157 132.142 123.558 132.847 124.271C133.552 124.984 133.948 125.95 133.95 126.959V165.439C133.949 166.447 133.552 167.413 132.847 168.126C132.143 168.839 131.187 169.24 130.19 169.242ZM58.0791 123.659C57.2144 123.66 56.3854 124.008 55.7739 124.627C55.1624 125.245 54.8184 126.084 54.8173 126.959V165.439C54.8183 166.313 55.1622 167.152 55.7737 167.771C56.3852 168.389 57.2143 168.737 58.0791 168.738H130.19C131.055 168.737 131.884 168.389 132.496 167.771C133.107 167.152 133.451 166.313 133.452 165.439V126.959C133.451 126.084 133.107 125.245 132.496 124.627C131.884 124.008 131.055 123.66 130.19 123.659H58.0791Z" fill="#292A2E"/>
</g>
<g opacity="0.43">
<path d="M95.8327 133.963C97.1229 133.963 98.1688 132.905 98.1688 131.6C98.1688 130.295 97.1229 129.237 95.8327 129.237C94.5425 129.237 93.4966 130.295 93.4966 131.6C93.4966 132.905 94.5425 133.963 95.8327 133.963Z" fill="#94CBB1"/>
<path d="M103.296 133.963C104.586 133.963 105.632 132.905 105.632 131.6C105.632 130.295 104.586 129.237 103.296 129.237C102.005 129.237 100.959 130.295 100.959 131.6C100.959 132.905 102.005 133.963 103.296 133.963Z" fill="#94CBB1"/>
<path d="M110.758 133.963C112.049 133.963 113.094 132.905 113.094 131.6C113.094 130.295 112.049 129.237 110.758 129.237C109.468 129.237 108.422 130.295 108.422 131.6C108.422 132.905 109.468 133.963 110.758 133.963Z" fill="#94CBB1"/>
<path d="M118.221 133.963C119.511 133.963 120.557 132.905 120.557 131.6C120.557 130.295 119.511 129.237 118.221 129.237C116.931 129.237 115.885 130.295 115.885 131.6C115.885 132.905 116.931 133.963 118.221 133.963Z" fill="#94CBB1"/>
<path d="M125.684 133.963C126.974 133.963 128.02 132.905 128.02 131.6C128.02 130.295 126.974 129.237 125.684 129.237C124.394 129.237 123.348 130.295 123.348 131.6C123.348 132.905 124.394 133.963 125.684 133.963Z" fill="#94CBB1"/>
</g>
<g opacity="0.15">
<path d="M128.02 138.911H94.1348V139.414H128.02V138.911Z" fill="#292A2E"/>
</g>
<g opacity="0.15">
<path d="M128.02 143.943H94.1348V144.447H128.02V143.943Z" fill="#292A2E"/>
</g>
<g opacity="0.15">
<path d="M112.136 148.976H94.1348V149.479H112.136V148.976Z" fill="#292A2E"/>
</g>
<g opacity="0.15">
<path d="M128.269 162.704H116.696V158.976H128.269V162.704ZM117.194 162.201H127.771V159.479H117.194V162.201Z" fill="#292A2E"/>
</g>
<path d="M112.061 159.227H100.985V162.452H112.061V159.227Z" fill="#0CBC8B"/>
<path opacity="0.48" d="M81.3687 159.476C81.502 159.476 81.6335 159.445 81.7532 159.386C81.8729 159.326 81.9777 159.24 82.0597 159.134C82.1416 159.028 82.1986 158.904 82.2264 158.772C82.2541 158.64 82.2519 158.503 82.2198 158.373C81.3262 154.615 81.2583 147.54 82.0292 144.5L82.8825 141.135L82.881 141.119C82.8958 141.004 82.8847 140.887 82.8485 140.777C82.8123 140.667 82.7519 140.566 82.6718 140.483C79.4456 137.134 79.8707 133.694 79.8707 133.694H78.4801C78.5704 134.505 78.5179 135.325 78.3252 136.117C77.9769 137.507 77.0503 139.05 74.7012 139.421C73.9547 139.534 73.1957 139.534 72.4492 139.421C70.1001 139.05 69.1735 137.507 68.8252 136.117C68.6325 135.325 68.58 134.505 68.6702 133.694H67.2804C67.2804 133.694 67.7048 137.134 64.4786 140.483C64.3985 140.566 64.3381 140.667 64.3018 140.777C64.2656 140.887 64.2545 141.004 64.2694 141.119L64.2577 141.135L65.1109 144.5C65.8821 147.54 65.8139 154.615 64.9206 158.372C64.8885 158.503 64.8862 158.64 64.9139 158.772C64.9416 158.904 64.9986 159.027 65.0806 159.134C65.1625 159.24 65.2673 159.326 65.387 159.385C65.5067 159.445 65.6381 159.476 65.7714 159.476L81.3687 159.476Z" fill="white"/>
<path d="M81.3687 159.476C81.502 159.476 81.6335 159.445 81.7532 159.386C81.8729 159.326 81.9777 159.24 82.0597 159.134C82.1416 159.028 82.1986 158.904 82.2264 158.772C82.2541 158.64 82.2519 158.503 82.2198 158.373C81.3262 154.615 81.2583 147.54 82.0292 144.5L82.8825 141.135L82.881 141.119C82.8958 141.004 82.8847 140.887 82.8485 140.777C82.8123 140.667 82.7519 140.566 82.6718 140.483C79.4456 137.134 79.8707 133.694 79.8707 133.694H78.4801C78.5704 134.505 78.5179 135.325 78.3252 136.117C77.9769 137.507 77.0503 139.05 74.7012 139.421C73.9547 139.534 73.1957 139.534 72.4492 139.421C70.1001 139.05 69.1735 137.507 68.8252 136.117C68.6325 135.325 68.58 134.505 68.6702 133.694H67.2804C67.2804 133.694 67.7048 137.134 64.4786 140.483C64.3985 140.566 64.3381 140.667 64.3018 140.777C64.2656 140.887 64.2545 141.004 64.2694 141.119L64.2577 141.135L65.1109 144.5C65.8821 147.54 65.8139 154.615 64.9206 158.372C64.8885 158.503 64.8862 158.64 64.9139 158.772C64.9416 158.904 64.9986 159.027 65.0806 159.134C65.1625 159.24 65.2673 159.326 65.387 159.385C65.5067 159.445 65.6381 159.476 65.7714 159.476L81.3687 159.476Z" fill="#94CBB1"/>
<path opacity="0.48" d="M81.3687 159.476C81.502 159.476 81.6335 159.445 81.7532 159.386C81.8729 159.326 81.9777 159.24 82.0597 159.134C82.1416 159.028 82.1986 158.904 82.2264 158.772C82.2541 158.64 82.2519 158.503 82.2198 158.373C81.3262 154.615 81.2583 147.54 82.0292 144.5L82.8825 141.135L82.881 141.119C82.8958 141.004 82.8847 140.887 82.8485 140.777C82.8123 140.667 82.7519 140.566 82.6718 140.483C79.4456 137.134 79.8707 133.694 79.8707 133.694H78.4801C78.5704 134.505 78.5179 135.325 78.3252 136.117C77.9769 137.507 77.0503 139.05 74.7012 139.421C73.9547 139.534 73.1957 139.534 72.4492 139.421C70.1001 139.05 69.1735 137.507 68.8252 136.117C68.6325 135.325 68.58 134.505 68.6702 133.694H67.2804C67.2804 133.694 67.7048 137.134 64.4786 140.483C64.3985 140.566 64.3381 140.667 64.3018 140.777C64.2656 140.887 64.2545 141.004 64.2694 141.119L64.2577 141.135L65.1109 144.5C65.8821 147.54 65.8139 154.615 64.9206 158.372C64.8885 158.503 64.8862 158.64 64.9139 158.772C64.9416 158.904 64.9986 159.027 65.0806 159.134C65.1625 159.24 65.2673 159.326 65.387 159.385C65.5067 159.445 65.6381 159.476 65.7714 159.476L81.3687 159.476Z" fill="white"/>
<path d="M161.919 208.867C161.919 208.867 160.796 214.755 155.345 215.084C149.894 215.414 151.076 219.806 151.076 219.806H171.907V209.278L161.919 208.867Z" fill="#94CBB1"/>
<path d="M168.344 101.436C168.344 101.436 168.279 99.6654 168.293 103.681C168.344 118.661 168.601 135.771 169.229 145.784C170.239 161.879 172.826 212.625 172.826 212.625L159.138 212.509L145.871 100.827L168.344 101.436Z" fill="#262626"/>
<path d="M152.887 119.1C152.887 119.1 152.319 129.97 152.215 132.522C151.972 138.424 151.887 144.535 151.887 151.464L149.73 133.3C149.73 133.3 151.308 127.609 152.887 119.1Z" fill="#0A0A0A"/>
<path d="M137.55 208.867C137.55 208.867 136.427 214.755 130.976 215.084C125.525 215.414 126.707 219.806 126.707 219.806H147.538V209.278L137.55 208.867Z" fill="#94CBB1"/>
<path d="M130.922 102.599C130.922 102.599 129.71 153.796 129.888 156.298L134.978 212.237L148.44 212.489L147.129 154.274C147.129 154.274 148.054 138.216 151.889 123.305C153.852 115.652 155.033 107.815 155.414 99.9181L130.922 102.599Z" fill="#262626"/>
<path d="M168.493 101.435L168.538 101.437C168.538 101.437 168.506 100.564 168.493 101.435Z" fill="#333333"/>
<path d="M128.995 74.1824C129.278 77.5372 130.651 98.4676 130.922 102.6H168.33C168.542 98.873 169.49 82.576 170.292 75.2879C171.057 68.3331 172.557 64.851 171.457 62.7951C169.66 59.4348 164.748 57.4929 161.398 57.0342C159.353 56.7541 156.277 56.5533 156.277 56.5533C156.277 56.5533 156.016 61.8822 149.805 62.1794C141.351 62.582 141.915 56.553 141.874 56.553C140.504 56.553 132.529 57.2045 130.766 58.5777C127.683 60.9788 128.396 67.0719 128.995 74.1824Z" fill="#94CBB1"/>
<path d="M128.478 69.9776C128.447 69.9777 128.416 69.9654 128.393 69.9434C128.37 69.9213 128.356 69.8912 128.354 69.8591L128.052 64.5317C128.051 64.4984 128.062 64.4657 128.084 64.4408C128.106 64.4159 128.136 64.4008 128.169 64.3988C128.202 64.3972 128.234 64.4087 128.259 64.4308C128.283 64.453 128.298 64.4839 128.301 64.5171L128.602 69.8445C128.604 69.8778 128.593 69.9105 128.571 69.9354C128.549 69.9603 128.518 69.9754 128.485 69.9774L128.478 69.9776Z" fill="#0C0C0C"/>
<path d="M176.417 102.38C177.517 102.38 178.601 102.111 179.576 101.596C180.551 101.081 181.389 100.335 182.018 99.4217C182.647 98.5087 183.049 97.4554 183.189 96.3515C183.33 95.2476 183.204 94.1259 182.823 93.0816C182.437 92.0215 173.377 67.7529 171.652 63.2562L158.881 68.4902C159.851 71.0186 163.365 80.602 166.187 88.3219L161.498 87.8063L160.022 101.542L175.677 102.339C175.923 102.366 176.17 102.38 176.417 102.38Z" fill="#94CBB1"/>
<path d="M137.417 56.0928C137.459 56.0873 138.607 60.4552 147.561 59.7755C153.76 59.3057 155.273 55.0372 155.414 55.0372C154.746 54.8935 153.66 54.7443 153.363 54.5842C152.387 54.0538 151.676 53.4078 151.318 52.0218C151.038 50.9378 150.895 46.7649 150.895 44.6713L141.356 46.8396C141.489 49.2012 142.42 54.6763 139.158 55.6454C138.616 55.8054 138.031 55.9529 137.417 56.0928Z" fill="#F2E4DE"/>
<path d="M141.686 51.4826C145.447 51.7825 150.278 50.1766 151.196 45.1013L152.024 40.5216C152.941 35.4463 151.05 30.8444 146.326 29.9705C141.602 29.0965 137.327 32.5575 136.409 37.6328L136.043 39.6602C135.691 41.6079 134.977 50.9471 141.686 51.4826Z" fill="#F2E4DE"/>
<path d="M138.2 46.8227C138.875 43.3917 139.184 41.1028 139.148 38.6878C138.197 37.0019 138.447 35.0643 138.664 34.2278C138.009 34.6486 137.239 34.8484 136.465 34.7983C136.465 34.7983 138.037 28.4148 143.382 26.6971C144.364 26.3101 146.874 25.8214 150.205 26.2837C153.039 26.6767 160.024 28.8202 161.022 36.7749V36.7794C161.055 37.0431 161.726 44.3726 163.062 47.8892C164.86 52.6167 167.383 54.0855 167.319 59.5399C167.237 66.5558 154.486 67.4896 146.796 66.9647C139.107 66.4398 134.813 63.8819 134.756 58.8258C134.695 53.1607 136.849 53.6869 138.2 46.8227Z" fill="#0A0A0A"/>
<path d="M169.128 75.4278L168.209 102.596L168.458 102.604L169.377 75.4364L169.128 75.4278Z" fill="#0C0C0C"/>
<path d="M87.9803 44.3734L92.0003 49.1761L91.7515 48.3515C91.6764 48.0837 91.7046 47.7971 91.8304 47.5495C91.9562 47.302 92.1702 47.1119 92.4291 47.0178C92.5645 46.9739 92.7073 46.9584 92.8487 46.9722C92.9902 46.986 93.1274 47.0288 93.252 47.098C93.3766 47.1672 93.4859 47.2614 93.5734 47.3747C93.6608 47.4881 93.7245 47.6183 93.7605 47.7574L95.5981 54.7574C95.8302 55.6411 95.7116 56.5815 95.2679 57.378C94.8241 58.1745 94.0901 58.7641 93.2227 59.0209C92.2156 59.3192 91.1434 59.3064 90.1435 58.9842C89.1436 58.6621 88.2616 58.0452 87.6106 57.2126L84.6683 53.4358C84.5117 53.2426 84.4259 53.0005 84.4254 52.7507C84.425 52.5008 84.5099 52.2584 84.6658 52.0646C84.81 51.8924 85.0049 51.7715 85.222 51.7195C85.4391 51.6674 85.667 51.6871 85.8723 51.7755C85.8754 51.7635 85.8809 51.7522 85.8884 51.7424C85.8959 51.7326 85.9054 51.7245 85.9161 51.7185C85.9269 51.7125 85.9387 51.7087 85.9509 51.7075C85.9632 51.7063 85.9755 51.7076 85.9872 51.7113L85.4422 51.0143C85.2752 50.8099 85.187 50.5514 85.1937 50.2864C85.2005 50.0214 85.3018 49.7678 85.479 49.5724C85.6603 49.3847 85.9041 49.2719 86.1631 49.256C86.422 49.2401 86.6776 49.3222 86.88 49.4864C86.8814 49.4752 86.8849 49.4643 86.8902 49.4544L86.6663 49.1685C86.5203 48.9728 86.4404 48.7346 86.4385 48.4894C86.4367 48.2441 86.5129 48.0048 86.6559 47.8067C86.8306 47.5934 87.081 47.4579 87.3533 47.4291C87.6257 47.4003 87.8983 47.4806 88.1129 47.6527L88.1273 47.6383L86.4382 45.6205C86.3516 45.517 86.2867 45.3968 86.2475 45.2671C86.2083 45.1374 86.1956 45.001 86.2103 44.8662C86.225 44.7314 86.2666 44.601 86.3328 44.4831C86.3989 44.3651 86.4881 44.262 86.5949 44.1801C86.8071 44.0288 87.0681 43.9646 87.3253 44.0005C87.5824 44.0364 87.8165 44.1696 87.9803 44.3734Z" fill="#F2E4DE"/>
<path opacity="0.2" d="M88.0717 47.7649C88.0758 47.7757 88.0818 47.7857 88.0894 47.7943L89.7524 49.7352C89.7704 49.7513 89.7936 49.7603 89.8177 49.7604C89.8417 49.7605 89.865 49.7518 89.8832 49.7359C89.9014 49.72 89.9133 49.698 89.9167 49.6739C89.9201 49.6498 89.9147 49.6253 89.9016 49.6049L88.2384 47.6642C88.2232 47.6466 88.2025 47.635 88.1797 47.6314C88.1569 47.6277 88.1335 47.6323 88.1138 47.6443C88.094 47.6563 88.079 47.6749 88.0714 47.697C88.0639 47.719 88.0643 47.7431 88.0725 47.7649H88.0717Z" fill="#0C0C0C"/>
<path opacity="0.2" d="M86.8824 49.5316C86.8864 49.5422 86.8922 49.552 86.8995 49.5606L88.1948 51.0956C88.2129 51.1109 88.2357 51.1193 88.2593 51.1193C88.2829 51.1192 88.3057 51.1106 88.3236 51.0951C88.3416 51.0796 88.3535 51.0581 88.3572 51.0346C88.361 51.011 88.3563 50.9869 88.3441 50.9665L87.0485 49.4315C87.033 49.4149 87.0123 49.4042 86.99 49.4011C86.9676 49.398 86.9448 49.4027 86.9254 49.4144C86.9061 49.4261 86.8912 49.4442 86.8833 49.4656C86.8754 49.487 86.8749 49.5104 86.8819 49.5321L86.8824 49.5316Z" fill="#0C0C0C"/>
<path opacity="0.2" d="M85.8712 51.8411C85.8754 51.8525 85.8817 51.863 85.8899 51.8718L86.5181 52.5827C86.5259 52.5949 86.5362 52.6053 86.5484 52.6131C86.5605 52.6208 86.5741 52.6259 86.5884 52.6278C86.6026 52.6297 86.6171 52.6285 86.6308 52.6242C86.6446 52.62 86.6572 52.6127 86.6679 52.603C86.6786 52.5933 86.6871 52.5814 86.6929 52.5681C86.6986 52.5548 86.7014 52.5403 86.7011 52.5258C86.7007 52.5113 86.6973 52.497 86.691 52.4839C86.6847 52.4708 86.6757 52.4593 86.6646 52.4501L86.0361 51.7392C86.0203 51.7234 85.9997 51.7133 85.9776 51.7107C85.9555 51.7081 85.9332 51.713 85.9142 51.7248C85.8952 51.7365 85.8807 51.7544 85.8729 51.7755C85.8651 51.7966 85.8645 51.8197 85.8712 51.8411Z" fill="#0C0C0C"/>
<path d="M107.823 89.5952C106.558 89.5952 105.314 89.2642 104.212 88.6343C103.111 88.0044 102.189 87.097 101.536 86.0003L85.27 58.6653L97.8447 51.0085L110.21 71.7889L130.766 58.578L139.474 70.3891L111.795 88.4138C110.611 89.1849 109.232 89.595 107.823 89.5952Z" fill="#94CBB1"/>
<path d="M129.204 77.1968C129.176 77.1968 129.149 77.1873 129.127 77.1698C129.105 77.1524 129.09 77.128 129.083 77.1007C129.077 77.0733 129.079 77.0445 129.091 77.0188C129.102 76.9932 129.122 76.9722 129.147 76.9593L132.699 75.1055C132.728 75.0901 132.762 75.0872 132.794 75.0974C132.825 75.1075 132.851 75.1299 132.866 75.1596C132.881 75.1892 132.884 75.2238 132.874 75.2556C132.864 75.2874 132.842 75.3138 132.813 75.3292L129.261 77.183C129.243 77.1921 129.224 77.1969 129.204 77.1968Z" fill="#0C0C0C"/>
<path d="M72.6533 219.505H63.8447L60.2794 182.989H69.0881L72.6533 219.505Z" fill="#94CBB1"/>
<path opacity="0.21" d="M72.6533 219.505H63.8447L60.2794 182.989H69.0881L72.6533 219.505Z" fill="#0A0A0A"/>
<path d="M63.8446 219.505H29.5601L33.1253 182.989H60.2794L63.8446 219.505Z" fill="#94CBB1"/>
<path d="M46.7028 197.931C45.6989 197.931 44.7048 197.731 43.7773 197.342C42.8499 196.954 42.0071 196.384 41.2973 195.666C40.5874 194.948 40.0243 194.095 39.6402 193.157C39.256 192.219 39.0583 191.213 39.0584 190.198V186.89C39.057 186.834 39.0668 186.778 39.0872 186.725C39.1077 186.672 39.1383 186.625 39.1773 186.584C39.2163 186.544 39.2629 186.512 39.3143 186.49C39.3658 186.468 39.4211 186.456 39.4769 186.456C39.5327 186.456 39.588 186.468 39.6395 186.49C39.6909 186.512 39.7375 186.544 39.7765 186.584C39.8155 186.625 39.8461 186.672 39.8666 186.725C39.887 186.778 39.8968 186.834 39.8954 186.89V190.197C39.8954 192.024 40.6126 193.775 41.8893 195.066C43.1659 196.358 44.8974 197.083 46.7028 197.083C48.5082 197.083 50.2397 196.358 51.5163 195.066C52.7929 193.775 53.5102 192.024 53.5102 190.197V186.89C53.5102 186.778 53.5543 186.67 53.6328 186.591C53.7113 186.511 53.8178 186.467 53.9288 186.467C54.0399 186.467 54.1463 186.511 54.2249 186.591C54.3034 186.67 54.3475 186.778 54.3475 186.89V190.197C54.3453 192.248 53.5392 194.213 52.106 195.663C50.6729 197.113 48.7297 197.928 46.7028 197.931Z" fill="white"/>
<path opacity="0.08" d="M60.2794 182.989L65.1425 187.788L69.0881 182.989H60.2794Z" fill="#0A0A0A"/>
<path opacity="0.08" d="M63.8446 219.505L67.7788 214.707L72.6533 219.505H63.8446Z" fill="#0A0A0A"/>
</svg>
