<svg width="24" height="18" viewBox="0 0 24 18" fill="none" xmlns="http://www.w3.org/2000/svg">
<path fill-rule="evenodd" clip-rule="evenodd" d="M24 9C24 8.35167 23.4801 7.82609 22.8387 7.82609H1.16129C0.519927 7.82609 0 8.35167 0 9C0 9.64833 0.519927 10.1739 1.16129 10.1739H22.8387C23.4801 10.1739 24 9.64833 24 9Z" fill="#F3F3F3"/>
<path fill-rule="evenodd" clip-rule="evenodd" d="M24 1.17391C24 0.525579 23.4801 0 22.8387 0H1.16129C0.519927 0 0 0.525579 0 1.17391C0 1.82225 0.519927 2.34783 1.16129 2.34783H22.8387C23.4801 2.34783 24 1.82225 24 1.17391Z" fill="#F3F3F3"/>
<path fill-rule="evenodd" clip-rule="evenodd" d="M24 16.8261C24 16.1778 23.4801 15.6522 22.8387 15.6522H1.16129C0.519927 15.6522 0 16.1778 0 16.8261C0 17.4744 0.519927 18 1.16129 18H22.8387C23.4801 18 24 17.4744 24 16.8261Z" fill="#F3F3F3"/>
</svg>
