<svg width="220" height="220" viewBox="0 0 220 220" fill="none" xmlns="http://www.w3.org/2000/svg">
<g clip-path="url(#clip0_737_590)">
<path d="M182.417 52.2797L143.869 52.2797V0L182.417 0V52.2797Z" fill="#F4F4F4"/>
<path d="M182.417 0H183.668V52.2797H182.417V0Z" fill="#F4F4F4"/>
<path opacity="0.05" d="M182.417 0H183.668V52.2797H182.417V0Z" fill="#292A2E"/>
<path opacity="0.05" d="M175.395 42.7562H150.891V9.52323H175.395V42.7562Z" fill="#292A2E"/>
<path opacity="0.03" d="M175.395 42.7562H174.118V9.52323H175.395V42.7562Z" fill="#292A2E"/>
<path d="M213.944 98.2865H182.417V65.1364H213.944V98.2865Z" fill="#F4F4F4"/>
<path opacity="0.05" d="M208.201 92.2477H188.16V71.1751H208.201V92.2477Z" fill="#292A2E"/>
<path d="M213.944 65.1361H215.194V98.2862H213.944V65.1361Z" fill="#F4F4F4"/>
<path opacity="0.05" d="M213.944 65.1361H215.194V98.2862H213.944V65.1361Z" fill="#292A2E"/>
<path opacity="0.03" d="M208.2 92.2477H206.923V71.1751H208.2V92.2477Z" fill="#292A2E"/>
<path d="M11.6251 1.86304H102.379V96.4232H11.6251V1.86304Z" fill="#F4F4F4"/>
<path d="M10.585 1.86304H11.6252V96.4232H10.585V1.86304Z" fill="#F4F4F4"/>
<path opacity="0.05" d="M10.585 1.86304H11.6252V96.4232H10.585V1.86304Z" fill="#292A2E"/>
<path opacity="0.05" d="M33.6106 67.0227V42.2828H53.0608V56.6561H83.1889V82.1061H95.9937V96.4232H83.1889H80.722H15.9908V67.0227H33.6106Z" fill="#292A2E"/>
<path opacity="0.34" d="M36.4003 44.9689H50.5641V47.6551H36.4003V44.9689Z" fill="#FFFFFA"/>
<path opacity="0.34" d="M36.4003 50.5354H50.5641V53.2215H36.4003V50.5354Z" fill="#FFFFFA"/>
<path opacity="0.34" d="M36.4003 56.1017H50.5641V58.7878H36.4003V56.1017Z" fill="#FFFFFA"/>
<path opacity="0.34" d="M18.5024 69.6302H21.1129V72.3163H18.5024V69.6302Z" fill="#FFFFFA"/>
<path opacity="0.34" d="M18.5024 75.1967H21.1129V77.8828H18.5024V75.1967Z" fill="#FFFFFA"/>
<path opacity="0.34" d="M18.5024 80.7629H21.1129V83.4491H18.5024V80.7629Z" fill="#FFFFFA"/>
<path opacity="0.34" d="M23.3319 69.6302H25.9424V72.3163H23.3319V69.6302Z" fill="#FFFFFA"/>
<path opacity="0.34" d="M23.3319 75.1967H25.9424V77.8828H23.3319V75.1967Z" fill="#FFFFFA"/>
<path opacity="0.34" d="M23.3319 80.7629H25.9424V83.4491H23.3319V80.7629Z" fill="#FFFFFA"/>
<path opacity="0.34" d="M28.0309 69.6302H30.6414V72.3163H28.0309V69.6302Z" fill="#FFFFFA"/>
<path opacity="0.34" d="M28.0309 75.1967H30.6414V77.8828H28.0309V75.1967Z" fill="#FFFFFA"/>
<path opacity="0.34" d="M28.0309 80.7629H30.6414V83.4491H28.0309V80.7629Z" fill="#FFFFFA"/>
<path d="M11.6251 48.6129H29.8863V1.86304H31.3966V48.6129H80.7219V1.86304H82.2322V48.6129H102.379V50.1862H82.2322V96.4232H80.7219V50.1862H31.3966V96.4232H29.8863V50.1862H11.6251V48.6129Z" fill="white"/>
<path d="M8.00985 96.3093H105.995V99.4539H8.00985V96.3093Z" fill="#F4F4F4"/>
<path opacity="0.1" d="M8.00985 96.3093H105.995V99.4539H8.00985V96.3093Z" fill="#292A2E"/>
<path opacity="0.1" d="M6.5953 96.3093H8.00989V99.4539H6.5953V96.3093Z" fill="#292A2E"/>
<path opacity="0.1" d="M6.5953 96.3093H8.00989V99.4539H6.5953V96.3093Z" fill="#292A2E"/>
<path d="M19.5047 188.93C19.5341 188.93 19.5633 188.924 19.5904 188.913C19.6176 188.901 19.6423 188.884 19.6631 188.862C19.9787 188.533 20.4931 182.499 21.879 164.533C22.4463 157.181 22.982 150.237 23.3727 146.018C23.4007 145.716 23.5127 145.681 23.5497 145.67C24.0847 145.501 25.7121 146.838 26.6206 148.009C26.658 148.057 26.7122 148.088 26.7713 148.095C26.8304 148.101 26.8896 148.083 26.9358 148.044C26.982 148.005 27.0115 147.949 27.0178 147.887C27.0241 147.825 27.0066 147.764 26.9692 147.716C26.3683 146.942 24.4102 144.912 23.4209 145.223C23.2212 145.285 22.9728 145.466 22.9266 145.973C22.5355 150.196 21.9998 157.142 21.4325 164.495C20.5904 175.413 19.6362 187.782 19.3227 188.561C19.2987 188.596 19.2844 188.637 19.2813 188.68C19.2783 188.722 19.2866 188.765 19.3054 188.803C19.3242 188.842 19.3528 188.874 19.3879 188.896C19.4231 188.918 19.4635 188.93 19.5047 188.93Z" fill="#494949"/>
<path d="M23.9485 153.761C20.2308 150.656 18.9986 145.823 21.1963 142.966C23.394 140.11 28.1894 140.311 31.907 143.416C35.6247 146.521 36.8569 151.354 34.6592 154.21C32.4615 157.067 27.6662 156.866 23.9485 153.761Z" fill="#B5D9CF"/>
<path opacity="0.2" d="M23.9485 153.761C20.2308 150.656 18.9986 145.823 21.1963 142.966C23.394 140.11 28.1894 140.311 31.907 143.416C35.6247 146.521 36.8569 151.354 34.6592 154.21C32.4615 157.067 27.6662 156.866 23.9485 153.761Z" fill="white"/>
<path d="M33.6168 154.937C33.6381 154.937 33.6589 154.931 33.6768 154.919C33.6947 154.907 33.709 154.89 33.718 154.87C33.7271 154.85 33.7304 154.828 33.7277 154.806C33.7251 154.784 33.7164 154.763 33.7029 154.746L23.1078 141.433C23.0985 141.421 23.087 141.411 23.0739 141.404C23.0609 141.396 23.0465 141.392 23.0317 141.39C23.0169 141.389 23.002 141.39 22.9877 141.395C22.9735 141.399 22.9603 141.407 22.9488 141.417C22.9374 141.427 22.928 141.439 22.9211 141.452C22.9142 141.466 22.91 141.481 22.9088 141.497C22.9075 141.512 22.9093 141.528 22.9139 141.542C22.9185 141.557 22.9258 141.571 22.9355 141.583L33.5306 154.895C33.5411 154.908 33.5543 154.919 33.5692 154.926C33.5841 154.933 33.6004 154.937 33.6168 154.937Z" fill="white"/>
<path d="M17.1937 186.076C17.2294 186.077 17.2647 186.068 17.2965 186.051C17.3283 186.033 17.3557 186.009 17.3764 185.978C17.3971 185.948 17.4106 185.913 17.4156 185.876C17.4207 185.839 17.4171 185.801 17.4054 185.766L13.4255 173.841C13.3084 173.49 13.1087 173.176 12.8448 172.927C12.5809 172.678 12.2612 172.502 11.915 172.415C11.5688 172.328 11.2072 172.332 10.8633 172.429C10.5193 172.525 10.2041 172.71 9.94644 172.966L7.84249 175.06C7.7995 175.103 7.77458 175.162 7.77321 175.224C7.77185 175.285 7.79415 175.345 7.83521 175.39C7.87627 175.435 7.93272 175.461 7.99215 175.462C8.05158 175.464 8.10912 175.441 8.15211 175.398L10.2561 173.303C10.4595 173.101 10.7083 172.956 10.9798 172.88C11.2513 172.804 11.5367 172.8 11.81 172.869C12.0832 172.937 12.3355 173.076 12.5439 173.273C12.7522 173.47 12.9098 173.718 13.0023 173.994L16.9822 185.92C16.9974 185.965 17.026 186.005 17.0639 186.033C17.1018 186.061 17.1471 186.076 17.1937 186.076Z" fill="#494949"/>
<path d="M1.96399 181.663C-0.791151 179.391 -0.627408 174.393 2.3297 170.5C5.28681 166.608 9.9175 165.294 12.6726 167.567C15.4278 169.839 15.264 174.836 12.3069 178.729C9.34982 182.622 4.71912 183.935 1.96399 181.663Z" fill="#B5D9CF"/>
<path d="M21.3126 188.17C21.363 188.17 21.4119 188.152 21.4514 188.12C21.4909 188.087 21.5187 188.042 21.5304 187.991L28.209 158.894C28.2547 158.696 28.3519 158.514 28.4901 158.37C28.6283 158.226 28.802 158.124 28.9922 158.075C29.1824 158.027 29.3817 158.034 29.5681 158.096C29.7546 158.159 29.921 158.273 30.049 158.427L32.1077 160.906C32.1466 160.953 32.2018 160.982 32.2611 160.986C32.3203 160.991 32.3789 160.971 32.4239 160.93C32.4688 160.89 32.4965 160.832 32.5008 160.77C32.505 160.709 32.4856 160.648 32.4467 160.601L30.3878 158.122C30.2057 157.903 29.9692 157.74 29.7042 157.652C29.4391 157.564 29.1559 157.553 28.8856 157.622C28.6153 157.691 28.3684 157.836 28.1722 158.041C27.9759 158.247 27.8379 158.505 27.7733 158.787L21.0944 187.883C21.0876 187.913 21.0865 187.944 21.0911 187.974C21.0957 188.004 21.1061 188.033 21.1215 188.06C21.1369 188.086 21.1571 188.108 21.181 188.126C21.2048 188.144 21.2318 188.157 21.2604 188.164C21.2776 188.168 21.2951 188.17 21.3126 188.17Z" fill="#494949"/>
<path d="M23.7757 167.37C22.9638 162.478 25.1125 158.007 28.5749 157.383C32.0373 156.759 35.5023 160.219 36.3141 165.111C37.126 170.003 34.9774 174.474 31.515 175.098C28.0526 175.722 24.5876 172.262 23.7757 167.37Z" fill="#B5D9CF"/>
<path d="M19.5041 188.93C19.5134 188.93 19.5227 188.93 19.5319 188.929C19.5611 188.925 19.5893 188.915 19.6149 188.9C19.6405 188.885 19.663 188.865 19.6811 188.841C19.6992 188.816 19.7126 188.789 19.7204 188.759C19.7282 188.73 19.7304 188.699 19.7268 188.668L15.462 152.589C15.4156 152.196 15.2612 151.826 15.0174 151.522C14.7736 151.218 14.4508 150.994 14.0878 150.877C13.7247 150.76 13.3369 150.754 12.971 150.861C12.6051 150.968 12.2766 151.183 12.025 151.48L7.15039 157.232C7.13091 157.255 7.11597 157.282 7.10642 157.311C7.09687 157.34 7.0929 157.371 7.09473 157.401C7.09656 157.432 7.10416 157.462 7.11709 157.489C7.13002 157.517 7.14804 157.542 7.1701 157.562C7.19217 157.582 7.21786 157.598 7.2457 157.608C7.27354 157.618 7.30297 157.622 7.33235 157.62C7.36173 157.618 7.39046 157.61 7.4169 157.597C7.44334 157.583 7.46697 157.564 7.48645 157.541L12.3604 151.789C12.5548 151.559 12.8087 151.393 13.0915 151.311C13.3743 151.228 13.6741 151.232 13.9547 151.323C14.2352 151.413 14.4848 151.586 14.6732 151.821C14.8616 152.056 14.981 152.343 15.0169 152.646L19.2821 188.725C19.2888 188.782 19.315 188.834 19.3559 188.872C19.3968 188.909 19.4495 188.93 19.5041 188.93Z" fill="#494949"/>
<path d="M2.15094 160.429C0.450164 157.226 2.45126 152.68 6.62053 150.278C10.7898 147.875 15.5484 148.524 17.2492 151.727C18.95 154.931 16.9489 159.476 12.7796 161.879C8.61033 164.282 3.85172 163.633 2.15094 160.429Z" fill="#B5D9CF"/>
<path opacity="0.2" d="M1.96399 181.663C-0.791151 179.391 -0.627408 174.393 2.3297 170.5C5.28681 166.608 9.9175 165.294 12.6726 167.567C15.4278 169.839 15.264 174.836 12.3069 178.729C9.34982 182.622 4.71912 183.935 1.96399 181.663Z" fill="white"/>
<path opacity="0.5" d="M23.7757 167.37C22.9638 162.478 25.1125 158.007 28.5749 157.383C32.0373 156.759 35.5023 160.219 36.3141 165.111C37.126 170.003 34.9774 174.474 31.515 175.098C28.0526 175.722 24.5876 172.262 23.7757 167.37Z" fill="white"/>
<path opacity="0.5" d="M2.15094 160.429C0.450164 157.226 2.45126 152.68 6.62053 150.278C10.7898 147.875 15.5484 148.524 17.2492 151.727C18.95 154.931 16.9489 159.476 12.7796 161.879C8.61033 164.282 3.85172 163.633 2.15094 160.429Z" fill="white"/>
<path d="M14.0497 219.543H24.9596L26.7673 183.173H12.2417L14.0497 219.543Z" fill="#292A2E"/>
<path opacity="0.3" d="M14.0497 219.543H24.9596L26.7673 183.173H12.2417L14.0497 219.543Z" fill="white"/>
<path d="M1.9637 181.778C1.98064 181.778 1.99736 181.774 2.01262 181.767C2.02787 181.759 2.04125 181.748 2.05175 181.734L12.7608 167.638C12.77 167.626 12.7767 167.612 12.7808 167.597C12.7848 167.582 12.786 167.567 12.7843 167.552C12.7826 167.537 12.778 167.522 12.7709 167.508C12.7637 167.495 12.7541 167.483 12.7426 167.474C12.731 167.464 12.7178 167.457 12.7037 167.453C12.6895 167.449 12.6747 167.447 12.6601 167.449C12.6455 167.451 12.6313 167.456 12.6185 167.463C12.6056 167.471 12.5943 167.481 12.5852 167.493L1.87543 181.589C1.85714 181.613 1.84878 181.644 1.85218 181.675C1.85557 181.705 1.87047 181.733 1.89358 181.753C1.91352 181.769 1.93822 181.778 1.9637 181.778Z" fill="white"/>
<path d="M2.86293 161.559C2.88672 161.558 2.90982 161.55 2.9288 161.535L16.6326 151.11C16.6445 151.101 16.6545 151.089 16.6622 151.076C16.6699 151.063 16.675 151.048 16.6772 151.033C16.6795 151.018 16.6789 151.003 16.6754 150.988C16.672 150.973 16.6657 150.959 16.657 150.946C16.6483 150.934 16.6374 150.924 16.6248 150.916C16.6123 150.908 16.5983 150.902 16.5838 150.9C16.5692 150.898 16.5544 150.898 16.5401 150.902C16.5258 150.905 16.5123 150.912 16.5004 150.921L2.79684 161.347C2.77811 161.362 2.76425 161.382 2.75721 161.405C2.75018 161.428 2.7503 161.453 2.7576 161.477C2.76489 161.5 2.77897 161.52 2.79787 161.534C2.81676 161.549 2.83951 161.557 2.86293 161.557V161.559Z" fill="white"/>
<path d="M32.0721 174.946C32.0818 174.946 32.0915 174.944 32.101 174.942C32.1297 174.934 32.1542 174.914 32.169 174.888C32.1839 174.861 32.188 174.829 32.1803 174.799L27.8178 157.769C27.8095 157.74 27.7906 157.715 27.7652 157.701C27.7398 157.686 27.7098 157.682 27.6816 157.69C27.6534 157.697 27.6293 157.716 27.6143 157.742C27.5993 157.768 27.5947 157.8 27.6014 157.829L31.9639 174.859C31.9702 174.884 31.9843 174.906 32.0039 174.922C32.0234 174.937 32.0474 174.946 32.0721 174.946Z" fill="white"/>
<path d="M179.481 147.466H197.477V152.922H179.481V147.466Z" fill="#F4F4F4"/>
<path opacity="0.05" d="M192.702 147.466H195.06V152.922H192.702V147.466Z" fill="#292A2E"/>
<path d="M181.78 148.652H191.585V151.885H181.78V148.652Z" fill="white"/>
<path d="M165.126 148.178L181.848 140.568L183.943 145.568L167.222 153.177L165.126 148.178Z" fill="#F4F4F4"/>
<path opacity="0.05" d="M165.126 148.178L181.848 140.568L183.943 145.568L167.222 153.177L165.126 148.178Z" fill="#292A2E"/>
<path d="M167.372 147.156L169.563 146.159L171.659 151.158L169.467 152.156L167.372 147.156Z" fill="white"/>
<path d="M171.056 146.773L180.166 142.627L181.408 145.59L172.298 149.736L171.056 146.773Z" fill="white"/>
<path opacity="0.05" d="M165.095 216.58H169.617V219.727H165.095V216.58Z" fill="#292A2E"/>
<path opacity="0.05" d="M211.332 216.58H215.854V219.727H211.332V216.58Z" fill="#292A2E"/>
<path d="M160.949 153.178H220V216.474H160.949V153.178Z" fill="#F4F4F4"/>
<path opacity="0.03" d="M160.949 153.178H220V216.474H160.949V153.178Z" fill="#292A2E"/>
<path d="M150.006 153.178H209.057V216.474H150.006V153.178Z" fill="#F4F4F4"/>
<path opacity="0.05" d="M154.151 216.58H158.674V219.727H154.151V216.58Z" fill="#292A2E"/>
<path opacity="0.05" d="M200.389 216.58H204.911V219.727H200.389V216.58Z" fill="#292A2E"/>
<path opacity="0.7" d="M152.223 156.142H206.84V168.303H152.223V156.142Z" fill="white"/>
<path opacity="0.7" d="M152.223 171.279H206.84V183.44H152.223V171.279Z" fill="white"/>
<path opacity="0.7" d="M152.223 186.416H206.84V198.576H152.223V186.416Z" fill="white"/>
<path opacity="0.05" d="M179.531 163.924C178.63 163.924 177.898 163.162 177.898 162.222C177.898 161.283 178.63 160.521 179.531 160.521C180.433 160.521 181.164 161.283 181.164 162.222C181.164 163.162 180.433 163.924 179.531 163.924Z" fill="#292A2E"/>
<path opacity="0.05" d="M179.531 179.061C178.63 179.061 177.898 178.299 177.898 177.359C177.898 176.42 178.63 175.658 179.531 175.658C180.433 175.658 181.164 176.42 181.164 177.359C181.164 178.299 180.433 179.061 179.531 179.061Z" fill="#292A2E"/>
<path opacity="0.05" d="M179.531 194.198C178.63 194.198 177.898 193.436 177.898 192.496C177.898 191.557 178.63 190.795 179.531 190.795C180.433 190.795 181.164 191.557 181.164 192.496C181.164 193.436 180.433 194.198 179.531 194.198Z" fill="#292A2E"/>
<path opacity="0.7" d="M152.223 201.894H206.84V214.054H152.223V201.894Z" fill="white"/>
<path opacity="0.05" d="M179.531 209.676C178.63 209.676 177.898 208.914 177.898 207.974C177.898 207.034 178.63 206.273 179.531 206.273C180.433 206.273 181.164 207.034 181.164 207.974C181.164 208.914 180.433 209.676 179.531 209.676Z" fill="#292A2E"/>
<path d="M77.3441 169.153H193.176C194.739 169.153 196.239 168.506 197.344 167.354C198.45 166.202 199.071 164.64 199.071 163.011L195.038 26.7703H67.6405L71.4492 163.011C71.4492 164.64 72.0703 166.202 73.1758 167.354C74.2813 168.506 75.7807 169.153 77.3441 169.153Z" fill="#292A2E"/>
<path opacity="0.9" d="M77.3441 169.153H193.176C194.739 169.153 196.239 168.506 197.344 167.354C198.45 166.202 199.071 164.64 199.071 163.011L195.038 26.7703H67.6405L71.4492 163.011C71.4492 164.64 72.0703 166.202 73.1758 167.354C74.2813 168.506 75.7807 169.153 77.3441 169.153Z" fill="white"/>
<path d="M77.3441 169.387H193.176C194.798 169.385 196.353 168.712 197.501 167.517C198.648 166.322 199.293 164.701 199.295 163.011L195.262 26.5369H67.4165L71.2252 163.011C71.227 164.701 71.8723 166.322 73.0194 167.517C74.1665 168.712 75.7218 169.385 77.3441 169.387ZM194.814 27.0037L198.847 163.011C198.845 164.578 198.247 166.079 197.184 167.187C196.121 168.295 194.679 168.918 193.176 168.92H77.3441C75.8406 168.918 74.3992 168.295 73.3361 167.187C72.273 166.079 71.6749 164.578 71.6732 163.011L67.8646 27.0037H194.814Z" fill="#292A2E"/>
<path d="M73.0874 13.2617H188.919C190.541 13.2636 192.097 13.9359 193.244 15.1311C194.391 16.3264 195.036 17.9469 195.038 19.6372L195.262 27.0037H67.4165L66.9684 19.6372C66.9702 17.9469 67.6155 16.3264 68.7626 15.1311C69.9098 13.9359 71.4651 13.2636 73.0874 13.2617Z" fill="#0C0C0C"/>
<path d="M70.8469 13.2617H188.023C189.645 13.2636 191.2 13.9359 192.348 15.1311C193.495 16.3264 194.14 17.9469 194.142 19.6372V27.0037H64.728V19.6372C64.7298 17.9469 65.3751 16.3264 66.5222 15.1311C67.6693 13.9359 69.2246 13.2636 70.8469 13.2617Z" fill="#292A2E"/>
<path d="M193.918 26.7703H64.9518V165.345C64.9518 166.974 65.5729 168.537 66.6784 169.689C67.7839 170.84 69.2833 171.488 70.8467 171.488H188.023C189.586 171.488 191.086 170.84 192.191 169.689C193.297 168.537 193.918 166.974 193.918 165.345V26.7703Z" fill="white"/>
<path d="M70.8469 171.721H188.023C189.645 171.719 191.2 171.047 192.348 169.851C193.495 168.656 194.14 167.036 194.142 165.345V26.5369H64.728V165.345C64.7298 167.036 65.3751 168.656 66.5222 169.851C67.6693 171.047 69.2246 171.719 70.8469 171.721ZM193.694 27.0037V165.345C193.692 166.912 193.094 168.414 192.031 169.522C190.968 170.629 189.526 171.252 188.023 171.254H70.8469C69.3434 171.252 67.902 170.629 66.8389 169.521C65.7758 168.414 65.1778 166.912 65.176 165.345V27.0037H193.694Z" fill="#292A2E"/>
<path d="M178.421 7.74445C179.825 7.74611 181.171 8.32793 182.164 9.36225C183.156 10.3966 183.715 11.7989 183.716 13.2617H183.268C183.268 12.2924 183.001 11.3436 182.498 10.5284C181.995 9.71322 181.277 9.06612 180.43 8.66435C179.584 8.26257 178.644 8.12309 177.723 8.26255C176.803 8.40201 175.94 8.81451 175.239 9.45084C174.537 10.0872 174.026 10.9204 173.766 11.8512C173.507 12.7819 173.51 13.7708 173.775 14.6999C174.04 15.629 174.556 16.4589 175.261 17.0907C175.967 17.7225 176.832 18.1295 177.753 18.263C177.831 18.0964 177.963 17.9641 178.126 17.8903C178.289 17.8164 178.472 17.8058 178.642 17.8603C178.812 17.9149 178.958 18.031 179.052 18.1876C179.147 18.3443 179.185 18.5312 179.159 18.7145C179.134 18.8978 179.046 19.0654 178.911 19.1869C178.777 19.3085 178.606 19.3761 178.428 19.3773C178.25 19.3786 178.078 19.3135 177.942 19.1939C177.806 19.0742 177.716 18.9079 177.688 18.725C176.36 18.5318 175.152 17.8209 174.307 16.7357C173.463 15.6506 173.045 14.272 173.138 12.8783C173.231 11.4846 173.828 10.1796 174.809 9.22673C175.789 8.27388 177.08 7.74413 178.421 7.74445Z" fill="#F4F4F4"/>
<path d="M75.1535 13.2617C75.1626 11.8046 75.7245 10.4104 76.7165 9.38345C77.7086 8.35648 79.0503 7.78009 80.4487 7.78009C81.8472 7.78009 83.1889 8.35648 84.181 9.38345C85.173 10.4104 85.7349 11.8046 85.744 13.2617H85.2959C85.2961 12.2924 85.0287 11.3436 84.5254 10.5284C84.0222 9.71321 83.3045 9.06611 82.4579 8.66434C81.6114 8.26256 80.6717 8.12308 79.7512 8.26254C78.8306 8.402 77.968 8.8145 77.2663 9.45083C76.5646 10.0871 76.0535 10.9204 75.7939 11.8512C75.5343 12.7819 75.5372 13.7708 75.8023 14.6999C76.0674 15.6289 76.5835 16.4589 77.2889 17.0907C77.9944 17.7225 78.8594 18.1295 79.7808 18.263C79.8584 18.0963 79.9907 17.9641 80.1537 17.8902C80.3168 17.8164 80.4998 17.8058 80.6698 17.8603C80.8397 17.9148 80.9853 18.031 81.0802 18.1876C81.1751 18.3443 81.213 18.5312 81.1871 18.7145C81.1613 18.8978 81.0733 19.0654 80.9391 19.1869C80.805 19.3085 80.6335 19.376 80.4557 19.3773C80.2779 19.3786 80.1055 19.3135 79.9698 19.1939C79.834 19.0742 79.7439 18.9079 79.7156 18.725C78.4513 18.5392 77.2938 17.8844 76.4557 16.8807C75.6176 15.8771 75.1552 14.592 75.1535 13.2617Z" fill="#F4F4F4"/>
<path d="M89.1495 13.2617C89.1495 11.7984 89.7074 10.3951 90.7005 9.36041C91.6935 8.32572 93.0403 7.74445 94.4447 7.74445C95.8491 7.74445 97.1959 8.32572 98.1889 9.36041C99.182 10.3951 99.7399 11.7984 99.7399 13.2617H99.2918C99.2919 12.2925 99.0244 11.3438 98.5212 10.5287C98.018 9.71361 97.3003 9.06659 96.4539 8.66487C95.6074 8.26314 94.6678 8.12367 93.7474 8.2631C92.8269 8.40253 91.9644 8.81498 91.2627 9.45121C90.561 10.0874 90.0499 10.9206 89.7903 11.8512C89.5306 12.7819 89.5335 13.7707 89.7985 14.6997C90.0635 15.6287 90.5794 16.4587 91.2847 17.0905C91.99 17.7223 92.8549 18.1294 93.7762 18.263C93.8537 18.0962 93.986 17.9638 94.1492 17.8897C94.3123 17.8157 94.4954 17.805 94.6655 17.8594C94.8356 17.9139 94.9813 18.03 95.0764 18.1867C95.1714 18.3435 95.2095 18.5305 95.1837 18.7139C95.1579 18.8973 95.0699 19.0651 94.9357 19.1868C94.8015 19.3085 94.6299 19.3762 94.452 19.3775C94.2741 19.3788 94.1016 19.3138 93.9657 19.1941C93.8298 19.0744 93.7395 18.908 93.7112 18.725C92.447 18.5391 91.2896 17.8842 90.4516 16.8806C89.6136 15.877 89.1512 14.592 89.1495 13.2617Z" fill="#F4F4F4"/>
<path d="M103.146 13.2617C103.155 11.8046 103.717 10.4104 104.709 9.38345C105.701 8.35648 107.042 7.78009 108.441 7.78009C109.839 7.78009 111.181 8.35648 112.173 9.38345C113.165 10.4104 113.727 11.8046 113.736 13.2617H113.288C113.288 12.2924 113.021 11.3436 112.518 10.5284C112.014 9.71321 111.297 9.06611 110.45 8.66434C109.603 8.26256 108.664 8.12308 107.743 8.26254C106.823 8.402 105.96 8.8145 105.258 9.45083C104.557 10.0871 104.046 10.9204 103.786 11.8512C103.526 12.7819 103.529 13.7708 103.794 14.6999C104.059 15.6289 104.576 16.4589 105.281 17.0907C105.986 17.7225 106.851 18.1295 107.773 18.263C107.85 18.0963 107.983 17.9641 108.146 17.8902C108.309 17.8164 108.492 17.8058 108.662 17.8603C108.832 17.9148 108.977 18.031 109.072 18.1876C109.167 18.3443 109.205 18.5312 109.179 18.7145C109.153 18.8978 109.065 19.0654 108.931 19.1869C108.797 19.3085 108.626 19.376 108.448 19.3773C108.27 19.3786 108.098 19.3135 107.962 19.1939C107.826 19.0742 107.736 18.9079 107.708 18.725C106.443 18.5392 105.286 17.8844 104.448 16.8807C103.61 15.8771 103.147 14.592 103.146 13.2617Z" fill="#F4F4F4"/>
<path d="M117.142 13.2617C117.142 12.5372 117.279 11.8197 117.545 11.1503C117.811 10.4809 118.201 9.87273 118.693 9.36041C119.184 8.84808 119.768 8.44169 120.411 8.16442C121.053 7.88715 121.742 7.74445 122.437 7.74445C123.132 7.74445 123.821 7.88715 124.463 8.16442C125.106 8.44169 125.689 8.84808 126.181 9.36041C126.673 9.87273 127.063 10.4809 127.329 11.1503C127.595 11.8197 127.732 12.5372 127.732 13.2617H127.284C127.284 12.2925 127.017 11.3437 126.513 10.5286C126.01 9.71352 125.292 9.0665 124.446 8.66477C123.599 8.26305 122.66 8.1236 121.739 8.26306C120.819 8.40252 119.956 8.815 119.255 9.45128C118.553 10.0876 118.042 10.9208 117.782 11.8514C117.523 12.7821 117.526 13.771 117.791 14.7C118.056 15.629 118.572 16.4589 119.277 17.0907C119.983 17.7225 120.848 18.1294 121.769 18.263C121.846 18.0964 121.979 17.9641 122.142 17.8903C122.305 17.8164 122.488 17.8058 122.658 17.8603C122.828 17.9149 122.973 18.031 123.068 18.1876C123.163 18.3443 123.201 18.5312 123.175 18.7145C123.149 18.8978 123.061 19.0654 122.927 19.1869C122.793 19.3085 122.622 19.3761 122.444 19.3773C122.266 19.3786 122.094 19.3135 121.958 19.1939C121.822 19.0742 121.732 18.9079 121.704 18.725C120.439 18.5392 119.282 17.8843 118.444 16.8807C117.606 15.877 117.143 14.592 117.142 13.2617Z" fill="#F4F4F4"/>
<path d="M131.138 13.2617C131.147 11.8046 131.709 10.4104 132.701 9.38345C133.693 8.35648 135.035 7.78009 136.433 7.78009C137.831 7.78009 139.173 8.35648 140.165 9.38345C141.157 10.4104 141.719 11.8046 141.728 13.2617H141.28C141.28 12.2924 141.013 11.3436 140.51 10.5284C140.006 9.71321 139.289 9.06611 138.442 8.66434C137.596 8.26256 136.656 8.12308 135.735 8.26254C134.815 8.402 133.952 8.8145 133.251 9.45083C132.549 10.0871 132.038 10.9204 131.778 11.8512C131.519 12.7819 131.521 13.7708 131.787 14.6999C132.052 15.6289 132.568 16.4589 133.273 17.0907C133.979 17.7225 134.844 18.1295 135.765 18.263C135.843 18.0963 135.975 17.9641 136.138 17.8902C136.301 17.8164 136.484 17.8058 136.654 17.8603C136.824 17.9148 136.97 18.031 137.064 18.1876C137.159 18.3443 137.197 18.5312 137.171 18.7145C137.146 18.8978 137.058 19.0654 136.923 19.1869C136.789 19.3085 136.618 19.376 136.44 19.3773C136.262 19.3786 136.09 19.3135 135.954 19.1939C135.818 19.0742 135.728 18.9079 135.7 18.725C134.436 18.5392 133.278 17.8844 132.44 16.8807C131.602 15.8771 131.139 14.592 131.138 13.2617Z" fill="#F4F4F4"/>
<path d="M145.134 13.2617C145.134 11.7984 145.692 10.3951 146.685 9.36041C147.678 8.32572 149.025 7.74445 150.429 7.74445C151.833 7.74445 153.18 8.32572 154.173 9.36041C155.166 10.3951 155.724 11.7984 155.724 13.2617H155.276C155.276 12.2925 155.009 11.3437 154.505 10.5286C154.002 9.71352 153.285 9.0665 152.438 8.66477C151.592 8.26305 150.652 8.1236 149.731 8.26306C148.811 8.40252 147.948 8.815 147.247 9.45128C146.545 10.0876 146.034 10.9208 145.774 11.8514C145.515 12.7821 145.518 13.771 145.783 14.7C146.048 15.629 146.564 16.4589 147.269 17.0907C147.975 17.7225 148.84 18.1294 149.761 18.263C149.838 18.0964 149.971 17.9641 150.134 17.8903C150.297 17.8164 150.48 17.8058 150.65 17.8603C150.82 17.9149 150.965 18.031 151.06 18.1876C151.155 18.3443 151.193 18.5312 151.167 18.7145C151.141 18.8978 151.053 19.0654 150.919 19.1869C150.785 19.3085 150.614 19.3761 150.436 19.3773C150.258 19.3786 150.086 19.3135 149.95 19.1939C149.814 19.0742 149.724 18.9079 149.696 18.725C148.431 18.5392 147.274 17.8843 146.436 16.8807C145.598 15.877 145.136 14.592 145.134 13.2617Z" fill="#F4F4F4"/>
<path d="M159.13 13.2617C159.139 11.8046 159.701 10.4104 160.693 9.38345C161.685 8.35648 163.027 7.78009 164.425 7.78009C165.824 7.78009 167.165 8.35648 168.157 9.38345C169.149 10.4104 169.711 11.8046 169.72 13.2617H169.272C169.272 12.2924 169.005 11.3436 168.502 10.5284C167.999 9.71321 167.281 9.06611 166.434 8.66434C165.588 8.26256 164.648 8.12308 163.728 8.26254C162.807 8.402 161.944 8.8145 161.243 9.45083C160.541 10.0871 160.03 10.9204 159.77 11.8512C159.511 12.7819 159.514 13.7708 159.779 14.6999C160.044 15.6289 160.56 16.4589 161.265 17.0907C161.971 17.7225 162.836 18.1295 163.757 18.263C163.835 18.0963 163.967 17.9641 164.13 17.8902C164.293 17.8164 164.476 17.8058 164.646 17.8603C164.816 17.9148 164.962 18.031 165.056 18.1876C165.151 18.3443 165.189 18.5312 165.163 18.7145C165.138 18.8978 165.05 19.0654 164.915 19.1869C164.781 19.3085 164.61 19.376 164.432 19.3773C164.254 19.3786 164.082 19.3135 163.946 19.1939C163.81 19.0742 163.72 18.9079 163.692 18.725C162.428 18.5392 161.27 17.8844 160.432 16.8807C159.594 15.8771 159.132 14.592 159.13 13.2617Z" fill="#F4F4F4"/>
<g opacity="0.6">
<path d="M178.421 7.74445C179.825 7.74611 181.171 8.32793 182.164 9.36225C183.156 10.3966 183.715 11.7989 183.716 13.2617H183.268C183.268 12.2924 183.001 11.3436 182.498 10.5284C181.995 9.71322 181.277 9.06612 180.43 8.66435C179.584 8.26257 178.644 8.12309 177.723 8.26255C176.803 8.40201 175.94 8.81451 175.239 9.45084C174.537 10.0872 174.026 10.9204 173.766 11.8512C173.507 12.7819 173.51 13.7708 173.775 14.6999C174.04 15.629 174.556 16.4589 175.261 17.0907C175.967 17.7225 176.832 18.1295 177.753 18.263C177.831 18.0964 177.963 17.9641 178.126 17.8903C178.289 17.8164 178.472 17.8058 178.642 17.8603C178.812 17.9149 178.958 18.031 179.052 18.1876C179.147 18.3443 179.185 18.5312 179.159 18.7145C179.134 18.8978 179.046 19.0654 178.911 19.1869C178.777 19.3085 178.606 19.3761 178.428 19.3773C178.25 19.3786 178.078 19.3135 177.942 19.1939C177.806 19.0742 177.716 18.9079 177.688 18.725C176.36 18.5318 175.152 17.8209 174.307 16.7357C173.463 15.6506 173.045 14.272 173.138 12.8783C173.231 11.4846 173.828 10.1796 174.809 9.22673C175.789 8.27388 177.08 7.74413 178.421 7.74445Z" fill="#292A2E"/>
<path d="M75.1535 13.2617C75.1626 11.8046 75.7245 10.4104 76.7165 9.38345C77.7086 8.35648 79.0503 7.78009 80.4487 7.78009C81.8472 7.78009 83.1889 8.35648 84.181 9.38345C85.173 10.4104 85.7349 11.8046 85.744 13.2617H85.2959C85.2961 12.2924 85.0287 11.3436 84.5254 10.5284C84.0222 9.71321 83.3045 9.06611 82.4579 8.66434C81.6114 8.26256 80.6717 8.12308 79.7512 8.26254C78.8306 8.402 77.968 8.8145 77.2663 9.45083C76.5646 10.0871 76.0535 10.9204 75.7939 11.8512C75.5343 12.7819 75.5372 13.7708 75.8023 14.6999C76.0674 15.6289 76.5835 16.4589 77.2889 17.0907C77.9944 17.7225 78.8594 18.1295 79.7808 18.263C79.8584 18.0963 79.9907 17.9641 80.1537 17.8902C80.3168 17.8164 80.4998 17.8058 80.6698 17.8603C80.8397 17.9148 80.9853 18.031 81.0802 18.1876C81.1751 18.3443 81.213 18.5312 81.1871 18.7145C81.1613 18.8978 81.0733 19.0654 80.9391 19.1869C80.805 19.3085 80.6335 19.376 80.4557 19.3773C80.2779 19.3786 80.1055 19.3135 79.9698 19.1939C79.834 19.0742 79.7439 18.9079 79.7156 18.725C78.4513 18.5392 77.2938 17.8844 76.4557 16.8807C75.6176 15.8771 75.1552 14.592 75.1535 13.2617Z" fill="#292A2E"/>
<path d="M89.1495 13.2617C89.1495 11.7984 89.7074 10.3951 90.7005 9.36041C91.6935 8.32572 93.0403 7.74445 94.4447 7.74445C95.8491 7.74445 97.1959 8.32572 98.1889 9.36041C99.182 10.3951 99.7399 11.7984 99.7399 13.2617H99.2918C99.2919 12.2925 99.0244 11.3438 98.5212 10.5287C98.018 9.71361 97.3003 9.06659 96.4539 8.66487C95.6074 8.26314 94.6678 8.12367 93.7474 8.2631C92.8269 8.40253 91.9644 8.81498 91.2627 9.45121C90.561 10.0874 90.0499 10.9206 89.7903 11.8512C89.5306 12.7819 89.5335 13.7707 89.7985 14.6997C90.0635 15.6287 90.5794 16.4587 91.2847 17.0905C91.99 17.7223 92.8549 18.1294 93.7762 18.263C93.8537 18.0962 93.986 17.9638 94.1492 17.8897C94.3123 17.8157 94.4954 17.805 94.6655 17.8594C94.8356 17.9139 94.9813 18.03 95.0764 18.1867C95.1714 18.3435 95.2095 18.5305 95.1837 18.7139C95.1579 18.8973 95.0699 19.0651 94.9357 19.1868C94.8015 19.3085 94.6299 19.3762 94.452 19.3775C94.2741 19.3788 94.1016 19.3138 93.9657 19.1941C93.8298 19.0744 93.7395 18.908 93.7112 18.725C92.447 18.5391 91.2896 17.8842 90.4516 16.8806C89.6136 15.877 89.1512 14.592 89.1495 13.2617Z" fill="#292A2E"/>
<path d="M103.146 13.2617C103.155 11.8046 103.717 10.4104 104.709 9.38345C105.701 8.35648 107.042 7.78009 108.441 7.78009C109.839 7.78009 111.181 8.35648 112.173 9.38345C113.165 10.4104 113.727 11.8046 113.736 13.2617H113.288C113.288 12.2924 113.021 11.3436 112.518 10.5284C112.014 9.71321 111.297 9.06611 110.45 8.66434C109.603 8.26256 108.664 8.12308 107.743 8.26254C106.823 8.402 105.96 8.8145 105.258 9.45083C104.557 10.0871 104.046 10.9204 103.786 11.8512C103.526 12.7819 103.529 13.7708 103.794 14.6999C104.059 15.6289 104.576 16.4589 105.281 17.0907C105.986 17.7225 106.851 18.1295 107.773 18.263C107.85 18.0963 107.983 17.9641 108.146 17.8902C108.309 17.8164 108.492 17.8058 108.662 17.8603C108.832 17.9148 108.977 18.031 109.072 18.1876C109.167 18.3443 109.205 18.5312 109.179 18.7145C109.153 18.8978 109.065 19.0654 108.931 19.1869C108.797 19.3085 108.626 19.376 108.448 19.3773C108.27 19.3786 108.098 19.3135 107.962 19.1939C107.826 19.0742 107.736 18.9079 107.708 18.725C106.443 18.5392 105.286 17.8844 104.448 16.8807C103.61 15.8771 103.147 14.592 103.146 13.2617Z" fill="#292A2E"/>
<path d="M117.142 13.2617C117.142 12.5372 117.279 11.8197 117.545 11.1503C117.811 10.4809 118.201 9.87273 118.693 9.36041C119.184 8.84808 119.768 8.44169 120.411 8.16442C121.053 7.88715 121.742 7.74445 122.437 7.74445C123.132 7.74445 123.821 7.88715 124.463 8.16442C125.106 8.44169 125.689 8.84808 126.181 9.36041C126.673 9.87273 127.063 10.4809 127.329 11.1503C127.595 11.8197 127.732 12.5372 127.732 13.2617H127.284C127.284 12.2925 127.017 11.3437 126.513 10.5286C126.01 9.71352 125.292 9.0665 124.446 8.66477C123.599 8.26305 122.66 8.1236 121.739 8.26306C120.819 8.40252 119.956 8.815 119.255 9.45128C118.553 10.0876 118.042 10.9208 117.782 11.8514C117.523 12.7821 117.526 13.771 117.791 14.7C118.056 15.629 118.572 16.4589 119.277 17.0907C119.983 17.7225 120.848 18.1294 121.769 18.263C121.846 18.0964 121.979 17.9641 122.142 17.8903C122.305 17.8164 122.488 17.8058 122.658 17.8603C122.828 17.9149 122.973 18.031 123.068 18.1876C123.163 18.3443 123.201 18.5312 123.175 18.7145C123.149 18.8978 123.061 19.0654 122.927 19.1869C122.793 19.3085 122.622 19.3761 122.444 19.3773C122.266 19.3786 122.094 19.3135 121.958 19.1939C121.822 19.0742 121.732 18.9079 121.704 18.725C120.439 18.5392 119.282 17.8843 118.444 16.8807C117.606 15.877 117.143 14.592 117.142 13.2617Z" fill="#292A2E"/>
<path d="M131.138 13.2617C131.147 11.8046 131.709 10.4104 132.701 9.38345C133.693 8.35648 135.035 7.78009 136.433 7.78009C137.831 7.78009 139.173 8.35648 140.165 9.38345C141.157 10.4104 141.719 11.8046 141.728 13.2617H141.28C141.28 12.2924 141.013 11.3436 140.51 10.5284C140.006 9.71321 139.289 9.06611 138.442 8.66434C137.596 8.26256 136.656 8.12308 135.735 8.26254C134.815 8.402 133.952 8.8145 133.251 9.45083C132.549 10.0871 132.038 10.9204 131.778 11.8512C131.519 12.7819 131.521 13.7708 131.787 14.6999C132.052 15.6289 132.568 16.4589 133.273 17.0907C133.979 17.7225 134.844 18.1295 135.765 18.263C135.843 18.0963 135.975 17.9641 136.138 17.8902C136.301 17.8164 136.484 17.8058 136.654 17.8603C136.824 17.9148 136.97 18.031 137.064 18.1876C137.159 18.3443 137.197 18.5312 137.171 18.7145C137.146 18.8978 137.058 19.0654 136.923 19.1869C136.789 19.3085 136.618 19.376 136.44 19.3773C136.262 19.3786 136.09 19.3135 135.954 19.1939C135.818 19.0742 135.728 18.9079 135.7 18.725C134.436 18.5392 133.278 17.8844 132.44 16.8807C131.602 15.8771 131.139 14.592 131.138 13.2617Z" fill="#292A2E"/>
<path d="M145.134 13.2617C145.134 11.7984 145.692 10.3951 146.685 9.36041C147.678 8.32572 149.025 7.74445 150.429 7.74445C151.833 7.74445 153.18 8.32572 154.173 9.36041C155.166 10.3951 155.724 11.7984 155.724 13.2617H155.276C155.276 12.2925 155.009 11.3437 154.505 10.5286C154.002 9.71352 153.285 9.0665 152.438 8.66477C151.592 8.26305 150.652 8.1236 149.731 8.26306C148.811 8.40252 147.948 8.815 147.247 9.45128C146.545 10.0876 146.034 10.9208 145.774 11.8514C145.515 12.7821 145.518 13.771 145.783 14.7C146.048 15.629 146.564 16.4589 147.269 17.0907C147.975 17.7225 148.84 18.1294 149.761 18.263C149.838 18.0964 149.971 17.9641 150.134 17.8903C150.297 17.8164 150.48 17.8058 150.65 17.8603C150.82 17.9149 150.965 18.031 151.06 18.1876C151.155 18.3443 151.193 18.5312 151.167 18.7145C151.141 18.8978 151.053 19.0654 150.919 19.1869C150.785 19.3085 150.614 19.3761 150.436 19.3773C150.258 19.3786 150.086 19.3135 149.95 19.1939C149.814 19.0742 149.724 18.9079 149.696 18.725C148.431 18.5392 147.274 17.8843 146.436 16.8807C145.598 15.877 145.136 14.592 145.134 13.2617Z" fill="#292A2E"/>
<path d="M159.13 13.2617C159.139 11.8046 159.701 10.4104 160.693 9.38345C161.685 8.35648 163.027 7.78009 164.425 7.78009C165.824 7.78009 167.165 8.35648 168.157 9.38345C169.149 10.4104 169.711 11.8046 169.72 13.2617H169.272C169.272 12.2924 169.005 11.3436 168.502 10.5284C167.999 9.71321 167.281 9.06611 166.434 8.66434C165.588 8.26256 164.648 8.12308 163.728 8.26254C162.807 8.402 161.944 8.8145 161.243 9.45083C160.541 10.0871 160.03 10.9204 159.77 11.8512C159.511 12.7819 159.514 13.7708 159.779 14.6999C160.044 15.6289 160.56 16.4589 161.265 17.0907C161.971 17.7225 162.836 18.1295 163.757 18.263C163.835 18.0963 163.967 17.9641 164.13 17.8902C164.293 17.8164 164.476 17.8058 164.646 17.8603C164.816 17.9148 164.962 18.031 165.056 18.1876C165.151 18.3443 165.189 18.5312 165.163 18.7145C165.138 18.8978 165.05 19.0654 164.915 19.1869C164.781 19.3085 164.61 19.376 164.432 19.3773C164.254 19.3786 164.082 19.3135 163.946 19.1939C163.81 19.0742 163.72 18.9079 163.692 18.725C162.428 18.5392 161.27 17.8844 160.432 16.8807C159.594 15.8771 159.132 14.592 159.13 13.2617Z" fill="#292A2E"/>
</g>
<g opacity="0.72">
<path d="M77.1938 41.8969H182.285C182.344 41.8969 182.401 41.8723 182.443 41.8286C182.485 41.7848 182.509 41.7254 182.509 41.6635C182.509 41.6016 182.485 41.5422 182.443 41.4984C182.401 41.4546 182.344 41.4301 182.285 41.4301H77.1938C77.1344 41.4301 77.0774 41.4546 77.0354 41.4984C76.9933 41.5422 76.9697 41.6016 76.9697 41.6635C76.9697 41.7254 76.9933 41.7848 77.0354 41.8286C77.0774 41.8723 77.1344 41.8969 77.1938 41.8969Z" fill="#292A2E"/>
</g>
<g opacity="0.72">
<path d="M77.1938 55.1315H182.285C182.344 55.1315 182.401 55.1069 182.443 55.0632C182.485 55.0194 182.509 54.96 182.509 54.8981C182.509 54.8362 182.485 54.7768 182.443 54.733C182.401 54.6893 182.344 54.6647 182.285 54.6647H77.1938C77.1344 54.6647 77.0774 54.6893 77.0354 54.733C76.9933 54.7768 76.9697 54.8362 76.9697 54.8981C76.9697 54.96 76.9933 55.0194 77.0354 55.0632C77.0774 55.1069 77.1344 55.1315 77.1938 55.1315Z" fill="#292A2E"/>
</g>
<g opacity="0.72">
<path d="M136.491 68.3664H182.284C182.344 68.3664 182.401 68.3418 182.443 68.298C182.485 68.2543 182.508 68.1949 182.508 68.133C182.508 68.0711 182.485 68.0117 182.443 67.9679C182.401 67.9241 182.344 67.8995 182.284 67.8995H136.491C136.431 67.8995 136.374 67.9241 136.332 67.9679C136.29 68.0117 136.267 68.0711 136.267 68.133C136.267 68.1949 136.29 68.2543 136.332 68.298C136.374 68.3418 136.431 68.3664 136.491 68.3664Z" fill="#292A2E"/>
</g>
<path d="M27.1356 110.887C26.1447 110.887 25.1685 110.638 24.2901 110.16C23.4117 109.682 22.6571 108.99 22.0905 108.143C21.5239 107.296 21.1621 106.319 21.0359 105.295C20.9096 104.271 21.0227 103.23 21.3655 102.262C21.7136 101.278 29.8731 78.765 31.4264 74.5938L42.9283 79.4492C42.0546 81.7948 38.8905 90.6849 36.3483 97.8465L40.5717 97.3681L41.9011 110.111L27.8012 110.851C27.5801 110.875 27.3579 110.888 27.1356 110.887Z" fill="#94CBB1"/>
<path d="M128.284 79.2515L124.032 63.4157L23.8637 91.2956L28.1151 107.131L128.284 79.2515Z" fill="#94CBB1"/>
<path opacity="0.5" d="M128.284 79.2515L124.032 63.4157L23.8637 91.2956L28.1151 107.131L128.284 79.2515Z" fill="white"/>
<path d="M17.1198 110.337L12.8687 94.5007L23.8628 91.2966L28.114 107.132L17.1198 110.337Z" fill="#262626"/>
<path d="M128.284 79.2514C128.284 79.2514 131.168 75.8827 133.745 72.8553C135.788 70.4539 137.636 68.2671 137.692 68.1474C137.749 68.0276 134.974 67.0483 131.908 66.0152C128.183 64.7588 124.032 63.4163 124.032 63.4163L128.284 79.2514Z" fill="#94CBB1"/>
<path opacity="0.9" d="M128.284 79.2514C128.284 79.2514 131.168 75.8827 133.745 72.8553C135.788 70.4539 137.636 68.2671 137.692 68.1474C137.749 68.0276 134.974 67.0483 131.908 66.0152C128.183 64.7588 124.032 63.4163 124.032 63.4163L128.284 79.2514Z" fill="white"/>
<path d="M133.745 72.8551C135.788 70.4538 137.636 68.267 137.692 68.1472C137.749 68.0275 134.974 67.0482 131.908 66.015L133.745 72.8551Z" fill="#262626"/>
<path d="M126.931 74.329L26.7358 101.914L26.9273 102.637L127.123 75.0525L126.931 74.329Z" fill="white"/>
<path d="M125.27 68.133L25.0748 95.7173L25.2665 96.4405L125.462 68.8562L125.27 68.133Z" fill="white"/>
<path d="M40.1922 209.671C40.1922 209.671 41.2038 215.134 46.1131 215.439C51.0225 215.745 49.9579 219.819 49.9579 219.819H31.1971V210.053L40.1922 209.671Z" fill="#94CBB1"/>
<path d="M34.4059 110.012C34.4059 110.012 34.4649 108.369 34.4523 112.095C34.4059 125.991 34.1745 141.864 33.609 151.152C32.7001 166.083 30.3696 213.159 30.3696 213.159L42.6974 213.051L54.6456 109.447L34.4059 110.012Z" fill="#262626"/>
<path d="M48.3272 126.398C48.3272 126.398 48.8381 136.483 48.9322 138.85C49.1513 144.325 49.2274 149.994 49.2274 156.421L51.1705 139.572C51.1705 139.572 49.7492 134.292 48.3272 126.398Z" fill="#0A0A0A"/>
<path d="M62.1393 209.671C62.1393 209.671 63.1508 215.134 68.0602 215.439C72.9696 215.745 71.9052 219.819 71.9052 219.819H53.1441V210.053L62.1393 209.671Z" fill="#94CBB1"/>
<path d="M68.1086 111.092C68.1086 111.092 69.2004 158.586 69.0404 160.907L64.4559 212.799L52.3316 213.033L53.5131 159.029C53.5131 159.029 52.6797 144.132 49.2252 130.3C47.4578 123.2 46.3942 115.931 46.0511 108.605L68.1086 111.092Z" fill="#262626"/>
<path d="M34.2715 110.01L34.2316 110.013C34.2316 110.013 34.2604 109.203 34.2715 110.01Z" fill="#333333"/>
<path d="M69.844 84.7286C69.5897 87.8407 68.3528 107.257 68.1086 111.091H34.4191C34.2289 107.633 34.1966 92.6532 33.475 85.8922C32.7861 79.4406 30.612 76.0721 31.6027 74.1649C33.2216 71.0476 37.6455 69.2462 40.662 68.8207C42.504 68.5608 45.2743 68.3746 45.2743 68.3746C45.2743 68.3746 45.5088 73.319 51.1022 73.5942C58.7164 73.9677 58.2078 68.3746 58.2457 68.3746C59.4779 68.3746 66.3008 69.1024 67.8014 70.4862C71.8366 74.2074 70.3835 78.1333 69.844 84.7286Z" fill="#94CBB1"/>
<path d="M62.2592 67.9483C62.2215 67.9432 61.1883 71.9951 53.1235 71.3646C47.5402 70.9288 46.1783 66.969 46.051 66.969C46.6528 66.8357 47.6305 66.6973 47.8978 66.5488C48.7769 66.0568 49.4175 65.4575 49.7396 64.1718C49.9919 63.1661 50.1205 59.2951 50.1205 57.3529L58.7117 59.3644C58.5921 61.5552 57.754 66.6343 60.6913 67.5332C61.18 67.6817 61.7065 67.8185 62.2592 67.9483Z" fill="#F2E4DE"/>
<path d="M58.4142 63.6715C55.0274 63.95 50.6766 62.46 49.8503 57.7518L49.1045 53.5033C48.2783 48.7952 49.9816 44.5261 54.235 43.7154C58.4895 42.9047 62.3396 46.1153 63.1661 50.8235L63.4961 52.7043C63.8143 54.5111 64.4573 63.1748 58.4142 63.6715Z" fill="#F2E4DE"/>
<path d="M61.5546 59.3488C60.9467 56.1661 60.668 54.0426 60.7003 51.8023C61.5566 50.2383 61.3314 48.4408 61.1367 47.6649C61.7264 48.0553 62.4198 48.2406 63.117 48.1941C63.117 48.1941 61.7009 42.2723 56.8887 40.6789C56.0035 40.3199 53.7439 39.8665 50.7431 40.2954C48.1911 40.66 41.9 42.6484 41.0012 50.028V50.0322C40.9716 50.2768 40.3676 57.0761 39.1641 60.3383C37.5452 64.7239 35.2723 66.0864 35.3299 71.1464C35.404 77.6548 46.8876 78.521 53.8131 78.0343C60.7386 77.5476 64.6062 75.1743 64.6566 70.4839C64.7108 65.2286 62.7711 65.7167 61.5546 59.3488Z" fill="#0A0A0A"/>
<path d="M33.6993 85.8849L34.5271 111.088L34.3032 111.096L33.4754 85.8929L33.6993 85.8849Z" fill="#0C0C0C"/>
<path d="M101.453 86.3827L104.782 81.4201C104.855 81.3111 104.95 81.2191 105.059 81.1501C105.168 81.081 105.29 81.0364 105.416 81.0191C105.543 81.0018 105.672 81.0121 105.794 81.0494C105.917 81.0868 106.03 81.1503 106.128 81.2359C106.304 81.3999 106.415 81.6259 106.44 81.8703C106.464 82.1146 106.401 82.3599 106.263 82.5586L105.549 83.6226L109.268 81.3498C109.677 81.0898 110.339 81.0431 110.59 81.5408C110.698 81.7257 110.743 81.9433 110.717 82.1582C110.691 82.3731 110.596 82.5725 110.447 82.7238C110.451 82.7272 110.454 82.7309 110.456 82.735C110.458 82.7385 110.459 82.742 110.46 82.7455L111.091 82.3443C111.208 82.27 111.339 82.2239 111.476 82.2093C111.612 82.1946 111.749 82.2118 111.878 82.2596C112.007 82.3074 112.125 82.3846 112.221 82.4855C112.318 82.5865 112.392 82.7086 112.438 82.8431C112.506 83.0564 112.501 83.2876 112.425 83.4979C112.349 83.7082 112.206 83.8849 112.02 83.9984L111.751 84.169C111.752 84.1794 111.751 84.1899 111.749 84.2001C111.956 84.1285 112.181 84.1362 112.383 84.2218C112.586 84.3073 112.752 84.4652 112.853 84.667C112.957 84.8907 112.976 85.1471 112.907 85.3851C112.838 85.623 112.685 85.825 112.479 85.9508L111.812 86.375C111.823 86.3753 111.833 86.378 111.843 86.3827C111.853 86.3875 111.862 86.3942 111.869 86.4026C111.876 86.411 111.882 86.4208 111.885 86.4315C111.888 86.4421 111.89 86.4534 111.889 86.4646C112.09 86.4546 112.289 86.5136 112.455 86.6327C112.621 86.7518 112.745 86.9243 112.807 87.1239C112.869 87.335 112.861 87.5618 112.784 87.7674C112.706 87.973 112.565 88.1454 112.382 88.2567L106.754 91.8348C105.966 92.3353 105.053 92.5794 104.132 92.5359C103.211 92.4923 102.323 92.1631 101.582 91.5904C100.943 91.0965 100.515 90.3626 100.387 89.5447C100.26 88.7267 100.443 87.8892 100.899 87.21L101.453 86.3827Z" fill="#F2E4DE"/>
<g opacity="0.2">
<path d="M106.776 84.9937C106.787 85.0134 106.806 85.0274 106.828 85.0329C106.849 85.0384 106.872 85.0349 106.891 85.0231L110.425 82.8571C110.443 82.8448 110.457 82.8254 110.462 82.8032C110.467 82.7809 110.464 82.7574 110.453 82.7376C110.441 82.7178 110.423 82.7033 110.402 82.6972C110.381 82.6911 110.358 82.6937 110.339 82.7047L106.805 84.8709C106.795 84.8768 106.787 84.8846 106.78 84.8939C106.773 84.9031 106.768 84.9137 106.766 84.9249C106.763 84.9361 106.762 84.9478 106.764 84.9593C106.765 84.9708 106.769 84.9819 106.775 84.9919L106.776 84.9937Z" fill="#0C0C0C"/>
</g>
<g opacity="0.2">
<path d="M107.65 86.643C107.661 86.6626 107.68 86.6767 107.701 86.6822C107.723 86.6877 107.746 86.6842 107.765 86.6724L111.708 84.2552C111.717 84.2493 111.726 84.2415 111.733 84.2322C111.739 84.2229 111.744 84.2123 111.747 84.2011C111.75 84.1898 111.75 84.1781 111.749 84.1666C111.747 84.1551 111.744 84.144 111.738 84.134C111.726 84.1144 111.707 84.1003 111.686 84.0945C111.664 84.0887 111.641 84.0916 111.622 84.1027L107.679 86.52C107.659 86.5319 107.645 86.5514 107.64 86.5741C107.634 86.5967 107.637 86.6208 107.648 86.6411L107.65 86.643Z" fill="#0C0C0C"/>
</g>
<g opacity="0.2">
<path d="M108.585 88.436C108.597 88.4556 108.616 88.4697 108.637 88.4752C108.659 88.4807 108.681 88.4773 108.7 88.4656L111.847 86.5375C111.865 86.5252 111.878 86.5058 111.884 86.4835C111.889 86.4612 111.885 86.4377 111.874 86.418C111.863 86.3982 111.845 86.3837 111.824 86.3776C111.802 86.3714 111.78 86.3741 111.76 86.385L108.614 88.3132C108.605 88.3191 108.596 88.3269 108.59 88.3362C108.583 88.3455 108.578 88.356 108.575 88.3673C108.572 88.3785 108.572 88.3903 108.573 88.4018C108.575 88.4133 108.579 88.4243 108.584 88.4343L108.585 88.436Z" fill="#0C0C0C"/>
</g>
<path d="M69.0544 71.9846L83.0225 93.7982L100.659 83.1435L107.029 94.0134L84.4369 109.131C82.9879 110.098 81.2324 110.435 79.5478 110.068C77.8631 109.702 76.3838 108.661 75.4276 107.17L75.3438 107.039L57.8728 79.758L69.0544 71.9846Z" fill="#94CBB1"/>
<path d="M69.0118 97.4237C69.0321 97.4237 69.0519 97.4179 69.0693 97.407C69.0867 97.3962 69.1009 97.3806 69.1105 97.3619C69.12 97.3433 69.1245 97.3223 69.1235 97.3012C69.1225 97.2801 69.116 97.2597 69.1048 97.2421L65.4211 91.5281C65.4042 91.5034 65.3786 91.4865 65.35 91.4811C65.3213 91.4756 65.2917 91.4821 65.2675 91.499C65.2433 91.5159 65.2264 91.542 65.2204 91.5717C65.2143 91.6014 65.2196 91.6324 65.2351 91.6581L68.9188 97.3721C68.9291 97.388 68.9429 97.401 68.9591 97.41C68.9753 97.419 68.9934 97.4237 69.0118 97.4237Z" fill="#0C0C0C"/>
</g>
<defs>
<clipPath id="clip0_737_590">
<rect width="220" height="220" fill="white" transform="matrix(-1 0 0 1 220 0)"/>
</clipPath>
</defs>
</svg>
