<svg width="522" height="400" viewBox="0 0 522 400" fill="none" xmlns="http://www.w3.org/2000/svg">
<g clip-path="url(#clip0_841_891)">
<path d="M279.775 37.1819L11.8519 384.903L-50.8 466H181.6H387.949L400.699 384.903L460.691 95.1543" fill="#B5D9CF"/>
<path d="M521.896 188.999H383.169C383.954 183.73 386.836 178.844 391.241 176.46C396.689 173.509 403.31 174.38 409.457 175.143C415.604 175.905 422.388 176.33 427.433 172.74C429.971 170.933 431.767 168.299 433.823 165.956C439.697 159.252 448.96 154.666 457.554 157.033C461.879 158.224 465.57 161.009 469.67 162.827C473.979 164.731 478.688 165.548 483.386 165.209C488.23 164.85 493.05 163.265 497.854 163.976C503.945 164.882 508.933 169.353 512.547 174.342C515.968 179.063 518.41 183.647 521.896 188.999Z" fill="white"/>
<path d="M255.546 225.638H77.4164C76.6018 224.059 76.1268 222.327 76.0221 220.553C75.9174 218.779 76.1853 217.003 76.8085 215.339C77.5504 213.474 78.7262 211.813 80.2384 210.494C81.7506 209.175 83.5556 208.236 85.5035 207.754C91.3188 206.374 97.892 209.205 103.193 206.449C107.307 204.307 109.207 199.475 110.083 194.926C110.96 190.377 111.206 185.57 113.416 181.496C117.129 174.656 125.944 171.6 133.556 173.23C141.168 174.861 147.489 180.406 151.652 186.982C153.364 189.687 154.919 192.742 157.741 194.252C160.998 195.993 165.053 195.164 168.398 193.605C171.743 192.045 174.782 189.805 178.284 188.646C185.355 186.305 193.809 189.163 198.013 195.313C201.02 199.709 202.28 205.762 207.001 208.225C208.947 209.239 211.202 209.452 213.393 209.504C222.133 209.716 231.118 207.68 239.481 210.224C243.157 211.398 246.515 213.397 249.3 216.069C252.084 218.741 254.221 222.014 255.546 225.638V225.638Z" fill="white"/>
<path d="M396.462 100.076C401.123 84.9112 387.286 67.2026 365.556 60.5229C343.825 53.8431 322.43 60.7216 317.769 75.8864C313.107 91.0512 326.944 108.76 348.675 115.44C370.405 122.119 391.8 115.241 396.462 100.076Z" fill="white"/>
<path d="M472.106 110.667C470.355 116.363 458.494 118.413 440.315 117.19C418.406 115.72 387.316 109.489 353.678 99.1485C320.041 88.8083 290.828 76.5034 271.871 65.415C256.143 56.2123 247.483 47.8541 249.234 42.1599C251.293 35.4605 267.351 33.8043 291.232 36.5919C312.106 39.0283 338.958 44.8578 367.657 53.6805C396.356 62.5033 421.85 72.7634 440.487 82.4717C461.811 93.5774 474.165 103.968 472.106 110.667Z" fill="#6BB090"/>
<path d="M439.508 99.4181C419.09 98.0471 390.114 92.24 358.766 82.6041C327.418 72.9682 300.188 61.4987 282.522 51.1652C286.725 41.1186 292.855 31.9924 300.565 24.3018C321.56 3.35956 352.949 -5.62023 383.042 3.63062C413.134 12.8815 434.061 37.9417 439.668 67.0627C441.726 77.755 441.671 88.7467 439.508 99.4181V99.4181Z" fill="white"/>
<path d="M296.664 110.606L299.479 106.93C299.479 106.93 296.759 101.594 290.84 101.6C288.879 101.6 288.846 103.819 289.427 104.17C291.347 105.33 293.34 106.255 294.349 107.897C293.488 107.733 292.294 107.579 292.213 107.961C291.998 108.967 296.664 110.606 296.664 110.606Z" fill="#F2E4DE"/>
<path d="M306.97 144.427L299.656 140.049L309.018 124.407L293.927 110.614L299.677 104.322L317.339 120.463C318.064 121.126 318.538 122.019 318.681 122.991C318.823 123.963 318.625 124.955 318.12 125.798L306.97 144.427Z" fill="#319C69"/>
<path d="M280.754 248.718L279.723 240.573C282.805 240.182 286.501 239.688 287.098 239.568L287.005 239.59L288.992 247.556C288.754 247.613 288.027 247.795 280.754 248.718Z" fill="#F2E4DE"/>
<path d="M279.773 259.4C279.818 259.616 279.908 259.82 280.036 260C280.163 260.18 280.327 260.331 280.516 260.445C280.705 260.559 280.916 260.633 281.135 260.662C281.354 260.691 281.576 260.674 281.788 260.613C282.082 260.528 282.346 260.361 282.549 260.132C282.751 259.902 282.884 259.62 282.931 259.317L284.147 249.313C284.17 249.12 284.151 248.923 284.091 248.738C284.031 248.552 283.931 248.382 283.799 248.238C282.642 247.134 281.87 245.689 281.596 244.114C281.432 242.876 281.619 241.618 282.137 240.482C282.19 240.381 282.214 240.266 282.204 240.152C282.195 240.038 282.154 239.928 282.085 239.837C282.016 239.745 281.922 239.675 281.815 239.634C281.707 239.594 281.591 239.585 281.478 239.608L276.901 240.548C276.766 240.575 276.637 240.63 276.523 240.707C276.409 240.784 276.312 240.883 276.236 240.999C276.16 241.114 276.108 241.243 276.082 241.378C276.057 241.514 276.058 241.653 276.086 241.788L279.773 259.4Z" fill="#B5D9CF"/>
<path d="M359.597 272.682C359.484 269.577 359.323 265.85 359.258 265.246L359.271 265.34L367.383 264.076C367.421 264.32 367.535 265.06 367.801 272.385L359.597 272.682Z" fill="#F2E4DE"/>
<path d="M378.356 274.32C378.575 274.294 378.787 274.223 378.978 274.112C379.168 274.001 379.334 273.851 379.464 273.673C379.595 273.495 379.687 273.292 379.735 273.077C379.784 272.861 379.787 272.638 379.745 272.421V272.421C379.687 272.121 379.545 271.843 379.334 271.621C379.124 271.399 378.854 271.241 378.557 271.167L368.702 269.06C368.512 269.02 368.314 269.021 368.124 269.064C367.934 269.108 367.755 269.191 367.6 269.31C366.397 270.363 364.888 271.002 363.294 271.134C362.047 271.186 360.811 270.886 359.726 270.27C359.629 270.207 359.517 270.174 359.403 270.173C359.288 270.172 359.175 270.203 359.078 270.264C358.981 270.325 358.903 270.411 358.853 270.515C358.803 270.618 358.783 270.733 358.796 270.847L359.321 275.491C359.337 275.628 359.379 275.76 359.446 275.881C359.513 276.001 359.603 276.107 359.711 276.193C359.819 276.279 359.943 276.342 360.075 276.38C360.208 276.418 360.347 276.429 360.484 276.413L378.356 274.32Z" fill="#B5D9CF"/>
<path d="M360.981 217.61C356.793 209.745 331.955 176.714 329.29 173.146L303.162 187.059C303.162 187.059 310.687 225.699 310.783 226.831L284.259 237.217L287.714 251.264L321.995 241.519C323.882 241.129 325.573 240.088 326.771 238.579C327.97 237.07 328.6 235.187 328.552 233.261C328.552 233.261 324.532 198.797 324.475 198.154L345.872 221.725L356.619 268.483L370.938 266.43C370.938 266.43 362.674 220.791 360.981 217.61Z" fill="#262626"/>
<path d="M248.704 128.426L245.254 131.516C245.254 131.516 239.655 128.341 239.207 122.44C239.059 120.484 241.267 120.282 241.662 120.834C242.966 122.658 244.11 125.447 245.826 126.327C245.596 125.479 245.35 124.3 245.724 124.192C246.711 123.899 248.704 128.426 248.704 128.426Z" fill="#F2E4DE"/>
<path d="M301.302 190.025C298.642 186.746 299.549 181.594 294.802 174.896C290.055 168.198 277.824 163.998 279.288 155.415C279.714 152.927 281.568 150.197 284.634 148.023C286.128 149.65 297.006 141.964 295.846 140.15C296.266 139.862 296.59 139.638 296.798 139.507C307.706 132.465 311.587 147.805 317.753 156.727C324.963 167.174 329.142 167.144 330.009 171.289C330.845 175.305 305.482 195.182 301.302 190.025Z" fill="#319C69"/>
<path d="M295.07 147.497C291.326 150.537 286.128 149.65 284.634 148.023C284.639 148.018 284.639 148.014 284.644 148.014C288.509 145.282 293.566 141.71 295.846 140.15C297.006 141.964 297.877 145.217 295.07 147.497Z" fill="#F2E4DE"/>
<path d="M283.025 160.034L259.642 153.751C258.676 153.491 257.832 152.899 257.258 152.079L242.261 130.689L249.241 125.795L263.349 145.919L285.236 151.801L283.025 160.034Z" fill="#319C69"/>
<path d="M286.056 148.227C286.056 148.227 287.89 145.353 283.261 138.55L288.107 134.478C288.107 134.478 291.124 141.221 295.014 141.7L286.056 148.227Z" fill="#F2E4DE"/>
<g opacity="0.15">
<path d="M293.147 140.989L286.699 140.097L290.211 138.058C290.998 139.21 291.994 140.204 293.147 140.989V140.989Z" fill="black"/>
</g>
<path d="M278.621 137.522C280.222 139.474 282.566 140.855 284.872 140.473C287.422 140.119 289.847 139.147 291.935 137.641C297.587 133.797 288.777 120.983 284.48 119.959C280.183 118.936 272.863 125.274 274.339 130.222C275.103 132.781 277.096 135.663 278.621 137.522Z" fill="#F2E4DE"/>
<path d="M290.822 122.881C290.822 122.881 284.232 113.959 275.044 122.273C273.598 123.688 272.638 125.525 272.302 127.52C271.401 126.905 270.337 126.574 269.246 126.569C268.155 126.565 267.088 126.887 266.182 127.494C265.277 128.102 264.574 128.967 264.164 129.978C263.754 130.989 263.657 132.099 263.884 133.166C264.112 134.233 264.653 135.207 265.439 135.963C266.226 136.719 267.22 137.222 268.295 137.408C269.37 137.593 270.476 137.452 271.47 137.004C272.464 136.555 273.301 135.819 273.872 134.89C273.96 135.022 274.048 135.153 274.142 135.285C278.149 140.853 284.765 141.025 284.765 141.025C284.765 141.025 285.522 139.271 279.621 129.956C282.017 128.856 287.404 126.176 290.822 122.881Z" fill="#0F1011"/>
<path d="M285.877 131.123C286.189 131.123 286.441 130.87 286.441 130.559C286.441 130.247 286.189 129.994 285.877 129.994C285.565 129.994 285.312 130.247 285.312 130.559C285.312 130.87 285.565 131.123 285.877 131.123Z" fill="#0F1011"/>
<path d="M289.571 128.61C289.883 128.61 290.135 128.357 290.135 128.045C290.135 127.734 289.883 127.481 289.571 127.481C289.259 127.481 289.006 127.734 289.006 128.045C289.006 128.357 289.259 128.61 289.571 128.61Z" fill="#0F1011"/>
<path d="M288.388 127.275C288.329 127.275 288.272 127.255 288.226 127.219C288.179 127.183 288.146 127.133 288.131 127.076C288.116 127.018 288.121 126.958 288.144 126.904C288.168 126.85 288.208 126.805 288.26 126.777L289.57 126.056C289.631 126.028 289.701 126.024 289.764 126.046C289.828 126.067 289.881 126.112 289.913 126.17C289.946 126.229 289.954 126.298 289.938 126.363C289.921 126.428 289.88 126.485 289.824 126.521L288.514 127.239C288.476 127.262 288.433 127.274 288.388 127.275Z" fill="#0F1011"/>
<path d="M284.182 130.303C284.129 130.303 284.077 130.287 284.033 130.257C283.989 130.227 283.955 130.185 283.936 130.135C283.916 130.086 283.912 130.031 283.923 129.979C283.935 129.928 283.962 129.88 284.001 129.844L285.109 128.809C285.161 128.764 285.228 128.741 285.296 128.745C285.365 128.749 285.429 128.779 285.476 128.829C285.523 128.879 285.548 128.945 285.547 129.014C285.546 129.082 285.519 129.148 285.471 129.196L284.363 130.232C284.314 130.277 284.249 130.303 284.182 130.303V130.303Z" fill="#0F1011"/>
<path d="M288.296 134.297C289.388 133.814 290.384 133.137 291.234 132.297C291.234 132.297 291.9 133.497 290.532 134.425C289.165 135.353 288.296 134.297 288.296 134.297Z" fill="white"/>
<path d="M284.003 133.207C284.182 133.467 284.307 133.76 284.373 134.068C284.438 134.377 284.442 134.695 284.384 135.005C284.326 135.315 284.207 135.61 284.034 135.874C283.862 136.138 283.639 136.365 283.378 136.543C283.117 136.72 282.824 136.844 282.515 136.908C282.206 136.972 281.888 136.974 281.578 136.914C281.268 136.854 280.974 136.733 280.711 136.559C280.448 136.385 280.222 136.161 280.046 135.899C279.864 135.641 279.736 135.349 279.669 135.04C279.602 134.732 279.598 134.413 279.657 134.103C279.716 133.793 279.837 133.498 280.013 133.235C280.188 132.973 280.415 132.748 280.679 132.575C282.135 131.686 283.26 132.115 284.003 133.207Z" fill="#F2E4DE"/>
<g opacity="0.15">
<path d="M289.6 132.047C289.56 132.07 289.512 132.078 289.466 132.069C289.42 132.06 289.378 132.035 289.349 131.998C289.321 131.961 289.306 131.915 289.308 131.868C289.311 131.821 289.33 131.777 289.362 131.743L290.186 130.872L288.606 129.712C288.566 129.681 288.539 129.636 288.532 129.585C288.524 129.535 288.537 129.483 288.567 129.442C288.597 129.401 288.643 129.373 288.693 129.365C288.743 129.357 288.795 129.368 288.837 129.398L290.595 130.688C290.617 130.705 290.636 130.726 290.649 130.75C290.663 130.774 290.671 130.8 290.673 130.828C290.676 130.855 290.673 130.883 290.664 130.909C290.655 130.935 290.64 130.959 290.621 130.98L289.645 132.012C289.632 132.026 289.617 132.037 289.6 132.047V132.047Z" fill="black"/>
</g>
<path d="M56.3391 301.719C56.1805 302.038 56.0174 302.356 55.8552 302.673C55.4161 303.537 54.9615 304.397 54.4913 305.253C54.3394 305.531 54.1919 305.81 54.0354 306.086C53.4193 307.188 52.7809 308.284 52.1202 309.373C52.0458 309.496 51.9682 309.618 51.8923 309.741C51.1987 310.871 50.4848 311.996 49.741 313.113L25.0542 350.466H46.5993L71.2882 313.111C72.0319 311.996 72.7448 310.87 73.4379 309.741C73.5144 309.617 73.5929 309.494 73.6684 309.37C73.7165 309.29 73.7697 309.211 73.8153 309.132C74.4269 308.122 75.0125 307.105 75.583 306.083C75.7375 305.807 75.887 305.53 76.039 305.253C76.5075 304.395 76.9635 303.534 77.4069 302.669C77.5681 302.352 77.7307 302.036 77.8883 301.718C78.4425 300.604 78.9821 299.482 79.4898 298.354H57.9401C57.4324 299.484 56.8964 300.603 56.3391 301.719Z" fill="#319C69"/>
<path d="M106.852 265.705H85.306V350.468H101.515V372.61H85.306V400.555H106.852V372.61H123.06V350.468H106.852V265.705Z" fill="#319C69"/>
<path d="M164.48 379.364C164.653 379.378 164.828 379.388 165.003 379.397C165.123 379.403 165.239 379.415 165.358 379.419C165.551 379.425 165.746 379.429 165.942 379.429H187.489C187.17 379.429 186.86 379.413 186.55 379.397C186.373 379.388 186.198 379.378 186.025 379.364C185.805 379.345 185.588 379.321 185.373 379.295C185.205 379.274 185.038 379.255 184.873 379.229C184.636 379.193 184.403 379.149 184.172 379.102C184.05 379.077 183.926 379.056 183.805 379.028C183.505 378.959 183.21 378.88 182.921 378.793C182.87 378.778 182.819 378.767 182.769 378.752C182.424 378.645 182.086 378.525 181.755 378.392C181.66 378.354 181.569 378.308 181.475 378.268C181.247 378.17 181.019 378.071 180.799 377.961C180.432 377.778 180.073 377.582 179.725 377.365C179.693 377.346 179.662 377.321 179.63 377.301C179.316 377.101 179.009 376.888 178.709 376.66C178.547 376.537 178.39 376.407 178.233 376.273C178.111 376.172 177.988 376.075 177.869 375.969C177.704 375.821 177.544 375.662 177.383 375.504C177.276 375.398 177.166 375.301 177.061 375.188C176.885 375.005 176.717 374.809 176.548 374.614C176.464 374.518 176.378 374.427 176.295 374.328C176.047 374.027 175.806 373.714 175.572 373.387C175.339 373.06 175.113 372.719 174.895 372.365C174.822 372.247 174.753 372.119 174.682 371.998C174.54 371.756 174.397 371.516 174.26 371.262C174.179 371.11 174.103 370.951 174.024 370.796C173.905 370.56 173.784 370.326 173.67 370.08C173.589 369.907 173.513 369.726 173.434 369.547C173.309 369.263 173.181 368.982 173.065 368.686C172.906 368.287 172.753 367.868 172.603 367.441C172.568 367.34 172.534 367.243 172.502 367.143C172.356 366.714 172.214 366.275 172.076 365.819C172.06 365.764 172.043 365.705 172.025 365.65C171.9 365.229 171.78 364.796 171.662 364.351C171.634 364.243 171.605 364.137 171.577 364.027C171.451 363.539 171.329 363.037 171.212 362.521C171.19 362.426 171.17 362.328 171.149 362.232C171.045 361.767 170.945 361.291 170.849 360.803C170.828 360.698 170.807 360.595 170.786 360.49C170.718 360.135 170.655 359.768 170.59 359.403C170.54 359.109 170.484 358.822 170.434 358.521C170.373 358.154 170.318 357.772 170.26 357.395C170.214 357.091 170.166 356.793 170.122 356.483C170.065 356.084 170.014 355.669 169.961 355.259C169.921 354.951 169.879 354.651 169.842 354.337C169.791 353.903 169.741 353.451 169.695 353.004C169.662 352.695 169.626 352.396 169.594 352.081C169.543 351.586 169.5 351.073 169.455 350.561C169.431 350.279 169.405 350.004 169.379 349.719C169.329 349.119 169.287 348.5 169.244 347.88C169.229 347.666 169.212 347.462 169.197 347.246C169.142 346.404 169.091 345.544 169.046 344.667C169.037 344.491 169.031 344.307 169.022 344.131C168.989 343.422 168.956 342.708 168.929 341.975C168.926 341.893 168.924 341.808 168.921 341.725C168.895 340.971 168.872 340.204 168.853 339.425C168.847 339.157 168.841 338.885 168.836 338.614C168.822 337.979 168.811 337.336 168.803 336.684C168.799 336.413 168.795 336.144 168.792 335.871C168.783 334.969 168.777 334.057 168.777 333.126C168.777 332.156 168.783 331.205 168.793 330.268C168.796 329.964 168.802 329.666 168.806 329.364C168.815 328.737 168.825 328.112 168.839 327.5C168.846 327.152 168.856 326.811 168.865 326.469C168.879 325.911 168.896 325.358 168.916 324.813C168.928 324.465 168.941 324.121 168.954 323.78C168.975 323.249 168.998 322.724 169.023 322.206C169.038 321.875 169.054 321.543 169.071 321.216C169.1 320.683 169.131 320.16 169.163 319.64C169.181 319.349 169.198 319.055 169.218 318.769C169.26 318.144 169.306 317.533 169.355 316.928C169.368 316.762 169.379 316.59 169.393 316.426C169.457 315.657 169.526 314.904 169.6 314.168C169.611 314.067 169.622 313.968 169.633 313.867C169.695 313.267 169.76 312.678 169.829 312.099C169.849 311.933 169.869 311.765 169.889 311.601C169.97 310.949 170.053 310.308 170.142 309.685C170.153 309.612 170.164 309.542 170.174 309.47C170.256 308.91 170.342 308.363 170.431 307.826C170.456 307.674 170.481 307.522 170.507 307.37C170.608 306.782 170.71 306.205 170.821 305.643C170.83 305.6 170.839 305.559 170.847 305.515C170.948 304.993 171.058 304.486 171.169 303.989C171.2 303.852 171.231 303.715 171.262 303.58C171.346 303.215 171.434 302.863 171.523 302.511C171.576 302.297 171.629 302.08 171.684 301.872C171.778 301.517 171.876 301.179 171.974 300.84C172.025 300.67 172.071 300.494 172.121 300.327C172.262 299.865 172.406 299.417 172.556 298.984C172.567 298.951 172.578 298.915 172.589 298.883C172.758 298.397 172.932 297.929 173.112 297.479C173.273 297.074 173.443 296.686 173.616 296.305C173.667 296.195 173.717 296.088 173.768 295.981C173.905 295.691 174.045 295.407 174.189 295.13C174.237 295.039 174.283 294.946 174.331 294.856C174.519 294.508 174.712 294.17 174.91 293.843C174.961 293.761 175.011 293.685 175.062 293.605C175.222 293.351 175.384 293.102 175.551 292.862C175.627 292.753 175.706 292.647 175.784 292.54C175.933 292.338 176.085 292.135 176.24 291.942C176.324 291.837 176.408 291.733 176.493 291.631C176.657 291.436 176.825 291.248 176.995 291.064C177.072 290.98 177.147 290.894 177.227 290.811C177.715 290.305 178.24 289.836 178.797 289.408C178.885 289.342 178.975 289.28 179.063 289.216C179.255 289.077 179.45 288.941 179.649 288.811C179.75 288.743 179.858 288.679 179.964 288.614C180.158 288.496 180.355 288.384 180.555 288.277C180.66 288.221 180.765 288.164 180.872 288.11C181.104 287.994 181.34 287.886 181.581 287.784C181.657 287.751 181.733 287.715 181.807 287.683C182.125 287.554 182.448 287.437 182.777 287.333C182.857 287.308 182.939 287.287 183.02 287.264C183.273 287.188 183.529 287.118 183.79 287.056C183.91 287.028 184.032 287.005 184.153 286.978C184.385 286.93 184.619 286.886 184.856 286.848C184.985 286.828 185.113 286.808 185.243 286.791C185.492 286.758 185.745 286.732 186 286.71C186.117 286.7 186.232 286.687 186.351 286.68C186.723 286.656 187.101 286.641 187.486 286.641H165.944C165.559 286.641 165.184 286.656 164.809 286.68C164.69 286.687 164.575 286.7 164.458 286.71C164.205 286.732 163.951 286.758 163.701 286.791C163.571 286.808 163.442 286.828 163.314 286.848C163.077 286.886 162.843 286.93 162.611 286.978C162.489 287.004 162.368 287.029 162.249 287.056C161.988 287.118 161.732 287.188 161.478 287.264C161.398 287.287 161.315 287.308 161.235 287.333C160.905 287.437 160.582 287.554 160.266 287.683C160.188 287.714 160.114 287.75 160.037 287.784C159.799 287.885 159.563 287.993 159.331 288.109C159.224 288.16 159.12 288.22 159.014 288.276C158.815 288.384 158.618 288.496 158.423 288.614C158.317 288.678 158.212 288.742 158.108 288.809C157.91 288.937 157.715 289.073 157.523 289.215C157.434 289.279 157.344 289.34 157.257 289.407C156.984 289.616 156.715 289.833 156.455 290.066L156.451 290.069C156.189 290.302 155.936 290.551 155.686 290.809C155.607 290.89 155.531 290.977 155.453 291.062C155.283 291.245 155.116 291.432 154.953 291.627C154.867 291.728 154.782 291.834 154.7 291.94C154.546 292.133 154.394 292.332 154.244 292.535C154.166 292.643 154.087 292.749 154.01 292.859C153.844 293.098 153.681 293.346 153.522 293.599C153.472 293.68 153.421 293.757 153.37 293.84C153.359 293.859 153.347 293.876 153.335 293.894C153.148 294.203 152.968 294.525 152.791 294.853C152.744 294.943 152.697 295.036 152.65 295.127C152.506 295.404 152.366 295.687 152.229 295.978C152.178 296.085 152.128 296.192 152.077 296.302C151.904 296.683 151.734 297.072 151.573 297.476C151.556 297.52 151.538 297.563 151.523 297.607C151.361 298.016 151.204 298.441 151.051 298.881C151.042 298.909 151.033 298.939 151.024 298.967C150.872 299.406 150.725 299.859 150.584 300.326C150.533 300.492 150.486 300.667 150.437 300.837C150.339 301.176 150.24 301.517 150.146 301.871C150.091 302.078 150.039 302.294 149.986 302.505C149.927 302.739 149.865 302.965 149.809 303.205C149.78 303.328 149.752 303.458 149.724 303.582C149.693 303.715 149.662 303.849 149.632 303.984C149.521 304.485 149.412 304.998 149.308 305.522C149.3 305.562 149.292 305.6 149.284 305.639C149.174 306.201 149.07 306.782 148.969 307.372C148.943 307.521 148.918 307.671 148.894 307.821C148.805 308.36 148.719 308.908 148.637 309.47C148.627 309.542 148.615 309.611 148.605 309.684C148.516 310.308 148.432 310.95 148.352 311.603C148.331 311.765 148.312 311.93 148.293 312.094C148.223 312.672 148.158 313.261 148.096 313.86C148.085 313.961 148.074 314.063 148.063 314.17C148.059 314.208 148.055 314.245 148.051 314.284C147.981 314.983 147.916 315.696 147.856 316.425C147.842 316.589 147.83 316.761 147.818 316.927C147.767 317.532 147.722 318.143 147.681 318.768C147.661 319.053 147.644 319.346 147.626 319.636C147.594 320.159 147.562 320.684 147.534 321.22C147.517 321.543 147.501 321.87 147.486 322.198C147.462 322.719 147.438 323.247 147.417 323.78C147.404 324.121 147.391 324.465 147.379 324.812C147.36 325.357 147.344 325.91 147.328 326.468C147.32 326.81 147.309 327.151 147.302 327.499C147.289 328.111 147.279 328.736 147.27 329.363C147.266 329.667 147.26 329.962 147.256 330.267C147.247 331.204 147.24 332.155 147.24 333.125C147.24 334.056 147.247 334.968 147.256 335.87C147.259 336.143 147.262 336.412 147.266 336.683C147.275 337.334 147.286 337.977 147.299 338.613C147.305 338.884 147.31 339.155 147.316 339.424C147.336 340.201 147.359 340.967 147.385 341.724C147.388 341.807 147.39 341.892 147.393 341.974V342.03C147.419 342.746 147.452 343.441 147.485 344.135C147.493 344.31 147.499 344.49 147.507 344.665C147.552 345.544 147.601 346.403 147.656 347.245C147.671 347.471 147.689 347.686 147.707 347.91C147.75 348.518 147.792 349.126 147.84 349.716C147.865 350.023 147.895 350.316 147.921 350.619C147.965 351.107 148.007 351.6 148.054 352.075C148.087 352.403 148.125 352.716 148.159 353.038C148.206 353.472 148.251 353.911 148.302 354.333C148.341 354.656 148.384 354.965 148.424 355.28C148.475 355.682 148.525 356.091 148.582 356.478C148.626 356.794 148.675 357.096 148.722 357.404C148.779 357.778 148.835 358.157 148.895 358.518C148.945 358.822 148.999 359.109 149.051 359.404C149.103 359.699 149.156 360.016 149.211 360.309C149.222 360.369 149.235 360.427 149.247 360.487C149.267 360.593 149.289 360.696 149.31 360.802C149.406 361.289 149.506 361.764 149.609 362.228C149.63 362.325 149.651 362.423 149.672 362.519C149.79 363.036 149.912 363.537 150.038 364.026C150.065 364.135 150.094 364.241 150.123 364.348C150.24 364.793 150.361 365.226 150.486 365.647C150.502 365.703 150.517 365.761 150.536 365.816C150.673 366.272 150.816 366.712 150.962 367.141C150.996 367.242 151.031 367.339 151.064 367.438C151.216 367.866 151.368 368.284 151.526 368.683C151.563 368.777 151.602 368.872 151.64 368.965C151.722 369.164 151.811 369.352 151.896 369.546C151.974 369.723 152.048 369.905 152.13 370.077C152.245 370.324 152.366 370.559 152.485 370.795C152.564 370.947 152.639 371.109 152.72 371.259C152.857 371.512 153.001 371.757 153.145 372.001C153.215 372.12 153.282 372.245 153.354 372.361C153.571 372.711 153.794 373.049 154.023 373.375L154.034 373.389C154.267 373.715 154.507 374.028 154.754 374.327C154.837 374.428 154.924 374.519 155.007 374.616C155.175 374.81 155.343 375.005 155.518 375.188C155.622 375.297 155.731 375.397 155.838 375.502C155.999 375.661 156.16 375.82 156.326 375.969C156.444 376.075 156.567 376.172 156.688 376.273C156.819 376.382 156.946 376.498 157.08 376.601C157.107 376.622 157.137 376.639 157.165 376.661C157.465 376.889 157.772 377.102 158.087 377.302C158.119 377.322 158.149 377.346 158.181 377.366C158.53 377.582 158.891 377.779 159.256 377.961C159.28 377.974 159.306 377.99 159.329 378.002C159.525 378.098 159.728 378.181 159.93 378.268C160.024 378.308 160.116 378.354 160.212 378.392C160.537 378.523 160.869 378.641 161.207 378.747L161.224 378.752C161.275 378.767 161.325 378.778 161.376 378.793C161.666 378.879 161.961 378.959 162.261 379.027C162.381 379.055 162.505 379.078 162.626 379.101C162.794 379.135 162.96 379.174 163.133 379.203C163.198 379.214 163.266 379.219 163.331 379.229C163.495 379.254 163.663 379.274 163.831 379.295C164.043 379.321 164.26 379.344 164.48 379.364Z" fill="#319C69"/>
<path d="M234.219 346.053C234.277 345.233 234.321 344.391 234.367 343.553C234.397 343 234.434 342.456 234.459 341.895C234.502 340.949 234.529 339.98 234.557 339.011C234.571 338.535 234.592 338.07 234.603 337.587C234.635 336.125 234.652 334.639 234.654 333.129C234.654 331.829 234.637 330.551 234.612 329.286C234.603 328.892 234.59 328.504 234.58 328.113C234.564 327.563 234.554 327.006 234.534 326.463C234.521 326.087 234.501 325.719 234.484 325.349C234.472 325.063 234.46 324.777 234.445 324.493C234.389 323.321 234.322 322.163 234.243 321.021C234.232 320.869 234.218 320.726 234.208 320.577C234.132 319.559 234.046 318.554 233.95 317.564C233.924 317.297 233.9 317.029 233.872 316.764C233.761 315.669 233.64 314.585 233.504 313.526C233.485 313.371 233.462 313.219 233.442 313.065C233.318 312.125 233.185 311.199 233.042 310.287C233.003 310.04 232.965 309.793 232.926 309.548C232.771 308.596 232.609 307.654 232.433 306.73C232.421 306.665 232.407 306.6 232.394 306.534C232.366 306.39 232.336 306.251 232.308 306.108C232.133 305.221 231.948 304.347 231.754 303.488C231.709 303.293 231.667 303.096 231.622 302.902C231.404 301.964 231.174 301.042 230.932 300.137C230.882 299.952 230.831 299.771 230.78 299.587C230.556 298.77 230.323 297.966 230.079 297.174C230.039 297.044 230.001 296.91 229.96 296.78C229.687 295.912 229.402 295.06 229.103 294.226C229.036 294.035 228.967 293.847 228.901 293.658C228.602 292.838 228.293 292.029 227.972 291.241C227.962 291.215 227.952 291.19 227.941 291.162C227.938 291.154 227.935 291.146 227.931 291.138C227.718 290.618 227.488 290.122 227.265 289.618C227.1 289.248 226.945 288.866 226.776 288.503C226.523 287.964 226.255 287.447 225.991 286.924C225.833 286.609 225.683 286.283 225.52 285.974C225.216 285.399 224.895 284.848 224.576 284.295C224.439 284.056 224.31 283.807 224.171 283.572C223.705 282.793 223.224 282.035 222.728 281.298C222.285 280.639 221.827 280.009 221.36 279.389C221.253 279.247 221.145 279.105 221.038 278.964C220.574 278.361 220.101 277.773 219.614 277.206C219.551 277.132 219.486 277.062 219.422 276.989C218.976 276.477 218.52 275.979 218.054 275.497C217.944 275.383 217.834 275.266 217.722 275.153C217.21 274.634 216.687 274.132 216.152 273.647C216.051 273.553 215.943 273.464 215.838 273.371C215.356 272.944 214.864 272.531 214.364 272.131C214.263 272.051 214.165 271.968 214.064 271.889C214.013 271.848 213.963 271.803 213.907 271.762C213.373 271.35 212.827 270.956 212.272 270.575C212.136 270.481 211.994 270.394 211.857 270.302C211.376 269.98 210.888 269.67 210.392 269.371C210.19 269.25 209.987 269.131 209.784 269.014C209.305 268.738 208.819 268.473 208.326 268.219C208.15 268.128 207.977 268.033 207.799 267.945C207.727 267.91 207.658 267.87 207.586 267.835C207.029 267.561 206.456 267.306 205.88 267.059C205.75 267.003 205.619 266.95 205.489 266.895C204.812 266.614 204.127 266.347 203.427 266.101C203.358 266.078 203.287 266.056 203.218 266.032C202.852 265.906 202.485 265.779 202.112 265.665C201.788 265.563 201.459 265.471 201.13 265.377C201.041 265.352 200.952 265.324 200.862 265.299C200.139 265.096 199.402 264.917 198.655 264.752C198.518 264.722 198.38 264.691 198.242 264.662C197.608 264.527 196.969 264.401 196.317 264.292C196.213 264.275 196.106 264.262 196.002 264.245C195.845 264.22 195.686 264.199 195.529 264.175C194.818 264.068 194.097 263.975 193.368 263.897C193.264 263.886 193.161 263.872 193.056 263.862C192.256 263.782 191.443 263.724 190.62 263.68C190.434 263.67 190.247 263.661 190.059 263.653C189.831 263.643 189.603 263.628 189.375 263.62C188.754 263.601 188.127 263.591 187.493 263.591H165.944C166.813 263.591 167.666 263.616 168.51 263.653C168.697 263.661 168.885 263.67 169.071 263.68C169.894 263.724 170.707 263.781 171.507 263.862C171.612 263.872 171.714 263.886 171.819 263.897C172.549 263.974 173.269 264.067 173.98 264.175C174.137 264.199 174.296 264.22 174.452 264.245C175.21 264.367 175.957 264.506 176.693 264.662C176.831 264.691 176.967 264.722 177.104 264.752C177.851 264.917 178.589 265.098 179.313 265.299C179.402 265.324 179.489 265.35 179.577 265.376C180.286 265.579 180.984 265.798 181.669 266.033C181.737 266.056 181.808 266.078 181.877 266.101C182.576 266.347 183.262 266.614 183.939 266.895C184.069 266.95 184.199 267.003 184.329 267.059C184.979 267.338 185.619 267.633 186.249 267.945C186.426 268.033 186.599 268.129 186.776 268.219C187.268 268.474 187.755 268.739 188.235 269.014C188.437 269.132 188.64 269.25 188.843 269.369C189.339 269.668 189.829 269.978 190.312 270.301C190.449 270.393 190.59 270.479 190.725 270.573C191.335 270.992 191.932 271.431 192.518 271.89C192.619 271.968 192.715 272.05 192.815 272.13C193.316 272.529 193.807 272.943 194.29 273.371C194.395 273.464 194.501 273.553 194.605 273.647C195.139 274.131 195.663 274.633 196.175 275.153C196.287 275.266 196.396 275.382 196.507 275.497C196.972 275.98 197.428 276.478 197.875 276.989C197.938 277.062 198.004 277.132 198.067 277.206C198.553 277.773 199.026 278.361 199.49 278.964C199.598 279.104 199.706 279.246 199.812 279.389C200.278 280.009 200.736 280.641 201.18 281.298C201.676 282.034 202.157 282.793 202.622 283.572C202.774 283.825 202.916 284.099 203.065 284.358C203.369 284.891 203.68 285.422 203.972 285.973C204.157 286.323 204.326 286.693 204.508 287.051C204.749 287.533 204.997 288.006 205.228 288.502C205.412 288.896 205.583 289.312 205.76 289.714C205.972 290.196 206.191 290.669 206.393 291.163C206.405 291.191 206.416 291.221 206.427 291.249C206.749 292.035 207.055 292.841 207.352 293.658C207.422 293.848 207.491 294.038 207.559 294.229C207.856 295.065 208.142 295.913 208.415 296.781C208.456 296.912 208.494 297.047 208.535 297.179C208.779 297.969 209.012 298.771 209.235 299.587C209.285 299.772 209.336 299.955 209.387 300.14C209.628 301.045 209.858 301.966 210.076 302.904C210.121 303.098 210.164 303.296 210.208 303.491C210.403 304.351 210.587 305.223 210.762 306.108C210.79 306.252 210.82 306.392 210.848 306.536C211.038 307.523 211.214 308.53 211.38 309.55C211.42 309.795 211.458 310.043 211.496 310.291C211.638 311.203 211.771 312.126 211.895 313.06C211.916 313.218 211.939 313.372 211.959 313.53C212.094 314.59 212.217 315.668 212.327 316.763C212.354 317.031 212.377 317.3 212.405 317.57C212.5 318.558 212.585 319.558 212.661 320.572C212.673 320.724 212.686 320.873 212.697 321.025C212.778 322.163 212.844 323.322 212.9 324.492C212.914 324.779 212.926 325.067 212.938 325.354C212.978 326.262 213.008 327.184 213.033 328.113C213.044 328.505 213.057 328.894 213.065 329.29C213.091 330.556 213.108 331.832 213.108 333.132C213.108 334.645 213.091 336.131 213.057 337.59C213.047 338.073 213.025 338.538 213.012 339.014C212.983 339.983 212.956 340.952 212.913 341.898C212.888 342.46 212.852 343.003 212.821 343.556C212.776 344.394 212.731 345.236 212.674 346.056C212.633 346.635 212.582 347.198 212.536 347.768C212.473 348.537 212.412 349.309 212.339 350.062C212.284 350.638 212.218 351.199 212.156 351.766C212.077 352.49 211.998 353.215 211.909 353.922C211.838 354.489 211.757 355.042 211.68 355.598C211.584 356.281 211.488 356.966 211.383 357.632C211.296 358.182 211.201 358.721 211.108 359.262C210.996 359.91 210.883 360.557 210.761 361.19C210.659 361.722 210.55 362.244 210.442 362.764C210.313 363.382 210.181 363.996 210.043 364.599C209.908 365.188 209.768 365.771 209.624 366.346C209.53 366.718 209.438 367.092 209.341 367.461C209.166 368.119 208.981 368.765 208.794 369.405C208.706 369.706 208.622 370.013 208.531 370.311C208.249 371.236 207.956 372.144 207.646 373.028C207.638 373.052 207.629 373.075 207.62 373.099C207.316 373.959 207.001 374.798 206.675 375.617C206.578 375.858 206.476 376.091 206.378 376.329C206.137 376.912 205.892 377.488 205.638 378.051C205.512 378.33 205.385 378.603 205.255 378.876C205.009 379.398 204.758 379.911 204.5 380.413C204.369 380.667 204.239 380.926 204.105 381.173C203.801 381.743 203.489 382.297 203.17 382.842C203.078 382.999 202.99 383.163 202.896 383.319C202.461 384.043 202.012 384.747 201.549 385.43C193.841 396.745 181.973 402.402 165.943 402.402H187.489C203.519 402.402 215.387 396.745 223.094 385.43C223.536 384.782 223.964 384.115 224.38 383.427C224.402 383.392 224.421 383.354 224.443 383.319C224.536 383.163 224.624 382.999 224.716 382.842C225.035 382.297 225.347 381.743 225.651 381.173C225.785 380.923 225.914 380.667 226.045 380.413C226.303 379.91 226.554 379.397 226.801 378.876C226.929 378.603 227.058 378.33 227.184 378.051C227.437 377.489 227.683 376.914 227.924 376.329C228.022 376.091 228.124 375.858 228.221 375.617C228.252 375.54 228.285 375.467 228.315 375.39C228.608 374.646 228.89 373.886 229.162 373.11C229.171 373.081 229.182 373.054 229.192 373.026C229.501 372.142 229.795 371.234 230.078 370.309C230.168 370.014 230.251 369.709 230.338 369.41C230.526 368.767 230.711 368.12 230.887 367.459C230.983 367.094 231.075 366.722 231.168 366.351C231.258 365.993 231.354 365.645 231.44 365.282C231.491 365.06 231.537 364.826 231.589 364.6C231.727 363.997 231.858 363.384 231.988 362.765C232.096 362.246 232.204 361.725 232.306 361.195C232.428 360.559 232.542 359.911 232.655 359.259C232.748 358.721 232.842 358.185 232.928 357.638C233.034 356.968 233.131 356.284 233.226 355.599C233.303 355.042 233.383 354.492 233.454 353.927C233.543 353.218 233.623 352.494 233.702 351.77C233.752 351.332 233.806 350.908 233.851 350.468C233.864 350.336 233.872 350.198 233.885 350.066C233.958 349.313 234.019 348.541 234.082 347.772C234.128 347.195 234.179 346.632 234.219 346.053Z" fill="#319C69"/>
<path d="M287.075 301.721C286.916 302.042 286.751 302.361 286.587 302.681C286.148 303.539 285.697 304.393 285.232 305.244C285.076 305.529 284.924 305.815 284.764 306.1C284.148 307.201 283.511 308.296 282.851 309.386C282.782 309.499 282.711 309.611 282.642 309.724C281.945 310.86 281.226 311.989 280.483 313.113L255.794 350.466H277.338L302.026 313.111C302.773 311.987 303.49 310.856 304.187 309.719C304.255 309.608 304.326 309.497 304.394 309.385C304.437 309.315 304.482 309.245 304.524 309.175C305.141 308.155 305.731 307.128 306.309 306.098C306.468 305.813 306.619 305.528 306.775 305.242C307.241 304.391 307.694 303.536 308.132 302.678C308.295 302.359 308.459 302.04 308.618 301.72C309.176 300.605 309.714 299.483 310.224 298.354H288.68C288.171 299.484 287.631 300.605 287.075 301.721Z" fill="#319C69"/>
<path d="M353.8 350.468H337.584V265.705H316.039V350.468H332.254V372.61H316.039V400.555H337.584V372.61H353.8V350.468Z" fill="#319C69"/>
<path d="M85.3065 350.466H101.515V372.606H85.3065V400.552H57.4851V372.61H0V352.775L59.0511 265.704H85.3065V350.466ZM57.94 310.991C58.2511 303.738 58.4972 299.526 58.6782 298.356H57.94C55.6186 303.492 52.8769 308.428 49.743 313.113L25.0542 350.466H57.4851V327.593C57.4851 323.786 57.6371 318.252 57.9411 310.991" fill="white"/>
<path d="M201.176 281.291C209.132 293.098 213.109 310.377 213.107 333.127C213.107 356.678 209.254 374.111 201.549 385.425C193.844 396.74 181.976 402.397 165.944 402.398C150.405 402.398 138.689 396.555 130.795 384.868C122.901 373.181 118.956 355.934 118.96 333.127C118.96 309.334 122.797 291.795 130.47 280.51C138.15 269.229 149.974 263.587 165.943 263.584C181.476 263.584 193.22 269.487 201.176 281.291ZM180.311 368.547C183.264 361.293 184.738 349.486 184.734 333.127C184.734 316.588 183.245 304.705 180.269 297.478C177.292 290.251 172.517 286.64 165.944 286.645C159.244 286.645 154.454 290.256 151.572 297.478C148.68 304.706 147.236 316.589 147.238 333.127C147.238 349.673 148.666 361.526 151.523 368.686C154.38 375.846 159.187 379.426 165.944 379.427C172.575 379.427 177.364 375.799 180.311 368.545" fill="white"/>
<path d="M316.039 350.466H332.252V372.606H316.039V400.552H288.218V372.61H230.733V352.775L289.784 265.704H316.039V350.466ZM288.68 310.989C288.984 303.736 289.23 299.524 289.418 298.354H288.68C286.353 303.487 283.612 308.422 280.483 313.111L255.794 350.466H288.22V327.593C288.22 323.786 288.374 318.252 288.682 310.991" fill="white"/>
</g>
<defs>
<clipPath id="clip0_841_891">
<rect width="521.894" height="400" fill="white"/>
</clipPath>
</defs>
</svg>
