<svg width="220" height="151" viewBox="0 0 220 151" fill="none" xmlns="http://www.w3.org/2000/svg">
<g clip-path="url(#clip0_737_916)">
<path d="M184.36 0.133179H142.444V54.6919H184.36V0.133179Z" fill="#F4F4F4"/>
<path d="M184.36 54.6919H185.72V0.13316H184.36V54.6919Z" fill="#F4F4F4"/>
<path opacity="0.05" d="M184.36 54.6919H185.72V0.13316H184.36V54.6919Z" fill="#292A2E"/>
<path opacity="0.05" d="M176.724 10.0718H150.079V44.7535H176.724V10.0718Z" fill="#292A2E"/>
<path opacity="0.03" d="M176.724 10.0718H175.336V44.7535H176.724V10.0718Z" fill="#292A2E"/>
<path d="M218.64 68.1088H184.36V102.704H218.64V68.1088Z" fill="#F4F4F4"/>
<path opacity="0.05" d="M212.396 74.4109H190.605V96.4023H212.396V74.4109Z" fill="#292A2E"/>
<path d="M218.64 102.704H220V68.1088H218.64V102.704Z" fill="#F4F4F4"/>
<path opacity="0.05" d="M218.64 102.704H220V68.1088H218.64V102.704Z" fill="#292A2E"/>
<path opacity="0.03" d="M212.396 74.4109H211.007V96.4023H212.396V74.4109Z" fill="#292A2E"/>
<path d="M120.165 0H17.8956V102.269H120.165V0Z" fill="#F4F4F4"/>
<path d="M121.337 0H120.165V102.269H121.337V0Z" fill="#F4F4F4"/>
<path opacity="0.05" d="M121.337 0H120.165V102.269H121.337V0Z" fill="#292A2E"/>
<path opacity="0.05" d="M95.3897 70.4718V43.715H73.4718V59.2602H39.521V86.785H25.0915V102.269H39.521H42.3008H115.245V70.4718H95.3897Z" fill="#292A2E"/>
<path opacity="0.34" d="M92.2463 46.6201H76.2854V49.5253H92.2463V46.6201Z" fill="#FFFFFA"/>
<path opacity="0.34" d="M92.2463 52.6403H76.2854V55.5454H92.2463V52.6403Z" fill="#FFFFFA"/>
<path opacity="0.34" d="M92.2463 58.6604H76.2854V61.5655H92.2463V58.6604Z" fill="#FFFFFA"/>
<path opacity="0.34" d="M112.415 73.2919H109.473V76.1971H112.415V73.2919Z" fill="#FFFFFA"/>
<path opacity="0.34" d="M112.415 79.3121H109.473V82.2172H112.415V79.3121Z" fill="#FFFFFA"/>
<path opacity="0.34" d="M112.415 85.3322H109.473V88.2373H112.415V85.3322Z" fill="#FFFFFA"/>
<path opacity="0.34" d="M106.973 73.2919H104.031V76.1971H106.973V73.2919Z" fill="#FFFFFA"/>
<path opacity="0.34" d="M106.973 79.3121H104.031V82.2172H106.973V79.3121Z" fill="#FFFFFA"/>
<path opacity="0.34" d="M106.973 85.3322H104.031V88.2373H106.973V85.3322Z" fill="#FFFFFA"/>
<path opacity="0.34" d="M101.677 73.2919H98.7356V76.1971H101.677V73.2919Z" fill="#FFFFFA"/>
<path opacity="0.34" d="M101.677 79.3121H98.7356V82.2172H101.677V79.3121Z" fill="#FFFFFA"/>
<path opacity="0.34" d="M101.677 85.3322H98.7356V88.2373H101.677V85.3322Z" fill="#FFFFFA"/>
<path d="M120.165 50.5611H99.5867V0H97.8848V50.5611H42.3008V0H40.5989V50.5611H17.8956V52.2627H40.5989V102.269H42.3008V52.2627H97.8848V102.269H99.5867V52.2627H120.165V50.5611Z" fill="white"/>
<path d="M124.239 102.146H13.8215V105.547H124.239V102.146Z" fill="#F4F4F4"/>
<path opacity="0.1" d="M124.239 102.146H13.8215V105.547H124.239V102.146Z" fill="#292A2E"/>
<path opacity="0.1" d="M125.833 102.146H124.239V105.547H125.833V102.146Z" fill="#292A2E"/>
<path opacity="0.1" d="M125.833 102.146H124.239V105.547H125.833V102.146Z" fill="#292A2E"/>
<path d="M121.337 1.82556H17.8956V4.35418H121.337V1.82556Z" fill="white"/>
<path d="M121.337 6.54871H17.8956V9.07733H121.337V6.54871Z" fill="white"/>
<path d="M121.337 11.2719H17.8956V13.8005H121.337V11.2719Z" fill="white"/>
<path d="M121.337 15.995H17.8956V18.5236H121.337V15.995Z" fill="white"/>
<path d="M121.337 20.7181H17.8956V23.2467H121.337V20.7181Z" fill="white"/>
<path d="M110.35 0H108.8V26.0989H110.35V0Z" fill="white"/>
<path d="M109.707 29.8467C110.883 29.8467 111.836 28.8932 111.836 27.717C111.836 26.5408 110.883 25.5873 109.707 25.5873C108.53 25.5873 107.577 26.5408 107.577 27.717C107.577 28.8932 108.53 29.8467 109.707 29.8467Z" fill="white"/>
<path d="M92.8792 122.523C92.5984 122.523 92.3182 122.498 92.0419 122.449C91.2834 122.312 90.5658 122.005 89.9434 121.551C89.321 121.097 88.8102 120.506 88.4496 119.825C88.1018 119.137 87.9197 118.377 87.9178 117.605C87.9159 116.834 88.0942 116.073 88.4386 115.383C88.8123 114.541 89.364 113.79 90.0559 113.183C88.3598 112.797 86.6186 112.646 84.8814 112.735C84.521 112.762 84.1646 112.645 83.8908 112.409C83.6169 112.173 83.4479 111.838 83.421 111.478C83.3941 111.117 83.5115 110.761 83.7473 110.487C83.9832 110.213 84.3182 110.044 84.6786 110.017C84.9254 109.999 90.1196 109.639 93.8048 111.746C96.6378 111.576 99.3393 112.907 99.4768 112.977C99.7998 113.139 100.045 113.423 100.159 113.766C100.273 114.109 100.246 114.483 100.084 114.806C100.004 114.966 99.8927 115.109 99.7574 115.226C99.6221 115.343 99.465 115.433 99.2951 115.489C98.9521 115.603 98.5779 115.576 98.2549 115.414C97.7858 115.191 97.2999 115.006 96.8015 114.86C97.1878 115.689 97.4081 116.585 97.4497 117.498C97.5129 118.219 97.4091 118.945 97.1463 119.619C96.8834 120.294 96.4687 120.899 95.9342 121.387C95.0875 122.124 94.0016 122.528 92.8792 122.523ZM93.1585 114.586C93.0439 114.614 92.9316 114.648 92.8214 114.686C92.3926 114.842 92.0014 115.086 91.6729 115.402C91.3444 115.718 91.086 116.1 90.9145 116.523C90.5682 117.274 90.5523 117.961 90.867 118.565C91.0378 118.875 91.2749 119.143 91.5612 119.35C91.8476 119.558 92.1763 119.7 92.5237 119.766C92.8056 119.82 93.0961 119.811 93.3739 119.739C93.6518 119.666 93.9098 119.533 94.1292 119.347C94.3533 119.13 94.524 118.863 94.6279 118.568C94.7318 118.274 94.7661 117.959 94.7282 117.649C94.7142 117.096 94.5847 116.553 94.348 116.054C94.1114 115.554 93.7729 115.11 93.3543 114.749C93.2905 114.694 93.2253 114.639 93.1585 114.586Z" fill="#94CBB1"/>
<g opacity="0.6">
<path d="M92.8792 122.523C92.5984 122.523 92.3182 122.498 92.0419 122.449C91.2834 122.312 90.5658 122.005 89.9434 121.551C89.321 121.097 88.8102 120.506 88.4496 119.825C88.1018 119.137 87.9197 118.377 87.9178 117.605C87.9159 116.834 88.0942 116.073 88.4386 115.383C88.8123 114.541 89.364 113.79 90.0559 113.183C88.3598 112.797 86.6186 112.646 84.8814 112.735C84.521 112.762 84.1646 112.645 83.8908 112.409C83.6169 112.173 83.4479 111.838 83.421 111.478C83.3941 111.117 83.5115 110.761 83.7473 110.487C83.9832 110.213 84.3182 110.044 84.6786 110.017C84.9254 109.999 90.1196 109.639 93.8048 111.746C96.6378 111.576 99.3393 112.907 99.4768 112.977C99.7998 113.139 100.045 113.423 100.159 113.766C100.273 114.109 100.246 114.483 100.084 114.806C100.004 114.966 99.8927 115.109 99.7574 115.226C99.6221 115.343 99.465 115.433 99.2951 115.489C98.9521 115.603 98.5779 115.576 98.2549 115.414C97.7858 115.191 97.2999 115.006 96.8015 114.86C97.1878 115.689 97.4081 116.585 97.4497 117.498C97.5129 118.219 97.4091 118.945 97.1463 119.619C96.8834 120.294 96.4687 120.899 95.9342 121.387C95.0875 122.124 94.0016 122.528 92.8792 122.523ZM93.1585 114.586C93.0439 114.614 92.9316 114.648 92.8214 114.686C92.3926 114.842 92.0014 115.086 91.6729 115.402C91.3444 115.718 91.086 116.1 90.9145 116.523C90.5682 117.274 90.5523 117.961 90.867 118.565C91.0378 118.875 91.2749 119.143 91.5612 119.35C91.8476 119.558 92.1763 119.7 92.5237 119.766C92.8056 119.82 93.0961 119.811 93.3739 119.739C93.6518 119.666 93.9098 119.533 94.1292 119.347C94.3533 119.13 94.524 118.863 94.6279 118.568C94.7318 118.274 94.7661 117.959 94.7282 117.649C94.7142 117.096 94.5847 116.553 94.348 116.054C94.1114 115.554 93.7729 115.11 93.3543 114.749C93.2905 114.694 93.2253 114.639 93.1585 114.586Z" fill="white"/>
</g>
<g opacity="0.5">
<path d="M89.6762 117.316C89.4476 117.316 89.2228 117.258 89.0224 117.148C88.822 117.038 88.6525 116.88 88.5293 116.687C88.4061 116.495 88.3333 116.275 88.3176 116.047C88.3018 115.819 88.3436 115.59 88.4391 115.383C88.7613 114.625 89.2379 113.943 89.8384 113.38C90.439 112.816 91.1503 112.385 91.9271 112.112C95.3149 110.923 99.3093 112.895 99.4779 112.979C99.8009 113.141 100.046 113.425 100.16 113.768C100.274 114.111 100.247 114.485 100.085 114.808C99.923 115.131 99.6393 115.376 99.2963 115.49C98.9532 115.604 98.579 115.577 98.256 115.415C97.3917 114.986 94.7221 114.016 92.8214 114.686C92.3927 114.841 92.0014 115.085 91.6729 115.402C91.3444 115.718 91.086 116.1 90.9145 116.522C90.8056 116.759 90.6311 116.96 90.4116 117.101C90.1921 117.241 89.9369 117.316 89.6762 117.316Z" fill="white"/>
</g>
<path d="M34.6231 97.3851C34.6231 97.3851 26.2102 91.1476 23.217 93.6006C20.5077 95.8207 23.6454 104.682 23.6454 104.682C23.6454 104.682 30.8775 105.335 34.6231 97.3851Z" fill="#94CBB1"/>
<g opacity="0.2">
<path d="M34.6231 97.3851C34.6231 97.3851 26.2102 91.1476 23.217 93.6006C20.5077 95.8207 23.6454 104.682 23.6454 104.682C23.6454 104.682 30.8775 105.335 34.6231 97.3851Z" fill="white"/>
</g>
<path d="M89.2991 117.695C89.2991 101.977 76.3697 89.235 56.0348 89.235C37.7714 89.235 22.5832 99.3331 19.6848 112.814H15.4421V131.037H23.3926C25.7368 134.471 29.0214 137.408 32.8964 139.831V148.148C32.8962 148.417 32.9491 148.684 33.0521 148.933C33.1551 149.182 33.3061 149.408 33.4966 149.599C33.6871 149.79 33.9133 149.941 34.1622 150.044C34.4112 150.147 34.678 150.2 34.9475 150.2H37.7025C37.7657 150.2 37.8278 150.196 37.8899 150.191C37.9518 150.196 38.0139 150.2 38.0774 150.2H40.8323C41.1018 150.2 41.3687 150.147 41.6176 150.044C41.8666 149.941 42.0928 149.79 42.2832 149.599C42.4737 149.408 42.6248 149.182 42.7278 148.933C42.8307 148.684 42.8836 148.417 42.8834 148.148V144.284C47.1546 145.535 51.5835 146.165 56.034 146.155C58.8323 146.164 61.625 145.905 64.3743 145.384V148.148C64.3741 148.418 64.427 148.685 64.53 148.934C64.633 149.183 64.784 149.409 64.9745 149.6C65.1651 149.79 65.3913 149.942 65.6403 150.045C65.8892 150.148 66.1561 150.201 66.4256 150.201H69.1806C69.2438 150.201 69.3059 150.197 69.368 150.191C69.4299 150.197 69.492 150.201 69.5555 150.201H72.3104C72.5799 150.201 72.8468 150.148 73.0957 150.045C73.3447 149.941 73.5709 149.79 73.7614 149.6C73.9518 149.409 74.1029 149.183 74.2059 148.934C74.3089 148.685 74.3617 148.418 74.3615 148.148V141.924C83.8102 136.911 89.2991 127.935 89.2991 117.695Z" fill="#94CBB1"/>
<path opacity="0.5" d="M89.2991 117.695C89.2991 101.977 76.3697 89.235 56.0348 89.235C37.7714 89.235 22.5832 99.3331 19.6848 112.814H15.4421V131.037H23.3926C25.7368 134.471 29.0214 137.408 32.8964 139.831V148.148C32.8962 148.417 32.9491 148.684 33.0521 148.933C33.1551 149.182 33.3061 149.408 33.4966 149.599C33.6871 149.79 33.9133 149.941 34.1622 150.044C34.4112 150.147 34.678 150.2 34.9475 150.2H37.7025C37.7657 150.2 37.8278 150.196 37.8899 150.191C37.9518 150.196 38.0139 150.2 38.0774 150.2H40.8323C41.1018 150.2 41.3687 150.147 41.6176 150.044C41.8666 149.941 42.0928 149.79 42.2832 149.599C42.4737 149.408 42.6248 149.182 42.7278 148.933C42.8307 148.684 42.8836 148.417 42.8834 148.148V144.284C47.1546 145.535 51.5835 146.165 56.034 146.155C58.8323 146.164 61.625 145.905 64.3743 145.384V148.148C64.3741 148.418 64.427 148.685 64.53 148.934C64.633 149.183 64.784 149.409 64.9745 149.6C65.1651 149.79 65.3913 149.942 65.6403 150.045C65.8892 150.148 66.1561 150.201 66.4256 150.201H69.1806C69.2438 150.201 69.3059 150.197 69.368 150.191C69.4299 150.197 69.492 150.201 69.5555 150.201H72.3104C72.5799 150.201 72.8468 150.148 73.0957 150.045C73.3447 149.941 73.5709 149.79 73.7614 149.6C73.9518 149.409 74.1029 149.183 74.2059 148.934C74.3089 148.685 74.3617 148.418 74.3615 148.148V141.924C83.8102 136.911 89.2991 127.935 89.2991 117.695Z" fill="white"/>
<path d="M25.9871 108.42C26.6512 108.42 27.1896 107.882 27.1896 107.218C27.1896 106.554 26.6512 106.015 25.9871 106.015C25.323 106.015 24.7847 106.554 24.7847 107.218C24.7847 107.882 25.323 108.42 25.9871 108.42Z" fill="#262626"/>
<path d="M32.0229 100.35C31.7231 100.061 31.5349 99.6757 31.4913 99.2617C31.4478 98.8476 31.5518 98.4315 31.7849 98.0866C33.3858 95.7343 37.0518 90.9061 39.5769 91.8939C41.8878 92.7976 42.442 98.586 42.5749 101.195C42.6049 101.566 42.508 101.936 42.3001 102.244C42.0923 102.553 41.7858 102.782 41.4308 102.894C39.5769 103.397 35.8107 103.779 32.0229 100.35Z" fill="#94CBB1"/>
<g opacity="0.2">
<path d="M32.0229 100.35C31.7231 100.061 31.5349 99.6757 31.4913 99.2617C31.4478 98.8476 31.5518 98.4315 31.7849 98.0866C33.3858 95.7343 37.0518 90.9061 39.5769 91.8939C41.8878 92.7976 42.442 98.586 42.5749 101.195C42.6049 101.566 42.508 101.936 42.3001 102.244C42.0923 102.553 41.7858 102.782 41.4308 102.894C39.5769 103.397 35.8107 103.779 32.0229 100.35Z" fill="white"/>
</g>
<path d="M64.9128 91.6381H46.8062C46.0814 91.6381 45.4938 92.2256 45.4938 92.9504V92.9507C45.4938 93.6755 46.0814 94.2631 46.8062 94.2631H64.9128C65.6376 94.2631 66.2252 93.6755 66.2252 92.9507V92.9504C66.2252 92.2256 65.6376 91.6381 64.9128 91.6381Z" fill="#262626"/>
<path opacity="0.2" d="M66.1129 93.4823C66.0098 93.7147 65.8415 93.9122 65.6284 94.0508C65.4153 94.1893 65.1665 94.263 64.9123 94.2629H46.8057C46.5515 94.263 46.3027 94.1891 46.0898 94.0503C45.8768 93.9114 45.7089 93.7136 45.6065 93.4809C45.671 93.3319 45.7635 93.1967 45.879 93.0825C46.0002 92.96 46.1445 92.8628 46.3036 92.7967C46.4627 92.7305 46.6334 92.6968 46.8057 92.6974H64.9123C65.1671 92.6973 65.4163 92.7715 65.6295 92.9109C65.8428 93.0503 66.0107 93.2489 66.1129 93.4823Z" fill="white"/>
<path d="M15.4421 131.038C17.6941 131.038 19.5197 126.958 19.5197 121.926C19.5197 116.894 17.6941 112.814 15.4421 112.814C13.1901 112.814 11.3645 116.894 11.3645 121.926C11.3645 126.958 13.1901 131.038 15.4421 131.038Z" fill="#94CBB1"/>
<g opacity="0.7">
<path d="M15.4421 131.038C17.6941 131.038 19.5197 126.958 19.5197 121.926C19.5197 116.894 17.6941 112.814 15.4421 112.814C13.1901 112.814 11.3645 116.894 11.3645 121.926C11.3645 126.958 13.1901 131.038 15.4421 131.038Z" fill="white"/>
</g>
<path d="M181.409 37.707C181.409 37.707 183.106 46.2606 185.455 49.1385C192.216 57.4236 195.154 67.3515 190.247 73.3762C185.34 79.4009 149.652 84.1189 145.364 72.2877C141.753 62.3272 146.495 60.5886 146.583 51.9729C146.623 48.0743 147.058 39.854 147.058 39.854" fill="#0A0A0A"/>
<path d="M152.713 67.5576C152.775 67.5495 153.464 78.9906 166.756 77.9932C175.957 77.3039 179.238 67.5405 179.45 67.5405C178.458 67.3299 176.788 67.023 176.347 66.7881C174.898 66.0094 173.106 65.1994 172.638 62.3855C172.368 60.765 172.826 52.4671 172.685 50.8255L158.561 53.978C158.758 57.4433 160.14 65.4773 155.298 66.8991C154.491 67.1359 153.624 67.3523 152.713 67.5576Z" fill="#F2E4DE"/>
<path opacity="0.5" d="M158.362 63.6174C158.583 62.9044 158.725 62.1693 158.786 61.4253C158.942 59.7274 158.911 58.0176 158.694 56.3265C161.565 55.9391 164.269 54.7542 166.5 52.9066C166.762 53.8751 168.205 58.1075 167.805 59.028C167.051 60.7679 163.503 63.6174 158.362 63.6174Z" fill="#0C0C0C"/>
<path d="M160.816 60.8927C166.407 60.7088 173.265 57.5706 173.788 50.0239L174.261 43.2151C174.784 35.6686 171.245 29.2763 164.139 28.7837C157.034 28.291 151.299 34.0402 150.775 41.5861L150.566 44.6006C150.366 47.496 150.839 61.2214 160.816 60.8927Z" fill="#F2E4DE"/>
<path d="M152.543 45.1832C153.027 45.1832 153.42 44.7904 153.42 44.3059C153.42 43.8214 153.027 43.4286 152.543 43.4286C152.058 43.4286 151.666 43.8214 151.666 44.3059C151.666 44.7904 152.058 45.1832 152.543 45.1832Z" fill="#0C0C0C"/>
<path d="M161.547 45.1832C162.032 45.1832 162.424 44.7904 162.424 44.3059C162.424 43.8214 162.032 43.4286 161.547 43.4286C161.063 43.4286 160.67 43.8214 160.67 44.3059C160.67 44.7904 161.063 45.1832 161.547 45.1832Z" fill="#0C0C0C"/>
<path opacity="0.5" d="M157.406 50.9189C157.402 50.9192 157.397 50.9192 157.392 50.9189C157.104 50.8971 156.818 50.8593 156.534 50.8055C156.11 50.7223 155.549 50.5681 155.575 50.1908C155.604 49.7608 157.104 45.2032 157.276 44.6849C157.283 44.6616 157.294 44.64 157.31 44.6212C157.325 44.6024 157.344 44.5869 157.365 44.5756C157.387 44.5643 157.41 44.5574 157.434 44.5554C157.458 44.5534 157.483 44.5562 157.506 44.5638C157.529 44.5714 157.55 44.5835 157.568 44.5995C157.586 44.6155 157.601 44.635 157.611 44.6568C157.622 44.6786 157.628 44.7023 157.629 44.7265C157.63 44.7507 157.626 44.7749 157.618 44.7975C156.978 46.7387 155.955 49.9264 155.935 50.2156C155.996 50.3415 156.704 50.5106 157.419 50.5603C157.465 50.5638 157.508 50.585 157.539 50.6194C157.57 50.6539 157.586 50.6989 157.585 50.7452C157.583 50.7914 157.564 50.8354 157.531 50.8679C157.498 50.9003 157.454 50.9188 157.408 50.9195L157.406 50.9189Z" fill="#0C0C0C"/>
<path opacity="0.5" d="M158.813 53.9837C157.662 53.9708 156.53 53.6875 155.508 53.1566C155.487 53.1462 155.468 53.1316 155.453 53.1139C155.437 53.0961 155.425 53.0755 155.418 53.0531C155.41 53.0308 155.407 53.0072 155.409 52.9836C155.41 52.9601 155.417 52.9371 155.427 52.916C155.437 52.8948 155.452 52.876 155.47 52.8604C155.487 52.8449 155.508 52.833 155.53 52.8255C155.553 52.8179 155.576 52.8149 155.6 52.8164C155.623 52.818 155.646 52.8242 155.668 52.8347C157.871 53.9253 159.93 53.9005 161.62 52.7626C161.654 52.7383 161.69 52.7161 161.726 52.6958C161.769 52.6744 161.818 52.6707 161.863 52.6856C161.909 52.7006 161.946 52.7329 161.968 52.7755C161.989 52.8181 161.993 52.8676 161.978 52.9129C161.963 52.9582 161.931 52.9958 161.888 53.0173C161.875 53.0248 161.853 53.0399 161.822 53.0607C160.933 53.6611 159.885 53.9825 158.813 53.9837Z" fill="#0C0C0C"/>
<path d="M180.095 44.878L173.73 44.4729C168.786 43.1224 166.392 35.123 166.392 35.123C166.392 35.123 161.322 41.387 147.058 39.8537C147.058 39.8537 147.551 20.1558 168.735 23.3593C175.566 24.3922 181.103 30.4974 181.566 39.4777C181.891 45.7712 180.095 44.878 180.095 44.878Z" fill="#0A0A0A"/>
<path d="M173.188 52.2924C175.347 52.4423 177.257 50.2534 177.407 48.0943C177.557 45.9352 175.889 44.6228 173.73 44.4731L172.517 45.8428L171.331 52.163L173.188 52.2924Z" fill="#F2E4DE"/>
<path d="M155.338 41.4594C154.763 41.1554 154.118 41.0093 153.468 41.0359C153.141 41.0469 152.818 41.1072 152.509 41.2147C152.198 41.3212 151.901 41.4664 151.626 41.6469L151.617 41.6523C151.602 41.662 151.585 41.6686 151.567 41.6718C151.55 41.6749 151.531 41.6745 151.514 41.6707C151.496 41.6668 151.479 41.6595 151.465 41.6491C151.45 41.6388 151.437 41.6256 151.427 41.6104C151.418 41.5952 151.411 41.5782 151.408 41.5604C151.405 41.5427 151.405 41.5244 151.409 41.5068C151.413 41.4892 151.42 41.4725 151.431 41.4577C151.441 41.4429 151.454 41.4302 151.469 41.4205C151.759 41.2158 152.074 41.0483 152.405 40.9219C152.739 40.7933 153.091 40.7156 153.448 40.6913C154.171 40.6378 154.895 40.7792 155.544 41.1007C155.568 41.113 155.59 41.1299 155.608 41.1504C155.625 41.171 155.639 41.1948 155.647 41.2206C155.656 41.2463 155.659 41.2735 155.657 41.3005C155.655 41.3276 155.647 41.3539 155.635 41.3781C155.623 41.4023 155.606 41.4239 155.586 41.4415C155.565 41.4592 155.541 41.4726 155.515 41.4811C155.49 41.4895 155.462 41.4928 155.435 41.4908C155.408 41.4887 155.382 41.4814 155.358 41.4691L155.353 41.4664L155.338 41.4594Z" fill="#0C0C0C"/>
<path d="M161.111 41.504C161.798 41.2721 162.534 41.2287 163.243 41.3784C163.594 41.4501 163.932 41.5741 164.246 41.7463C164.557 41.9158 164.847 42.1239 165.107 42.3656C165.133 42.3895 165.149 42.4228 165.152 42.4585C165.154 42.4941 165.143 42.5293 165.12 42.5566C165.097 42.5839 165.064 42.6012 165.028 42.6047C164.993 42.6082 164.957 42.5977 164.929 42.5755L164.921 42.5687C164.672 42.3529 164.398 42.169 164.103 42.0215C163.812 41.8736 163.5 41.7706 163.178 41.716C162.537 41.6028 161.878 41.6614 161.268 41.8859L161.253 41.8916C161.228 41.9013 161.201 41.906 161.174 41.9053C161.146 41.9046 161.12 41.8986 161.095 41.8876C161.07 41.8766 161.048 41.8608 161.029 41.8412C161.011 41.8216 160.996 41.7984 160.986 41.7732C160.976 41.7479 160.972 41.7209 160.972 41.6938C160.973 41.6667 160.979 41.64 160.99 41.6153C161.001 41.5905 161.017 41.5681 161.037 41.5495C161.056 41.5308 161.079 41.5162 161.105 41.5064L161.111 41.504Z" fill="#0C0C0C"/>
<path opacity="0.52" d="M158.77 55.6882C158.562 55.6891 158.354 55.6723 158.149 55.638C158.125 55.6342 158.103 55.6258 158.083 55.6134C158.063 55.601 158.046 55.5847 158.032 55.5655C158.018 55.5464 158.008 55.5247 158.003 55.5017C157.997 55.4787 157.997 55.4549 158 55.4317C158.004 55.4084 158.013 55.3861 158.025 55.366C158.037 55.346 158.054 55.3285 158.073 55.3148C158.092 55.301 158.114 55.2911 158.137 55.2858C158.16 55.2804 158.183 55.2796 158.207 55.2834C159.442 55.4857 160.067 54.9498 160.094 54.9268C160.111 54.9111 160.132 54.899 160.154 54.8912C160.176 54.8834 160.2 54.8801 160.223 54.8814C160.247 54.8827 160.27 54.8886 160.291 54.8989C160.313 54.9091 160.332 54.9234 160.347 54.941C160.363 54.9586 160.375 54.9791 160.383 55.0014C160.391 55.0237 160.394 55.0473 160.393 55.0708C160.392 55.0944 160.386 55.1175 160.375 55.1387C160.365 55.16 160.351 55.179 160.333 55.1948C159.885 55.5348 159.332 55.7092 158.77 55.6882Z" fill="#0C0C0C"/>
<path d="M166.453 34.2479C166.453 34.2479 165.319 42.3634 173.728 44.3049" stroke="#0C0C0C" stroke-width="0.5" stroke-miterlimit="10"/>
<path opacity="0.1" d="M163.072 50.7993C163.995 50.7896 164.737 50.2329 164.73 49.556C164.722 48.8791 163.969 48.3383 163.046 48.3481C162.123 48.3579 161.381 48.9146 161.388 49.5915C161.395 50.2684 162.149 50.8091 163.072 50.7993Z" fill="#0C0C0C"/>
<path opacity="0.1" d="M153.123 49.384C153.128 50.0592 152.386 50.6165 151.463 50.6264C151.304 50.6281 151.144 50.6132 150.988 50.5819C150.843 49.7937 150.741 49.0307 150.672 48.3209C150.916 48.2249 151.176 48.1754 151.438 48.1751C152.36 48.1648 153.116 48.7055 153.123 49.384Z" fill="#0C0C0C"/>
<path d="M197.166 135.536L199.571 150.199H139.583L141.826 135.448L197.166 135.536Z" fill="#262626"/>
<path d="M167.061 75.1499C176.269 74.7159 176.656 66.9001 176.656 66.9001C176.656 66.9001 181.219 67.1951 184.252 67.6054C189.217 68.2771 192.493 69.9609 195.1 72.5678C197.525 74.9927 199.001 77.6164 197.439 94.3671C196.307 106.496 197.166 135.536 197.166 135.536L141.826 135.448C141.826 135.448 136.662 98.2062 136.198 92.7465C135.311 82.3239 137.2 73.5129 139.364 71.3489C143.813 66.9001 151.472 66.9001 155.297 66.9007C155.358 66.9007 154.521 75.7409 167.061 75.1499Z" fill="#94CBB1"/>
<path d="M73.6095 61.3475C73.44 61.2435 73.2511 61.1751 73.0543 61.1465C72.8575 61.1178 72.6569 61.1296 72.4648 61.1811C72.2727 61.2326 72.0931 61.3227 71.937 61.4459C71.7809 61.5691 71.6515 61.7228 71.5568 61.8977C71.3852 62.2424 71.3509 62.6395 71.4608 63.0085C71.5707 63.3776 71.8166 63.6912 72.1489 63.8859L73.8337 64.9195L67.0192 64.0982C66.263 63.9934 65.2687 64.3488 65.2072 65.2056C65.162 65.5333 65.2294 65.8667 65.3983 66.1513C65.5671 66.4358 65.8275 66.6547 66.1368 66.7721C66.1336 66.7794 66.1314 66.787 66.1301 66.7948C66.1297 66.8005 66.1297 66.8061 66.1301 66.8118L64.9641 66.6498C64.7494 66.6202 64.5308 66.6386 64.3241 66.7037C64.1174 66.7688 63.9277 66.879 63.7687 67.0263C63.6097 67.1735 63.4853 67.3542 63.4045 67.5553C63.3238 67.7564 63.2886 67.973 63.3017 68.1893C63.3297 68.5338 63.476 68.8581 63.7157 69.1072C63.9554 69.3563 64.2738 69.5149 64.617 69.5562L65.1132 69.6248C65.1178 69.6406 65.1253 69.6553 65.1353 69.6683C64.7928 69.6992 64.4721 69.8497 64.2295 70.0935C63.9869 70.3373 63.838 70.6588 63.8089 71.0015C63.79 71.3862 63.9179 71.7636 64.1667 72.0576C64.4155 72.3515 64.7666 72.5401 65.1491 72.5851L66.3686 72.7539C66.3495 72.7637 66.333 72.7779 66.3205 72.7954C66.308 72.8129 66.2998 72.8331 66.2967 72.8544C66.2943 72.8798 66.2994 72.9055 66.3113 72.9281C66.0186 73.0384 65.769 73.2395 65.5989 73.5019C65.4288 73.7644 65.3472 74.0744 65.366 74.3866C65.3941 74.7311 65.5403 75.0554 65.78 75.3045C66.0197 75.5536 66.3381 75.7122 66.6813 75.7535L77.0786 77.1913C78.5332 77.3924 80.0147 77.1546 81.3332 76.5083C82.6517 75.8619 83.7472 74.8366 84.4792 73.5636L86.8355 69.4649L73.6095 61.3475Z" fill="#F2E4DE"/>
<g opacity="0.2">
<path d="M72.8776 67.6186C72.8725 67.6535 72.8539 67.6851 72.8258 67.7065C72.7978 67.7279 72.7624 67.7374 72.7274 67.7331L66.2481 66.9434C66.23 66.9418 66.2124 66.9366 66.1964 66.9282C66.1804 66.9197 66.1662 66.908 66.1548 66.8939C66.1433 66.8799 66.1349 66.8636 66.1298 66.8462C66.1248 66.8287 66.1234 66.8105 66.1256 66.7925C66.1278 66.7745 66.1336 66.7571 66.1426 66.7414C66.1517 66.7256 66.1638 66.7119 66.1783 66.701C66.1928 66.6901 66.2093 66.6822 66.227 66.6778C66.2446 66.6734 66.2629 66.6726 66.2808 66.6754L72.7603 67.4649C72.7959 67.4693 72.8282 67.4876 72.8502 67.5158C72.8723 67.544 72.8822 67.5798 72.8778 67.6154L72.8776 67.6186Z" fill="#0C0C0C"/>
</g>
<g opacity="0.2">
<path d="M72.608 70.4856C72.603 70.5206 72.5845 70.5521 72.5565 70.5736C72.5284 70.595 72.4931 70.6047 72.4581 70.6004L65.2277 69.7191C65.1922 69.7147 65.1598 69.6964 65.1378 69.6682C65.1158 69.64 65.1058 69.6042 65.1102 69.5687C65.1157 69.5336 65.1343 69.502 65.1622 69.4801C65.1901 69.4583 65.2253 69.4478 65.2606 69.4509L72.4916 70.3322C72.5092 70.3344 72.5262 70.34 72.5417 70.3487C72.5571 70.3574 72.5707 70.3691 72.5816 70.3831C72.5926 70.397 72.6007 70.413 72.6054 70.4301C72.6102 70.4472 72.6115 70.4651 72.6094 70.4827L72.608 70.4856Z" fill="#0C0C0C"/>
</g>
<g opacity="0.2">
<path d="M72.3341 73.5928C72.3291 73.6277 72.3106 73.6593 72.2826 73.6807C72.2546 73.7022 72.2193 73.7118 72.1842 73.7076L66.4161 73.0053C66.3805 73.001 66.3482 72.9827 66.3261 72.9545C66.304 72.9263 66.294 72.8905 66.2984 72.8549C66.3027 72.8193 66.321 72.7869 66.3492 72.7649C66.3774 72.7428 66.4132 72.7328 66.4488 72.7371L72.2169 73.4394C72.2345 73.4415 72.2516 73.4471 72.267 73.4558C72.2825 73.4645 72.296 73.4762 72.307 73.4902C72.3179 73.5042 72.326 73.5202 72.3307 73.5373C72.3355 73.5544 72.3368 73.5722 72.3347 73.5898L72.3341 73.5928Z" fill="#0C0C0C"/>
</g>
<path d="M56.6514 82.9121C66.1192 82.9121 73.7943 75.237 73.7943 65.7692C73.7943 56.3015 66.1192 48.6263 56.6514 48.6263C47.1837 48.6263 39.5085 56.3015 39.5085 65.7692C39.5085 75.237 47.1837 82.9121 56.6514 82.9121Z" fill="#0CBC8B"/>
<g opacity="0.1">
<path d="M56.6514 79.3593C64.157 79.3593 70.2414 73.2748 70.2414 65.7692C70.2414 58.2636 64.157 52.1791 56.6514 52.1791C49.1458 52.1791 43.0613 58.2636 43.0613 65.7692C43.0613 73.2748 49.1458 79.3593 56.6514 79.3593Z" fill="#292A2E"/>
</g>
<path d="M55.7431 72.2904L55.6715 69.9522C56.9358 70.0159 57.8822 69.8406 58.652 69.3101C59.5744 68.6743 59.7165 68.0121 59.206 67.2715C58.0521 65.5969 53.7771 68.5879 51.7514 65.6509C50.4501 63.7627 50.9292 61.6587 52.9917 60.2374C53.5717 59.8251 54.2346 59.544 54.9342 59.4136C55.6338 59.2833 56.3535 59.3069 57.0431 59.4828L56.7908 61.6795C55.8284 61.549 55.1316 61.6114 54.4518 62.0797C53.6685 62.6199 53.4616 63.2279 53.9656 63.959C55.0352 65.5113 59.2384 62.4149 61.3824 65.5256C62.6705 67.3946 62.3653 69.5991 59.9828 71.2408C58.7304 72.0635 57.2346 72.4338 55.7431 72.2904ZM50.9894 59.2651L52.5773 58.1707L54.1928 60.5148L52.6049 61.609L50.9894 59.2651ZM58.8079 70.609L60.3955 69.5149L62.1681 72.087L60.5802 73.1811L58.8079 70.609Z" fill="white"/>
<path d="M74.4393 65.322L72.1492 63.8859C71.8169 63.6912 71.571 63.3776 71.4611 63.0085C71.3512 62.6395 71.3855 62.2424 71.5571 61.8977C71.6518 61.7228 71.7812 61.5691 71.9373 61.4459C72.0934 61.3227 72.273 61.2326 72.4651 61.1811C72.6572 61.1296 72.8578 61.1178 73.0546 61.1465C73.2514 61.1751 73.4403 61.2435 73.6098 61.3475" fill="#F2E4DE"/>
<path d="M161.728 101.815L154.605 95.9128C154.452 95.786 154.275 95.6916 154.084 95.6355C153.893 95.5794 153.693 95.5628 153.495 95.5866C153.298 95.6104 153.108 95.6742 152.936 95.7741C152.764 95.874 152.614 96.0079 152.495 96.1675C152.277 96.4847 152.186 96.8731 152.243 97.2542C152.3 97.6353 152.499 97.9806 152.801 98.2203L154.323 99.4816L161.486 103.192L161.728 101.815Z" fill="#F2E4DE"/>
<path d="M154.323 99.4808L147.693 97.7052C146.959 97.4948 145.924 97.7052 145.743 98.5446C145.652 98.8627 145.671 99.2023 145.798 99.5079C145.925 99.8135 146.152 100.067 146.441 100.227C146.437 100.234 146.434 100.24 146.432 100.247C146.432 100.253 146.432 100.259 146.432 100.264L145.3 99.9402C145.092 99.8805 144.873 99.8678 144.659 99.903C144.445 99.9383 144.241 100.021 144.063 100.144C143.885 100.267 143.736 100.429 143.628 100.617C143.52 100.805 143.454 101.014 143.437 101.23C143.416 101.575 143.515 101.917 143.717 102.198C143.919 102.478 144.212 102.68 144.546 102.77L145.027 102.908C145.03 102.923 145.035 102.939 145.043 102.953C144.699 102.935 144.36 103.039 144.086 103.247C143.811 103.454 143.619 103.752 143.542 104.087C143.469 104.465 143.543 104.856 143.747 105.182C143.952 105.508 144.273 105.744 144.645 105.843L145.828 106.182C145.808 106.189 145.79 106.201 145.775 106.216C145.76 106.232 145.749 106.251 145.743 106.271C145.737 106.296 145.738 106.322 145.747 106.346C145.442 106.414 145.167 106.578 144.962 106.814C144.757 107.049 144.632 107.344 144.607 107.656C144.586 108.001 144.685 108.343 144.887 108.623C145.089 108.904 145.382 109.106 145.716 109.195L155.806 112.087C157.217 112.491 158.717 112.465 160.114 112.012C161.511 111.558 162.74 110.698 163.644 109.541L166.556 105.816L154.323 99.4808Z" fill="#F2E4DE"/>
<g opacity="0.2">
<path d="M152.995 102.018C152.985 102.051 152.962 102.08 152.931 102.097C152.9 102.115 152.864 102.119 152.83 102.11L146.526 100.413C146.508 100.409 146.492 100.401 146.477 100.39C146.462 100.38 146.45 100.366 146.441 100.351C146.431 100.335 146.425 100.318 146.423 100.3C146.42 100.282 146.422 100.264 146.426 100.246C146.431 100.229 146.439 100.212 146.45 100.198C146.462 100.184 146.475 100.172 146.491 100.163C146.507 100.154 146.525 100.149 146.543 100.147C146.561 100.145 146.579 100.147 146.596 100.152L152.899 101.849C152.916 101.854 152.932 101.862 152.946 101.872C152.961 101.883 152.972 101.897 152.981 101.912C152.99 101.927 152.996 101.944 152.998 101.962C153 101.98 152.999 101.997 152.995 102.015L152.995 102.018Z" fill="#0C0C0C"/>
</g>
<g opacity="0.2">
<path d="M152.323 104.818C152.313 104.852 152.29 104.88 152.26 104.898C152.229 104.915 152.193 104.919 152.159 104.91L145.124 103.017C145.107 103.012 145.091 103.004 145.077 102.993C145.063 102.982 145.051 102.969 145.042 102.954C145.033 102.938 145.028 102.921 145.025 102.904C145.023 102.886 145.024 102.868 145.029 102.851C145.039 102.817 145.062 102.788 145.093 102.771C145.124 102.753 145.16 102.748 145.195 102.756L152.229 104.649C152.246 104.654 152.262 104.662 152.276 104.673C152.29 104.683 152.302 104.697 152.311 104.712C152.32 104.728 152.325 104.745 152.328 104.762C152.33 104.78 152.329 104.798 152.324 104.815L152.323 104.818Z" fill="#0C0C0C"/>
</g>
<g opacity="0.2">
<path d="M151.613 107.855C151.603 107.889 151.581 107.918 151.55 107.935C151.519 107.952 151.483 107.957 151.449 107.948L145.838 106.437C145.82 106.432 145.804 106.425 145.79 106.414C145.776 106.403 145.764 106.389 145.756 106.374C145.738 106.343 145.733 106.306 145.742 106.271C145.752 106.237 145.774 106.207 145.805 106.19C145.836 106.172 145.873 106.167 145.908 106.176L151.519 107.687C151.536 107.691 151.552 107.699 151.566 107.71C151.58 107.721 151.592 107.734 151.601 107.75C151.61 107.765 151.615 107.782 151.618 107.8C151.62 107.817 151.619 107.835 151.614 107.852L151.613 107.855Z" fill="#0C0C0C"/>
</g>
<path d="M156.576 114.706L202.401 127.934C204.247 128.424 206.194 128.382 208.017 127.813C209.84 127.244 211.465 126.172 212.704 124.719C213.944 123.266 214.748 121.492 215.023 119.603C215.298 117.713 215.033 115.784 214.258 114.038L198.635 76.819C196.366 71.7056 187.894 66.4582 182.78 68.727C177.667 70.9958 177.849 79.92 180.118 85.0331L189.512 104.605L160.941 98.0001L156.576 114.706Z" fill="#94CBB1"/>
<path d="M196.964 126.5C196.952 126.5 196.939 126.498 196.927 126.494L156.538 114.836C156.504 114.826 156.476 114.803 156.458 114.773C156.441 114.742 156.436 114.706 156.445 114.672L160.81 97.9658C160.819 97.9315 160.841 97.9022 160.872 97.8839C160.902 97.8657 160.938 97.8601 160.973 97.8683L189.271 104.41L179.999 85.0915C179.985 85.0595 179.984 85.0237 179.997 84.9913C180.009 84.9589 180.033 84.9324 180.064 84.9174C180.096 84.9024 180.131 84.8999 180.164 84.9106C180.197 84.9212 180.225 84.9441 180.242 84.9745L189.636 104.547C189.647 104.57 189.651 104.595 189.648 104.621C189.645 104.646 189.635 104.67 189.619 104.69C189.603 104.709 189.582 104.724 189.558 104.732C189.535 104.741 189.509 104.742 189.484 104.737L161.039 98.1611L156.74 114.613L197.002 126.235C197.033 126.244 197.06 126.264 197.078 126.291C197.095 126.319 197.102 126.351 197.098 126.384C197.093 126.416 197.077 126.445 197.053 126.466C197.028 126.488 196.997 126.5 196.964 126.5Z" fill="#0C0C0C"/>
<path d="M194.231 105.766C194.221 105.766 194.212 105.765 194.202 105.763L189.485 104.737C189.468 104.733 189.451 104.726 189.436 104.716C189.422 104.706 189.409 104.693 189.399 104.678C189.39 104.663 189.383 104.647 189.38 104.629C189.376 104.612 189.377 104.594 189.381 104.576C189.384 104.559 189.392 104.542 189.402 104.527C189.412 104.513 189.425 104.5 189.44 104.491C189.455 104.481 189.472 104.475 189.49 104.472C189.507 104.469 189.525 104.469 189.543 104.473L194.26 105.5C194.292 105.507 194.321 105.526 194.34 105.553C194.359 105.58 194.368 105.613 194.365 105.646C194.361 105.679 194.346 105.709 194.321 105.732C194.296 105.754 194.264 105.766 194.231 105.766Z" fill="#0C0C0C"/>
<path d="M135.683 86.6308L135.082 78.8418" stroke="#0C0C0C" stroke-linecap="round" stroke-linejoin="round"/>
<path d="M112.397 118.69C111.033 118.692 109.683 118.418 108.428 117.884C107.173 117.35 106.039 116.568 105.095 115.584L71.0631 80.2044L85.6622 66.1611L112.978 94.5599L139.738 71.022L153.116 86.2313L119.084 116.167C117.238 117.796 114.859 118.693 112.397 118.69Z" fill="#94CBB1"/>
<path d="M136.099 91.3668L135.831 91.4005L136.953 100.301L137.221 100.267L136.099 91.3668Z" fill="#0C0C0C"/>
</g>
<defs>
<clipPath id="clip0_737_916">
<rect width="220" height="150.469" fill="white"/>
</clipPath>
</defs>
</svg>
