<svg width="40" height="40" viewBox="0 0 57 57" fill="none" xmlns="http://www.w3.org/2000/svg">
<path d="M28.5 36.5156C33.9107 36.5156 38.2969 32.1294 38.2969 26.7188C38.2969 21.3081 33.9107 16.9219 28.5 16.9219C23.0893 16.9219 18.7031 21.3081 18.7031 26.7188C18.7031 32.1294 23.0893 36.5156 28.5 36.5156Z" fill="#F3F3F3"/>
<path d="M28.5 5.34375C23.9201 5.34375 19.4431 6.70184 15.6351 9.24628C11.8271 11.7907 8.85907 15.4072 7.10643 19.6385C5.35378 23.8697 4.89521 28.5257 5.7887 33.0176C6.68219 37.5094 8.88761 41.6355 12.1261 44.8739C15.3645 48.1124 19.4906 50.3178 23.9825 51.2113C28.4743 52.1048 33.1303 51.6462 37.3615 49.8936C41.5928 48.1409 45.2093 45.1729 47.7537 41.3649C50.2982 37.5569 51.6563 33.0799 51.6563 28.5C51.6445 22.3622 49.201 16.4791 44.861 12.1391C40.5209 7.79897 34.6378 5.35552 28.5 5.34375ZM43.1508 41.5031C41.7089 39.4348 39.8509 37.6905 37.6957 36.382C35.2212 38.7527 31.9268 40.0761 28.5 40.0761C25.0732 40.0761 21.7788 38.7527 19.3043 36.382C17.1491 37.6905 15.2911 39.4348 13.8492 41.5031C11.3416 38.6793 9.70348 35.1911 9.13195 31.4581C8.56041 27.7251 9.07984 23.9065 10.6277 20.4618C12.1756 17.0171 14.686 14.0931 17.8567 12.0417C21.0275 9.99037 24.7235 8.89901 28.5 8.89901C32.2765 8.89901 35.9725 9.99037 39.1433 12.0417C42.314 14.0931 44.8244 17.0171 46.3723 20.4618C47.9202 23.9065 48.4396 27.7251 47.8681 31.4581C47.2965 35.1911 45.6584 38.6793 43.1508 41.5031Z" fill="#F3F3F3"/>
</svg>
