<svg width="220" height="221" viewBox="0 0 220 221" fill="none" xmlns="http://www.w3.org/2000/svg">
<g clip-path="url(#clip0_737_748)">
<path d="M178.456 145.801H124.738C122.551 145.801 120.778 147.574 120.778 149.761V178.892C120.778 181.079 122.551 182.852 124.738 182.852H178.456C180.643 182.852 182.415 181.079 182.415 178.892V149.761C182.415 147.574 180.643 145.801 178.456 145.801Z" fill="white"/>
<path opacity="0.1" d="M178.456 145.801H124.738C122.551 145.801 120.778 147.574 120.778 149.761V178.892C120.778 181.079 122.551 182.852 124.738 182.852H178.456C180.643 182.852 182.415 181.079 182.415 178.892V149.761C182.415 147.574 180.643 145.801 178.456 145.801Z" fill="#94CBB1"/>
<path d="M165.437 165.668H160.681C160.391 165.668 160.156 165.902 160.156 166.192V176.735C160.156 177.024 160.391 177.259 160.681 177.259H165.437C165.727 177.259 165.961 177.024 165.961 176.735V166.192C165.961 165.902 165.727 165.668 165.437 165.668Z" fill="white"/>
<path d="M176.899 156.653H172.143C171.853 156.653 171.619 156.888 171.619 157.177V176.735C171.619 177.024 171.853 177.259 172.143 177.259H176.899C177.189 177.259 177.424 177.024 177.424 176.735V157.177C177.424 156.888 177.189 156.653 176.899 156.653Z" fill="white"/>
<path d="M131.05 165.668H126.294C126.004 165.668 125.77 165.902 125.77 166.192V176.735C125.77 177.024 126.004 177.259 126.294 177.259H131.05C131.34 177.259 131.575 177.024 131.575 176.735V166.192C131.575 165.902 131.34 165.668 131.05 165.668Z" fill="white"/>
<path d="M142.513 152.554H137.756C137.467 152.554 137.232 152.789 137.232 153.078V176.735C137.232 177.024 137.467 177.259 137.756 177.259H142.513C142.802 177.259 143.037 177.024 143.037 176.735V153.078C143.037 152.789 142.802 152.554 142.513 152.554Z" fill="white"/>
<path d="M153.975 163.07H149.218C148.929 163.07 148.694 163.304 148.694 163.594V176.735C148.694 177.024 148.929 177.259 149.218 177.259H153.975C154.264 177.259 154.499 177.024 154.499 176.735V163.594C154.499 163.304 154.264 163.07 153.975 163.07Z" fill="white"/>
<path d="M81.7768 123.14H13.5992C10.8235 123.14 8.57324 125.39 8.57324 128.166V165.139C8.57324 167.915 10.8235 170.165 13.5992 170.165H81.7768C84.5526 170.165 86.8028 167.915 86.8028 165.139V128.166C86.8028 125.39 84.5526 123.14 81.7768 123.14Z" fill="white"/>
<path opacity="0.1" d="M81.7768 123.14H13.5992C10.8235 123.14 8.57324 125.39 8.57324 128.166V165.139C8.57324 167.915 10.8235 170.165 13.5992 170.165H81.7768C84.5526 170.165 86.8028 167.915 86.8028 165.139V128.166C86.8028 125.39 84.5526 123.14 81.7768 123.14Z" fill="#94CBB1"/>
<path d="M65.2542 148.355H59.2173C58.8498 148.355 58.5519 148.653 58.5519 149.02V162.401C58.5519 162.768 58.8498 163.066 59.2173 163.066H65.2542C65.6217 163.066 65.9196 162.768 65.9196 162.401V149.02C65.9196 148.653 65.6217 148.355 65.2542 148.355Z" fill="white"/>
<path d="M79.8019 136.913H73.765C73.3975 136.913 73.0996 137.211 73.0996 137.579V162.401C73.0996 162.768 73.3975 163.066 73.765 163.066H79.8019C80.1694 163.066 80.4673 162.768 80.4673 162.401V137.579C80.4673 137.211 80.1694 136.913 79.8019 136.913Z" fill="white"/>
<path d="M21.6109 148.355H15.574C15.2065 148.355 14.9086 148.653 14.9086 149.02V162.401C14.9086 162.768 15.2065 163.066 15.574 163.066H21.6109C21.9784 163.066 22.2763 162.768 22.2763 162.401V149.02C22.2763 148.653 21.9784 148.355 21.6109 148.355Z" fill="white"/>
<path d="M36.1586 131.711H30.1217C29.7542 131.711 29.4563 132.009 29.4563 132.377V162.401C29.4563 162.768 29.7542 163.066 30.1217 163.066H36.1586C36.5261 163.066 36.824 162.768 36.824 162.401V132.377C36.824 132.009 36.5261 131.711 36.1586 131.711Z" fill="white"/>
<path d="M50.7065 145.057H44.6696C44.3021 145.057 44.0042 145.355 44.0042 145.723V162.401C44.0042 162.768 44.3021 163.066 44.6696 163.066H50.7065C51.074 163.066 51.3719 162.768 51.3719 162.401V145.723C51.3719 145.355 51.074 145.057 50.7065 145.057Z" fill="white"/>
<path d="M211.037 0H132.736C129.548 0 126.963 2.58437 126.963 5.77234V48.2356C126.963 51.4235 129.548 54.0079 132.736 54.0079H211.037C214.225 54.0079 216.809 51.4235 216.809 48.2356V5.77234C216.809 2.58437 214.225 0 211.037 0Z" fill="white"/>
<path opacity="0.1" d="M211.037 0H132.736C129.548 0 126.963 2.58437 126.963 5.77234V48.2356C126.963 51.4235 129.548 54.0079 132.736 54.0079H211.037C214.225 54.0079 216.809 51.4235 216.809 48.2356V5.77234C216.809 2.58437 214.225 0 211.037 0Z" fill="#94CBB1"/>
<path d="M192.061 28.9589H185.128C184.706 28.9589 184.364 29.3011 184.364 29.7231V45.0908C184.364 45.5128 184.706 45.855 185.128 45.855H192.061C192.483 45.855 192.825 45.5128 192.825 45.0908V29.7231C192.825 29.3011 192.483 28.9589 192.061 28.9589Z" fill="white"/>
<path d="M208.769 15.8184H201.836C201.414 15.8184 201.072 16.1606 201.072 16.5826V45.0908C201.072 45.5129 201.414 45.855 201.836 45.855H208.769C209.191 45.855 209.533 45.5129 209.533 45.0908V16.5826C209.533 16.1606 209.191 15.8184 208.769 15.8184Z" fill="white"/>
<path d="M141.937 28.9589H135.004C134.582 28.9589 134.24 29.3011 134.24 29.7231V45.0908C134.24 45.5128 134.582 45.855 135.004 45.855H141.937C142.359 45.855 142.701 45.5128 142.701 45.0908V29.7231C142.701 29.3011 142.359 28.9589 141.937 28.9589Z" fill="white"/>
<path d="M158.645 9.84369H151.712C151.29 9.84369 150.948 10.1858 150.948 10.6079V45.0908C150.948 45.5128 151.29 45.855 151.712 45.855H158.645C159.067 45.855 159.409 45.5128 159.409 45.0908V10.6079C159.409 10.1858 159.067 9.84369 158.645 9.84369Z" fill="white"/>
<path d="M175.353 25.1716H168.42C167.998 25.1716 167.656 25.5137 167.656 25.9358V45.0905C167.656 45.5126 167.998 45.8547 168.42 45.8547H175.353C175.775 45.8547 176.117 45.5126 176.117 45.0905V25.9358C176.117 25.5137 175.775 25.1716 175.353 25.1716Z" fill="white"/>
<path d="M41.0133 44.5772H2.81574C1.26065 44.5772 0 45.8379 0 47.393V68.1077C0 69.6628 1.26065 70.9234 2.81574 70.9234H41.0133C42.5684 70.9234 43.829 69.6628 43.829 68.1077V47.393C43.829 45.8379 42.5684 44.5772 41.0133 44.5772Z" fill="white"/>
<path opacity="0.3" d="M41.0133 44.5772H2.81574C1.26065 44.5772 0 45.8379 0 47.393V68.1077C0 69.6628 1.26065 70.9234 2.81574 70.9234H41.0133C42.5684 70.9234 43.829 69.6628 43.829 68.1077V47.393C43.829 45.8379 42.5684 44.5772 41.0133 44.5772Z" fill="#94CBB1"/>
<path d="M31.7564 58.7039H28.374C28.1682 58.7039 28.0013 58.8708 28.0013 59.0766V66.5736C28.0013 66.7794 28.1682 66.9463 28.374 66.9463H31.7564C31.9622 66.9463 32.1291 66.7794 32.1291 66.5736V59.0766C32.1291 58.8708 31.9622 58.7039 31.7564 58.7039Z" fill="white"/>
<path d="M39.9068 52.2936H36.5245C36.3186 52.2936 36.1517 52.4605 36.1517 52.6664V66.5734C36.1517 66.7792 36.3186 66.9461 36.5245 66.9461H39.9068C40.1127 66.9461 40.2795 66.7792 40.2795 66.5734V52.6664C40.2795 52.4605 40.1127 52.2936 39.9068 52.2936Z" fill="white"/>
<path d="M7.30465 58.7039H3.92228C3.71643 58.7039 3.54956 58.8708 3.54956 59.0766V66.5736C3.54956 66.7794 3.71643 66.9463 3.92228 66.9463H7.30465C7.51049 66.9463 7.67737 66.7794 7.67737 66.5736V59.0766C7.67737 58.8708 7.51049 58.7039 7.30465 58.7039Z" fill="white"/>
<path d="M15.4553 49.3791H12.0729C11.8671 49.3791 11.7002 49.546 11.7002 49.7518V66.5736C11.7002 66.7794 11.8671 66.9463 12.0729 66.9463H15.4553C15.6611 66.9463 15.828 66.7794 15.828 66.5736V49.7518C15.828 49.546 15.6611 49.3791 15.4553 49.3791Z" fill="white"/>
<path d="M23.6057 56.8563H20.2233C20.0175 56.8563 19.8506 57.0232 19.8506 57.229V66.5733C19.8506 66.7792 20.0175 66.946 20.2233 66.946H23.6057C23.8115 66.946 23.9784 66.7792 23.9784 66.5733V57.229C23.9784 57.0232 23.8115 56.8563 23.6057 56.8563Z" fill="white"/>
<path d="M36.4164 137.96L190.692 137.96C194.48 137.96 197.552 134.889 197.552 131.1L197.552 18.1471C197.552 14.3585 194.48 11.2872 190.692 11.2872L36.4164 11.2872C32.6278 11.2872 29.5566 14.3585 29.5566 18.1471L29.5566 131.1C29.5566 134.889 32.6278 137.96 36.4164 137.96Z" fill="white"/>
<path d="M29.3277 131.1V18.1471C29.3298 16.2677 30.0773 14.4659 31.4062 13.1371C32.7351 11.8082 34.5369 11.0607 36.4162 11.0585H190.692C192.571 11.0607 194.373 11.8082 195.702 13.1371C197.031 14.4659 197.778 16.2677 197.78 18.1471V131.1C197.778 132.98 197.031 134.781 195.702 136.11C194.373 137.439 192.571 138.187 190.692 138.189H36.4162C34.5369 138.187 32.7351 137.439 31.4062 136.11C30.0773 134.781 29.3298 132.98 29.3277 131.1ZM36.4162 11.5159C34.6581 11.5179 32.9727 12.2172 31.7295 13.4604C30.4864 14.7035 29.7871 16.389 29.785 18.1471V131.1C29.787 132.858 30.4863 134.544 31.7295 135.787C32.9726 137.03 34.6581 137.73 36.4162 137.732H190.692C192.45 137.73 194.135 137.03 195.379 135.787C196.622 134.544 197.321 132.858 197.323 131.1V18.1471C197.321 16.389 196.622 14.7035 195.378 13.4603C194.135 12.2171 192.45 11.5179 190.692 11.5159H36.4162Z" fill="#292A2E"/>
<path d="M29.5566 18.1464V25.049H197.551V18.1464C197.551 16.327 196.828 14.5822 195.542 13.2957C194.255 12.0092 192.51 11.2865 190.691 11.2865H36.4164C34.5971 11.2865 32.8523 12.0092 31.5658 13.2957C30.2793 14.5822 29.5566 16.327 29.5566 18.1464Z" fill="#292A2E"/>
<path d="M188.475 31.6082H123.016C121.409 31.6082 120.107 32.9107 120.107 34.5174V80.8233C120.107 82.43 121.409 83.7326 123.016 83.7326H188.475C190.081 83.7326 191.384 82.43 191.384 80.8233V34.5174C191.384 32.9107 190.081 31.6082 188.475 31.6082Z" fill="white"/>
<path opacity="0.15" d="M188.475 31.6082H123.016C121.409 31.6082 120.107 32.9107 120.107 34.5174V80.8233C120.107 82.43 121.409 83.7326 123.016 83.7326H188.475C190.081 83.7326 191.384 82.43 191.384 80.8233V34.5174C191.384 32.9107 190.081 31.6082 188.475 31.6082Z" fill="#94CBB1"/>
<path d="M132.901 38.1124H127.243C126.98 38.1124 126.767 38.3255 126.767 38.5883V76.7524C126.767 77.0152 126.98 77.2283 127.243 77.2283H132.901C133.163 77.2283 133.376 77.0152 133.376 76.7524V38.5883C133.376 38.3255 133.163 38.1124 132.901 38.1124Z" fill="#FAFAFA"/>
<path opacity="0.6" d="M126.767 57.2864H133.376V76.7524C133.376 76.8786 133.326 76.9997 133.236 77.0889C133.147 77.1781 133.026 77.2283 132.9 77.2283H127.243C127.117 77.2283 126.996 77.1781 126.907 77.0889C126.818 76.9997 126.767 76.8786 126.767 76.7524V57.2864Z" fill="#94CBB1"/>
<path d="M145.737 38.1124H140.08C139.817 38.1124 139.604 38.3255 139.604 38.5883V76.7524C139.604 77.0152 139.817 77.2283 140.08 77.2283H145.737C146 77.2283 146.213 77.0152 146.213 76.7524V38.5883C146.213 38.3255 146 38.1124 145.737 38.1124Z" fill="#FAFAFA"/>
<path opacity="0.6" d="M139.604 51.8651H146.212V76.7522C146.212 76.8784 146.162 76.9994 146.073 77.0886C145.984 77.1779 145.863 77.228 145.736 77.228H140.08C139.954 77.228 139.833 77.1779 139.743 77.0886C139.654 76.9994 139.604 76.8784 139.604 76.7522V51.8651Z" fill="#94CBB1"/>
<path d="M184.247 38.1124H178.59C178.327 38.1124 178.114 38.3255 178.114 38.5883V76.7524C178.114 77.0152 178.327 77.2283 178.59 77.2283H184.247C184.51 77.2283 184.723 77.0152 184.723 76.7524V38.5883C184.723 38.3255 184.51 38.1124 184.247 38.1124Z" fill="#FAFAFA"/>
<path opacity="0.6" d="M178.114 46.3955H184.722V76.7527C184.722 76.8789 184.672 76.9999 184.583 77.0891C184.494 77.1784 184.373 77.2285 184.247 77.2285H178.59C178.464 77.2285 178.343 77.1784 178.254 77.0891C178.165 76.9999 178.114 76.8789 178.114 76.7527V46.3955H178.114Z" fill="#94CBB1"/>
<path d="M158.574 38.1124H152.917C152.654 38.1124 152.441 38.3255 152.441 38.5883V76.7524C152.441 77.0152 152.654 77.2283 152.917 77.2283H158.574C158.837 77.2283 159.05 77.0152 159.05 76.7524V38.5883C159.05 38.3255 158.837 38.1124 158.574 38.1124Z" fill="#FAFAFA"/>
<path opacity="0.6" d="M152.441 66.0549H159.049V76.7524C159.049 76.8786 158.999 76.9997 158.91 77.0889C158.821 77.1781 158.7 77.2283 158.573 77.2283H152.917C152.79 77.2283 152.669 77.1781 152.58 77.0889C152.491 76.9997 152.441 76.8786 152.441 76.7524V66.0549Z" fill="#94CBB1"/>
<path d="M171.411 38.1124H165.753C165.491 38.1124 165.277 38.3255 165.277 38.5883V76.7524C165.277 77.0152 165.491 77.2283 165.753 77.2283H171.411C171.673 77.2283 171.886 77.0152 171.886 76.7524V38.5883C171.886 38.3255 171.673 38.1124 171.411 38.1124Z" fill="#FAFAFA"/>
<path opacity="0.6" d="M165.277 59.2197H171.885V76.7521C171.885 76.8783 171.835 76.9994 171.746 77.0886C171.657 77.1779 171.535 77.228 171.409 77.228H165.753C165.691 77.228 165.629 77.2157 165.571 77.1918C165.514 77.1679 165.461 77.1328 165.417 77.0886C165.373 77.0444 165.338 76.992 165.314 76.9343C165.29 76.8765 165.277 76.8146 165.277 76.7521V59.2197H165.277Z" fill="#94CBB1"/>
<path opacity="0.15" d="M187.219 88.8347H123.484C121.184 88.8347 119.319 90.6993 119.319 92.9993V127.512C119.319 129.812 121.184 131.676 123.484 131.676H187.219C189.519 131.676 191.384 129.812 191.384 127.512V92.9993C191.384 90.6993 189.519 88.8347 187.219 88.8347Z" fill="#94CBB1"/>
<path d="M162.427 99.5358C163.282 99.5358 163.975 98.8428 163.975 97.9878C163.975 97.1328 163.282 96.4398 162.427 96.4398C161.572 96.4398 160.879 97.1328 160.879 97.9878C160.879 98.8428 161.572 99.5358 162.427 99.5358Z" fill="#94CBB1"/>
<path d="M162.427 107.427C163.282 107.427 163.975 106.734 163.975 105.879C163.975 105.024 163.282 104.331 162.427 104.331C161.572 104.331 160.879 105.024 160.879 105.879C160.879 106.734 161.572 107.427 162.427 107.427Z" fill="#262626"/>
<path d="M162.427 115.319C163.282 115.319 163.975 114.626 163.975 113.771C163.975 112.916 163.282 112.223 162.427 112.223C161.572 112.223 160.879 112.916 160.879 113.771C160.879 114.626 161.572 115.319 162.427 115.319Z" fill="white"/>
<path opacity="0.5" d="M162.427 123.21C163.282 123.21 163.975 122.517 163.975 121.662C163.975 120.807 163.282 120.114 162.427 120.114C161.572 120.114 160.879 120.807 160.879 121.662C160.879 122.517 161.572 123.21 162.427 123.21Z" fill="#94CBB1"/>
<path d="M183.91 97.9872C183.91 98.2194 183.818 98.4422 183.654 98.6064C183.49 98.7707 183.267 98.8629 183.034 98.8629H168.155C167.948 98.8667 167.746 98.7993 167.582 98.6719C167.419 98.5445 167.305 98.365 167.258 98.1632C167.232 98.0358 167.235 97.9043 167.266 97.778C167.297 97.6518 167.356 97.5341 167.438 97.4334C167.52 97.3327 167.624 97.2516 167.741 97.1959C167.859 97.1402 167.987 97.1113 168.117 97.1114H183.034C183.15 97.1114 183.263 97.134 183.37 97.178C183.476 97.222 183.573 97.2865 183.654 97.3678C183.735 97.4492 183.8 97.5457 183.844 97.652C183.888 97.7583 183.91 97.8721 183.91 97.9872Z" fill="white"/>
<path d="M183.91 105.879C183.91 106.111 183.818 106.334 183.654 106.498C183.49 106.662 183.267 106.755 183.034 106.755H168.163C168.042 106.757 167.921 106.734 167.809 106.688C167.696 106.643 167.594 106.575 167.508 106.489C167.422 106.403 167.354 106.301 167.309 106.189C167.263 106.076 167.24 105.956 167.242 105.834C167.253 105.61 167.351 105.399 167.514 105.244C167.677 105.089 167.893 105.003 168.117 105.003H183.034C183.149 105.003 183.263 105.026 183.37 105.07C183.476 105.114 183.572 105.178 183.654 105.26C183.735 105.341 183.8 105.438 183.844 105.544C183.888 105.65 183.91 105.764 183.91 105.879Z" fill="white"/>
<path d="M183.91 113.771C183.91 114.003 183.818 114.226 183.654 114.39C183.49 114.554 183.267 114.647 183.034 114.647H168.027C167.818 114.647 167.618 114.564 167.471 114.416C167.323 114.269 167.24 114.069 167.24 113.86V113.682C167.24 113.473 167.323 113.273 167.471 113.126C167.618 112.978 167.818 112.895 168.027 112.895H183.034C183.149 112.895 183.263 112.918 183.37 112.962C183.476 113.006 183.572 113.07 183.654 113.152C183.735 113.233 183.8 113.329 183.844 113.436C183.888 113.542 183.91 113.656 183.91 113.771Z" fill="white"/>
<path d="M183.91 121.663C183.91 121.895 183.818 122.118 183.654 122.282C183.49 122.446 183.267 122.538 183.034 122.538H168.158C167.951 122.542 167.748 122.475 167.585 122.348C167.421 122.221 167.305 122.041 167.258 121.839C167.232 121.712 167.235 121.58 167.266 121.454C167.297 121.328 167.356 121.21 167.438 121.11C167.52 121.009 167.624 120.928 167.741 120.872C167.858 120.816 167.987 120.787 168.117 120.787H183.034C183.149 120.787 183.263 120.81 183.369 120.854C183.475 120.898 183.572 120.962 183.653 121.044C183.735 121.125 183.799 121.221 183.843 121.327C183.888 121.434 183.91 121.548 183.91 121.663Z" fill="white"/>
<path d="M133.381 109.825C133.382 111.712 133.967 113.553 135.057 115.093C136.147 116.633 137.688 117.798 139.467 118.426L136.965 124.529C133.523 123.232 130.645 120.769 128.833 117.568C127.021 114.367 126.39 110.632 127.049 107.014C127.707 103.395 129.615 100.123 132.439 97.7659C135.263 95.4093 138.824 94.1181 142.502 94.1173V100.706C140.083 100.706 137.764 101.667 136.053 103.377C134.343 105.087 133.382 107.406 133.381 109.825Z" fill="#94CBB1"/>
<path d="M158.211 109.825H151.622C151.622 107.406 150.661 105.086 148.951 103.376C147.241 101.666 144.921 100.705 142.502 100.705V94.1159C146.668 94.1159 150.664 95.771 153.61 98.717C156.556 101.663 158.211 105.659 158.211 109.825Z" fill="#262626"/>
<path d="M158.211 109.825C158.211 113.385 157.002 116.838 154.783 119.621C152.563 122.404 149.465 124.351 145.995 125.144L144.879 118.631C146.814 118.108 148.524 116.962 149.742 115.371C150.961 113.779 151.622 111.83 151.622 109.825H158.211Z" fill="white"/>
<path opacity="0.5" d="M145.995 125.144C142.989 125.825 139.85 125.611 136.965 124.529L139.467 118.426C141.209 119.038 143.095 119.109 144.879 118.632L145.995 125.144Z" fill="#94CBB1"/>
<path opacity="0.15" d="M110.175 31.6082H39.8317C37.5586 31.6082 35.7158 33.4509 35.7158 35.7241V127.56C35.7158 129.833 37.5586 131.676 39.8317 131.676H110.175C112.448 131.676 114.291 129.833 114.291 127.56V35.7241C114.291 33.4509 112.448 31.6082 110.175 31.6082Z" fill="#94CBB1"/>
<path d="M96.2623 70.6627C96.2623 75.2288 94.9083 79.6925 92.3716 83.4891C89.8348 87.2857 86.2291 90.2449 82.0105 91.9923C77.792 93.7397 73.15 94.197 68.6715 93.3062C64.1931 92.4154 60.0794 90.2166 56.8506 86.9879C53.6219 83.7591 51.423 79.6454 50.5322 75.167C49.6414 70.6886 50.0985 66.0466 51.8459 61.828C53.5933 57.6094 56.5524 54.0037 60.349 51.4669C64.1457 48.9301 68.6093 47.576 73.1754 47.576V70.6627H96.2623Z" fill="#FAFAFA"/>
<path opacity="0.6" d="M99.0929 67.6638H76.0072V44.5771C82.13 44.5774 88.0019 47.0098 92.3313 51.3394C96.6607 55.6689 99.0929 61.541 99.0929 67.6638Z" fill="#94CBB1"/>
<path opacity="0.6" d="M49.2359 106.846C50.0909 106.846 50.7839 106.153 50.7839 105.298C50.7839 104.443 50.0909 103.75 49.2359 103.75C48.3809 103.75 47.6879 104.443 47.6879 105.298C47.6879 106.153 48.3809 106.846 49.2359 106.846Z" fill="#94CBB1"/>
<path d="M49.2359 114.738C50.0909 114.738 50.7839 114.045 50.7839 113.19C50.7839 112.335 50.0909 111.642 49.2359 111.642C48.3809 111.642 47.6879 112.335 47.6879 113.19C47.6879 114.045 48.3809 114.738 49.2359 114.738Z" fill="#FAFAFA"/>
<path opacity="0.6" d="M102.274 105.299C102.274 105.531 102.182 105.754 102.018 105.918C101.853 106.082 101.631 106.175 101.398 106.175H54.9632C54.7561 106.178 54.5541 106.111 54.3908 105.983C54.2275 105.856 54.113 105.676 54.0664 105.475C54.0405 105.347 54.0432 105.216 54.0744 105.089C54.1055 104.963 54.1644 104.845 54.2467 104.745C54.3289 104.644 54.4326 104.563 54.55 104.507C54.6675 104.452 54.7959 104.423 54.9259 104.423H101.398C101.513 104.423 101.627 104.445 101.733 104.489C101.84 104.534 101.936 104.598 102.018 104.679C102.099 104.761 102.163 104.857 102.207 104.964C102.251 105.07 102.274 105.184 102.274 105.299Z" fill="#94CBB1"/>
<path d="M102.274 113.189C102.274 113.422 102.182 113.645 102.018 113.809C101.853 113.973 101.631 114.065 101.398 114.065H54.9721C54.8506 114.067 54.73 114.045 54.6175 113.999C54.5049 113.953 54.4026 113.886 54.3166 113.8C54.2307 113.714 54.1628 113.612 54.117 113.499C54.0712 113.387 54.0485 113.266 54.0501 113.145C54.0619 112.92 54.1593 112.709 54.3223 112.554C54.4852 112.4 54.7013 112.314 54.9259 112.314H101.398C101.513 112.314 101.627 112.336 101.733 112.38C101.84 112.424 101.936 112.489 102.018 112.57C102.099 112.652 102.163 112.748 102.207 112.854C102.251 112.961 102.274 113.074 102.274 113.189Z" fill="white"/>
<path d="M29.0069 195.977C28.9822 195.977 28.9578 195.972 28.935 195.963C28.9122 195.953 28.8915 195.939 28.8741 195.922C28.609 195.657 28.1776 190.798 27.0148 176.331C26.539 170.412 26.0894 164.82 25.7615 161.423C25.7387 161.18 25.644 161.152 25.6131 161.142C25.1643 161.007 23.7989 162.084 23.0368 163.026C23.0213 163.046 23.0021 163.062 22.9804 163.073C22.9587 163.085 22.9349 163.093 22.9104 163.095C22.8858 163.098 22.861 163.095 22.8373 163.088C22.8136 163.081 22.7915 163.07 22.7723 163.054C22.7531 163.039 22.7372 163.02 22.7254 162.998C22.7136 162.976 22.7062 162.953 22.7036 162.928C22.701 162.903 22.7032 162.879 22.7102 162.855C22.7172 162.831 22.7288 162.809 22.7443 162.79C23.2474 162.167 24.8912 160.533 25.7213 160.782C25.8461 160.825 25.9538 160.907 26.0285 161.016C26.1031 161.125 26.1408 161.255 26.1358 161.386C26.464 164.787 26.9133 170.38 27.3896 176.301C28.0962 185.092 28.8965 195.051 29.1597 195.679C29.1797 195.707 29.1915 195.74 29.194 195.775C29.1965 195.809 29.1895 195.843 29.1737 195.874C29.1579 195.905 29.134 195.931 29.1046 195.949C29.0752 195.967 29.0414 195.976 29.0069 195.976V195.977Z" fill="#494949"/>
<path d="M25.2791 167.658C28.3982 165.158 29.432 161.266 27.5882 158.966C25.7443 156.666 21.7211 156.828 18.602 159.328C15.4829 161.828 14.4491 165.72 16.2929 168.02C18.1367 170.32 22.16 170.158 25.2791 167.658Z" fill="#0CBC8B"/>
<path opacity="0.2" d="M25.2791 167.658C28.3982 165.158 29.432 161.266 27.5882 158.966C25.7443 156.666 21.7211 156.828 18.602 159.328C15.4829 161.828 14.4491 165.72 16.2929 168.02C18.1367 170.32 22.16 170.158 25.2791 167.658Z" fill="white"/>
<path d="M17.1668 168.605C17.149 168.605 17.1316 168.6 17.1165 168.59C17.1015 168.581 17.0895 168.567 17.0819 168.551C17.0743 168.535 17.0715 168.517 17.0737 168.499C17.076 168.481 17.0832 168.465 17.0946 168.451L25.9838 157.731C25.9997 157.712 26.0226 157.7 26.0474 157.698C26.0723 157.695 26.097 157.703 26.1162 157.719C26.1354 157.735 26.1475 157.758 26.1498 157.783C26.1521 157.807 26.1445 157.832 26.1285 157.851L17.2393 168.571C17.2305 168.582 17.2194 168.59 17.2069 168.596C17.1943 168.602 17.1807 168.605 17.1668 168.605Z" fill="white"/>
<path d="M30.9458 193.679C30.9158 193.679 30.8863 193.671 30.8597 193.658C30.8331 193.644 30.8101 193.624 30.7928 193.6C30.7754 193.575 30.7642 193.547 30.7599 193.517C30.7556 193.488 30.7585 193.457 30.7683 193.429L34.1068 183.826C34.205 183.544 34.3725 183.291 34.5939 183.09C34.8153 182.89 35.0835 182.748 35.374 182.678C35.6645 182.608 35.9679 182.611 36.2565 182.689C36.5451 182.767 36.8095 182.916 37.0257 183.122L38.7909 184.808C38.8259 184.843 38.8459 184.89 38.8465 184.939C38.8472 184.988 38.8285 185.036 38.7944 185.072C38.7604 185.107 38.7137 185.128 38.6645 185.13C38.6153 185.131 38.5674 185.113 38.5312 185.08L36.7659 183.394C36.5953 183.231 36.3865 183.113 36.1587 183.052C35.9309 182.991 35.6913 182.988 35.462 183.043C35.2327 183.098 35.0209 183.21 34.8461 183.369C34.6713 183.527 34.5392 183.727 34.4617 183.95L31.1232 193.554C31.1102 193.59 31.0862 193.622 31.0544 193.644C31.0226 193.667 30.9847 193.679 30.9458 193.679Z" fill="#494949"/>
<path d="M43.7226 190.124C46.0342 188.295 45.8968 184.271 43.4158 181.136C40.9348 178.002 37.0497 176.944 34.7381 178.774C32.4266 180.603 32.564 184.628 35.045 187.762C37.526 190.896 41.4111 191.954 43.7226 190.124Z" fill="#0CBC8B"/>
<path d="M27.49 195.364C27.4477 195.364 27.4067 195.35 27.3735 195.324C27.3403 195.298 27.3169 195.261 27.307 195.22L21.7048 171.791C21.6666 171.631 21.5851 171.485 21.4692 171.369C21.3533 171.252 21.2076 171.17 21.048 171.131C20.8884 171.092 20.7212 171.098 20.5647 171.148C20.4083 171.198 20.2686 171.29 20.1611 171.414L18.4338 173.41C18.4179 173.43 18.3983 173.446 18.3761 173.458C18.3538 173.469 18.3295 173.477 18.3045 173.479C18.2794 173.481 18.2542 173.478 18.2303 173.47C18.2065 173.462 18.1843 173.45 18.1653 173.434C18.1463 173.417 18.1308 173.397 18.1197 173.375C18.1086 173.352 18.1021 173.327 18.1007 173.302C18.0992 173.277 18.1028 173.252 18.1112 173.229C18.1196 173.205 18.1326 173.183 18.1496 173.165L19.8769 171.168C20.0297 170.992 20.2281 170.861 20.4505 170.79C20.6728 170.719 20.9104 170.711 21.1371 170.766C21.3638 170.822 21.5709 170.938 21.7356 171.104C21.9002 171.269 22.0161 171.477 22.0704 171.704L27.6727 195.133C27.6784 195.157 27.6794 195.182 27.6755 195.206C27.6716 195.23 27.663 195.254 27.6501 195.275C27.6372 195.296 27.6202 195.314 27.6003 195.329C27.5803 195.343 27.5576 195.353 27.5336 195.359C27.5194 195.363 27.5047 195.364 27.49 195.364Z" fill="#494949"/>
<path d="M25.4224 178.616C26.1036 174.677 24.3009 171.077 21.396 170.575C18.491 170.072 15.584 172.858 14.9028 176.797C14.2216 180.736 16.0243 184.337 18.9293 184.839C21.8342 185.341 24.7413 182.555 25.4224 178.616Z" fill="#0CBC8B"/>
<path d="M29.0072 195.977C28.9995 195.977 28.9919 195.976 28.9843 195.975C28.9348 195.969 28.8898 195.944 28.8591 195.905C28.8284 195.865 28.8146 195.815 28.8206 195.766L32.3987 166.714C32.4377 166.398 32.5672 166.099 32.7717 165.855C32.9763 165.61 33.2471 165.43 33.5517 165.335C33.8563 165.241 34.1817 165.237 34.4887 165.323C34.7957 165.409 35.0713 165.582 35.2823 165.821L39.3722 170.453C39.3885 170.471 39.4011 170.493 39.4091 170.516C39.4171 170.54 39.4205 170.564 39.419 170.589C39.4175 170.614 39.4111 170.638 39.4003 170.66C39.3894 170.682 39.3743 170.702 39.3558 170.718C39.3373 170.735 39.3158 170.747 39.2925 170.755C39.2691 170.763 39.2444 170.767 39.2198 170.765C39.1951 170.764 39.171 170.757 39.1489 170.746C39.1267 170.735 39.1068 170.72 39.0905 170.702L35.0006 166.07C34.8375 165.885 34.6246 165.751 34.3873 165.685C34.15 165.618 33.8986 165.622 33.6632 165.695C33.4278 165.767 33.2184 165.907 33.0603 166.096C32.9022 166.285 32.802 166.515 32.7719 166.76L29.1935 195.812C29.188 195.857 29.1659 195.899 29.1316 195.93C29.0973 195.96 29.053 195.977 29.0072 195.977Z" fill="#494949"/>
<path d="M43.5664 173.027C44.9933 170.447 43.3144 166.788 39.8164 164.853C36.3184 162.918 32.3259 163.441 30.899 166.02C29.4721 168.6 31.151 172.26 34.649 174.195C38.147 176.129 42.1394 175.607 43.5664 173.027Z" fill="#0CBC8B"/>
<path opacity="0.2" d="M43.7226 190.124C46.0342 188.295 45.8968 184.271 43.4158 181.136C40.9348 178.002 37.0497 176.944 34.7381 178.774C32.4266 180.603 32.564 184.628 35.045 187.762C37.526 190.896 41.4111 191.954 43.7226 190.124Z" fill="white"/>
<path opacity="0.5" d="M25.4224 178.616C26.1036 174.677 24.3009 171.077 21.396 170.575C18.491 170.072 15.584 172.858 14.9028 176.797C14.2216 180.736 16.0243 184.337 18.9293 184.839C21.8342 185.341 24.7413 182.555 25.4224 178.616Z" fill="white"/>
<path opacity="0.5" d="M43.5664 173.027C44.9933 170.447 43.3144 166.788 39.8164 164.853C36.3184 162.918 32.3259 163.441 30.899 166.02C29.4721 168.6 31.151 172.26 34.649 174.195C38.147 176.129 42.1394 175.607 43.5664 173.027Z" fill="white"/>
<path d="M33.5836 220.627H24.4303L22.9136 191.341H35.1003L33.5836 220.627Z" fill="#292A2E"/>
<path opacity="0.3" d="M33.5836 220.627H24.4303L22.9136 191.341H35.1003L33.5836 220.627Z" fill="white"/>
<path d="M43.7236 190.218C43.7094 190.218 43.6953 190.215 43.6825 190.208C43.6697 190.202 43.6585 190.193 43.6497 190.182L34.6651 178.831C34.6575 178.822 34.6518 178.811 34.6484 178.799C34.645 178.787 34.644 178.775 34.6454 178.762C34.6468 178.75 34.6506 178.738 34.6566 178.727C34.6626 178.717 34.6707 178.707 34.6803 178.699C34.69 178.692 34.7011 178.686 34.713 178.683C34.7248 178.679 34.7373 178.678 34.7495 178.68C34.7618 178.681 34.7736 178.685 34.7844 178.691C34.7952 178.697 34.8047 178.705 34.8124 178.715L43.7972 190.065C43.8126 190.085 43.8197 190.11 43.8167 190.135C43.8138 190.159 43.8012 190.182 43.7817 190.197C43.7652 190.211 43.7447 190.218 43.7236 190.218Z" fill="white"/>
<path d="M42.969 173.937C42.9491 173.937 42.9298 173.93 42.9137 173.918L31.4166 165.523C31.4062 165.516 31.3974 165.507 31.3906 165.497C31.3838 165.486 31.3793 165.474 31.3771 165.462C31.375 165.449 31.3754 165.437 31.3783 165.424C31.3811 165.412 31.3864 165.401 31.3938 165.391C31.4012 165.38 31.4106 165.372 31.4214 165.365C31.4321 165.359 31.4441 165.355 31.4565 165.353C31.469 165.351 31.4816 165.352 31.4938 165.355C31.5059 165.358 31.5173 165.364 31.5272 165.372L43.0246 173.767C43.0406 173.778 43.0525 173.795 43.0586 173.814C43.0647 173.833 43.0647 173.853 43.0585 173.872C43.0523 173.891 43.0404 173.907 43.0243 173.919C43.0082 173.93 42.9889 173.937 42.969 173.937Z" fill="white"/>
<path d="M18.463 184.716C18.4548 184.716 18.4465 184.715 18.4386 184.713C18.4146 184.706 18.3942 184.691 18.3818 184.669C18.3693 184.648 18.3658 184.623 18.372 184.599L22.032 170.886C22.0386 170.862 22.0543 170.842 22.0756 170.829C22.097 170.817 22.1223 170.813 22.1463 170.819C22.1703 170.826 22.1907 170.841 22.2032 170.863C22.2157 170.884 22.2191 170.91 22.2129 170.933L18.5536 184.646C18.5483 184.666 18.5365 184.684 18.5202 184.697C18.5038 184.709 18.4837 184.716 18.463 184.716Z" fill="white"/>
<path d="M65.3458 210.366C65.3458 210.366 66.3782 215.718 71.3882 216.017C76.3982 216.316 75.3123 220.307 75.3123 220.307H56.165V210.739L65.3458 210.366Z" fill="#94CBB1"/>
<path d="M54.8665 112.743C54.8665 112.743 56.2984 111.135 56.2858 114.784C56.2385 128.396 55.32 213.782 55.32 213.782L67.9023 213.676L75.5243 112.19L54.8665 112.743Z" fill="#262626"/>
<path d="M86.8312 210.366C86.8312 210.366 87.8636 215.718 92.8742 216.016C97.8849 216.314 96.7983 220.306 96.7983 220.306H77.6504V210.739L86.8312 210.366Z" fill="#94CBB1"/>
<path d="M89.2648 113.8C89.2648 113.8 90.8366 160.323 90.6734 162.597L89.1953 213.428L76.8208 213.657L74.8255 160.758C74.8255 160.758 73.5176 146.166 69.9918 132.615C68.188 125.661 67.1024 118.54 66.7521 111.364L89.2648 113.8Z" fill="#262626"/>
<path d="M72.9402 146.785L73.9719 131.005C73.9719 131.005 75.0318 137.565 75.0318 143.22C75.0318 145.984 74.4626 156.926 74.4626 156.926L72.9402 146.785Z" fill="#0A0A0A"/>
<path d="M54.7298 112.742L54.6886 112.744C54.6886 112.744 54.7188 111.951 54.7298 112.742Z" fill="#333333"/>
<path d="M54.7815 112.742L54.7403 112.744C54.7403 112.744 54.77 111.951 54.7815 112.742Z" fill="#333333"/>
<path d="M123.729 74.9812C123.653 74.8311 123.533 74.7082 123.384 74.6295C123.236 74.5509 123.066 74.5202 122.899 74.5419C122.901 74.5272 122.898 74.5123 122.89 74.4994C122.882 74.4894 122.872 74.4817 122.861 74.4769C122.849 74.4721 122.836 74.4705 122.823 74.4722L123.386 74.0688C123.555 73.9536 123.676 73.7813 123.727 73.5837C123.778 73.3861 123.756 73.1767 123.665 72.9941C123.569 72.8167 123.411 72.6812 123.22 72.6139C123.03 72.5467 122.822 72.5525 122.636 72.6303C122.637 72.6223 122.632 72.6148 122.631 72.6075L122.862 72.4419C123.02 72.3326 123.136 72.1721 123.189 71.9874C123.242 71.8028 123.23 71.6053 123.155 71.4285C123.105 71.3186 123.032 71.2212 122.94 71.1431C122.848 71.065 122.74 71.0083 122.624 70.977C122.508 70.9457 122.386 70.9406 122.267 70.9621C122.148 70.9836 122.036 71.0311 121.938 71.1013L121.405 71.4838C121.403 71.4806 121.405 71.477 121.403 71.474C121.401 71.471 121.395 71.4699 121.392 71.4667C121.514 71.3288 121.586 71.1535 121.596 70.9693C121.606 70.7852 121.552 70.6032 121.445 70.4532C121.194 70.048 120.612 70.131 120.267 70.3782L117.127 72.5471L117.688 71.6023C117.801 71.4204 117.841 71.2025 117.799 70.9925C117.758 70.7825 117.638 70.596 117.465 70.4706C117.373 70.4091 117.269 70.367 117.161 70.3469C117.052 70.3267 116.94 70.3289 116.832 70.3533C116.725 70.3777 116.623 70.4238 116.533 70.4889C116.444 70.5539 116.369 70.6365 116.312 70.7315L113.248 75.8906C112.889 76.4958 112.779 77.2174 112.943 77.902C113.107 78.5866 113.532 79.1803 114.127 79.557C114.816 79.9937 115.621 80.2146 116.437 80.1912C117.253 80.1677 118.044 79.9011 118.707 79.4255L123.449 76.0264C123.607 75.9092 123.72 75.7422 123.771 75.5525C123.822 75.3628 123.807 75.1615 123.729 74.9812Z" fill="#F2E4DE"/>
<g opacity="0.25">
<path d="M118.297 73.6271C118.309 73.643 118.326 73.6537 118.345 73.657C118.365 73.6603 118.385 73.6559 118.401 73.6447L121.384 71.5782C121.392 71.5726 121.399 71.5655 121.405 71.5572C121.41 71.5489 121.414 71.5396 121.415 71.5299C121.417 71.5202 121.417 71.5103 121.415 71.5006C121.413 71.491 121.409 71.4819 121.403 71.4737C121.398 71.4656 121.391 71.4587 121.382 71.4534C121.374 71.448 121.365 71.4444 121.355 71.4426C121.345 71.4409 121.335 71.441 121.326 71.4431C121.316 71.4452 121.307 71.4491 121.299 71.4548L118.315 73.5212C118.299 73.5325 118.288 73.5499 118.284 73.5695C118.281 73.5891 118.285 73.6093 118.296 73.6257L118.297 73.6271Z" fill="#0C0C0C"/>
</g>
<g opacity="0.25">
<path d="M119.172 74.9682C119.184 74.984 119.201 74.9948 119.221 74.998C119.24 75.0013 119.26 74.9968 119.276 74.9856L122.606 72.6795C122.622 72.6681 122.633 72.6507 122.637 72.6311C122.64 72.6115 122.636 72.5914 122.624 72.575C122.613 72.5592 122.595 72.5484 122.576 72.5449C122.556 72.5414 122.536 72.5453 122.52 72.556L119.19 74.8621C119.174 74.8735 119.163 74.8909 119.159 74.9105C119.156 74.9302 119.16 74.9504 119.171 74.9668L119.172 74.9682Z" fill="#0C0C0C"/>
</g>
<g opacity="0.25">
<path d="M120.112 76.4259C120.123 76.4417 120.141 76.4524 120.16 76.4557C120.179 76.459 120.199 76.4546 120.215 76.4435L122.871 74.6039C122.888 74.5925 122.899 74.5752 122.902 74.5556C122.906 74.536 122.902 74.5158 122.89 74.4994C122.879 74.483 122.862 74.4718 122.842 74.4683C122.822 74.4647 122.802 74.4691 122.786 74.4804L120.13 76.32C120.113 76.3314 120.102 76.3487 120.099 76.3683C120.095 76.3879 120.099 76.4081 120.111 76.4245L120.112 76.4259Z" fill="#0C0C0C"/>
</g>
<path d="M111.44 74.7155L102.441 90.0432L91.4591 75.6393L82.3389 83.8613L97.913 104.032L98.015 104.175C98.6384 105.029 99.469 105.71 100.428 106.154C101.388 106.598 102.444 106.791 103.499 106.714C104.553 106.637 105.571 106.292 106.455 105.713C107.34 105.134 108.062 104.339 108.555 103.404L121.352 80.2281L111.44 74.7155Z" fill="#94CBB1"/>
<path d="M101.558 91.8864C101.538 91.8864 101.519 91.8814 101.502 91.8719C101.485 91.8623 101.47 91.8485 101.46 91.8318C101.45 91.8151 101.444 91.796 101.443 91.7764C101.443 91.7568 101.447 91.7374 101.456 91.7199L102.338 89.991C102.352 89.964 102.376 89.9437 102.405 89.9343C102.434 89.925 102.465 89.9276 102.492 89.9414C102.519 89.9552 102.54 89.9792 102.549 90.0081C102.558 90.0369 102.556 90.0683 102.542 90.0953L101.66 91.824C101.65 91.8428 101.636 91.8585 101.618 91.8695C101.6 91.8805 101.579 91.8864 101.558 91.8864Z" fill="#0C0C0C"/>
<path d="M90.8251 89.9557L90.5504 94.7969L90.7786 94.8098L91.0534 89.9686L90.8251 89.9557Z" fill="#0C0C0C"/>
<path d="M61.8256 54.9193C61.8256 54.9193 61.404 60.308 60.1681 62.2505C56.6099 67.8426 55.5246 74.1676 58.9841 77.5185C62.4435 80.8693 84.7533 81.175 86.5316 73.5788C88.0287 67.1848 84.9831 66.4604 84.3013 61.1625C83.9928 58.7657 83.1262 53.7376 83.1262 53.7376" fill="#0A0A0A"/>
<path d="M80.8522 72.3649C80.8137 72.3598 80.3861 79.4513 72.1479 78.8333C66.4446 78.4059 64.4109 72.3548 64.2803 72.3548C64.8952 72.2242 65.9308 72.0347 66.2038 71.8883C67.1018 71.4059 68.2131 70.9037 68.5026 69.1597C68.6695 68.1536 68.3864 63.0119 68.4735 61.9948L77.2281 63.949C77.1058 66.0968 76.2496 71.0764 79.2504 71.9578C79.7498 72.1035 80.2876 72.2375 80.8522 72.3649Z" fill="#F2E4DE"/>
<path opacity="0.52" d="M77.3509 69.9227C77.2137 69.4808 77.1253 69.0252 77.0874 68.564C76.9911 67.5116 77.0103 66.4519 77.1446 65.4037C75.3652 65.1635 73.6889 64.429 72.3061 63.2838C72.1435 63.8842 71.2495 66.5079 71.4971 67.0779C71.9649 68.1565 74.1638 69.9227 77.3509 69.9227Z" fill="#0C0C0C"/>
<path d="M76.1902 67.6908C72.7351 67.9846 68.2854 66.5525 67.4137 61.9457L66.6269 57.7888C65.755 53.182 67.4679 48.9894 71.8056 48.1685C76.1431 47.3476 80.0921 50.4687 80.964 55.0755L81.3122 56.9158C81.647 58.6833 82.3554 67.1662 76.1902 67.6908Z" fill="#F2E4DE"/>
<path d="M80.076 57.1163C80.3764 57.1163 80.6198 56.8729 80.6198 56.5726C80.6198 56.2723 80.3764 56.0288 80.076 56.0288C79.7757 56.0288 79.5323 56.2723 79.5323 56.5726C79.5323 56.8729 79.7757 57.1163 80.076 57.1163Z" fill="#0C0C0C"/>
<path d="M74.5056 57.8606C74.8059 57.8606 75.0494 57.6171 75.0494 57.3168C75.0494 57.0165 74.8059 56.7731 74.5056 56.7731C74.2053 56.7731 73.9619 57.0165 73.9619 57.3168C73.9619 57.6171 74.2053 57.8606 74.5056 57.8606Z" fill="#0C0C0C"/>
<path opacity="0.52" d="M77.5622 61.3042L77.5706 61.3029C77.7464 61.2684 77.92 61.2242 78.0908 61.1705C78.3458 61.0884 78.6799 60.9528 78.6364 60.7223C78.5868 60.4598 77.3317 57.7636 77.1888 57.4572C77.1827 57.4439 77.174 57.4318 77.1632 57.4218C77.1525 57.4118 77.1398 57.404 77.126 57.3989C77.1122 57.3938 77.0976 57.3915 77.0829 57.3921C77.0682 57.3927 77.0538 57.3962 77.0404 57.4024C77.0271 57.4086 77.0151 57.4174 77.0052 57.4283C76.9953 57.4391 76.9876 57.4518 76.9827 57.4657C76.9777 57.4795 76.9755 57.4942 76.9762 57.5089C76.9769 57.5235 76.9805 57.5379 76.9869 57.5512C77.5222 58.6996 78.384 60.5869 78.4174 60.7637C78.3888 60.8458 77.9653 61.0013 77.5293 61.0838C77.5006 61.0888 77.4751 61.1048 77.4581 61.1284C77.4411 61.152 77.434 61.1812 77.4383 61.21C77.4426 61.2387 77.4579 61.2646 77.4811 61.2822C77.5042 61.2998 77.5333 61.3076 77.5622 61.304V61.3042Z" fill="#0C0C0C"/>
<path opacity="0.52" d="M76.9203 63.292C77.6278 63.2002 78.3039 62.9433 78.8939 62.5422C78.9186 62.5261 78.9359 62.5008 78.942 62.4719C78.9481 62.443 78.9425 62.4128 78.9264 62.3881C78.9102 62.3633 78.8849 62.346 78.856 62.3399C78.8271 62.3338 78.797 62.3395 78.7722 62.3556C77.4954 63.1875 76.2265 63.3222 75.1031 62.7443C75.0804 62.732 75.057 62.7209 75.0332 62.7109C75.0054 62.7009 74.9747 62.7023 74.9479 62.7149C74.9212 62.7274 74.9005 62.7501 74.8905 62.7779C74.8804 62.8057 74.8819 62.8364 74.8944 62.8632C74.907 62.8899 74.9297 62.9106 74.9575 62.9206C74.9662 62.9243 74.9803 62.9321 75.0011 62.9435C75.5919 63.248 76.2602 63.3694 76.9203 63.292Z" fill="#0C0C0C"/>
<path d="M63.1565 59.2374L67.0451 58.5246C69.9898 57.3328 70.8804 52.235 70.8804 52.235C70.8804 52.235 74.4574 55.7215 83.1257 53.7385C83.1257 53.7385 81.3879 41.6496 68.5815 45.1637C64.4521 46.2972 61.4884 50.4583 61.8577 56.0196C62.1167 59.9181 63.1565 59.2374 63.1565 59.2374Z" fill="#0A0A0A"/>
<path d="M67.9487 63.2981C66.6307 63.5476 65.2951 62.3396 65.0447 61.0214C64.7943 59.7031 65.7264 58.7741 67.0446 58.5246L67.8907 59.2792L69.0811 63.0837L67.9487 63.2981Z" fill="#F2E4DE"/>
<path d="M77.9836 55.2529C78.368 55.0045 78.8122 54.8642 79.2696 54.8468C79.4947 54.8367 79.7201 54.8605 79.9382 54.9175C80.1542 54.9729 80.3623 55.0553 80.5576 55.1628C80.5852 55.1764 80.6062 55.2003 80.6163 55.2293C80.6263 55.2583 80.6244 55.2901 80.6111 55.3178C80.5977 55.3454 80.574 55.3667 80.5451 55.377C80.5161 55.3872 80.4843 55.3856 80.4566 55.3725L80.4483 55.3686C80.2677 55.2799 80.0766 55.2142 79.8796 55.1731C79.685 55.1314 79.4852 55.1193 79.287 55.1375C78.8937 55.1703 78.5161 55.3068 78.1926 55.5328L78.1821 55.5406C78.1635 55.5541 78.1424 55.5638 78.1201 55.5692C78.0977 55.5746 78.0745 55.5755 78.0518 55.5719C78.0291 55.5683 78.0074 55.5603 77.9878 55.5483C77.9682 55.5363 77.9511 55.5205 77.9376 55.5019C77.9241 55.4834 77.9144 55.4623 77.909 55.4399C77.9037 55.4176 77.9027 55.3944 77.9063 55.3717C77.9099 55.349 77.9179 55.3272 77.9299 55.3076C77.9419 55.2881 77.9577 55.271 77.9763 55.2575L77.9836 55.2529Z" fill="#0C0C0C"/>
<path d="M74.5157 56.0693C74.1324 55.9753 73.731 55.9845 73.3525 56.096C73.161 56.1508 72.9789 56.2341 72.8124 56.3432C72.6436 56.4531 72.4893 56.5836 72.353 56.7319L72.3468 56.7381C72.3255 56.7595 72.2967 56.7717 72.2665 56.7723C72.2363 56.7728 72.2071 56.7616 72.185 56.741C72.1629 56.7204 72.1497 56.6921 72.1482 56.6619C72.1466 56.6317 72.1568 56.6022 72.1767 56.5794C72.32 56.4085 72.4843 56.2565 72.6658 56.1269C72.8484 55.9949 73.0499 55.8912 73.2635 55.8193C73.6964 55.6705 74.1613 55.6408 74.6097 55.7334C74.6551 55.7431 74.6949 55.7706 74.7201 55.8096C74.7454 55.8487 74.7541 55.8962 74.7443 55.9417C74.7346 55.9872 74.7071 56.0269 74.6681 56.0522C74.629 56.0774 74.5815 56.0861 74.536 56.0764L74.5289 56.0745L74.5157 56.0693Z" fill="#0C0C0C"/>
<path opacity="0.52" d="M77.0708 64.3381C77.1989 64.3235 77.3256 64.298 77.4494 64.262C77.4778 64.2538 77.5018 64.2347 77.5162 64.2089C77.5305 64.183 77.5339 64.1525 77.5258 64.1241C77.5176 64.0957 77.4985 64.0717 77.4727 64.0573C77.4468 64.043 77.4163 64.0396 77.3879 64.0477C76.6422 64.2624 76.2183 63.9791 76.2007 63.9659C76.1764 63.9489 76.1464 63.9422 76.1173 63.9474C76.0881 63.9525 76.0622 63.969 76.0452 63.9933C76.0282 64.0176 76.0216 64.0476 76.0267 64.0767C76.0319 64.1059 76.0484 64.1318 76.0726 64.1488C76.3735 64.3254 76.7262 64.3923 77.0708 64.3381Z" fill="#0C0C0C"/>
<path d="M67.054 58.4752L67.0153 58.3675C71.9418 56.5991 70.737 51.7645 70.7244 51.7157L70.8349 51.6867C70.8479 51.7363 72.0802 56.6709 67.054 58.4752Z" fill="#0C0C0C"/>
<path opacity="0.1" d="M74.0487 61.6245C74.6173 61.5633 75.0419 61.1755 74.997 60.7584C74.9521 60.3413 74.4547 60.0527 73.8861 60.114C73.3174 60.1752 72.8928 60.5629 72.9377 60.9801C72.9827 61.3972 73.48 61.6857 74.0487 61.6245Z" fill="#0C0C0C"/>
<path opacity="0.1" d="M80.0873 60.0466C80.133 60.4632 80.6306 60.7514 81.1995 60.691C81.2978 60.6803 81.3947 60.6594 81.4888 60.6288C81.5208 60.133 81.5279 59.6561 81.5185 59.2141C81.3613 59.1728 81.1977 59.1613 81.0362 59.1802C80.4673 59.2404 80.0429 59.6282 80.0873 60.0466Z" fill="#0C0C0C"/>
<path d="M91.0877 87.9772C90.8282 91.0257 89.566 110.045 89.3165 113.8H56.3041C56.1098 110.414 53.8657 95.6044 53.1292 88.9817C52.426 82.6619 51.0465 79.4979 52.0576 77.6296C53.71 74.576 58.2251 72.8114 61.3038 72.3946C63.1839 72.1403 66.0113 71.9578 66.0113 71.9578C66.0113 71.9578 66.2507 76.8009 71.9595 77.0705C79.7305 77.4363 79.2117 71.9578 79.2501 71.9578C80.5091 71.9578 87.701 72.7547 89.4606 73.7976C94.2545 76.6369 91.6386 81.5179 91.0877 87.9772Z" fill="#94CBB1"/>
<path d="M112.516 90.1069L109.334 105.573C109.269 105.887 109.099 106.17 108.852 106.374C108.605 106.578 108.295 106.691 107.974 106.694L86.0624 106.88C85.8534 106.882 85.6466 106.837 85.4572 106.748C85.2678 106.66 85.1006 106.53 84.9679 106.369C84.8351 106.207 84.7401 106.018 84.6899 105.815C84.6397 105.612 84.6355 105.401 84.6776 105.196L87.8597 89.7294C87.9244 89.4154 88.0947 89.133 88.3424 88.9293C88.5901 88.7257 88.9 88.6131 89.2207 88.6103L111.132 88.4237C111.341 88.4222 111.548 88.4673 111.737 88.5558C111.926 88.6443 112.093 88.774 112.226 88.9353C112.358 89.0966 112.453 89.2856 112.503 89.4883C112.554 89.691 112.558 89.9023 112.516 90.1069Z" fill="#292A2E"/>
<path d="M92.0837 101.093C92.0954 101.297 92.0331 101.498 91.9083 101.659C91.7835 101.82 91.6046 101.931 91.4046 101.971L90.73 102.12C90.7421 102.124 90.753 102.131 90.7618 102.14C90.7705 102.149 90.7769 102.16 90.7804 102.172C90.782 102.187 90.7788 102.201 90.7712 102.213C90.9334 102.259 91.0773 102.354 91.183 102.485C91.2887 102.616 91.351 102.777 91.3612 102.945C91.3621 103.141 91.297 103.332 91.1762 103.486C91.0555 103.64 90.8862 103.75 90.6958 103.796L84.9998 105.06C84.7086 105.126 84.411 105.159 84.1126 105.159C83.4477 105.159 82.7929 104.997 82.2045 104.687C81.6162 104.378 81.1119 103.93 80.7352 103.382C80.3358 102.802 80.1782 102.09 80.2961 101.396C80.414 100.702 80.7979 100.081 81.3663 99.6662L86.2117 96.1242C86.3183 96.0462 86.4423 95.9952 86.573 95.9756L86.1271 98.141L86.246 98.1136L86.2711 98.109L89.9869 97.3521C90.4008 97.2607 90.9679 97.4116 91.041 97.8826C91.0802 98.063 91.0573 98.2513 90.9759 98.4169C90.8946 98.5826 90.7596 98.7158 90.5929 98.795C90.5951 98.7973 90.5997 98.7996 90.5997 98.8041C90.5997 98.8087 90.5974 98.811 90.5974 98.8156L91.24 98.6738C91.3575 98.6477 91.4794 98.6481 91.5968 98.6748C91.7142 98.7015 91.8242 98.7539 91.919 98.8283C92.0137 98.9026 92.0907 98.9971 92.1445 99.1048C92.1983 99.2125 92.2275 99.3309 92.2301 99.4513C92.23 99.6435 92.1635 99.8297 92.0419 99.9785C91.9202 100.127 91.7508 100.229 91.5624 100.268L91.2857 100.329C91.2834 100.338 91.2857 100.348 91.2811 100.354C91.4827 100.356 91.6766 100.432 91.8249 100.569C91.9733 100.705 92.0655 100.892 92.0837 101.093Z" fill="#F2E4DE"/>
<g opacity="0.25">
<path d="M86.8986 99.5663C86.903 99.5854 86.9147 99.6021 86.9312 99.6127C86.9477 99.6233 86.9676 99.627 86.9868 99.623L90.5421 98.8938C90.5517 98.8918 90.5609 98.888 90.5691 98.8824C90.5772 98.8769 90.5842 98.8698 90.5896 98.8616C90.5951 98.8534 90.5988 98.8442 90.6007 98.8345C90.6025 98.8248 90.6025 98.8148 90.6005 98.8052C90.5985 98.7955 90.5947 98.7864 90.5891 98.7782C90.5836 98.77 90.5765 98.7631 90.5683 98.7576C90.5601 98.7522 90.5509 98.7485 90.5412 98.7466C90.5315 98.7447 90.5216 98.7448 90.5119 98.7468L86.9567 99.4757C86.9371 99.4798 86.92 99.4914 86.909 99.508C86.8981 99.5246 86.8941 99.5449 86.8981 99.5645L86.8986 99.5663Z" fill="#0C0C0C"/>
</g>
<g opacity="0.25">
<path d="M87.1769 101.143C87.1813 101.162 87.193 101.179 87.2095 101.189C87.226 101.2 87.2459 101.204 87.2651 101.2L91.2329 100.386C91.2524 100.382 91.2695 100.371 91.2804 100.354C91.2914 100.337 91.2953 100.317 91.2914 100.298C91.2868 100.278 91.275 100.262 91.2586 100.251C91.2421 100.24 91.2221 100.236 91.2027 100.239L87.2345 101.053C87.2248 101.055 87.2157 101.059 87.2075 101.064C87.1993 101.07 87.1923 101.077 87.1869 101.085C87.1815 101.093 87.1777 101.102 87.1758 101.112C87.1739 101.122 87.174 101.132 87.176 101.141L87.1769 101.143Z" fill="#0C0C0C"/>
</g>
<g opacity="0.25">
<path d="M87.4684 102.852C87.4728 102.871 87.4845 102.888 87.501 102.898C87.5175 102.909 87.5375 102.913 87.5567 102.909L90.7216 102.26C90.7312 102.258 90.7404 102.254 90.7486 102.248C90.7567 102.243 90.7637 102.236 90.7691 102.227C90.7746 102.219 90.7783 102.21 90.7802 102.2C90.782 102.191 90.782 102.181 90.78 102.171C90.778 102.161 90.7742 102.152 90.7686 102.144C90.7631 102.136 90.756 102.129 90.7478 102.123C90.7396 102.118 90.7304 102.114 90.7207 102.112C90.711 102.111 90.7011 102.111 90.6914 102.113L87.5265 102.762C87.507 102.766 87.4898 102.777 87.4789 102.794C87.4679 102.81 87.464 102.831 87.4679 102.85L87.4684 102.852Z" fill="#0C0C0C"/>
</g>
<path d="M84.6472 107.314L53.7447 112.899C52.7805 113.003 51.8051 112.883 50.8951 112.548C49.985 112.212 49.1651 111.671 48.4997 110.965C47.8342 110.259 47.3412 109.409 47.0594 108.481C46.7777 107.553 46.7148 106.572 46.8757 105.616L51.2006 79.9013C51.3368 79.0878 51.632 78.3091 52.0693 77.6097C52.5066 76.9103 53.0774 76.304 53.7492 75.8254C54.4209 75.3467 55.1804 75.0051 55.9842 74.8201C56.7881 74.6351 57.6205 74.6103 58.4339 74.7472C59.2473 74.884 60.0257 75.1798 60.7248 75.6176C61.4238 76.0555 62.0297 76.6268 62.5078 77.2989C62.986 77.971 63.327 78.7308 63.5114 79.5347C63.6957 80.3387 63.7199 81.1711 63.5824 81.9844L60.6327 99.6863L83.2887 96.841L84.6472 107.314Z" fill="#94CBB1"/>
<path d="M53.7445 113.013C53.7159 113.013 53.6884 113.002 53.6674 112.983C53.6464 112.964 53.6333 112.937 53.6308 112.909C53.6283 112.88 53.6365 112.852 53.6538 112.829C53.6711 112.807 53.6963 112.791 53.7243 112.786L84.5198 107.221L83.1899 96.9686L60.6468 99.7997C60.6292 99.802 60.6112 99.8002 60.5944 99.7943C60.5776 99.7883 60.5624 99.7785 60.5501 99.7656C60.5378 99.7528 60.5286 99.7372 60.5233 99.7202C60.518 99.7031 60.5168 99.6851 60.5197 99.6675L62.3947 88.3538C62.397 88.3389 62.4023 88.3246 62.4102 88.3118C62.4181 88.299 62.4284 88.2879 62.4407 88.2791C62.4529 88.2704 62.4668 88.2641 62.4815 88.2608C62.4962 88.2575 62.5114 88.2572 62.5262 88.2598C62.541 88.2623 62.5552 88.2676 62.568 88.2755C62.5807 88.2835 62.5918 88.2938 62.6006 88.306C62.6093 88.3182 62.6156 88.3321 62.619 88.3467C62.6224 88.3613 62.6229 88.3765 62.6204 88.3913L60.7701 99.5537L83.2741 96.7274C83.3041 96.7236 83.3344 96.7319 83.3583 96.7504C83.3822 96.7689 83.3978 96.7962 83.4017 96.8262L84.7604 107.299C84.7641 107.328 84.7566 107.357 84.7393 107.381C84.7219 107.405 84.6962 107.421 84.6673 107.426L53.765 113.011C53.7582 113.012 53.7514 113.013 53.7445 113.013Z" fill="#0C0C0C"/>
<path d="M60.6151 99.5736L58.6273 99.8918L58.6634 100.118L60.6513 99.7996L60.6151 99.5736Z" fill="#0C0C0C"/>
<path d="M214.685 126.508H147.057C144.248 126.508 141.971 128.785 141.971 131.594V154.749C141.971 157.559 144.248 159.836 147.057 159.836H214.685C217.494 159.836 219.771 157.559 219.771 154.749V131.594C219.771 128.785 217.494 126.508 214.685 126.508Z" fill="white"/>
<path opacity="0.4" d="M214.685 126.508H147.057C144.248 126.508 141.971 128.785 141.971 131.594V154.749C141.971 157.559 144.248 159.836 147.057 159.836H214.685C217.494 159.836 219.771 157.559 219.771 154.749V131.594C219.771 128.785 217.494 126.508 214.685 126.508Z" fill="#94CBB1"/>
<path d="M214.685 160.063H147.057C145.648 160.062 144.297 159.501 143.301 158.505C142.304 157.508 141.744 156.157 141.742 154.748V131.595C141.744 130.186 142.304 128.835 143.301 127.838C144.297 126.842 145.648 126.282 147.057 126.28H214.685C216.094 126.282 217.445 126.842 218.441 127.838C219.438 128.835 219.998 130.186 220 131.595V154.749C219.998 156.158 219.438 157.509 218.441 158.505C217.445 159.501 216.094 160.062 214.685 160.063ZM147.057 126.736C145.769 126.738 144.534 127.25 143.624 128.161C142.713 129.072 142.201 130.307 142.2 131.595V154.749C142.201 156.037 142.714 157.271 143.624 158.182C144.535 159.092 145.77 159.605 147.057 159.606H214.685C215.973 159.605 217.208 159.092 218.118 158.182C219.029 157.271 219.541 156.036 219.543 154.748V131.595C219.541 130.307 219.029 129.072 218.118 128.162C217.208 127.251 215.973 126.739 214.685 126.737L147.057 126.736Z" fill="#292A2E"/>
<path d="M148.947 152.734C148.886 152.734 148.825 152.718 148.772 152.686C148.719 152.655 148.676 152.61 148.646 152.556C148.617 152.502 148.602 152.441 148.605 152.379C148.607 152.318 148.626 152.258 148.659 152.206C148.733 152.092 156.207 140.663 168.085 140.663C174.291 140.663 178.052 143.058 181.688 145.374C185.055 147.518 188.234 149.543 193.154 149.543C203.214 149.543 211.318 134.933 211.398 134.786C211.442 134.706 211.515 134.647 211.603 134.621C211.69 134.596 211.784 134.606 211.864 134.649C211.944 134.693 212.003 134.767 212.028 134.854C212.054 134.941 212.044 135.035 212 135.115C211.663 135.732 203.617 150.23 193.154 150.23C188.034 150.23 184.773 148.152 181.32 145.954C177.766 143.69 174.091 141.35 168.085 141.35C156.587 141.35 149.309 152.465 149.236 152.577C149.205 152.625 149.162 152.665 149.112 152.693C149.061 152.72 149.005 152.735 148.947 152.734Z" fill="white"/>
<path d="M211.795 136.293C212.537 136.293 213.138 135.692 213.138 134.951C213.138 134.21 212.537 133.609 211.795 133.609C211.054 133.609 210.453 134.21 210.453 134.951C210.453 135.692 211.054 136.293 211.795 136.293Z" fill="white"/>
</g>
<defs>
<clipPath id="clip0_737_748">
<rect width="220" height="220.627" fill="white"/>
</clipPath>
</defs>
</svg>
