<svg width="24" height="23" viewBox="0 0 24 23" fill="none" xmlns="http://www.w3.org/2000/svg">
<path d="M19.799 9.34375H9.61652L19.4543 6.66641C19.5438 6.64105 19.6274 6.5978 19.7003 6.53918C19.7731 6.48055 19.8337 6.40774 19.8785 6.325C19.9265 6.24507 19.9576 6.15586 19.9698 6.06304C19.9819 5.97023 19.975 5.87585 19.9492 5.78594L19.2156 3.00977C19.1695 2.82721 19.088 2.65582 18.976 2.50561C18.864 2.35539 18.7237 2.22935 18.5632 2.13485C18.4028 2.04034 18.2254 1.97926 18.0415 1.95517C17.8576 1.93108 17.6708 1.94446 17.492 1.99453L3.82702 5.71406C3.64707 5.76199 3.47828 5.84574 3.33043 5.96047C3.18257 6.07521 3.0586 6.21863 2.96569 6.38243C2.87278 6.54624 2.81279 6.72716 2.78919 6.91471C2.76559 7.10226 2.77885 7.2927 2.82822 7.475L3.53533 10.1613V17.9688C3.53533 18.35 3.68433 18.7156 3.94955 18.9852C4.21477 19.2548 4.57448 19.4062 4.94956 19.4062H19.0919C19.4669 19.4062 19.8267 19.2548 20.0919 18.9852C20.3571 18.7156 20.5061 18.35 20.5061 17.9688V10.0625C20.5061 9.87188 20.4316 9.68906 20.299 9.55427C20.1664 9.41948 19.9865 9.34375 19.799 9.34375ZM15.6712 6.2082L9.5193 7.8793L6.92949 6.35195L13.0725 4.68086L15.6712 6.2082ZM19.0919 17.9688H4.94956V10.7812H19.0919V17.9688Z" fill="black"/>
</svg>
