<svg width="24" height="23" viewBox="0 0 24 23" fill="none" xmlns="http://www.w3.org/2000/svg">
<path d="M11.42 14.1863C12.3687 13.5457 13.0894 12.6117 13.4752 11.5224C13.8611 10.4332 13.8917 9.24659 13.5626 8.13827C13.2334 7.02995 12.5619 6.0588 11.6476 5.36852C10.7332 4.67824 9.62447 4.30553 8.48549 4.30553C7.34651 4.30553 6.23779 4.67824 5.32342 5.36852C4.40904 6.0588 3.73758 7.02995 3.40842 8.13827C3.07926 9.24659 3.10988 10.4332 3.49575 11.5224C3.88162 12.6117 4.60224 13.5457 5.55096 14.1863C3.93252 14.7913 2.53518 15.8855 1.54692 17.3219C1.46972 17.4284 1.42378 17.555 1.41439 17.6869C1.40501 17.8189 1.43257 17.9509 1.49388 18.0676C1.55448 18.1835 1.6448 18.2806 1.75528 18.3487C1.86576 18.4167 1.99229 18.453 2.12145 18.4539H14.8495C14.9787 18.453 15.1052 18.4167 15.2157 18.3487C15.3262 18.2806 15.4165 18.1835 15.4771 18.0676C15.5384 17.9509 15.566 17.8189 15.5566 17.6869C15.5472 17.555 15.5013 17.4284 15.4241 17.3219C14.4358 15.8855 13.0385 14.7913 11.42 14.1863Z" fill="black"/>
<path d="M22.6362 17.3219C21.6423 15.8873 20.2428 14.7937 18.6233 14.1863C19.5751 13.5482 20.2987 12.6148 20.6866 11.525C21.0745 10.4352 21.1059 9.24721 20.7762 8.13781C20.4464 7.02841 19.7732 6.05683 18.8566 5.3676C17.94 4.67838 16.829 4.30833 15.6888 4.3125C15.2022 4.31512 14.7179 4.38155 14.2481 4.51015C14.1377 4.54385 14.0368 4.60381 13.9538 4.68506C13.8708 4.76631 13.808 4.86651 13.7707 4.97734C13.7352 5.08727 13.7262 5.2043 13.7447 5.31848C13.7632 5.43267 13.8085 5.54063 13.8768 5.6332C14.6762 6.72496 15.1355 8.03513 15.1953 9.39472C15.2552 10.7543 14.9129 12.101 14.2127 13.2609C14.1229 13.4151 14.0922 13.5975 14.1264 13.7732C14.1607 13.9489 14.2575 14.1056 14.3983 14.2133C14.6635 14.4229 14.9198 14.6385 15.1673 14.8602L15.2115 14.9051C16.155 15.7925 16.9204 16.8573 17.4654 18.0406C17.5214 18.1643 17.6111 18.269 17.7239 18.3423C17.8368 18.4155 17.9679 18.4543 18.1018 18.4539H22.0528C22.182 18.453 22.3085 18.4167 22.419 18.3487C22.5295 18.2806 22.6198 18.1835 22.6804 18.0676C22.741 17.9511 22.7689 17.8199 22.7611 17.6884C22.7533 17.5569 22.7101 17.4301 22.6362 17.3219Z" fill="black"/>
</svg>
