<svg width="27" height="23" viewBox="0 0 27 23" fill="none" xmlns="http://www.w3.org/2000/svg">
<path d="M21.5654 2.87499V20.125C21.5654 20.3156 21.4797 20.4984 21.3271 20.6332C21.1745 20.768 20.9675 20.8437 20.7516 20.8437C20.5358 20.8437 20.3288 20.768 20.1762 20.6332C20.0236 20.4984 19.9378 20.3156 19.9378 20.125V15.0937H15.055C14.9398 15.0927 14.8261 15.0706 14.7211 15.0289C14.616 14.9871 14.5219 14.9266 14.4447 14.8512C14.3689 14.7758 14.3118 14.6874 14.2767 14.5915C14.2417 14.4956 14.2296 14.3944 14.2412 14.2941C14.4933 12.4947 14.8945 10.714 15.4416 8.9664C16.6623 5.15702 18.3611 2.87499 20.477 2.20116C20.5995 2.16012 20.7316 2.14618 20.8617 2.16055C20.9917 2.17492 21.1158 2.21717 21.2232 2.28362C21.3305 2.35006 21.4178 2.43869 21.4775 2.54176C21.5371 2.64484 21.5673 2.75924 21.5654 2.87499ZM13.0103 7.07069L12.1965 2.7582C12.1792 2.66499 12.1412 2.57571 12.0848 2.49547C12.0283 2.41523 11.9545 2.34559 11.8676 2.29052C11.7807 2.23546 11.6824 2.19606 11.5783 2.17456C11.4741 2.15306 11.3662 2.14989 11.2607 2.16523C11.0475 2.1962 10.857 2.30069 10.7311 2.4557C10.6052 2.61071 10.5542 2.80355 10.5893 2.99179L11.2505 6.46874H9.35839V2.87499C9.35839 2.68437 9.27265 2.50155 9.12004 2.36676C8.96742 2.23197 8.76042 2.15624 8.54459 2.15624C8.32876 2.15624 8.12176 2.23197 7.96914 2.36676C7.81653 2.50155 7.73079 2.68437 7.73079 2.87499V6.46874H5.83869L6.49991 2.99179C6.51728 2.89858 6.51368 2.80327 6.48934 2.71128C6.465 2.6193 6.42038 2.53245 6.35804 2.4557C6.2957 2.37895 6.21685 2.31379 6.12599 2.26395C6.03514 2.21411 5.93406 2.18056 5.82852 2.16523C5.72299 2.14989 5.61507 2.15306 5.51092 2.17456C5.40677 2.19606 5.30844 2.23546 5.22154 2.29052C5.13463 2.34559 5.06086 2.41523 5.00443 2.49547C4.948 2.57571 4.91001 2.66499 4.89265 2.7582L4.07884 7.07069C4.06958 7.10905 4.06616 7.14833 4.06867 7.18749C4.06985 8.11129 4.43649 9.00569 5.10519 9.71604C5.77389 10.4264 6.70261 10.908 7.73079 11.0777V20.125C7.73079 20.3156 7.81653 20.4984 7.96914 20.6332C8.12176 20.768 8.32876 20.8437 8.54459 20.8437C8.76042 20.8437 8.96742 20.768 9.12004 20.6332C9.27265 20.4984 9.35839 20.3156 9.35839 20.125V11.0777C10.3866 10.908 11.3153 10.4264 11.984 9.71604C12.6527 9.00569 13.0193 8.11129 13.0205 7.18749C13.0221 7.15132 13.0187 7.11511 13.0103 7.07968V7.07069Z" fill="black"/>
</svg>
