<svg width="24" height="23" viewBox="0 0 24 23" fill="none" xmlns="http://www.w3.org/2000/svg">
<path d="M19.7994 6.46876H16.7058C17.1511 5.89706 17.3661 5.1747 17.3072 4.44793C17.2484 3.72116 16.9199 3.04429 16.3885 2.55439C15.8571 2.06448 15.1624 1.79813 14.4451 1.80929C13.7277 1.82044 13.0414 2.10826 12.5249 2.61446C12.3166 2.8288 12.1462 3.07802 12.0211 3.35118C11.896 3.07802 11.7256 2.8288 11.5173 2.61446C11.0009 2.10826 10.3145 1.82044 9.59716 1.80929C8.87982 1.79813 8.18511 2.06448 7.65369 2.55439C7.12228 3.04429 6.79388 3.72116 6.73498 4.44793C6.67609 5.1747 6.89109 5.89706 7.33648 6.46876H4.24284C3.86777 6.46876 3.50805 6.62021 3.24283 6.88979C2.97761 7.15938 2.82861 7.52501 2.82861 7.90626V10.7813C2.82861 11.1625 2.97761 11.5281 3.24283 11.7977C3.50805 12.0673 3.86777 12.2188 4.24284 12.2188V17.9688C4.24284 18.35 4.39184 18.7156 4.65706 18.9852C4.92228 19.2548 5.282 19.4063 5.65708 19.4063H18.3852C18.7602 19.4063 19.1199 19.2548 19.3852 18.9852C19.6504 18.7156 19.7994 18.35 19.7994 17.9688V12.2188C20.1745 12.2188 20.5342 12.0673 20.7994 11.7977C21.0646 11.5281 21.2136 11.1625 21.2136 10.7813V7.90626C21.2136 7.52501 21.0646 7.15938 20.7994 6.88979C20.5342 6.62021 20.1745 6.46876 19.7994 6.46876ZM13.5237 3.6297C13.6524 3.48539 13.8085 3.36915 13.9827 3.28804C14.1569 3.20693 14.3454 3.16264 14.5369 3.15784C14.7285 3.15305 14.9189 3.18786 15.0968 3.26016C15.2747 3.33246 15.4363 3.44074 15.5718 3.57844C15.7072 3.71614 15.8138 3.88037 15.8849 4.06119C15.956 4.242 15.9903 4.43562 15.9856 4.63029C15.9808 4.82496 15.9373 5.01663 15.8575 5.19367C15.7777 5.3707 15.6633 5.52941 15.5213 5.66016C15.0882 6.10938 13.8243 6.35196 12.7547 6.4418C12.8431 5.3547 13.0818 4.06993 13.5237 3.6297ZM8.52089 3.6297C8.78714 3.36304 9.14591 3.21356 9.51969 3.21356C9.89347 3.21356 10.2522 3.36304 10.5185 3.6297C10.9604 4.06993 11.1991 5.3547 11.2875 6.4418C10.218 6.35196 8.954 6.10938 8.52089 5.66016C8.25855 5.38954 8.11149 5.02486 8.11149 4.64493C8.11149 4.265 8.25855 3.90032 8.52089 3.6297ZM19.7994 10.7813H12.7282V17.25C12.7282 17.4406 12.6537 17.6234 12.5211 17.7582C12.3885 17.893 12.2087 17.9688 12.0211 17.9688C11.8336 17.9688 11.6537 17.893 11.5211 17.7582C11.3885 17.6234 11.314 17.4406 11.314 17.25V10.7813H4.24284V7.90626H11.314V10.7813H12.7282V7.90626H19.7994V10.7813Z" fill="black"/>
</svg>
