<svg width="24" height="23" viewBox="0 0 24 23" fill="none" xmlns="http://www.w3.org/2000/svg">
<path d="M16.9706 8.05V7.54688C16.9706 5.2918 13.6295 3.59375 9.19233 3.59375C4.75518 3.59375 1.41406 5.2918 1.41406 7.54688V11.1406C1.41406 13.0184 3.72987 14.5098 7.07099 14.959V15.4531C7.07099 17.7082 10.4121 19.4062 14.8493 19.4062C19.2864 19.4062 22.6275 17.7082 22.6275 15.4531V11.8594C22.6275 9.99961 20.3824 8.5082 16.9706 8.05ZM7.07099 13.4945V11.3652C7.77446 11.4571 8.48308 11.5021 9.19233 11.5C9.90158 11.5021 10.6102 11.4571 11.3137 11.3652V13.4945C10.6119 13.6057 9.90255 13.6598 9.19233 13.6562C8.48211 13.6598 7.77275 13.6057 7.07099 13.4945ZM15.5564 9.87383V11.1406C15.5564 11.8953 14.4603 12.7039 12.7279 13.198V11.0957C13.8681 10.8172 14.8316 10.3949 15.5564 9.87383ZM2.82829 11.1406V9.87383C3.55309 10.3949 4.51653 10.8172 5.65676 11.0957V13.198C3.92432 12.7039 2.82829 11.8953 2.82829 11.1406ZM8.48522 15.4531V15.0758L9.19233 15.0938C9.54 15.0938 9.87588 15.0848 10.2 15.0668C10.5535 15.1926 10.9248 15.3004 11.3137 15.3992V17.5105C9.58125 17.0164 8.48522 16.2078 8.48522 15.4531ZM12.7279 17.807V15.6687C13.4313 15.7625 14.1399 15.8106 14.8493 15.8125C15.5585 15.8146 16.2671 15.7696 16.9706 15.6777V17.807C15.5643 18.0227 14.1342 18.0227 12.7279 17.807ZM18.3848 17.5105V15.4082C19.5251 15.1297 20.4885 14.7074 21.2133 14.1863V15.4531C21.2133 16.2078 20.1173 17.0164 18.3848 17.5105Z" fill="black"/>
</svg>
