<svg width="24" height="23" viewBox="0 0 24 23" fill="none" xmlns="http://www.w3.org/2000/svg">
<path d="M12.021 2.15625C10.173 2.15625 8.36646 2.70425 6.82989 3.73096C5.29332 4.75766 4.09571 6.21695 3.3885 7.9243C2.68129 9.63165 2.49626 11.5104 2.85679 13.3229C3.21732 15.1354 4.10722 16.8003 5.41397 18.107C6.72072 19.4138 8.38562 20.3037 10.1981 20.6642C12.0106 21.0247 13.8894 20.8397 15.5967 20.1325C17.304 19.4253 18.7633 18.2277 19.79 16.6911C20.8167 15.1545 21.3648 13.348 21.3648 11.5C21.36 9.02334 20.374 6.64948 18.6228 4.89822C16.8715 3.14695 14.4977 2.161 12.021 2.15625ZM13.0991 15.8125H12.7398V16.5313C12.7398 16.7219 12.664 16.9047 12.5292 17.0395C12.3944 17.1743 12.2116 17.25 12.021 17.25C11.8304 17.25 11.6476 17.1743 11.5128 17.0395C11.378 16.9047 11.3023 16.7219 11.3023 16.5313V15.8125H9.86475C9.67413 15.8125 9.49131 15.7368 9.35652 15.602C9.22173 15.4672 9.146 15.2844 9.146 15.0938C9.146 14.9031 9.22173 14.7203 9.35652 14.5855C9.49131 14.4507 9.67413 14.375 9.86475 14.375H13.0991C13.3851 14.375 13.6593 14.2614 13.8615 14.0592C14.0637 13.857 14.1773 13.5828 14.1773 13.2969C14.1773 13.0109 14.0637 12.7367 13.8615 12.5345C13.6593 12.3323 13.3851 12.2188 13.0991 12.2188H10.9429C10.2757 12.2188 9.63583 11.9537 9.16406 11.4819C8.69229 11.0102 8.42725 10.3703 8.42725 9.70313C8.42725 9.03594 8.69229 8.39608 9.16406 7.92431C9.63583 7.45254 10.2757 7.1875 10.9429 7.1875H11.3023V6.46875C11.3023 6.27813 11.378 6.09531 11.5128 5.96052C11.6476 5.82573 11.8304 5.75 12.021 5.75C12.2116 5.75 12.3944 5.82573 12.5292 5.96052C12.664 6.09531 12.7398 6.27813 12.7398 6.46875V7.1875H14.1773C14.3679 7.1875 14.5507 7.26323 14.6855 7.39802C14.8203 7.53281 14.896 7.71563 14.896 7.90625C14.896 8.09687 14.8203 8.27969 14.6855 8.41448C14.5507 8.54928 14.3679 8.625 14.1773 8.625H10.9429C10.6569 8.625 10.3827 8.73859 10.1805 8.94078C9.97834 9.14296 9.86475 9.41719 9.86475 9.70313C9.86475 9.98906 9.97834 10.2633 10.1805 10.4655C10.3827 10.6677 10.6569 10.7813 10.9429 10.7813H13.0991C13.7663 10.7813 14.4062 11.0463 14.8779 11.5181C15.3497 11.9898 15.6148 12.6297 15.6148 13.2969C15.6148 13.9641 15.3497 14.6039 14.8779 15.0757C14.4062 15.5475 13.7663 15.8125 13.0991 15.8125Z" fill="black"/>
</svg>
