<svg width="24" height="23" viewBox="0 0 24 23" fill="none" xmlns="http://www.w3.org/2000/svg">
<path d="M9.19242 19.4062C9.19242 19.6906 9.10947 19.9685 8.95408 20.2049C8.79868 20.4413 8.57781 20.6255 8.31939 20.7343C8.06097 20.8431 7.77662 20.8716 7.50228 20.8161C7.22795 20.7607 6.97596 20.6238 6.77817 20.4227C6.58039 20.2217 6.4457 19.9655 6.39113 19.6867C6.33656 19.4078 6.36457 19.1188 6.47161 18.8561C6.57865 18.5935 6.75991 18.369 6.99248 18.211C7.22505 18.0531 7.49848 17.9688 7.77819 17.9688C8.15326 17.9688 8.51298 18.1202 8.7782 18.3898C9.04342 18.6594 9.19242 19.025 9.19242 19.4062ZM16.9707 17.9688C16.691 17.9688 16.4176 18.0531 16.185 18.211C15.9524 18.369 15.7711 18.5935 15.6641 18.8561C15.5571 19.1188 15.5291 19.4078 15.5836 19.6867C15.6382 19.9655 15.7729 20.2217 15.9707 20.4227C16.1685 20.6238 16.4205 20.7607 16.6948 20.8161C16.9691 20.8716 17.2535 20.8431 17.5119 20.7343C17.7703 20.6255 17.9912 20.4413 18.1466 20.2049C18.302 19.9685 18.3849 19.6906 18.3849 19.4062C18.3849 19.025 18.2359 18.6594 17.9707 18.3898C17.7055 18.1202 17.3458 17.9688 16.9707 17.9688ZM20.8687 6.0375C20.8023 5.94874 20.7168 5.87666 20.6187 5.82682C20.5207 5.77697 20.4126 5.75069 20.303 5.75H4.97624L4.26029 3.19844C4.17444 2.89867 3.99547 2.63518 3.75013 2.44734C3.50479 2.2595 3.20624 2.15738 2.89909 2.15625H1.41415C1.22661 2.15625 1.04675 2.23198 0.914141 2.36677C0.781531 2.50156 0.707031 2.68438 0.707031 2.875C0.707031 3.06562 0.781531 3.24844 0.914141 3.38323C1.04675 3.51802 1.22661 3.59375 1.41415 3.59375H2.89909L3.76531 6.65742V6.67539L6.09879 14.968C6.22692 15.418 6.4952 15.8136 6.86336 16.0955C7.23151 16.3774 7.67967 16.5303 8.14058 16.5312H16.6083C17.0692 16.5303 17.5174 16.3774 17.8855 16.0955C18.2537 15.8136 18.522 15.418 18.6501 14.968L20.9836 6.66641C21.0135 6.55968 21.0187 6.44735 20.9987 6.33824C20.9788 6.22913 20.9343 6.1262 20.8687 6.0375Z" fill="black"/>
</svg>
