<svg width="24" height="23" viewBox="0 0 24 23" fill="none" xmlns="http://www.w3.org/2000/svg">
<path d="M19.7108 7.74453L17.0768 10.2602L19.7462 17.7262C19.7919 17.8551 19.8004 17.9947 19.7706 18.1284C19.7409 18.2622 19.6741 18.3844 19.5782 18.4809L17.4569 20.6371C17.3826 20.7107 17.2937 20.7672 17.1961 20.8028C17.0985 20.8385 16.9945 20.8524 16.8912 20.8437C16.7885 20.8321 16.6895 20.7979 16.601 20.7436C16.5125 20.6893 16.4366 20.6162 16.3785 20.5293L12.6131 14.932L10.9514 16.4863V18.3281C10.9492 18.5204 10.873 18.7042 10.7393 18.8402L8.9715 20.6371C8.90641 20.7029 8.82919 20.7551 8.74425 20.7905C8.65932 20.826 8.56834 20.8441 8.47652 20.8437L8.31742 20.8258C8.19988 20.7988 8.09109 20.7417 8.00137 20.6599C7.91164 20.5781 7.84397 20.4744 7.80476 20.3586L6.66453 16.9355L3.2969 15.7766C3.18295 15.7367 3.08091 15.6679 3.00047 15.5767C2.92003 15.4855 2.86385 15.3749 2.83727 15.2555C2.81162 15.1363 2.81513 15.0125 2.8475 14.895C2.87986 14.7776 2.94008 14.67 3.02289 14.5816L4.79068 12.7848C4.92539 12.6513 5.10637 12.577 5.2945 12.5781H7.12416L8.77704 10.8891L3.12896 7.0707C3.04474 7.00827 2.97389 6.92909 2.9207 6.83796C2.86752 6.74684 2.83312 6.64568 2.81959 6.54062C2.80973 6.43412 2.82281 6.3267 2.85792 6.22586C2.89303 6.12501 2.94932 6.03314 3.02289 5.95664L5.14424 3.80039C5.23945 3.7035 5.36021 3.63668 5.49196 3.60798C5.6237 3.57929 5.76079 3.58994 5.88671 3.63867L13.2319 6.35195L15.583 3.81836C15.6077 3.78128 15.6375 3.748 15.6714 3.71953C16.1899 3.20654 16.882 2.915 17.6055 2.90489C18.3289 2.89478 19.0287 3.16686 19.5608 3.66516C20.093 4.16347 20.417 4.8501 20.4663 5.58383C20.5155 6.31756 20.2863 7.04258 19.8257 7.60976C19.7945 7.66049 19.7558 7.70595 19.7108 7.74453Z" fill="black"/>
</svg>
